<svg xmlns="http://www.w3.org/2000/svg" width="1600" height="917" viewBox="0 0 94 54" shape-rendering="geometricPrecision" text-rendering="geometricPrecision" image-rendering="optimizeQuality" fill-rule="evenodd" clip-rule="evenodd"><path d="M92 19c-5-2-10-5-15-5-7 0-10-5-13-8-3-2-3-7-8-6-4 1-9 1-11 3-3 3-5 3-8 3-5-1-10-1-15-3-4 0-8-1-11 1-3 1-5 2-3 5 2 2 1 4-1 5s-3 3-4 4c-4 6-4 12 1 12 6 1 12 3 19-1 4-4 10-1 13 4 1 2 3 4 4 7-6-1-6 4-8 7 6 2 9-2 12-5 1-2 3-4 5-2 2 3 6 2 9 3 0 0 0 1-1 1-1 1-3 1-3 3 2 1 5 1 5 4v1c-1 1 1 2 2 2 4-3 9-4 14-7-1 0-2-1-3 0-2 0-4 0-5-3s2-4 3-4c7-1 13-6 20-8 5-2 1-7 3-10 1-1 1-3-1-3z" fill="#fff"/></svg>