<svg xmlns="http://www.w3.org/2000/svg" viewBox="0 0 370 370" width="512" height="512"><path d="M314.834 50.23C280.024 20.045 233.915 3.423 185 3.423c-48.915 0-95.024 16.622-129.834 46.807C19.593 81.077 0 122.317 0 166.351c0 43.132 19.228 84.073 53.263 114.441-15.777 27.354-42.246 53.008-42.551 53.302a18.88 18.88 0 0 0-4.108 21.4 18.88 18.88 0 0 0 18.816 11.013c3.169-.273 76.435-6.887 140.011-38.139 6.518.605 13.079.912 19.57.912 48.915 0 95.024-16.623 129.834-46.807C350.407 251.624 370 210.385 370 166.351c0-44.034-19.593-85.274-55.166-116.121zM90.611 185c-15.741 0-28.551-12.808-28.551-28.551 0-15.742 12.81-28.55 28.551-28.55 15.744 0 28.551 12.808 28.551 28.55 0 15.743-12.807 28.551-28.551 28.551zM185 185c-15.742 0-28.551-12.808-28.551-28.551 0-15.742 12.809-28.55 28.551-28.55s28.551 12.808 28.551 28.55C213.551 172.192 200.742 185 185 185zm94.389 0c-15.744 0-28.551-12.808-28.551-28.551 0-15.742 12.807-28.55 28.551-28.55 15.741 0 28.551 12.808 28.551 28.55 0 15.743-12.81 28.551-28.551 28.551z" fill="#FFF"/></svg>