<svg xmlns="http://www.w3.org/2000/svg" width="1817" height="1473" viewBox="0 0 327 265" shape-rendering="geometricPrecision" text-rendering="geometricPrecision" image-rendering="optimizeQuality" fill-rule="evenodd" clip-rule="evenodd"><defs><style>.fil1{fill:#008dd2}</style></defs><g id="Слой_x0020_1"><g id="_815294528"><path d="M130 0c69 0 126 38 130 86 40 12 67 39 67 70-1 23-14 44-36 56v49c0 2-2 4-4 4s-3 0-4-1l-42-34c-7 1-14 2-22 2-45 0-85-20-101-50-5-1-10-1-15-2l-51 42c-2 1-5 1-7-1-1 0-2-2-2-3v-59C16 142 0 117 0 91 0 41 58 0 130 0zm89 223c8 0 16-1 23-2 1 0 3 0 4 1l36 29v-41c0-1 0-3 2-4 21-12 33-31 33-50 0-26-23-50-57-61 0 4-1 8-2 12-5 17-16 33-32 45-1 0-34 29-97 30 16 25 51 41 90 41zM51 153c1 1 2 2 2 4v51l45-36c1-1 2-1 4-1h1c8 1 17 2 26 2 47 0 76-16 90-26 14-11 24-26 30-42 1-4 2-9 2-14-1-45-55-82-121-82S10 46 10 91c0 24 15 46 41 62z" fill="#e53a24"/><circle class="fil1" cx="82" cy="90" r="11"/><circle class="fil1" cx="127" cy="90" r="11"/><circle class="fil1" cx="172" cy="90" r="11"/></g></g></svg>