<svg width="508" height="508" viewBox="0 0 508 508" fill="none" xmlns="http://www.w3.org/2000/svg">
<path d="M319.5 164.8L224.3 122.4C220 120.5 215 121.4 211.7 124.7C208.4 128 207.4 133 209.4 137.3L251.8 232.5C254.3 238.2 261.1 240.9 266.8 238.2C272.2 235.7 274.8 229 272.4 223.3L262.8 201.8L288.7 175.9L310.2 185.5C315.9 188 322.6 185.5 325.2 179.8C327.7 174.1 325.2 167.4 319.5 164.8V164.8ZM252.9 179.6L242 155.2L266.5 166.1L252.9 179.6V179.6Z" fill="#008DD2"/>
<path d="M453.9 239.9H370.9L405.4 205.4C426.5 184.3 426.5 150 405.4 128.9L292.2 15.8C282 5.6 268.4 0 254 0C239.6 0 226 5.6 215.8 15.8L102.7 128.9C81.6 150 81.6 184.3 102.7 205.4L137.2 239.9H54.2C24.3 239.9 0 264.2 0 294V453.9C0 483.7 24.3 508 54.1 508H214C229.8 508 244.1 501.1 254 490.2C263.9 501.1 278.1 508 294 508H453.9C483.7 508 508 483.7 508 453.9V294C508 264.2 483.7 239.9 453.9 239.9ZM239.9 453.9C239.9 468.2 228.3 479.8 214 479.8H54.1C39.8 479.8 28.2 468.2 28.2 453.9V294C28.2 279.7 39.8 268.1 54.1 268.1H165.4L215.8 318.5C222.6 325.3 230.9 330.1 239.9 332.5V453.9V453.9ZM254 306.1C247.1 306.1 240.6 303.4 235.7 298.5L122.6 185.5C112.5 175.4 112.5 159 122.6 148.9L235.7 35.8C240.6 30.9 247.1 28.2 254 28.2C260.9 28.2 267.4 30.9 272.3 35.8L385.4 148.9C395.5 159 395.5 175.4 385.4 185.5L272.3 298.6C267.4 303.4 260.9 306.1 254 306.1ZM479.8 453.9C479.8 468.2 468.2 479.8 453.9 479.8H294C279.7 479.8 268.1 468.2 268.1 453.9V332.5C277.1 330.1 285.4 325.3 292.2 318.5L342.6 268.1H453.9C468.2 268.1 479.8 279.7 479.8 294V453.9V453.9Z" fill="#008DD2"/>
<path d="M170.3 349.8C170.3 330 154.3 314 134.7 314H109.2C102.9 314 97.9 319.1 97.9 325.3V422.7C97.9 429 103 434 109.2 434H134.7C154.3 434 170.3 418 170.3 398.4C170.3 389 166.6 380.4 160.5 374.1C166.5 367.7 170.3 359.2 170.3 349.8ZM134.7 411.2H120.5V385.3H134.7C141.8 385.3 147.6 391.1 147.6 398.2C147.6 405.4 141.8 411.2 134.7 411.2ZM134.7 362.5H120.5V336.6H134.7C141.8 336.6 147.6 342.4 147.6 349.5C147.6 356.7 141.8 362.5 134.7 362.5ZM406.1 399.3C399.1 407 389.1 411.3 378.7 411.3C358.1 411.3 341.4 394.6 341.4 374C341.4 353.4 358.1 336.7 378.7 336.7C390.7 336.7 401.6 342.2 408.7 351.8C412.4 356.8 419.5 357.9 424.6 354.2C429.6 350.5 430.7 343.4 427 338.3C415.7 323.1 397.6 314 378.7 314C345.6 314 318.7 340.9 318.7 374C318.7 407.1 345.6 434 378.7 434C395.4 434 411.5 426.9 422.8 414.6C427 410 426.7 402.8 422.1 398.6C417.5 394.4 410.3 394.7 406.1 399.3Z" fill="#008DD2"/>
</svg>
