<svg xmlns="http://www.w3.org/2000/svg" width="1600" height="1439" shape-rendering="geometricPrecision" text-rendering="geometricPrecision" image-rendering="optimizeQuality" fill-rule="evenodd" clip-rule="evenodd"><path d="M1569 882c-27-71-28-121-21-150 6-29 22-39 22-39s-1-13-14-13-50 4-50 4 29-56 33-144c5-89-2-141-2-153s-5-23-19-35c-14-11-27-35-20-38 6-4 16 2 18-5 1-3 1-7 0-10 0-5-1-10-1-10 2-1 7 0 7-3-4-7-11-13-11-13s1-9-2-16-17-19-32-15c-16 3-29 2-30 24 0 14 9 14 7 21-1 7 0 16-4 21-5 6-32-24-50-31-19-7-34-7-34-7l-22 18s-74-22-113-23c-40-1-50 5-43 21s21 32 13 40c-8 6-17 16-8 21 8 7 18 10 18 10s-36 47 35 42 89-25 89-25 18 3 24 7c6 5 16 13 20 14 3 2 10 14 37 15 27 2 34-2 39 6 4 8 24 27 22 41-3 14-27 22-38 41-24 41-11 92-71 155-13 14-33 37-48 58-16 21-21 43-21 43s21 20 51 36 48 33 48 33l-3 19s55 15 41 39c-14 23-56 23-56 23l1 31 45-1s-2 60-158 85c-123 21-342 25-452 27l6-393 1-19s31-15 20-35c-9-14-16-24-20-28l8-470 13-7-21-83-21 82 16 9-4 271-5 195s-4 9-15 14c-10 4-15-2-15-2s-8-27-36-52-45-30-45-30l2-15s17 9 21 3c5-6 4-14 0-22-3-8-2-14-3-17-1-4 8-2 8-6 0-5-14-21-14-21s-2-16-7-25c-5-8-12-10-34-4s-29 15-27 31c3 16 7 23 3 27-5 4-14 10-9 16 6 6 16 11 16 11l-4 20-29 5s7-18-1-23-13-8-13-8l1-381 13-7-21-82-21 82 13 7v385s-9 9-6 18l6 15v19c-4 11-13 28-13 28s-13-43-28-55c-15-11-35-16-35-16v-22s12-4 17-10c4-6 1-14-4-21s-3-18-8-33c-5-16-9-12-9-12s-4-14-24-11c-19 4-26 13-25 34s-7 21-6 32c1 10 11 21 15 21 5 0 6 9-2 15s-52 20-52 20-5 47-3 86c2 38 10 52 20 58 9 6 14 9 14 9s-8 28-11 52c-2 25-2 33-2 33l-21-9s-6-21-6-32c0-10-1-31-2-39s-6-58-1-78-2-41-1-48 2-20-8-31c-9-12-12-15-23-20-10-5-19-4-22-14-2-10-1-21-1-21s13 2 16-18c4-19 6-27-7-33 0 0 5-14-5-28-11-14-24-11-24-11l-8-2s-19 2-27 15c-7 13-3 18-3 27 0 8-11 17-1 24 4 4-3 19 8 22l10 4s5 17-2 15-22-14-42-12c-20 3-36 3-47 8-12 6-5 9-23 9h-38s-8-9-12-9c-3 0-47-2-47-2l-11 5-30-1-15-5s-6-14-10-14c0 0 11-110 46-151 34-41 53-38 90-45 38-9 68-20 84-38 17-17 24-37 24-37s3-15-3-4c-21 32-30 40-42 46-50 25-72 16-114 30s-56 29-75 72c-20 43-29 129-29 129s-11 6-11 15c0 10-6 26-1 30 4 3 8 1 8 1s2 105 29 156c21 39 48 51 60 54 5 35 14 73 3 101-16 39-28 82-28 82s51 28 70 35 24 14 24 14l-2 28s21 20 48 23c27 4 45 14 56 21 10 8 8 32 8 32l-241-20 21 92 76 12 19 49s69 38 164 61c96 24 265 24 265 24s-29 54 5 88 82 26 82 26v73h104v-62s51 4 63 1c12-2 21-11 21-11v72l138 3-8-90 90-1v92h162s4-70-8-117c-12-46-37-88-41-89-3-2 262-19 353-106 91-88 52-174 26-245zM95 652c0 8 0 17 1 26-9-4-28-18-46-58-26-56-19-135-19-135s2-1 11-1c8 0 28 8 28 8l90 34s-63 81-65 126zm368 338c-3 10-3 19-2 23 2 4 2 21 2 21l-51-5s11-5 8-12c-3-6-13-9-13-11 0-3-2-15 3-29 5-16 20-43 20-43l32 4s5 42 1 52zm116 53s9-8 7-13c-2-4-19-3-33-5-14-4-23-12-25-23s6-63 6-63l17 1s16-174 16-214 1-61-3-74c-3-13-7-22-7-22l2-18s10 7 21 8c5 0 9 0 12-1v165c0 5-1 9-1 11-5 32 3 119-1 140s-2 61-2 61l4 5v42h-13zm223 3h-34s3-14-5-15-32 1-38-12 1-32 1-32l15-2 16-107s41-5 42-16c1-10 6-53 6-53l-3 237z" fill="#008dd2"/></svg>