<svg width="394" height="512" viewBox="0 0 394 512" fill="none" xmlns="http://www.w3.org/2000/svg">
<path d="M376.899 131.64C356.124 81.484 317.91 41.915 268.812 19.44L272.272 11.087C273.966 6.99603 272.024 2.30703 267.932 0.613032C263.843 -1.08097 259.153 0.862031 257.458 4.95303L240.903 44.928C198.757 29.6 153.07 30.563 111.373 47.834C67.1899 66.136 32.7789 100.546 14.4779 144.729C-3.82205 188.912 -3.82405 237.577 14.4779 281.76C31.7519 323.464 63.3849 356.455 104.036 375.416L93.9499 399.771C93.9489 399.774 93.947 399.777 93.945 399.782C93.943 399.787 93.9429 399.789 93.9409 399.793L87.473 415.411C85.779 419.502 87.721 424.191 91.813 425.885C92.816 426.301 93.855 426.497 94.878 426.497C98.024 426.497 101.009 424.633 102.288 421.546L105.755 413.174C121.753 419.122 138.187 423.101 154.771 425.092V461.761H108.214C101.898 461.761 96.2199 465.27 93.3959 470.919L78.6569 500.397C77.4139 502.882 77.5459 505.833 79.0079 508.197C80.4689 510.56 83.0499 511.999 85.8279 511.999H273.953C276.731 511.999 279.311 510.56 280.773 508.197C282.234 505.834 282.367 502.883 281.124 500.397L266.385 470.918C263.56 465.27 257.882 461.761 251.567 461.761H205.01V425.092C224.186 422.789 243.165 417.849 261.496 410.256C314.12 388.459 355.105 347.474 376.903 294.849C398.697 242.226 398.697 184.264 376.899 131.64ZM65.5099 96.996C80.1119 82.631 97.466 71.044 116.919 62.9L118.813 66.876C122.113 73.801 130.433 76.754 137.359 73.454L142.201 71.147C145.695 69.482 149.598 69.176 153.283 70.262L152.628 72.11V72.111L150.657 77.668C149.177 81.841 151.359 86.423 155.532 87.904C156.418 88.218 157.322 88.367 158.212 88.367C161.511 88.367 164.602 86.315 165.767 83.028L165.817 82.885L189.885 83.218L203.558 88.068C201.305 89.214 199.385 91.013 198.098 93.31C195.575 97.811 195.951 103.384 199.054 107.507L208.207 119.669L207.91 119.939L200.723 117.39C197.221 116.148 193.444 116.344 190.086 117.942C189.988 117.989 189.889 118.038 189.793 118.09L130.223 149.523L122.176 146.669C115.704 144.373 108.725 144.735 102.525 147.69C96.9369 150.352 92.602 154.843 90.117 160.44L84.3019 156.968C81.7199 155.427 80.0259 152.83 79.6589 149.845L78.682 141.931C78.31 138.918 76.267 136.373 73.406 135.357L69.492 133.969C66.706 132.981 64.8719 130.332 64.9289 127.377L65.5099 96.996ZM29.29 275.625C12.628 235.398 12.628 191.092 29.29 150.866C34.515 138.253 41.1809 126.516 49.1129 115.83L48.898 127.07C48.715 136.665 54.501 145.296 63.374 148.795L63.746 151.808C64.725 159.739 69.2219 166.638 76.0829 170.733L98.1439 183.903C98.7859 184.287 99.2959 184.847 99.6179 185.523L100.504 187.382C101.573 189.627 103.024 191.614 104.778 193.272L96.0639 204.44C95.5339 205.12 95.1169 205.88 94.8279 206.692L89.8569 220.709C87.4619 227.463 88.3999 235.059 92.3659 241.028L104.713 259.609C105.901 261.396 106.182 263.672 105.464 265.695L98.8359 284.381C95.8209 292.885 94.564 301.763 95.102 310.769L96.3849 332.252C96.7419 338.224 100.588 343.451 106.225 345.586C107.98 346.251 109.804 346.582 111.622 346.582C113.799 346.582 115.969 346.107 118.009 345.163C121.751 343.429 124.572 340.333 125.951 336.445L131.916 319.623L141.98 317.083C147.972 315.571 153.223 311.948 156.763 306.883L164.878 295.272L167.946 296.36C174.64 298.735 182.06 296.258 185.988 290.339L194.191 277.975C199.155 270.493 199.84 260.81 195.978 252.704L194.393 249.374C191.439 243.173 186.248 238.496 179.776 236.2L177.271 235.312C176.32 234.974 175.558 234.288 175.124 233.375L164.387 210.836C160.079 201.792 152.506 194.967 143.064 191.618L117.129 182.42C116.178 182.082 115.414 181.395 114.981 180.483L114.095 178.624C112.407 175.082 109.734 172.145 106.365 170.134L104.072 168.765L104.464 167.661C105.328 165.225 107.089 163.271 109.422 162.159C111.755 161.047 114.381 160.911 116.819 161.775L120.206 162.976C119.425 166.717 121.409 170.59 125.081 172.053C126.055 172.441 127.058 172.625 128.045 172.625C131.23 172.625 134.243 170.713 135.495 167.573L136.861 164.144L196.246 132.809L203.749 135.47C208.598 137.19 213.97 136.105 217.77 132.643L220.433 130.218C225.772 125.355 226.524 117.335 222.181 111.565L215.978 103.322L228.43 104.519C232.097 104.872 235.523 102.685 236.752 99.219L239.238 92.21C239.949 90.206 239.834 88.002 238.921 86.082C238.007 84.162 236.367 82.685 234.363 81.974L194 67.662C193.175 67.369 192.308 67.214 191.431 67.201L171.39 66.923C172.16 63.079 170.009 59.153 166.206 57.804L159.466 55.413C155.186 53.895 150.727 53.331 146.333 53.691C157.416 51.335 168.651 50.145 179.888 50.145C201.021 50.145 222.154 54.31 242.267 62.641C272.405 75.125 297.55 95.844 315.273 122.367L310.143 124.811C306.417 126.586 303.605 129.707 302.226 133.596L298.037 145.405C297.309 147.458 295.824 149.104 293.859 150.042C292.786 150.553 291.597 150.826 290.409 150.835L278.4 149.831C269.438 149.081 261.082 154.479 258.077 162.952L255.202 171.058C253.945 174.604 253.784 178.268 254.504 181.705C250.895 183.177 247.59 185.479 244.885 188.556L236.153 198.485C232.602 202.523 229.89 207.14 228.093 212.209C223.689 224.626 225.413 238.589 232.704 249.561L233.315 250.48C238.321 258.014 245.772 263.828 254.294 266.85L254.713 266.999C259.742 268.782 262.382 274.325 260.598 279.353L253.977 298.018C251.464 305.104 250.435 312.5 250.916 320.003L252.417 343.403C252.731 348.295 254.434 352.901 257.188 356.765C252.365 359.351 247.39 361.713 242.266 363.836C202.042 380.498 157.734 380.498 117.507 363.836C77.282 347.181 45.953 315.851 29.29 275.625ZM118.068 250.736L105.721 232.155C104.533 230.367 104.252 228.091 104.97 226.069L109.506 213.278L119.618 200.319L137.703 206.733C143.108 208.651 147.444 212.557 149.91 217.735L160.647 240.273C162.923 245.051 166.922 248.656 171.911 250.426L174.416 251.314C176.852 252.178 178.806 253.939 179.916 256.272L181.501 259.602C182.955 262.653 182.697 266.297 180.829 269.113L172.876 281.098L169.809 280.01C163.53 277.783 156.559 279.817 152.461 285.068C152.374 285.179 152.291 285.291 152.211 285.407L143.62 297.699C142.287 299.606 140.312 300.969 138.056 301.538L123.832 305.127C121.232 305.783 119.133 307.695 118.237 310.22L112.154 327.375L111.105 309.812C110.696 302.961 111.651 296.208 113.945 289.739L120.573 271.053C122.972 264.301 122.034 256.706 118.068 250.736ZM274.69 265.068C271.737 258.868 266.545 254.19 260.076 251.895L259.657 251.746C254.38 249.874 249.769 246.276 246.67 241.613L246.059 240.694C241.546 233.902 240.479 225.259 243.205 217.574C244.318 214.437 245.996 211.58 248.194 209.08L256.926 199.151C259.554 196.162 263.676 195.091 267.427 196.421L280.25 200.969C284.924 202.627 289.063 205.526 292.217 209.352L300.974 219.973C307.118 227.423 317.136 230.709 326.499 228.348L331.43 227.104C333.29 226.636 335.226 226.726 337.032 227.367L342.187 229.196C340.617 244.959 336.718 260.578 330.485 275.625C318.044 305.66 297.425 330.731 271.034 348.443C269.518 346.807 268.565 344.68 268.418 342.385L266.917 318.985C266.576 313.662 267.306 308.414 269.089 303.386L275.71 284.721C278.006 278.247 277.644 271.268 274.69 265.068ZM327.507 211.558L322.576 212.802C319.191 213.656 315.565 212.469 313.343 209.773L304.586 199.153C302.883 197.089 300.988 195.21 298.953 193.505L304.794 187.483L342.702 203.98C342.867 206.806 342.957 209.633 342.971 212.462L342.391 212.257C337.59 210.553 332.445 210.313 327.507 211.558ZM306.105 170.567C303.044 169.235 299.476 169.94 297.152 172.336L286.127 183.703C285.101 184.761 283.54 185.126 282.151 184.633L272.613 181.25C270.649 180.553 269.618 178.389 270.314 176.425L273.189 168.319C273.762 166.703 275.372 165.675 277.065 165.817L289.375 166.846C289.547 166.86 289.718 166.87 289.89 166.873C293.647 166.95 297.381 166.132 300.754 164.526C306.588 161.747 310.99 156.863 313.149 150.774L317.258 139.192L323.552 136.194C326.085 140.939 328.401 145.833 330.486 150.869C335.17 162.176 338.536 173.805 340.587 185.576L306.105 170.567ZM251.562 477.795C251.767 477.796 251.951 477.909 252.041 478.09L260.979 495.966H98.7969L107.734 478.09C107.824 477.912 108.011 477.795 108.212 477.795H251.562ZM170.801 461.763V426.398C173.828 426.529 176.857 426.606 179.887 426.606C182.917 426.606 185.945 426.529 188.973 426.398V461.763H170.801ZM362.086 288.715C341.928 337.382 304.024 375.286 255.356 395.445C209.166 414.578 158.533 415.538 111.89 398.353L118.846 381.554C138.672 388.768 159.275 392.384 179.886 392.383C203.095 392.382 226.312 387.807 248.401 378.657C292.584 360.355 326.995 325.945 345.296 281.762C363.596 237.579 363.598 188.914 345.296 144.731C328.018 103.019 296.376 70.023 255.713 51.063L262.67 34.264C307.814 55.092 342.948 91.579 362.083 137.778C382.245 186.443 382.244 240.047 362.086 288.715Z" fill="#008DD2"/>
<path d="M296.72 122.066C293.589 118.935 288.513 118.935 285.383 122.066L276.832 130.617C273.701 133.748 273.701 138.823 276.832 141.954C278.398 143.519 280.449 144.302 282.5 144.302C284.551 144.302 286.603 143.52 288.168 141.954L296.719 133.403C299.851 130.272 299.851 125.197 296.72 122.066Z" fill="#008DD2"/>
</svg>
