<svg width="393" height="512" viewBox="0 0 393 512" fill="none" xmlns="http://www.w3.org/2000/svg">
<path d="M376.147 131.639C355.372 81.4831 317.158 41.9141 268.06 19.4391L271.52 11.0861C273.214 6.99505 271.272 2.30606 267.18 0.612055C263.091 -1.08194 258.401 0.861055 256.706 4.95205L240.151 44.9271C198.005 29.5991 152.318 30.5621 110.621 47.8331C66.4378 66.1351 32.0267 100.545 13.7257 144.728C-4.57425 188.911 -4.57625 237.576 13.7257 281.759C30.9998 323.463 62.6327 356.454 103.284 375.415L93.1977 399.77C93.1967 399.773 93.1948 399.776 93.1928 399.781C93.1908 399.786 93.1907 399.788 93.1887 399.792L86.7208 415.41C85.0268 419.501 86.9688 424.19 91.0608 425.884C92.0638 426.3 93.1028 426.496 94.1258 426.496C97.2718 426.496 100.257 424.632 101.536 421.545L105.003 413.173C121.001 419.121 137.435 423.1 154.019 425.091V461.76H107.462C101.146 461.76 95.4677 465.269 92.6437 470.918L77.9047 500.396C76.6617 502.881 76.7937 505.832 78.2557 508.196C79.7167 510.559 82.2978 511.998 85.0758 511.998H273.201C275.979 511.998 278.559 510.559 280.021 508.196C281.482 505.833 281.615 502.882 280.372 500.396L265.633 470.917C262.808 465.269 257.13 461.76 250.815 461.76H204.258V425.091C223.434 422.788 242.413 417.848 260.744 410.255C313.368 388.458 354.353 347.473 376.151 294.848C397.945 242.225 397.945 184.263 376.147 131.639ZM64.7578 96.9951C79.3597 82.6301 96.7138 71.0431 116.167 62.8991L118.061 66.8751C121.361 73.8001 129.681 76.7531 136.607 73.4531L141.449 71.1461C144.943 69.4811 148.846 69.1751 152.531 70.2611L151.876 72.1091V72.1101L149.905 77.6671C148.425 81.84 150.607 86.4221 154.78 87.9031C155.666 88.2171 156.57 88.3661 157.46 88.3661C160.759 88.3661 163.85 86.3141 165.015 83.0271L165.065 82.8841L189.133 83.2171L202.806 88.0671C200.553 89.2131 198.633 91.0121 197.346 93.3091C194.823 97.8101 195.199 103.383 198.302 107.506L207.455 119.668L207.158 119.938L199.971 117.389C196.469 116.147 192.692 116.343 189.334 117.941C189.236 117.988 189.137 118.037 189.041 118.089L129.471 149.522L121.424 146.668C114.952 144.372 107.973 144.734 101.773 147.689C96.1847 150.351 91.8498 154.842 89.3648 160.439L83.5498 156.967C80.9678 155.426 79.2737 152.829 78.9067 149.844L77.9298 141.93C77.5578 138.917 75.5148 136.372 72.6538 135.356L68.7398 133.968C65.9538 132.98 64.1198 130.331 64.1768 127.376L64.7578 96.9951ZM28.5378 275.624C11.8758 235.397 11.8758 191.091 28.5378 150.865C33.7628 138.252 40.4288 126.515 48.3608 115.829L48.1458 127.069C47.9628 136.664 53.7488 145.295 62.6218 148.794L62.9938 151.807C63.9728 159.738 68.4697 166.637 75.3307 170.732L97.3917 183.902C98.0337 184.286 98.5437 184.846 98.8657 185.522L99.7517 187.381C100.821 189.626 102.272 191.613 104.026 193.271L95.3117 204.439C94.7817 205.119 94.3648 205.879 94.0758 206.691L89.1047 220.708C86.7097 227.462 87.6477 235.058 91.6137 241.027L103.961 259.608C105.149 261.395 105.43 263.671 104.712 265.694L98.0837 284.38C95.0687 292.884 93.8118 301.762 94.3498 310.768L95.6327 332.251C95.9897 338.223 99.8358 343.45 105.473 345.585C107.228 346.25 109.052 346.581 110.87 346.581C113.047 346.581 115.217 346.106 117.257 345.162C120.999 343.428 123.82 340.332 125.199 336.444L131.164 319.622L141.228 317.082C147.22 315.57 152.471 311.947 156.011 306.882L164.126 295.271L167.194 296.359C173.888 298.734 181.308 296.257 185.236 290.338L193.439 277.974C198.403 270.492 199.088 260.809 195.226 252.703L193.641 249.373C190.687 243.172 185.496 238.495 179.024 236.199L176.519 235.311C175.568 234.973 174.806 234.287 174.372 233.374L163.635 210.835C159.327 201.791 151.754 194.966 142.312 191.617L116.377 182.419C115.426 182.081 114.662 181.394 114.229 180.482L113.343 178.623C111.655 175.081 108.982 172.144 105.613 170.133L103.32 168.764L103.712 167.66C104.576 165.224 106.337 163.27 108.67 162.158C111.003 161.046 113.629 160.91 116.067 161.774L119.454 162.975C118.673 166.716 120.657 170.589 124.329 172.052C125.303 172.44 126.306 172.624 127.293 172.624C130.478 172.624 133.491 170.712 134.743 167.572L136.109 164.143L195.494 132.808L202.997 135.469C207.846 137.189 213.218 136.104 217.018 132.642L219.681 130.217C225.02 125.354 225.772 117.334 221.429 111.564L215.226 103.321L227.678 104.518C231.345 104.871 234.771 102.684 236 99.2181L238.486 92.2091C239.197 90.2051 239.082 88.0011 238.169 86.0811C237.255 84.1611 235.615 82.6841 233.611 81.9731L193.248 67.6611C192.423 67.3681 191.556 67.2131 190.679 67.2001L170.638 66.9221C171.408 63.078 169.257 59.1521 165.454 57.8031L158.714 55.4121C154.434 53.8941 149.975 53.3301 145.581 53.6901C156.664 51.3341 167.899 50.1441 179.136 50.1441C200.269 50.1441 221.402 54.3091 241.515 62.6401C271.653 75.1241 296.798 95.843 314.521 122.366L309.391 124.81C305.665 126.585 302.853 129.706 301.474 133.595L297.285 145.404C296.557 147.457 295.072 149.103 293.107 150.041C292.034 150.552 290.845 150.825 289.657 150.834L277.648 149.83C268.686 149.08 260.33 154.478 257.325 162.951L254.45 171.057C253.193 174.603 253.032 178.267 253.752 181.704C250.143 183.176 246.838 185.478 244.133 188.555L235.401 198.484C231.85 202.522 229.138 207.139 227.341 212.208C222.937 224.625 224.661 238.588 231.952 249.56L232.563 250.479C237.569 258.013 245.02 263.827 253.542 266.849L253.961 266.998C258.99 268.781 261.63 274.324 259.846 279.352L253.225 298.017C250.712 305.103 249.683 312.499 250.164 320.002L251.665 343.402C251.979 348.294 253.682 352.9 256.436 356.764C251.613 359.35 246.638 361.712 241.514 363.835C201.29 380.497 156.982 380.497 116.755 363.835C76.5298 347.18 45.2008 315.85 28.5378 275.624ZM117.316 250.735L104.969 232.154C103.781 230.366 103.5 228.09 104.218 226.068L108.754 213.277L118.866 200.318L136.951 206.732C142.356 208.65 146.692 212.556 149.158 217.734L159.895 240.272C162.171 245.05 166.17 248.655 171.159 250.425L173.664 251.313C176.1 252.177 178.054 253.938 179.164 256.271L180.749 259.601C182.203 262.652 181.945 266.296 180.077 269.112L172.124 281.097L169.057 280.009C162.778 277.782 155.807 279.816 151.709 285.067C151.622 285.178 151.539 285.29 151.459 285.406L142.868 297.698C141.535 299.605 139.56 300.968 137.304 301.537L123.08 305.126C120.48 305.782 118.381 307.694 117.485 310.219L111.402 327.374L110.353 309.811C109.944 302.96 110.899 296.207 113.193 289.738L119.821 271.052C122.22 264.3 121.282 256.705 117.316 250.735ZM273.938 265.067C270.985 258.867 265.793 254.189 259.324 251.894L258.905 251.745C253.628 249.873 249.017 246.275 245.918 241.612L245.307 240.693C240.794 233.901 239.727 225.258 242.453 217.573C243.566 214.436 245.244 211.579 247.442 209.079L256.174 199.15C258.802 196.161 262.924 195.09 266.675 196.42L279.498 200.968C284.172 202.626 288.311 205.525 291.465 209.351L300.222 219.972C306.366 227.422 316.384 230.708 325.747 228.347L330.678 227.103C332.538 226.635 334.474 226.725 336.28 227.366L341.435 229.195C339.865 244.958 335.966 260.577 329.733 275.624C317.292 305.659 296.673 330.73 270.282 348.442C268.766 346.806 267.813 344.679 267.666 342.384L266.165 318.984C265.824 313.661 266.554 308.413 268.337 303.385L274.958 284.72C277.254 278.246 276.892 271.267 273.938 265.067ZM326.755 211.557L321.824 212.801C318.439 213.655 314.813 212.468 312.591 209.772L303.834 199.152C302.131 197.088 300.236 195.209 298.201 193.504L304.042 187.482L341.95 203.979C342.115 206.805 342.205 209.632 342.219 212.461L341.639 212.256C336.838 210.552 331.693 210.312 326.755 211.557ZM305.353 170.566C302.292 169.234 298.724 169.939 296.4 172.335L285.375 183.702C284.349 184.76 282.788 185.125 281.399 184.632L271.861 181.249C269.897 180.552 268.866 178.388 269.562 176.424L272.437 168.318C273.01 166.702 274.62 165.674 276.313 165.816L288.623 166.845C288.795 166.859 288.966 166.869 289.138 166.872C292.895 166.949 296.629 166.131 300.002 164.525C305.836 161.746 310.238 156.862 312.397 150.773L316.506 139.191L322.8 136.193C325.333 140.938 327.649 145.832 329.734 150.868C334.418 162.175 337.784 173.804 339.835 185.575L305.353 170.566ZM250.81 477.794C251.015 477.795 251.199 477.908 251.289 478.089L260.227 495.965H98.0447L106.982 478.089C107.072 477.911 107.259 477.794 107.46 477.794H250.81ZM170.049 461.762V426.397C173.076 426.528 176.105 426.605 179.135 426.605C182.165 426.605 185.193 426.528 188.221 426.397V461.762H170.049ZM361.334 288.714C341.176 337.381 303.272 375.285 254.604 395.444C208.414 414.577 157.781 415.537 111.138 398.352L118.094 381.553C137.92 388.767 158.523 392.383 179.134 392.382C202.343 392.381 225.56 387.806 247.649 378.656C291.832 360.354 326.243 325.944 344.544 281.761C362.844 237.578 362.846 188.913 344.544 144.73C327.266 103.018 295.624 70.022 254.961 51.0621L261.918 34.2631C307.062 55.0911 342.196 91.578 361.331 137.777C381.493 186.442 381.492 240.046 361.334 288.714Z" fill="#008DD2"/>
<path d="M295.968 122.065C292.837 118.934 287.761 118.934 284.631 122.065L276.08 130.616C272.949 133.747 272.949 138.822 276.08 141.953C277.646 143.518 279.697 144.301 281.748 144.301C283.799 144.301 285.851 143.519 287.416 141.953L295.967 133.402C299.099 130.271 299.099 125.196 295.968 122.065Z" fill="#008DD2"/>
</svg>
