<svg xmlns="http://www.w3.org/2000/svg" width="1145" height="1533" viewBox="0 0 379 507" shape-rendering="geometricPrecision" text-rendering="geometricPrecision" image-rendering="optimizeQuality" fill-rule="evenodd" clip-rule="evenodd"><defs><style>.fil2{fill:#008dd2}</style></defs><g id="Слой_x0020_1"><g id="_815294944"><path d="M346 13H32c-10 0-19 9-19 19v442c0 11 9 20 19 20h314c11 0 19-9 19-20V32c0-10-8-19-19-19z" fill="#fff"/><path id="1" d="M346 13H32c-10 0-19 9-19 19v442c0 11 9 20 19 20h314c11 0 19-9 19-20V32c0-10-8-19-19-19zM32 0h314c9 0 17 4 23 10 6 5 10 13 10 22v442c0 9-4 17-10 23s-14 10-23 10H32c-8 0-17-4-22-10-6-6-10-14-10-23V32c0-9 4-17 9-22h1C15 4 24 0 32 0z" fill="#e53a24"/><rect class="fil2" x="77" y="299" width="194.235" height="21.536" rx="11" ry="4"/><rect class="fil2" x="77" y="342" width="232.809" height="21.536" rx="14" ry="4"/><rect class="fil2" x="77" y="424" width="232.809" height="21.536" rx="14" ry="4"/><rect class="fil2" x="77" y="385" width="232.809" height="21.536" rx="14" ry="4"/><rect class="fil2" x="70" y="58" width="169" height="192" rx="10" ry="35"/></g></g></svg>