<svg width="1136" height="522" viewBox="0 0 1136 522" fill="none" xmlns="http://www.w3.org/2000/svg">
<path d="M572.603 500.289H572.519C567.138 500.289 562.728 498.68 559.288 495.462C555.904 492.189 554.212 487.918 554.212 482.647C554.212 475.546 556.57 469.638 561.285 464.922C566.001 460.151 571.937 457.766 579.093 457.766C584.697 457.766 589.19 459.458 592.574 462.842C595.958 466.171 597.65 470.415 597.65 475.574C597.65 482.731 595.265 488.639 590.494 493.299C585.778 497.959 579.815 500.289 572.603 500.289ZM573.934 492.467H574.017C577.679 492.467 580.758 490.802 583.254 487.474C585.806 484.09 587.082 480.234 587.082 475.907C587.082 473.244 586.333 470.858 584.835 468.75C583.393 466.642 581.118 465.588 578.012 465.588C574.017 465.588 570.8 467.363 568.359 470.914C565.973 474.409 564.78 478.265 564.78 482.481C564.78 485.532 565.613 487.973 567.277 489.804C568.997 491.579 571.216 492.467 573.934 492.467Z" fill="#E53A24"/>
<path d="M610.203 458.765H620.355L617.443 474.159H634.169L636.998 458.765H647.15L639.495 499.29H629.342L632.671 482.065H615.945L612.699 499.29H602.547L610.203 458.765Z" fill="#E53A24"/>
<path d="M662.617 458.765H694.405L686.75 499.29H676.597L682.755 466.587H670.44L668.858 474.825C667.749 480.373 666.417 484.783 664.864 488.056C663.311 491.329 661.369 493.881 659.039 495.712C656.043 498.43 652.16 499.79 647.389 499.79L646.723 491.718C649.22 491.551 651.189 490.83 652.632 489.554C655.738 487.169 658.04 482.12 659.538 474.409L662.617 458.765Z" fill="#E53A24"/>
<path d="M737.297 499.29H727.81C727.81 497.182 728.06 493.937 728.559 489.554H728.393C724.565 496.711 719.239 500.289 712.416 500.289C708.532 500.289 705.342 498.93 702.846 496.211C700.405 493.493 699.184 490.026 699.184 485.809C699.184 478.154 701.903 471.58 707.34 466.088C712.832 460.54 720.266 457.766 729.641 457.766C734.079 457.766 738.49 458.404 742.872 459.68L738.961 480.234C737.63 486.947 737.075 493.299 737.297 499.29ZM729.724 475.491L731.389 466.088C730.057 465.755 728.587 465.588 726.978 465.588C722.374 465.588 718.352 467.447 714.912 471.164C711.528 474.881 709.836 479.208 709.836 484.145C709.836 486.475 710.363 488.389 711.417 489.887C712.527 491.385 714.191 492.134 716.41 492.134C719.184 492.134 721.847 490.691 724.399 487.807C727.006 484.866 728.781 480.761 729.724 475.491Z" fill="#E53A24"/>
<path d="M754.355 458.765H764.507L760.429 480.151C760.041 482.481 759.847 484.284 759.847 485.56C759.847 489.832 761.816 491.967 765.755 491.967C768.307 491.967 770.804 490.608 773.245 487.89C775.686 485.116 777.322 481.538 778.154 477.155L781.732 458.765H791.802L786.476 487.058C785.644 491.218 784.95 495.296 784.395 499.29H775.408L776.407 491.801H776.24C771.969 497.46 766.892 500.289 761.012 500.289C757.572 500.289 754.771 499.346 752.607 497.46C750.444 495.518 749.362 492.328 749.362 487.89C749.362 485.893 749.639 483.535 750.194 480.817L754.355 458.765ZM765.006 441.539H771.83C771.608 443.259 771.802 444.673 772.412 445.783C773.078 446.893 774.049 447.42 775.325 447.364C777.655 447.364 779.43 445.422 780.651 441.539H787.558C786.725 445.034 785.172 447.725 782.898 449.611C780.678 451.497 777.932 452.44 774.659 452.44C770.998 452.44 768.39 451.442 766.837 449.444C765.284 447.392 764.673 444.757 765.006 441.539Z" fill="#E53A24"/>
<path d="M803.694 458.765H813.846L810.934 474.159H827.66L830.489 458.765H840.642L832.986 499.29H822.834L826.162 482.065H809.436L806.191 499.29H796.038L803.694 458.765Z" fill="#E53A24"/>
<path d="M846.463 473.577H868.432L867.018 480.817H845.049L846.463 473.577Z" fill="#E53A24"/>
<path d="M879.338 458.765H889.157L885.08 480.733C884.747 482.62 884.58 484.201 884.58 485.477C884.58 489.915 886.356 492.134 889.906 492.134C892.458 492.134 894.844 490.747 897.063 487.973C899.282 485.199 900.78 481.649 901.556 477.322L904.968 458.765H914.788L910.544 481.149C910.211 483.258 910.044 484.7 910.044 485.477C910.044 489.915 911.792 492.134 915.287 492.134C917.728 492.134 920.141 490.664 922.527 487.723C924.912 484.728 926.493 481.149 927.27 476.989L930.598 458.765H940.335L935.175 486.808C934.842 488.805 934.51 492.966 934.177 499.29H924.94C924.995 496.738 925.134 494.297 925.356 491.967H925.189C921.417 497.515 916.535 500.289 910.544 500.289C907.326 500.289 904.802 499.429 902.971 497.709C901.196 495.989 900.253 493.909 900.142 491.468C896.258 497.349 891.099 500.289 884.664 500.289C881.723 500.289 879.282 499.318 877.341 497.376C875.399 495.435 874.428 492.578 874.428 488.805C874.428 486.475 874.622 484.256 875.011 482.148L879.338 458.765Z" fill="#E53A24"/>
<path d="M952.41 458.765H962.23L959.068 475.74H960.566L977.042 458.765H989.192L969.386 476.905C971.384 477.571 973.02 478.875 974.296 480.817C975.627 482.758 976.82 485.393 977.874 488.722C978.207 489.61 978.595 490.83 979.039 492.383C979.539 493.937 979.955 495.296 980.288 496.461C980.676 497.571 981.064 498.514 981.453 499.29H971.467C971.3 498.902 970.191 495.712 968.138 489.721C966.973 486.78 965.725 484.728 964.393 483.563C963.117 482.398 961.315 481.815 958.984 481.815H957.819L954.491 499.29H944.671L952.41 458.765Z" fill="#E53A24"/>
<path d="M1006.31 500.289H1006.23C1000.85 500.289 996.438 498.68 992.998 495.462C989.614 492.189 987.922 487.918 987.922 482.647C987.922 475.546 990.28 469.638 994.995 464.922C999.711 460.151 1005.65 457.766 1012.8 457.766C1018.41 457.766 1022.9 459.458 1026.28 462.842C1029.67 466.171 1031.36 470.415 1031.36 475.574C1031.36 482.731 1028.97 488.639 1024.2 493.299C1019.49 497.959 1013.52 500.289 1006.31 500.289ZM1007.64 492.467H1007.73C1011.39 492.467 1014.47 490.802 1016.96 487.474C1019.52 484.09 1020.79 480.234 1020.79 475.907C1020.79 473.244 1020.04 470.858 1018.54 468.75C1017.1 466.642 1014.83 465.588 1011.72 465.588C1007.73 465.588 1004.51 467.363 1002.07 470.914C999.683 474.409 998.49 478.265 998.49 482.481C998.49 485.532 999.322 487.973 1000.99 489.804C1002.71 491.579 1004.93 492.467 1007.64 492.467Z" fill="#E53A24"/>
<path d="M1047.89 458.765H1079.68L1072.03 499.29H1061.87L1068.03 466.587H1055.72L1054.13 474.825C1053.02 480.373 1051.69 484.783 1050.14 488.056C1048.59 491.329 1046.65 493.881 1044.31 495.712C1041.32 498.43 1037.44 499.79 1032.66 499.79L1032 491.718C1034.5 491.551 1036.47 490.83 1037.91 489.554C1041.01 487.169 1043.32 482.12 1044.81 474.409L1047.89 458.765Z" fill="#E53A24"/>
<path d="M1122.57 499.29H1113.09C1113.09 497.182 1113.34 493.937 1113.84 489.554H1113.67C1109.84 496.711 1104.52 500.289 1097.69 500.289C1093.81 500.289 1090.62 498.93 1088.12 496.211C1085.68 493.493 1084.46 490.026 1084.46 485.809C1084.46 478.154 1087.18 471.58 1092.62 466.088C1098.11 460.54 1105.54 457.766 1114.92 457.766C1119.36 457.766 1123.77 458.404 1128.15 459.68L1124.24 480.234C1122.91 486.947 1122.35 493.299 1122.57 499.29ZM1115 475.491L1116.66 466.088C1115.33 465.755 1113.86 465.588 1112.25 465.588C1107.65 465.588 1103.63 467.447 1100.19 471.164C1096.8 474.881 1095.11 479.208 1095.11 484.145C1095.11 486.475 1095.64 488.389 1096.69 489.887C1097.8 491.385 1099.47 492.134 1101.69 492.134C1104.46 492.134 1107.12 490.691 1109.67 487.807C1112.28 484.866 1114.06 480.761 1115 475.491Z" fill="#E53A24"/>
<path d="M499.813 406.242L501.532 418.71C493.985 422.723 485.051 424.73 474.733 424.73C464.796 424.73 457.153 422.054 451.802 416.704C446.547 411.258 443.92 403.901 443.92 394.633C443.92 383.359 447.885 373.375 455.815 364.681C463.841 355.891 473.825 351.496 485.768 351.496C493.125 351.496 499.048 353.311 503.539 356.942C508.125 360.572 510.418 365.493 510.418 371.703C510.418 380.206 506.119 386.178 497.52 389.617C488.921 393.057 476.691 394.586 460.831 394.204C460.449 397.643 461.165 400.844 462.981 403.806C466.038 408.678 471.293 411.115 478.745 411.115C486.484 411.115 493.507 409.49 499.813 406.242ZM493.65 371.416V371.273C493.65 369.171 492.695 367.451 490.784 366.114C488.969 364.776 486.58 364.107 483.618 364.107C478.172 364.107 473.586 365.923 469.86 369.553C466.134 373.088 463.697 377.006 462.551 381.305C473.156 381.401 480.991 380.732 486.054 379.299C491.118 377.866 493.65 375.238 493.65 371.416Z" fill="#008DD2"/>
<path d="M528.415 451.673H510.931L524.546 380.015C526.17 370.652 527.508 361.576 528.559 352.786H544.466L542.747 364.967H543.033C549.817 355.986 558.368 351.496 568.687 351.496C576.521 351.496 582.588 354.171 586.888 359.521C591.187 364.776 593.337 371.273 593.337 379.012C593.337 391.719 589.181 402.516 580.868 411.401C572.652 420.287 562.381 424.73 550.056 424.73C543.272 424.73 538.065 423.583 534.434 421.29H534.148L528.415 451.673ZM539.307 393.487L537.014 407.245C539.976 409.92 544.275 411.258 549.912 411.258C556.505 411.258 562.333 408.201 567.397 402.086C572.461 395.971 574.993 388.614 574.993 380.015C574.993 376.194 573.942 372.85 571.84 369.983C569.738 367.021 566.585 365.541 562.381 365.541C557.317 365.541 552.588 368.025 548.193 372.993C543.798 377.961 540.836 384.793 539.307 393.487Z" fill="#008DD2"/>
<path d="M615.232 353.216H632.716L627.7 379.729H656.506L661.379 353.216H678.863L665.678 423.01H648.194L653.927 393.344H625.12L619.531 423.01H602.047L615.232 353.216Z" fill="#008DD2"/>
<path d="M752.521 423.01H736.184C736.184 419.379 736.614 413.79 737.473 406.242H737.187C730.594 418.567 721.422 424.73 709.67 424.73C702.982 424.73 697.489 422.389 693.189 417.707C688.985 413.026 686.883 407.054 686.883 399.793C686.883 386.608 691.565 375.286 700.928 365.827C710.387 356.273 723.19 351.496 739.337 351.496C746.98 351.496 754.576 352.594 762.124 354.792L755.388 390.191C753.095 401.751 752.139 412.691 752.521 423.01ZM739.48 382.022L742.346 365.827C740.053 365.254 737.521 364.967 734.75 364.967C726.82 364.967 719.893 368.168 713.97 374.569C708.142 380.971 705.228 388.423 705.228 396.927C705.228 400.939 706.135 404.236 707.951 406.815C709.861 409.395 712.728 410.685 716.549 410.685C721.327 410.685 725.913 408.201 730.308 403.232C734.798 398.169 737.856 391.098 739.48 382.022Z" fill="#008DD2"/>
<path d="M787.041 423.01H770.273L779.302 374.283C780.927 365.493 782.025 358.47 782.599 353.216H797.79L796.07 365.827H796.357C803.14 356.273 811.787 351.496 822.297 351.496C828.029 351.496 832.424 352.977 835.482 355.938C838.539 358.805 840.163 362.388 840.354 366.687C847.042 356.56 855.976 351.496 867.154 351.496C872.505 351.496 876.9 353.168 880.339 356.512C883.874 359.856 885.642 364.776 885.642 371.273C885.642 375.19 885.307 379.012 884.639 382.738L877.186 423.01H860.275L867.298 385.175C867.871 381.926 868.158 379.203 868.158 377.006C868.158 369.362 864.909 365.541 858.412 365.541C854.017 365.541 849.813 367.929 845.8 372.706C841.883 377.483 839.256 383.598 837.918 391.051L832.042 423.01H815.274L822.44 384.458C823.013 380.827 823.3 378.343 823.3 377.006C823.3 369.362 820.099 365.541 813.698 365.541C809.303 365.541 805.051 368.072 800.943 373.136C796.835 378.2 794.112 384.315 792.774 391.481L787.041 423.01Z" fill="#008DD2"/>
<path d="M909.539 353.216H927.023L920.001 390.047C919.332 394.06 918.997 397.165 918.997 399.363C918.997 406.72 922.389 410.398 929.173 410.398C933.568 410.398 937.867 408.057 942.071 403.376C946.275 398.599 949.093 392.436 950.527 384.888L956.689 353.216H974.03L964.858 401.943C963.425 409.108 962.231 416.131 961.275 423.01H945.797L947.517 410.111H947.23C939.873 419.857 931.131 424.73 921.004 424.73C915.08 424.73 910.255 423.105 906.529 419.857C902.803 416.513 900.94 411.019 900.94 403.376C900.94 399.936 901.417 395.876 902.373 391.194L909.539 353.216Z" fill="#008DD2"/>
<path d="M1024.46 351.496H1024.61C1032.25 351.496 1038.22 352.977 1042.52 355.938C1046.92 358.805 1049.11 363.056 1049.11 368.694C1049.11 372.897 1047.4 376.433 1043.96 379.299C1040.52 382.165 1036.65 384.172 1032.35 385.318V385.605C1036.46 386.082 1040.04 387.659 1043.1 390.334C1046.15 392.914 1047.68 396.353 1047.68 400.653C1047.68 404.952 1046.49 408.774 1044.1 412.118C1041.81 415.366 1038.75 417.898 1034.93 419.714C1031.2 421.433 1027.33 422.675 1023.32 423.44C1019.4 424.3 1015.44 424.73 1011.42 424.73C992.888 424.73 983.62 417.612 983.62 403.376C983.62 395.923 985.244 387.611 988.493 378.439C991.741 369.171 996.232 362.435 1001.96 358.232C1008.17 353.741 1015.67 351.496 1024.46 351.496ZM1023.17 363.391H1023.03C1017.97 363.391 1014.05 365.206 1011.28 368.837C1008.51 372.467 1006.26 377.292 1004.54 383.312C1014.86 381.974 1021.74 380.445 1025.18 378.726C1029.86 376.624 1032.2 373.853 1032.2 370.413C1032.2 368.12 1031.34 366.4 1029.62 365.254C1028 364.012 1025.85 363.391 1023.17 363.391ZM1016.58 392.34H1016.44C1012.14 392.34 1007.46 393.009 1002.39 394.347C1001.73 397.213 1001.39 399.793 1001.39 402.086C1001.39 409.156 1005.31 412.691 1013.14 412.691C1017.92 412.691 1021.89 411.688 1025.04 409.682C1028.29 407.58 1029.91 404.857 1029.91 401.513C1029.91 395.398 1025.47 392.34 1016.58 392.34Z" fill="#008DD2"/>
<path d="M1125.64 423.01H1109.31C1109.31 419.379 1109.74 413.79 1110.6 406.242H1110.31C1103.72 418.567 1094.54 424.73 1082.79 424.73C1076.1 424.73 1070.61 422.389 1066.31 417.707C1062.11 413.026 1060.01 407.054 1060.01 399.793C1060.01 386.608 1064.69 375.286 1074.05 365.827C1083.51 356.273 1096.31 351.496 1112.46 351.496C1120.1 351.496 1127.7 352.594 1135.25 354.792L1128.51 390.191C1126.22 401.751 1125.26 412.691 1125.64 423.01ZM1112.6 382.022L1115.47 365.827C1113.18 365.254 1110.64 364.967 1107.87 364.967C1099.94 364.967 1093.02 368.168 1087.09 374.569C1081.26 380.971 1078.35 388.423 1078.35 396.927C1078.35 400.939 1079.26 404.236 1081.07 406.815C1082.98 409.395 1085.85 410.685 1089.67 410.685C1094.45 410.685 1099.04 408.201 1103.43 403.232C1107.92 398.169 1110.98 391.098 1112.6 382.022Z" fill="#008DD2"/>
<path fill-rule="evenodd" clip-rule="evenodd" d="M461.701 261.298V188.737H71.1037V487.498H461.701V487.498L462.627 449.679L496.496 449.548L502.724 449.342V487.896C502.724 506.738 487.449 522.03 468.577 522L34.1317 521.998C15.3054 521.998 0 506.722 0 487.896V188.309C0 169.423 15.3211 154.221 34.1317 154.221H468.577C487.449 154.221 502.724 169.423 502.724 188.309L502.758 335.26H462.094L461.701 261.298V261.298ZM12.7918 338.117C12.7918 349.298 21.8565 358.393 33.0529 358.393C44.2614 358.393 53.3423 349.298 53.3423 338.117C53.3423 326.907 44.2636 317.842 33.0529 317.842C21.8565 317.842 12.7918 326.907 12.7918 338.117Z" fill="#515151"/>
<path d="M226.471 363.473H154.231L123.62 426.981H83.2151L192.799 209.698H240.551L273.916 426.981H234.429L226.471 363.473ZM166.781 332.847H223.716L216.063 278.042C215.859 277.397 214.226 264.717 211.165 240.001H210.553C209.329 242.366 206.778 248.061 202.901 257.088C199.228 266.114 196.167 272.992 193.718 277.72L166.781 332.847Z" fill="#E53A24"/>
<path d="M316.425 426.982H283.29L320.499 232.513H353.635L316.425 426.982Z" fill="#E53A24"/>
<path d="M390.478 269.451L424.157 260.488L417.91 294.71H449.145L443.984 320.512H412.749L403.243 369.401C401.433 377.731 400.527 384.521 400.527 389.772C400.527 397.92 404.692 401.994 413.021 401.994C417.367 401.994 421.169 401.722 424.428 401.179L421.441 427.253C416.914 429.245 409.762 430.241 399.984 430.241C388.939 430.241 380.61 427.706 374.996 422.636C369.564 417.385 366.848 410.685 366.848 402.537C366.848 394.57 367.844 385.879 369.836 376.463L380.7 320.512H362.231L367.12 294.71H385.589L390.478 269.451Z" fill="#E53A24"/>
<path d="M337.345 116.998L328.229 155.428C328.229 155.428 376.541 156.742 417.367 166.411C458.215 176.108 501.96 196.642 501.96 196.642L511.226 157.531C511.226 157.531 472.84 123.887 429.195 113.537C385.569 103.195 337.345 116.998 337.345 116.998Z" fill="#008DD2"/>
<path d="M582.01 153.163L567.017 139.481L568.081 134.938C568.081 134.938 578.811 111.439 548.1 117.786C546.512 118.212 545.586 118.8 545.091 119.485L446.088 29.2142L275.936 79.4169L326.424 118.55L328.406 110.194C328.406 110.194 382.192 94.8084 430.833 106.339C479.485 117.889 522.294 155.397 522.294 155.397L518.842 169.972L554.057 160.589C549.436 180.03 544.133 202.429 542.476 209.362L532.093 206.89L526.36 231.026L542.456 224.753L555.531 237.957L561.245 213.823L550.019 211.144L562.551 158.319L582.01 153.163ZM561.181 149.299C560.229 153.332 556.181 155.824 552.149 154.872C548.116 153.911 545.614 149.873 546.566 145.841C547.537 141.807 551.586 139.315 555.608 140.267C559.631 141.22 562.133 145.277 561.181 149.299ZM552.572 126.303C556.388 124.872 562.922 123.213 561.558 128.971C561.419 129.533 561.049 131.157 560.464 133.516L552.572 126.303Z" fill="#008DD2"/>
</svg>
