<svg width="298" height="257" viewBox="0 0 298 257" fill="none" xmlns="http://www.w3.org/2000/svg">
<path d="M252.093 239.323L252.093 89.0934C252.093 79.6235 244.433 72 234.97 72L17.1157 72C7.68277 72 2.72943e-07 79.6235 2.72943e-07 89.0934L2.72943e-07 239.323C2.72943e-07 248.763 7.67536 256.424 17.1157 256.424L234.97 256.424C244.433 256.439 252.093 248.771 252.093 239.323ZM6.41466 164.216C6.41466 158.594 10.9606 154.049 16.5743 154.049C22.1955 154.049 26.7488 158.594 26.7488 164.216C26.7488 169.822 22.1955 174.383 16.5743 174.383C10.9606 174.383 6.41466 169.822 6.41466 164.216ZM35.6552 239.123L35.6552 89.3085L231.522 89.3085L231.522 239.123L35.6552 239.123V239.123Z" fill="white"/>
<path d="M113.504 180.632H79.52L65.12 209H46.112L97.664 111.944H120.128L135.824 209H117.248L113.504 180.632ZM85.424 166.952H112.208L108.608 142.472C108.512 142.184 107.744 136.52 106.304 125.48H106.016C105.44 126.536 104.24 129.08 102.416 133.112C100.688 137.144 99.248 140.216 98.096 142.328L85.424 166.952ZM161.276 209H146.636L163.076 123.08H177.716L161.276 209ZM193.993 139.4L208.873 135.44L206.113 150.56H219.913L217.633 161.96H203.833L199.633 183.56C198.833 187.24 198.433 190.24 198.433 192.56C198.433 196.16 200.273 197.96 203.953 197.96C205.873 197.96 207.553 197.84 208.993 197.6L207.673 209.12C205.673 210 202.513 210.44 198.193 210.44C193.313 210.44 189.633 209.32 187.153 207.08C184.753 204.76 183.553 201.8 183.553 198.2C183.553 194.68 183.993 190.84 184.873 186.68L189.673 161.96H181.513L183.673 150.56H191.833L193.993 139.4Z" fill="#E53A24"/>
<path d="M113.504 180.632L116.478 180.239L116.134 177.632H113.504V180.632ZM79.52 180.632V177.632H77.6785L76.8449 179.274L79.52 180.632ZM65.12 209V212H66.9615L67.7951 210.358L65.12 209ZM46.112 209L43.4626 207.593L41.1216 212H46.112V209ZM97.664 111.944V108.944H95.8605L95.0146 110.537L97.664 111.944ZM120.128 111.944L123.09 111.465L122.682 108.944H120.128V111.944ZM135.824 209V212H139.348L138.786 208.521L135.824 209ZM117.248 209L114.274 209.393L114.618 212H117.248V209ZM85.424 166.952L82.7565 165.579L80.5062 169.952H85.424V166.952ZM112.208 166.952V169.952H115.681L115.176 166.516L112.208 166.952ZM108.608 142.472L111.576 142.036L111.538 141.774L111.454 141.523L108.608 142.472ZM106.304 125.48L109.279 125.092L108.938 122.48H106.304V125.48ZM106.016 125.48V122.48H104.235L103.382 124.043L106.016 125.48ZM102.416 133.112L99.6827 131.875L99.6704 131.903L99.6586 131.93L102.416 133.112ZM98.096 142.328L95.4623 140.891L95.445 140.923L95.4285 140.955L98.096 142.328ZM113.504 177.632H79.52V183.632H113.504V177.632ZM76.8449 179.274L62.4449 207.642L67.7951 210.358L82.1951 181.99L76.8449 179.274ZM65.12 206H46.112V212H65.12V206ZM48.7614 210.407L100.313 113.351L95.0146 110.537L43.4626 207.593L48.7614 210.407ZM97.664 114.944H120.128V108.944H97.664V114.944ZM117.166 112.423L132.862 209.479L138.786 208.521L123.09 111.465L117.166 112.423ZM135.824 206H117.248V212H135.824V206ZM120.222 208.607L116.478 180.239L110.53 181.025L114.274 209.393L120.222 208.607ZM85.424 169.952H112.208V163.952H85.424V169.952ZM115.176 166.516L111.576 142.036L105.64 142.908L109.24 167.388L115.176 166.516ZM111.454 141.523C111.525 141.735 111.55 141.907 111.531 141.802C111.526 141.778 111.517 141.725 111.502 141.633C111.473 141.453 111.432 141.184 111.379 140.817C111.273 140.087 111.124 139.018 110.933 137.605C110.55 134.781 109.999 130.611 109.279 125.092L103.329 125.868C104.049 131.389 104.602 135.571 104.987 138.411C105.18 139.83 105.331 140.921 105.441 141.679C105.496 142.056 105.542 142.363 105.579 142.591C105.597 142.703 105.616 142.812 105.634 142.908C105.636 142.923 105.679 143.173 105.762 143.421L111.454 141.523ZM106.304 122.48H106.016V128.48H106.304V122.48ZM103.382 124.043C102.741 125.218 101.492 127.876 99.6827 131.875L105.149 134.349C106.988 130.284 108.139 127.854 108.65 126.917L103.382 124.043ZM99.6586 131.93C97.9429 135.934 96.5465 138.904 95.4623 140.891L100.73 143.765C101.95 141.528 103.433 138.354 105.173 134.294L99.6586 131.93ZM95.4285 140.955L82.7565 165.579L88.0915 168.325L100.764 143.701L95.4285 140.955ZM161.276 209V212H163.756L164.222 209.564L161.276 209ZM146.636 209L143.689 208.436L143.007 212H146.636V209ZM163.076 123.08V120.08H160.595L160.129 122.516L163.076 123.08ZM177.716 123.08L180.662 123.644L181.344 120.08H177.716V123.08ZM161.276 206H146.636V212H161.276V206ZM149.582 209.564L166.022 123.644L160.129 122.516L143.689 208.436L149.582 209.564ZM163.076 126.08H177.716V120.08H163.076V126.08ZM174.769 122.516L158.329 208.436L164.222 209.564L180.662 123.644L174.769 122.516ZM193.993 139.4L193.222 136.501L191.405 136.984L191.048 138.83L193.993 139.4ZM208.873 135.44L211.825 135.979L212.674 131.324L208.102 132.541L208.873 135.44ZM206.113 150.56L203.162 150.021L202.516 153.56H206.113V150.56ZM219.913 150.56L222.855 151.148L223.573 147.56H219.913V150.56ZM217.633 161.96V164.96H220.093L220.575 162.548L217.633 161.96ZM203.833 161.96V158.96H201.361L200.889 161.387L203.833 161.96ZM199.633 183.56L202.565 184.197L202.572 184.165L202.578 184.133L199.633 183.56ZM208.993 197.6L211.974 197.942L212.427 193.986L208.5 194.641L208.993 197.6ZM207.673 209.12L208.882 211.866L210.458 211.172L210.654 209.462L207.673 209.12ZM187.153 207.08L185.068 209.237L185.105 209.272L185.143 209.306L187.153 207.08ZM184.873 186.68L187.808 187.301L187.814 187.276L187.818 187.252L184.873 186.68ZM189.673 161.96L192.618 162.532L193.312 158.96H189.673V161.96ZM181.513 161.96L178.566 161.402L177.892 164.96H181.513V161.96ZM183.673 150.56V147.56H181.188L180.726 150.002L183.673 150.56ZM191.833 150.56V153.56H194.308L194.779 151.13L191.833 150.56ZM194.765 142.299L209.645 138.339L208.102 132.541L193.222 136.501L194.765 142.299ZM205.922 134.901L203.162 150.021L209.065 151.099L211.825 135.979L205.922 134.901ZM206.113 153.56H219.913V147.56H206.113V153.56ZM216.972 149.972L214.692 161.372L220.575 162.548L222.855 151.148L216.972 149.972ZM217.633 158.96H203.833V164.96H217.633V158.96ZM200.889 161.387L196.689 182.987L202.578 184.133L206.778 162.533L200.889 161.387ZM196.702 182.923C195.881 186.7 195.433 189.935 195.433 192.56H201.433C201.433 190.545 201.786 187.78 202.565 184.197L196.702 182.923ZM195.433 192.56C195.433 194.839 196.02 197.096 197.716 198.755C199.399 200.401 201.667 200.96 203.953 200.96V194.96C202.56 194.96 202.068 194.619 201.911 194.465C201.767 194.324 201.433 193.881 201.433 192.56H195.433ZM203.953 200.96C205.99 200.96 207.842 200.833 209.487 200.559L208.5 194.641C207.265 194.847 205.756 194.96 203.953 194.96V200.96ZM206.013 197.258L204.693 208.778L210.654 209.462L211.974 197.942L206.013 197.258ZM206.465 206.374C205.061 206.992 202.425 207.44 198.193 207.44V213.44C202.602 213.44 206.286 213.008 208.882 211.866L206.465 206.374ZM198.193 207.44C193.72 207.44 190.886 206.409 189.164 204.854L185.143 209.306C188.381 212.231 192.907 213.44 198.193 213.44V207.44ZM189.239 204.923C187.472 203.216 186.553 201.058 186.553 198.2H180.553C180.553 202.542 182.035 206.304 185.068 209.237L189.239 204.923ZM186.553 198.2C186.553 194.926 186.963 191.297 187.808 187.301L181.938 186.059C181.024 190.383 180.553 194.434 180.553 198.2H186.553ZM187.818 187.252L192.618 162.532L186.728 161.388L181.928 186.108L187.818 187.252ZM189.673 158.96H181.513V164.96H189.673V158.96ZM184.461 162.518L186.621 151.118L180.726 150.002L178.566 161.402L184.461 162.518ZM183.673 153.56H191.833V147.56H183.673V153.56ZM194.779 151.13L196.939 139.97L191.048 138.83L188.888 149.99L194.779 151.13Z" fill="white"/>
<path fill-rule="evenodd" clip-rule="evenodd" d="M159.591 57.5775L155.694 73.7378C155.694 73.7378 176.026 74.3664 193.197 78.4985C210.372 82.6448 228.754 91.3553 228.754 91.3553L232.714 74.9093C232.714 74.9093 216.611 60.6881 198.258 56.2632C179.912 51.8419 159.591 57.5775 159.591 57.5775Z" fill="#008DD2"/>
<path fill-rule="evenodd" clip-rule="evenodd" d="M164.934 55.2918C204.136 -23.0102 281.663 9.27486 281.663 9.27486L286.395 11.607C286.395 11.607 239.568 52.0526 266.214 105.151L164.934 55.2918Z" fill="#C73327"/>
<path fill-rule="evenodd" clip-rule="evenodd" d="M252.139 2.94645L214.382 79.6377L164.934 55.2918C188.54 8.14277 226.036 1.09648 252.139 2.94645Z" fill="#972825"/>
<path fill-rule="evenodd" clip-rule="evenodd" d="M152.68 78.8556L252.175 127.833C256.325 129.88 261.349 128.169 263.396 124.015L271.367 107.819C273.413 103.666 271.703 98.6444 267.549 96.5981L168.058 47.6205C163.905 45.5741 158.88 47.2848 156.837 51.4383L148.862 67.6344C146.82 71.7879 148.53 76.8128 152.68 78.8556Z" fill="#D2ECFB"/>
<path fill-rule="evenodd" clip-rule="evenodd" d="M168.058 47.6205L218.036 72.2236L202.658 103.459L152.68 78.8556C148.53 76.8128 146.82 71.7879 148.862 67.6344L156.837 51.4383C158.88 47.2848 163.905 45.5741 168.058 47.6205ZM291.517 1.19647C285.767 -1.63562 278.813 0.732194 275.981 6.48208C273.149 12.232 275.517 19.1854 281.267 22.0175C287.017 24.8496 293.974 22.4817 296.806 16.7319C299.634 10.982 297.267 4.02498 291.517 1.19647Z" fill="#A2D9F6"/>
</svg>
