<svg width="983" height="449" viewBox="0 0 983 449" fill="none" xmlns="http://www.w3.org/2000/svg">
<path d="M495.432 429.342H495.36C490.704 429.342 486.888 427.95 483.912 425.166C480.984 422.334 479.52 418.638 479.52 414.078C479.52 407.934 481.56 402.822 485.64 398.742C489.72 394.614 494.856 392.55 501.048 392.55C505.896 392.55 509.784 394.014 512.712 396.942C515.64 399.822 517.104 403.494 517.104 407.958C517.104 414.15 515.04 419.262 510.912 423.294C506.832 427.326 501.672 429.342 495.432 429.342ZM496.584 422.574H496.656C499.824 422.574 502.488 421.134 504.648 418.254C506.856 415.326 507.96 411.99 507.96 408.246C507.96 405.942 507.312 403.878 506.016 402.054C504.768 400.23 502.8 399.318 500.112 399.318C496.656 399.318 493.872 400.854 491.76 403.926C489.696 406.95 488.664 410.286 488.664 413.934C488.664 416.574 489.384 418.686 490.824 420.27C492.312 421.806 494.232 422.574 496.584 422.574Z" fill="#E53A24"/>
<path d="M527.965 393.414H536.749L534.229 406.734H548.701L551.149 393.414H559.933L553.309 428.478H544.525L547.405 413.574H532.933L530.125 428.478H521.341L527.965 393.414Z" fill="#E53A24"/>
<path d="M573.315 393.414H600.819L594.195 428.478H585.411L590.739 400.182H580.083L578.715 407.31C577.755 412.11 576.603 415.926 575.259 418.758C573.915 421.59 572.235 423.798 570.219 425.382C567.627 427.734 564.267 428.91 560.139 428.91L559.563 421.926C561.723 421.782 563.427 421.158 564.675 420.054C567.363 417.99 569.355 413.622 570.651 406.95L573.315 393.414Z" fill="#E53A24"/>
<path d="M637.93 428.478H629.722C629.722 426.654 629.938 423.846 630.37 420.054H630.226C626.914 426.246 622.306 429.342 616.402 429.342C613.042 429.342 610.282 428.166 608.122 425.814C606.01 423.462 604.954 420.462 604.954 416.814C604.954 410.19 607.306 404.502 612.01 399.75C616.762 394.95 623.194 392.55 631.306 392.55C635.146 392.55 638.962 393.102 642.754 394.206L639.37 411.99C638.218 417.798 637.738 423.294 637.93 428.478ZM631.378 407.886L632.818 399.75C631.666 399.462 630.394 399.318 629.002 399.318C625.018 399.318 621.538 400.926 618.562 404.142C615.634 407.358 614.17 411.102 614.17 415.374C614.17 417.39 614.626 419.046 615.538 420.342C616.498 421.638 617.938 422.286 619.858 422.286C622.258 422.286 624.562 421.038 626.77 418.542C629.026 415.998 630.562 412.446 631.378 407.886Z" fill="#E53A24"/>
<path d="M652.689 393.414H661.473L657.945 411.918C657.609 413.934 657.441 415.494 657.441 416.598C657.441 420.294 659.145 422.142 662.553 422.142C664.761 422.142 666.921 420.966 669.033 418.614C671.145 416.214 672.561 413.118 673.281 409.326L676.377 393.414H685.089L680.481 417.894C679.761 421.494 679.161 425.022 678.681 428.478H670.905L671.769 421.998H671.625C667.929 426.894 663.537 429.342 658.449 429.342C655.473 429.342 653.049 428.526 651.177 426.894C649.305 425.214 648.369 422.454 648.369 418.614C648.369 416.886 648.609 414.846 649.089 412.494L652.689 393.414ZM661.905 378.51H667.809C667.617 379.998 667.785 381.222 668.313 382.182C668.889 383.142 669.729 383.598 670.833 383.55C672.849 383.55 674.385 381.87 675.441 378.51H681.417C680.697 381.534 679.353 383.862 677.385 385.494C675.465 387.126 673.089 387.942 670.257 387.942C667.089 387.942 664.833 387.078 663.489 385.35C662.145 383.574 661.617 381.294 661.905 378.51Z" fill="#E53A24"/>
<path d="M695.379 393.414H704.163L701.643 406.734H716.115L718.563 393.414H727.347L720.723 428.478H711.939L714.819 413.574H700.347L697.539 428.478H688.755L695.379 393.414Z" fill="#E53A24"/>
<path d="M732.384 406.23H751.392L750.168 412.494H731.16L732.384 406.23Z" fill="#E53A24"/>
<path d="M760.828 393.414H769.324L765.796 412.422C765.508 414.054 765.364 415.422 765.364 416.526C765.364 420.366 766.9 422.286 769.972 422.286C772.18 422.286 774.244 421.086 776.164 418.686C778.084 416.286 779.38 413.214 780.052 409.47L783.004 393.414H791.5L787.828 412.782C787.54 414.606 787.396 415.854 787.396 416.526C787.396 420.366 788.908 422.286 791.932 422.286C794.044 422.286 796.132 421.014 798.196 418.47C800.26 415.878 801.628 412.782 802.3 409.182L805.18 393.414H813.604L809.14 417.678C808.852 419.406 808.564 423.006 808.276 428.478H800.284C800.332 426.27 800.452 424.158 800.644 422.142H800.5C797.236 426.942 793.012 429.342 787.828 429.342C785.044 429.342 782.86 428.598 781.276 427.11C779.74 425.622 778.924 423.822 778.828 421.71C775.468 426.798 771.004 429.342 765.436 429.342C762.892 429.342 760.78 428.502 759.1 426.822C757.42 425.142 756.58 422.67 756.58 419.406C756.58 417.39 756.748 415.47 757.084 413.646L760.828 393.414Z" fill="#E53A24"/>
<path d="M824.052 393.414H832.548L829.812 408.102H831.108L845.364 393.414H855.876L838.74 409.11C840.468 409.686 841.884 410.814 842.988 412.494C844.14 414.174 845.172 416.454 846.084 419.334C846.372 420.102 846.708 421.158 847.092 422.502C847.524 423.846 847.884 425.022 848.172 426.03C848.508 426.99 848.844 427.806 849.18 428.478H840.54C840.396 428.142 839.436 425.382 837.66 420.198C836.652 417.654 835.572 415.878 834.42 414.87C833.316 413.862 831.756 413.358 829.74 413.358H828.732L825.852 428.478H817.356L824.052 393.414Z" fill="#E53A24"/>
<path d="M870.69 429.342H870.618C865.962 429.342 862.146 427.95 859.17 425.166C856.242 422.334 854.778 418.638 854.778 414.078C854.778 407.934 856.818 402.822 860.898 398.742C864.978 394.614 870.114 392.55 876.306 392.55C881.154 392.55 885.042 394.014 887.97 396.942C890.898 399.822 892.362 403.494 892.362 407.958C892.362 414.15 890.298 419.262 886.17 423.294C882.09 427.326 876.93 429.342 870.69 429.342ZM871.842 422.574H871.914C875.082 422.574 877.746 421.134 879.906 418.254C882.114 415.326 883.218 411.99 883.218 408.246C883.218 405.942 882.57 403.878 881.274 402.054C880.026 400.23 878.058 399.318 875.37 399.318C871.914 399.318 869.13 400.854 867.018 403.926C864.954 406.95 863.922 410.286 863.922 413.934C863.922 416.574 864.642 418.686 866.082 420.27C867.57 421.806 869.49 422.574 871.842 422.574Z" fill="#E53A24"/>
<path d="M906.667 393.414H934.171L927.547 428.478H918.763L924.091 400.182H913.435L912.067 407.31C911.107 412.11 909.955 415.926 908.611 418.758C907.267 421.59 905.587 423.798 903.571 425.382C900.979 427.734 897.619 428.91 893.491 428.91L892.915 421.926C895.075 421.782 896.779 421.158 898.027 420.054C900.715 417.99 902.707 413.622 904.003 406.95L906.667 393.414Z" fill="#E53A24"/>
<path d="M971.282 428.478H963.074C963.074 426.654 963.29 423.846 963.722 420.054H963.578C960.266 426.246 955.658 429.342 949.754 429.342C946.394 429.342 943.634 428.166 941.474 425.814C939.362 423.462 938.306 420.462 938.306 416.814C938.306 410.19 940.658 404.502 945.362 399.75C950.114 394.95 956.546 392.55 964.658 392.55C968.498 392.55 972.314 393.102 976.106 394.206L972.722 411.99C971.57 417.798 971.09 423.294 971.282 428.478ZM964.73 407.886L966.17 399.75C965.018 399.462 963.746 399.318 962.354 399.318C958.37 399.318 954.89 400.926 951.914 404.142C948.986 407.358 947.522 411.102 947.522 415.374C947.522 417.39 947.978 419.046 948.89 420.342C949.85 421.638 951.29 422.286 953.21 422.286C955.61 422.286 957.914 421.038 960.122 418.542C962.378 415.998 963.914 412.446 964.73 407.886Z" fill="#E53A24"/>
<path d="M432.452 347.97L433.94 358.758C427.409 362.23 419.68 363.966 410.752 363.966C402.155 363.966 395.541 361.652 390.912 357.022C386.365 352.31 384.092 345.945 384.092 337.926C384.092 328.172 387.523 319.533 394.384 312.01C401.328 304.405 409.967 300.602 420.3 300.602C426.665 300.602 431.791 302.173 435.676 305.314C439.644 308.456 441.628 312.713 441.628 318.086C441.628 325.444 437.908 330.61 430.468 333.586C423.028 336.562 412.447 337.885 398.724 337.554C398.393 340.53 399.013 343.3 400.584 345.862C403.229 350.078 407.776 352.186 414.224 352.186C420.92 352.186 426.996 350.781 432.452 347.97ZM427.12 317.838V317.714C427.12 315.896 426.293 314.408 424.64 313.25C423.069 312.093 421.003 311.514 418.44 311.514C413.728 311.514 409.76 313.085 406.536 316.226C403.312 319.285 401.204 322.674 400.212 326.394C409.388 326.477 416.167 325.898 420.548 324.658C424.929 323.418 427.12 321.145 427.12 317.838Z" fill="#008DD2"/>
<path d="M457.2 387.278H442.072L453.852 325.278C455.257 317.177 456.414 309.324 457.324 301.718H471.088L469.6 312.258H469.848C475.717 304.488 483.116 300.602 492.044 300.602C498.822 300.602 504.072 302.917 507.792 307.546C511.512 312.093 513.372 317.714 513.372 324.41C513.372 335.405 509.776 344.746 502.584 352.434C495.474 360.122 486.588 363.966 475.924 363.966C470.054 363.966 465.549 362.974 462.408 360.99H462.16L457.2 387.278ZM466.624 336.934L464.64 348.838C467.202 351.153 470.922 352.31 475.8 352.31C481.504 352.31 486.546 349.665 490.928 344.374C495.309 339.084 497.5 332.718 497.5 325.278C497.5 321.972 496.59 319.078 494.772 316.598C492.953 314.036 490.225 312.754 486.588 312.754C482.206 312.754 478.114 314.904 474.312 319.202C470.509 323.501 467.946 329.412 466.624 336.934Z" fill="#008DD2"/>
<path d="M532.316 302.09H547.444L543.104 325.03H568.028L572.244 302.09H587.372L575.964 362.478H560.836L565.796 336.81H540.872L536.036 362.478H520.908L532.316 302.09Z" fill="#008DD2"/>
<path d="M651.103 362.478H636.967C636.967 359.337 637.339 354.501 638.083 347.97H637.835C632.131 358.634 624.195 363.966 614.027 363.966C608.24 363.966 603.487 361.941 599.767 357.89C596.129 353.84 594.311 348.673 594.311 342.39C594.311 330.982 598.361 321.186 606.463 313.002C614.647 304.736 625.724 300.602 639.695 300.602C646.308 300.602 652.88 301.553 659.411 303.454L653.583 334.082C651.599 344.085 650.772 353.55 651.103 362.478ZM639.819 327.014L642.299 313.002C640.315 312.506 638.124 312.258 635.727 312.258C628.865 312.258 622.872 315.028 617.747 320.566C612.704 326.105 610.183 332.553 610.183 339.91C610.183 343.382 610.968 346.234 612.539 348.466C614.192 350.698 616.672 351.814 619.979 351.814C624.112 351.814 628.08 349.665 631.883 345.366C635.768 340.985 638.413 334.868 639.819 327.014Z" fill="#008DD2"/>
<path d="M680.97 362.478H666.462L674.274 320.318C675.68 312.713 676.63 306.637 677.126 302.09H690.27L688.782 313.002H689.03C694.9 304.736 702.381 300.602 711.474 300.602C716.434 300.602 720.237 301.884 722.882 304.446C725.528 306.926 726.933 310.026 727.098 313.746C732.885 304.984 740.614 300.602 750.286 300.602C754.916 300.602 758.718 302.049 761.694 304.942C764.753 307.836 766.282 312.093 766.282 317.714C766.282 321.104 765.993 324.41 765.414 327.634L758.966 362.478H744.334L750.41 329.742C750.906 326.932 751.154 324.576 751.154 322.674C751.154 316.061 748.344 312.754 742.722 312.754C738.92 312.754 735.282 314.821 731.81 318.954C728.421 323.088 726.148 328.378 724.99 334.826L719.906 362.478H705.398L711.598 329.122C712.094 325.981 712.342 323.832 712.342 322.674C712.342 316.061 709.573 312.754 704.034 312.754C700.232 312.754 696.553 314.945 692.998 319.326C689.444 323.708 687.088 328.998 685.93 335.198L680.97 362.478Z" fill="#008DD2"/>
<path d="M786.958 302.09H802.086L796.01 333.958C795.432 337.43 795.142 340.117 795.142 342.018C795.142 348.384 798.077 351.566 803.946 351.566C807.749 351.566 811.469 349.541 815.106 345.49C818.744 341.357 821.182 336.025 822.422 329.494L827.754 302.09H842.758L834.822 344.25C833.582 350.45 832.549 356.526 831.722 362.478H818.33L819.818 351.318H819.57C813.205 359.75 805.641 363.966 796.878 363.966C791.753 363.966 787.578 362.561 784.354 359.75C781.13 356.857 779.518 352.104 779.518 345.49C779.518 342.514 779.932 339.001 780.758 334.95L786.958 302.09Z" fill="#008DD2"/>
<path d="M886.396 300.602H886.52C893.133 300.602 898.3 301.884 902.02 304.446C905.822 306.926 907.724 310.605 907.724 315.482C907.724 319.12 906.236 322.178 903.26 324.658C900.284 327.138 896.936 328.874 893.216 329.866V330.114C896.77 330.528 899.87 331.892 902.516 334.206C905.161 336.438 906.484 339.414 906.484 343.134C906.484 346.854 905.45 350.161 903.384 353.054C901.4 355.865 898.754 358.056 895.448 359.626C892.224 361.114 888.876 362.189 885.404 362.85C882.014 363.594 878.584 363.966 875.112 363.966C859.074 363.966 851.056 357.808 851.056 345.49C851.056 339.042 852.461 331.85 855.272 323.914C858.082 315.896 861.968 310.068 866.928 306.43C872.301 302.545 878.79 300.602 886.396 300.602ZM885.28 310.894H885.156C880.774 310.894 877.385 312.465 874.988 315.606C872.59 318.748 870.648 322.922 869.16 328.13C878.088 326.973 884.04 325.65 887.016 324.162C891.066 322.344 893.092 319.946 893.092 316.97C893.092 314.986 892.348 313.498 890.86 312.506C889.454 311.432 887.594 310.894 885.28 310.894ZM879.576 335.942H879.452C875.732 335.942 871.681 336.521 867.3 337.678C866.721 340.158 866.432 342.39 866.432 344.374C866.432 350.492 869.821 353.55 876.6 353.55C880.733 353.55 884.164 352.682 886.892 350.946C889.702 349.128 891.108 346.772 891.108 343.878C891.108 338.588 887.264 335.942 879.576 335.942Z" fill="#008DD2"/>
<path d="M973.939 362.478H959.803C959.803 359.337 960.175 354.501 960.919 347.97H960.671C954.967 358.634 947.031 363.966 936.863 363.966C931.076 363.966 926.323 361.941 922.603 357.89C918.965 353.84 917.147 348.673 917.147 342.39C917.147 330.982 921.197 321.186 929.299 313.002C937.483 304.736 948.56 300.602 962.531 300.602C969.144 300.602 975.716 301.553 982.247 303.454L976.419 334.082C974.435 344.085 973.608 353.55 973.939 362.478ZM962.655 327.014L965.135 313.002C963.151 312.506 960.96 312.258 958.563 312.258C951.701 312.258 945.708 315.028 940.583 320.566C935.54 326.105 933.019 332.553 933.019 339.91C933.019 343.382 933.804 346.234 935.375 348.466C937.028 350.698 939.508 351.814 942.815 351.814C946.948 351.814 950.916 349.665 954.719 345.366C958.604 340.985 961.249 334.868 962.655 327.014Z" fill="#008DD2"/>
<path fill-rule="evenodd" clip-rule="evenodd" d="M399.477 222.561V159.779H61.5209V418.275H399.477V418.275L400.278 385.554L429.583 385.44L434.971 385.262V418.62C434.971 434.922 421.754 448.153 405.426 448.128L29.5317 448.126C13.2427 448.126 0 434.909 0 418.62V159.409C0 143.068 13.2563 129.915 29.5317 129.915H405.426C421.754 129.915 434.971 143.068 434.971 159.409L435 286.555H399.816L399.477 222.561V222.561ZM11.0678 289.027C11.0678 298.701 18.9109 306.57 28.5983 306.57C38.2962 306.57 46.1533 298.701 46.1533 289.027C46.1533 279.328 38.2981 271.484 28.5983 271.484C18.9109 271.484 11.0678 279.328 11.0678 289.027Z" fill="#515151"/>
<path d="M195.949 310.965H133.445L106.96 365.915H72L166.815 177.915H208.132L237 365.915H202.835L195.949 310.965ZM144.303 284.467H193.565L186.944 237.048C186.767 236.491 185.355 225.519 182.706 204.134H182.177C181.117 206.18 178.91 211.108 175.555 218.918C172.377 226.728 169.729 232.678 167.61 236.769L144.303 284.467Z" fill="#E53A24"/>
<path d="M273.78 365.915H245.11L277.305 197.655H305.975L273.78 365.915Z" fill="#E53A24"/>
<path d="M337.852 229.615L366.992 221.86L361.587 251.47H388.612L384.147 273.795H357.122L348.897 316.095C347.331 323.302 346.547 329.177 346.547 333.72C346.547 340.77 350.151 344.295 357.357 344.295C361.117 344.295 364.407 344.06 367.227 343.59L364.642 366.15C360.726 367.873 354.537 368.735 346.077 368.735C336.521 368.735 329.314 366.542 324.457 362.155C319.757 357.612 317.407 351.815 317.407 344.765C317.407 337.872 318.269 330.352 319.992 322.205L329.392 273.795H313.412L317.642 251.47H333.622L337.852 229.615Z" fill="#E53A24"/>
<path fill-rule="evenodd" clip-rule="evenodd" d="M299.859 105.838L286.906 132.851C286.906 132.851 322.501 141.615 351.207 155.364C379.913 169.14 409.028 191.414 409.028 191.414L422.202 163.921C422.202 163.921 399.178 132.794 368.499 118.084C337.832 103.382 299.859 105.838 299.859 105.838Z" fill="#008DD2"/>
<path fill-rule="evenodd" clip-rule="evenodd" d="M310.136 103.822C408.714 -19.4112 533.186 66.6838 533.186 66.6838L540.648 72.5759C540.648 72.5759 442.888 126.22 469.851 229.835L310.136 103.822Z" fill="#C73327"/>
<path fill-rule="evenodd" clip-rule="evenodd" d="M483.537 44.4119L388.114 165.351L310.136 103.822C369.496 29.6182 438.23 31.3211 483.537 44.4119Z" fill="#972825"/>
<path fill-rule="evenodd" clip-rule="evenodd" d="M279.666 140.735L436.567 264.521C443.11 269.691 452.61 268.568 457.78 262.019L477.928 236.477C483.099 229.928 481.975 220.435 475.426 215.264L318.532 91.4788C311.983 86.3081 302.483 87.4305 297.318 93.9812L277.164 119.521C272 126.072 273.122 135.572 279.666 140.735Z" fill="#D2ECFB"/>
<path fill-rule="evenodd" clip-rule="evenodd" d="M318.532 91.4788L397.345 153.66L358.479 202.916L279.666 140.735C273.122 135.572 272 126.072 277.164 119.521L297.318 93.9812C302.482 87.4306 311.982 86.3081 318.532 91.4788ZM553.594 56.1576C544.527 49.001 531.381 50.5552 524.224 59.6221C517.067 68.6889 518.622 81.8351 527.688 88.9917C536.755 96.1483 549.908 94.5954 557.064 85.5285C564.215 76.4604 562.662 63.3079 553.594 56.1576Z" fill="#A2D9F6"/>
</svg>
