<svg xmlns="http://www.w3.org/2000/svg" width="3809" height="4726" viewBox="0 0 3809 4725" shape-rendering="geometricPrecision" text-rendering="geometricPrecision" image-rendering="optimizeQuality" fill-rule="evenodd" clip-rule="evenodd"><path d="M3062 2634v-149c0-75-75-75-75-150 0-74 0-74 75-74 0 74 75 74 150 74 0-74 0-74 74-74v-75c150 299 0 448-74 597l-75 150c0-75-75-75-75-150v-149zm0 0h-149c-150-75-75 0-150 0-74 75-74 0-149 0 0 75 75 75 75 75 74 74 224 0 224 74v75c74 75 0 0 74 0 75 150-149 75-224 75-74 75-74 75-149 75s0-75-75-75c-74 0-74 75-74 75v74c74 75 74-74 224 0h298c0 75 0 75-74 75 0 0-150 75-150 0h-74v149c74 75 149 0 224 75 74 149-75 224-150 224h-373c-373-75-448-75-672-224-75-75-75-149-150-224 0 0-149-149-74-149l149-75v-150c-75 0-149-149-149-224-75-74-150-224-150-373-74-75-74-75 0-149 75-150 75-299 75-448 0-150 0-75-75-225 75-74 150-149 150-298-75-150-150-150-150-224H971c-75 0-75 74-149 74 0 75-75 150-75 150-150 224-150 224-75 448v523c-75 224-75 224 0 298 75 0 75 75 150 75 0 75 74 149 74 224l150 149c74 0 0 0 0 75s74 150 74 150c0 74 75 0 75 74 0 150-75 224-149 448h-75c-75 0-75-74-75-74H672c-75 74-149 149-75 149 75 75 150 0 374 0 149 0 523 149 672 149 224 150 149 75 224 150h75c-75 0-448-75-523-150l-448-74c-75 0-75 0-149 74h149c149 0 971 224 1046 299l-822 75h-75c-149 0-373 75-373 75-75 0 0 149 0 149 224 0 448-75 672-75 149 0 523 75 672 75h-523c-149 0-597 0-746 75h-75 1942c298 74 373 0 523 149 74 0 373 149 373 149h224l-75-74c-149 0-373-75-448-150-74-74-74-74-149-74-150-75-523-299-598-374v-75c75 0 150 75 224 150 224 75 374 75 523 75 75-75-74 74 0 149 0 0 0-75 75-149 0 0 0-75 75-150h-75c-75 0-224 75-374 0-149 0-298-75-448-149v-75c75 0 75-75 75-75 149 0 373-74 448-224 75-224 150-373 224-597 0-75 0-150 75-224v-224s75 74 149 0c0 0 75-75 75-150 0-74-75 0-75-74 0-224 150-75 224-374v-298l-149-150c-75-149-75-75-75-224s-74-149-74-299c-75-149 74-149 0-298l-224-224c-374-299-374-150-523-299-374-224-672 0-971 149-75 0-224 75-299 150-149 0-448 0-448 298 0 75 0 75 75 75 74 0 224 0 298 75h150c74 0 373-75 523-75 522 0 597 149 746 75 150-75 75-150 299 0 0 0 150 149 224 149 75 224 0 523 75 822-75-75-75-75-224-75-75 75-75 0-150 0 0 0-74 0-74 75-75 149-75 224 0 373v75c74 74 74 74 74 149 75 149 75 149 75 224zM822 2410s0-75 74 0v75l75 74c0 75 75 75 75 75 74 0 0 0 0 0-75-75-75-149-75-224-75 0 0 0 0 0 75 75 0 149 149 149h75v75c149-75 0-149 0-224l149 75 75 448c0 149 149 373 149 373 75 150 374 374 449 523h-75c-224-75-523-224-822-299-74 0 0-74 75-149 0-75 0-224 75-373h74c0-75-74-225-74-225-75 0-75 75-150 0v-74c-149 0-224-75-224-224-74 0-74-75-74-75zm1419 1793l74 74h-74c-150-74-75-74-150-74h-523l449-75h74c75 0 150 75 150 75zm971-2166l-75-75h-75 150v75zm0 149h-75c-75 75-75 0-150 0h225zm-75 0s-75 0 0-75v-74c0 74 75 0 75 74h-75v75zm-822-75v-74c75 0 75 0 75 74-75 0-75 75-75 0zm-74 0s0-74 74-74c0 74 0 74-74 74zm-224-298c-75 74-150 224-150 298 0 0 75 75 75 0 75 0 75-74 75-74 74-75 74-150 224-75h74c-149 0-224 0-298 149h74c75 0 0 0 75 75h-75v-75 75c75 75 224 75 299 75 75 74 149-75 224-150 75 0 149-298 75-373-75-75-150 0-448-75-75 0-224-74-224 75h-75v75h75zM523 3904l74-75 75-75c-75-74-75 0-75 75-74 0-74 0-149 75v-75h75v-75c74 0 74-74 0-74l-75 149c-75 149-149 299-224 374l-75 74c75 0 150 0 150-74v-75l224-224zM75 4203c74 0 74 0 149-150l149-224 75-75c-75-74-149 75-224 150L75 4128v75zM0 4053c75 0 75 0 149-75v-74c75 0 75-75 75-75-75 0-75 0-149 75 0 74-75 149-75 149zm2241 150v74h74l-74-74c0 74 74 74 0 0zm672-822l-75-75 75 75zm-299-1195v-75 75zm448-75z" fill="#008dd2"/></svg>