<svg xmlns="http://www.w3.org/2000/svg" width="512" height="512" viewBox="0 0 611.977 611.977"><g fill="#FFF"><path d="M585.604 209.8H564.88v-56.368c0-14.536-11.817-26.396-26.418-26.396H26.396C11.817 127.036 0 138.896 0 153.432v305.112c0 14.601 11.817 26.396 26.396 26.396h512.066c14.6 0 26.396-11.817 26.396-26.396v-54.142h20.723c14.6 0 26.396-11.753 26.396-26.396V236.218c.023-14.6-11.773-26.418-26.373-26.418zm-73.538 222.347H52.814V179.85h459.251v198.155l.001 54.142z"/><path d="M78.119 203.934h82.679v204.064H78.119z"/></g></svg>