<svg xmlns="http://www.w3.org/2000/svg" width="512" height="512"><path d="M490.2 49.1c-14.4-24-40-38.2-68.5-38.2-11.3 0-20.5 9.3-20.5 20.7 0 11.5 9.2 20.7 20.5 20.7 14.1 0 26.6 6.8 33.5 18.3 6.1 10.1 6.6 21.8 1.4 32.3l-73.1 119.3c-.3.4-.5.9-.8 1.4-6.5 12.6-19.3 20.2-34.3 20.3h-.3c-14.9 0-27.8-7.5-34.4-20-.2-.5-.5-.9-.8-1.3L238 103.2c-5.3-10.5-4.9-22.3 1.1-32.5 6.9-11.6 19.4-18.5 33.6-18.5 11.3 0 20.5-9.3 20.5-20.7 0-11.4-9.2-20.7-20.5-20.7-28.7 0-54.4 14.4-68.8 38.6-13.5 22.8-14.2 50.5-1.8 73.9.2.5.5.9.8 1.3l75 119.4c10.2 18.8 27.4 32.2 47.7 38-6.8 72.4-30.4 167.6-66.7 176.5-12.4 3-47.7-1.7-112.7-106.5 13.3-14.1 21.5-33.2 21.5-54.2 0-43.5-35.1-78.9-78.3-78.9-43.2 0-78.3 35.4-78.3 78.9 0 43.5 35.1 78.8 78.3 78.8 7.5 0 14.8-1.1 21.7-3.1 52.8 85.3 99.5 127.1 142 127.1 5.2 0 10.3-.6 15.4-1.9 74-18.2 93.5-163.6 98.1-215.8 22.3-5.2 41.3-19.5 52.1-39.8l73.2-119.4c.3-.4.5-.9.8-1.4 12-23.2 11.1-50.6-2.5-73.2zM52.2 298c0-20.6 16.7-37.4 37.3-37.4 20.6 0 37.3 16.8 37.3 37.4 0 20.6-16.7 37.4-37.3 37.4-20.6-.1-37.3-16.8-37.3-37.4z" fill="#FFF"/></svg>