<svg xmlns="http://www.w3.org/2000/svg" viewBox="0 0 307.164 307.164" width="512" height="512"><g fill="#FFF"><path d="M193.307 126.847A467.822 467.822 0 0 0 296.811 8.601a2.381 2.381 0 0 0-3.458-3.15c-9.58 7.185-24.574 17.651-39.701 25.109-19.557 9.641-40.571 13.577-51.19 15.055a15.619 15.619 0 0 0-10.929 6.941c-5.225 8.016-15.351 23.039-28.405 39.984 6.044 7.515 12.568 15.213 19.406 22.654 3.755 4.085 7.343 7.965 10.773 11.653zm-77.914 20.321c-17.296 18.396-29.524 30.808-36.563 37.816l-3.183-3.183c-3.906-3.904-10.236-3.904-14.143 0-3.905 3.905-3.905 10.237 0 14.143l1.405 1.405a12.473 12.473 0 0 0-10.071 3.598c-3.232 3.232-4.311 7.791-3.263 11.921-4.131-1.048-8.69.031-11.922 3.262-3.232 3.232-4.311 7.792-3.263 11.922-4.13-1.047-8.69.031-11.921 3.262-2.991 2.991-4.14 7.119-3.466 10.992l-1.932-1.932c-3.906-3.904-10.236-3.904-14.143 0-3.905 3.905-3.905 10.237 0 14.143l42.193 42.192a10.005 10.005 0 0 0 5.977 2.868l23.146 2.55c.372.041.741.061 1.107.061 5.031 0 9.363-3.789 9.927-8.906.605-5.489-3.354-10.43-8.845-11.034l-19.653-2.165-14.243-14.243c.712.124 1.432.195 2.153.195 3.199 0 6.398-1.221 8.839-3.661 3.232-3.232 4.311-7.791 3.263-11.921 1.011.257 2.046.399 3.083.399 3.199 0 6.398-1.221 8.839-3.661 3.232-3.232 4.311-7.791 3.263-11.922 1.011.256 2.045.398 3.082.398 3.199 0 6.398-1.221 8.839-3.661a12.473 12.473 0 0 0 3.599-10.071l2.814 2.814 2.166 19.653c.563 5.118 4.895 8.906 9.927 8.906.366 0 .735-.02 1.107-.061 5.49-.605 9.45-5.545 8.845-11.034l-2.55-23.145a10.008 10.008 0 0 0-2.868-5.977l-5.84-5.84 41.007-41.007a482.113 482.113 0 0 1-26.712-19.076z"/><path d="M304.235 240.375c-3.906-3.904-10.236-3.904-14.143 0l-1.932 1.932c.674-3.873-.475-8.001-3.466-10.992-3.232-3.232-7.79-4.31-11.921-3.262 1.048-4.131-.03-8.691-3.262-11.922-3.232-3.232-7.79-4.31-11.92-3.263 1.047-4.13-.031-8.689-3.263-11.921a12.46 12.46 0 0 0-3.943-2.657 12.519 12.519 0 0 0-6.13-.941l1.406-1.406c3.905-3.905 3.905-10.237 0-14.143-3.906-3.904-10.236-3.904-14.143 0l-3.183 3.183c-9.534-9.492-28.572-28.879-56.844-59.64-25.939-28.223-47.365-59.759-55.859-72.788a15.617 15.617 0 0 0-10.929-6.942c-10.619-1.478-31.633-5.414-51.19-15.055-15.128-7.456-30.122-17.923-39.702-25.107a2.377 2.377 0 0 0-3.032.145 2.381 2.381 0 0 0-.426 3.006A467.811 467.811 0 0 0 154.2 156.256l2.486 1.615 49.381 49.381-5.84 5.84a10.005 10.005 0 0 0-2.868 5.977l-.068.62-2.481 22.526c-.606 5.489 3.354 10.43 8.845 11.034.372.041.741.061 1.107.061 5.031 0 9.363-3.788 9.927-8.906l1.29-11.707 4.632-4.632a12.453 12.453 0 0 0 2.656 3.942 12.463 12.463 0 0 0 8.839 3.661c1.037 0 2.072-.142 3.083-.399-1.048 4.131.03 8.69 3.262 11.922a12.46 12.46 0 0 0 8.839 3.661c1.037 0 2.071-.142 3.082-.398-1.048 4.13.031 8.689 3.263 11.921a12.463 12.463 0 0 0 8.839 3.661c.721 0 1.441-.071 2.154-.195l-14.243 14.243-19.653 2.165c-5.49.604-9.45 5.545-8.845 11.034.563 5.118 4.895 8.906 9.927 8.906.366 0 .735-.021 1.107-.061l23.146-2.55a10.008 10.008 0 0 0 5.977-2.868l42.192-42.192c3.904-3.906 3.904-10.238-.001-14.143z"/></g></svg>