<svg xmlns="http://www.w3.org/2000/svg" viewBox="0 0 19.938 19.938" width="512" height="512"><path d="M19.548 11.995c-.336-.883-.349-1.508-.263-1.871.086-.361.275-.477.275-.477s-.013-.162-.175-.162c-.158 0-.621.047-.621.047s.36-.699.42-1.801c.058-1.102-.03-1.754-.03-1.9s-.057-.291-.232-.436c-.174-.145-.347-.434-.261-.479.086-.043.202.031.232-.057.012-.035.005-.088 0-.129-.005-.066-.015-.117-.015-.117.021-.016.085-.006.086-.049-.05-.086-.13-.156-.13-.156s.013-.115-.03-.201c-.041-.088-.216-.232-.404-.189-.189.043-.352.033-.364.309-.009.168.104.17.088.258s-.009.201-.058.264c-.06.068-.392-.309-.625-.393-.23-.088-.42-.088-.42-.088l-.275.23s-.914-.275-1.407-.289c-.493-.016-.624.059-.537.26.087.203.264.406.16.496-.101.084-.203.201-.101.271.101.076.231.119.231.119s-.448.58.436.521c.885-.059 1.103-.307 1.103-.307s.231.031.305.088c.07.057.204.16.246.174.045.018.133.174.465.188.333.016.421-.027.479.074.06.098.306.334.276.508s-.339.279-.471.506c-.299.514-.139 1.152-.881 1.932a7.271 7.271 0 0 0-.606.725c-.189.26-.261.535-.261.535s.261.248.636.451c.378.203.596.408.596.408l-.029.244s.683.188.509.479c-.176.291-.696.291-.696.291l.015.391.551-.014s-.015.74-1.958 1.057c-1.533.254-4.273.316-5.641.33l.078-4.887.007-.244s.392-.188.248-.436a3.143 3.143 0 0 0-.24-.348l.092-5.855.167-.09-.263-1.029-.263 1.023.202.107-.052 3.381-.055 2.422s-.057.115-.189.176c-.127.057-.186-.017-.186-.017s-.1-.346-.452-.65c-.347-.309-.564-.378-.564-.378l.029-.188s.206.115.261.043c.058-.073.048-.175.004-.275-.041-.101-.034-.175-.047-.218-.012-.045.101-.017.101-.075 0-.057-.174-.258-.174-.258s-.027-.203-.089-.307c-.06-.105-.142-.129-.42-.058-.274.075-.362.192-.331.393.028.202.085.288.028.334-.059.043-.175.129-.102.202a.911.911 0 0 0 .188.132l-.042.245-.363.073s.088-.23-.016-.291c-.101-.058-.155-.103-.155-.103l.004-4.75.165-.076-.262-1.028-.262 1.022.168.09-.008 4.791s-.113.113-.067.229c.022.064.051.129.071.189v.234c-.054.139-.16.346-.16.346s-.159-.536-.348-.683c-.189-.142-.436-.2-.436-.2v-.278s.145-.043.204-.115c.059-.075.014-.174-.044-.263-.058-.086-.044-.232-.103-.418-.057-.191-.115-.146-.115-.146s-.043-.174-.29-.133c-.247.045-.332.161-.317.422.013.26-.088.26-.073.391.011.132.131.262.187.262.06 0 .072.115-.029.189-.1.073-.642.257-.642.257s-.069.584-.039 1.064c.028.479.129.649.245.723.115.076.174.119.174.119s-.101.346-.129.648c-.028.306-.028.407-.028.407l-.262-.114s-.073-.262-.073-.391c0-.135-.015-.393-.028-.494-.013-.1-.073-.725-.013-.973.058-.245-.03-.505-.016-.591a.48.48 0 0 0-.089-.395c-.116-.143-.158-.188-.288-.249-.132-.053-.247-.041-.275-.17-.03-.131-.015-.26-.015-.26s.158.027.203-.223c.043-.243.073-.343-.088-.418 0 0 .062-.166-.068-.34-.13-.176-.295-.139-.295-.139l-.1-.029s-.245.029-.334.191c-.087.158-.04.224-.04.328 0 .1-.133.223-.019.309.054.039-.028.232.104.275l.128.045s.06.215-.029.188c-.087-.031-.276-.175-.52-.147-.247.033-.45.033-.594.101-.147.073-.06.102-.277.102h-.479s-.1-.102-.143-.102c-.046 0-.596-.027-.596-.027l-.131.06-.377-.018-.189-.056S.457 6.44.415 6.44c0 0 .128-1.375.564-1.885.435-.507.668-.466 1.131-.564.465-.103.844-.245 1.045-.465.205-.218.292-.463.292-.463s.046-.184-.039-.047c-.252.396-.363.497-.523.575-.623.303-.89.197-1.411.371-.523.172-.696.361-.943.898-.247.536-.362 1.61-.362 1.61s-.132.073-.132.187c0 .117-.072.32-.016.365.059.045.105.012.105.012s.027 1.307.36 1.943c.257.49.598.639.743.68.071.439.184.905.044 1.252-.205.492-.35 1.029-.35 1.029s.639.346.87.436c.233.086.305.172.305.172l-.028.352s.259.246.595.285c.332.049.565.178.696.264.132.09.102.395.102.395l-3.005-.246.264 1.143.942.145.247.613s.854.475 2.045.766c1.187.291 3.292.291 3.292.291s-.351.68.071 1.102c.42.422 1.016.322 1.016.322v.91h1.292v-.768s.644.043.79.014.259-.146.259-.146v.9l1.72.037-.093-1.123 1.122-.014v1.145h2.017s.042-.871-.103-1.451-.464-1.104-.509-1.115c-.043-.016 3.267-.234 4.397-1.32 1.132-1.093.652-2.165.321-3.052zM1.183 9.125c-.004.106.005.218.015.336-.113-.059-.35-.227-.579-.727C.298 8.037.387 7.052.387 7.052s.028-.018.131-.018c.102 0 .348.104.348.104l1.13.42c-.001 0-.783 1.017-.813 1.567zm4.592 4.22c-.038.125-.047.23-.028.281.021.049.028.271.028.271l-.646-.066s.146-.059.105-.146c-.037-.086-.164-.117-.164-.145 0-.029-.027-.184.039-.365.066-.188.251-.533.251-.533l.396.047c.001 0 .059.531.019.656zm1.441.656s.116-.096.089-.154c-.031-.057-.241-.039-.416-.074-.175-.039-.28-.146-.312-.281-.028-.135.071-.783.071-.783l.221.01s.194-2.164.194-2.67c0-.5.018-.754-.03-.918-.048-.165-.086-.28-.086-.28l.02-.221s.125.094.262.105a.459.459 0 0 0 .147-.017v2.062a1.611 1.611 0 0 1-.014.139c-.057.395.04 1.48-.009 1.738-.047.264-.029.764-.029.764l.054.057v.523h-.162zm2.774.037l-.423.002s.045-.174-.058-.188-.406.014-.479-.146c-.072-.158.016-.406.016-.406l.188-.025.204-1.322s.507-.07.521-.201c.016-.131.073-.666.073-.666l-.042 2.952z" fill="#FFF"/></svg>