<svg xmlns="http://www.w3.org/2000/svg" width="2480" height="2480" shape-rendering="geometricPrecision" text-rendering="geometricPrecision" image-rendering="optimizeQuality" fill-rule="evenodd" clip-rule="evenodd"><path d="M2117 363C1883 129 1571 0 1240 0S597 129 363 363 0 909 0 1240s129 643 363 877 546 363 877 363 643-129 877-363 363-546 363-877-129-643-363-877zm-877 1917c-573 0-1040-467-1040-1040S667 200 1240 200s1040 467 1040 1040-467 1040-1040 1040z" fill="#008dd2"/><path d="M1653 1511l-313-312V556c0-55-45-100-100-100s-100 45-100 100v684c0 27 10 52 29 71l342 342c20 19 45 29 71 29s51-10 71-29c39-39 39-103 0-142z" fill="#ffbe00"/></svg>