<svg xmlns="http://www.w3.org/2000/svg" width="2154" height="2154" viewBox="0 0 2153 2153" shape-rendering="geometricPrecision" text-rendering="geometricPrecision" image-rendering="optimizeQuality" fill-rule="evenodd" clip-rule="evenodd"><defs><style>.fil0,.fil3{fill:#008dd2;fill-rule:nonzero}.fil3{fill:#fff}</style></defs><g id="Слой_x0020_1"><path class="fil0" d="M1077 2055c-540 0-979-439-979-978 0-540 439-979 979-979 539 0 978 439 978 979 0 539-439 978-978 978zm0-1761c-432 0-783 351-783 783 0 431 351 782 783 782 431 0 782-351 782-782 0-432-351-783-782-783zm0 0z"/><path class="fil0" d="M1077 2055c-279 0-490-420-490-978S798 98 1077 98s489 421 489 979c0 557-210 978-489 978zm0-1761c-120 0-294 305-294 783 0 477 174 782 294 782 119 0 293-305 293-782 0-478-174-783-293-783zm0 0z"/><path class="fil0" d="M1077 1566c-558 0-979-210-979-489s421-490 979-490 978 211 978 490-420 489-978 489zm0-783c-478 0-783 174-783 294 0 119 305 293 783 293 477 0 782-174 782-293 0-120-305-294-782-294zm0 0z"/><path d="M917 722c40-71 61-151 62-233C979 219 760 0 489 0 219 0 0 219 0 489c0 271 219 490 489 490 82-1 162-22 233-62l20 21c54 54 142 54 196 0s54-142 0-196l-21-20zm0 0z" fill="#ec524f" fill-rule="nonzero"/><path d="M1664 1174c-82 1-162 22-233 62l-20-21c-54-54-142-54-196 0s-54 142 0 196l21 20c-40 71-61 151-62 233 0 270 219 489 490 489 270 0 489-219 489-489 0-271-219-490-489-490zm0 0z" fill="#ffbe00" fill-rule="nonzero"/><path class="fil3" d="M179 672V318h118v28c16-23 40-34 73-34 25 0 43 4 55 13l-42 110c-15-9-29-13-43-13-19 0-34 8-43 25v225H179z"/><path id="1" class="fil3" d="M798 318v354H681v-36c-24 30-58 45-102 45-32 0-60-12-84-36-23-24-35-59-35-105V318h118v197c0 16 4 29 11 40 8 11 19 16 35 16 20 0 39-11 57-32V318h117z"/><path class="fil3" d="M1664 1495v354h-118v-35c-24 29-57 44-102 44-32 0-60-12-83-36-24-24-35-59-35-104v-223h118v198c0 15 3 28 11 39 7 11 19 16 34 16 21 0 40-10 57-32v-221h118z"/><path id="1" class="fil3" d="M1755 1606l-29-86c15-9 35-17 59-24 25-7 48-10 72-10 52 0 90 12 113 38 23 25 34 62 34 112v213h-102v-32c-17 24-48 37-93 37-33 0-60-10-80-30-21-19-31-47-31-82 0-38 11-67 35-87s55-30 92-30c29 0 52 6 69 20 2-41-14-61-49-61-23 0-53 7-90 22zm94 149c21 0 36-6 45-18v-22c-11-8-26-11-45-11-10 0-18 2-24 7-6 4-10 11-10 19s4 14 10 19c6 4 14 6 24 6z"/></g></svg>