<svg xmlns="http://www.w3.org/2000/svg" width="2226" height="1291" viewBox="0 0 2181 1264" shape-rendering="geometricPrecision" text-rendering="geometricPrecision" image-rendering="optimizeQuality" fill-rule="evenodd" clip-rule="evenodd"><defs><style>.fil0{fill:#008dd2}</style></defs><g id="Слой_x0020_1"><path class="fil0" d="M1091 850L440 650v334c0 155 291 280 651 280 359 0 651-125 651-280 0-1-1-2-1-3V650l-650 200z"/><path class="fil0" d="M0 420l232 83 20-43 86-7 12 13-73 17-11 32s-166 346-141 515c0 0 103 62 206 0l28-463v-38l153-35-10 27-115 37 53 19 651 200 650-200 440-157L1091 0 0 420z"/><path d="M510 497h2v-2h2v-1h-6l-161-27-72 17-11 31S98 861 123 1031c0 0 103 61 206 0l28-463v-39l153-34-1 2h1zm-165-34l2 2v-2h-2z" fill="#ffbe00" stroke="#ffbe00" stroke-width="7.838" stroke-linecap="round" stroke-linejoin="bevel"/></g></svg>