<svg width="48" height="15" viewBox="0 0 48 15" fill="none" xmlns="http://www.w3.org/2000/svg">
<path d="M19.1529 0.245117L16.7219 14.5111H20.6099L23.0429 0.245117H19.1529Z" fill="white"/>
<path d="M13.4621 0.261057L9.65406 9.99006L9.24806 8.52106C8.49706 6.75106 6.36506 4.20906 3.86206 2.60706L7.34406 14.5041L11.4581 14.4971L17.5811 0.258057L13.4621 0.261057Z" fill="white"/>
<path d="M7.772 1.28205C7.546 0.413047 6.891 0.154047 6.078 0.123047H0.05L0 0.407047C4.691 1.54505 7.795 4.28705 9.083 7.58405L7.772 1.28205Z" fill="white"/>
<path d="M30.923 2.98C32.195 2.96 33.117 3.238 33.833 3.526L34.184 3.691L34.71 0.598999C33.94 0.309999 32.733 0 31.227 0C27.385 0 24.677 1.935 24.656 4.708C24.631 6.757 26.585 7.901 28.061 8.584C29.576 9.284 30.084 9.729 30.077 10.354C30.065 11.309 28.869 11.747 27.752 11.747C26.195 11.747 25.368 11.532 24.091 11L23.59 10.772L23.043 13.965C23.953 14.364 25.632 14.707 27.375 14.725C31.462 14.725 34.118 12.813 34.146 9.85C34.163 8.229 33.126 6.992 30.879 5.977C29.519 5.315 28.687 4.875 28.695 4.207C28.695 3.614 29.401 2.98 30.923 2.98Z" fill="white"/>
<path d="M44.688 0.260986H41.684C40.751 0.260986 40.057 0.514986 39.647 1.44499L33.874 14.519H37.957C37.957 14.519 38.623 12.761 38.774 12.376C39.221 12.376 43.188 12.382 43.753 12.382C43.869 12.88 44.227 14.519 44.227 14.519H47.834L44.688 0.260986ZM39.893 9.45599C40.213 8.63699 41.442 5.46899 41.442 5.46899C41.421 5.50799 41.759 4.64399 41.96 4.10699L42.222 5.33699C42.222 5.33699 42.967 8.74299 43.123 9.45599H39.893Z" fill="white"/>
</svg>
