<svg xmlns="http://www.w3.org/2000/svg" viewBox="0 0 490 490" width="512" height="512"><g fill="#FFF"><path d="M460.837 325.8c-37.6-37.6-98.5-37.6-136 0-37.6 37.6-37.6 98.5 0 136 37.6 37.6 98.5 37.6 136 0s37.5-98.4 0-136zm-21 82.2h-49.8c-5.1 0-8.9-3.9-8.9-8.9v-60.2c0-5 3.9-8.9 8.9-8.9 5.1 0 8.9 3.9 8.9 8.9v51.3h40.8c5 0 8.9 3.9 8.9 8.9.1 5-3.8 8.9-8.8 8.9zM362.538 87c6.2 0 11.3-5.1 11.3-11.3V11.3c0-6.2-5.1-11.3-11.3-11.3s-11.3 5.1-11.3 11.3v64.5c-.001 6.2 4.999 11.2 11.3 11.2zm-101.1 0c6.2 0 11.3-5.1 11.3-11.3V11.3c0-6.2-5.1-11.3-11.3-11.3s-11.3 5.1-11.3 11.3v64.5c.4 6.2 5.5 11.2 11.3 11.2zm-100.601 0c6.2 0 11.3-5.1 11.3-11.3V11.3c0-6.2-5.1-11.3-11.3-11.3s-11.3 5.1-11.3 11.3v64.5c.001 6.2 5.001 11.2 11.3 11.2zm-100.7 0c6.2 0 11.3-5.1 11.3-11.3V11.3c0-6.3-5.1-11.3-11.3-11.3s-11.3 5-11.3 11.3v64.5c.001 6.2 5.101 11.2 11.3 11.2z"/><path d="M421.138 44.3h-25.2v31.5c0 18.7-15.2 33.8-33.8 33.8s-33.8-15.2-33.8-33.8V44.3h-33.4v31.5c0 18.7-15.2 33.8-33.8 33.8s-33.8-15.2-33.8-33.8V44.3h-32.6v31.5c0 18.7-15.2 33.8-33.8 33.8s-33.8-15.2-33.8-33.8V44.3h-33.4v31.5c0 18.7-15.2 33.8-33.8 33.8s-34-15.2-34-33.8V44.3h-24.9v92.5h420.1V44.3zM309.337 310.4c30.4-30.4 73.3-40.8 112.2-31v-120H1.037v267h278.2c-11.299-40-1.299-84.7 30.1-116zm-6.299-104.8h56v44.3h-56v-44.3zm-183.8 148.8h-56v-43.9h56v43.9zm0-104.9h-56v-43.9h56v43.9zm120.099 104.9h-56v-43.9h56v43.9zm0-104.9h-56v-43.9h56v43.9z"/></g></svg>