<svg xmlns="http://www.w3.org/2000/svg" height="512" width="512"><path d="M366.934 213.332h-51.2a8.53 8.53 0 0 1-8.535-8.531v-51.2a8.534 8.534 0 0 1 8.535-8.535h51.2a8.53 8.53 0 0 1 8.53 8.536V204.8a8.527 8.527 0 0 1-8.53 8.531zm-42.668-17.066h34.132v-34.133h-34.132zm128 17.066h-51.2a8.527 8.527 0 0 1-8.53-8.531v-51.2a8.53 8.53 0 0 1 8.53-8.535h51.2a8.534 8.534 0 0 1 8.535 8.536V204.8a8.53 8.53 0 0 1-8.535 8.531zm-42.664-17.066h34.132v-34.133h-34.132zM110.934 298.668h-51.2a8.534 8.534 0 0 1-8.535-8.535v-51.2a8.534 8.534 0 0 1 8.535-8.535h51.2a8.53 8.53 0 0 1 8.53 8.536v51.199a8.53 8.53 0 0 1-8.53 8.535zm-42.668-17.066h34.132v-34.137H68.266zm128 17.066h-51.2a8.53 8.53 0 0 1-8.53-8.535v-51.2a8.53 8.53 0 0 1 8.53-8.535h51.2a8.534 8.534 0 0 1 8.535 8.536v51.199a8.534 8.534 0 0 1-8.535 8.535zm-42.664-17.066h34.132v-34.137h-34.132zm128 17.066h-51.204a8.533 8.533 0 0 1-8.53-8.535v-51.2a8.533 8.533 0 0 1 8.53-8.535h51.204a8.533 8.533 0 0 1 8.53 8.536v51.199a8.533 8.533 0 0 1-8.53 8.535zm-42.668-17.066h34.132v-34.137h-34.132zM110.934 384h-51.2a8.531 8.531 0 0 1-8.535-8.535v-51.2a8.53 8.53 0 0 1 8.535-8.53h51.2a8.527 8.527 0 0 1 8.53 8.53v51.2a8.528 8.528 0 0 1-8.53 8.535zm-42.668-17.066h34.132V332.8H68.266zm128 17.066h-51.2a8.528 8.528 0 0 1-8.53-8.535v-51.2a8.527 8.527 0 0 1 8.53-8.53h51.2a8.53 8.53 0 0 1 8.535 8.53v51.2a8.531 8.531 0 0 1-8.535 8.535zm-42.664-17.066h34.132V332.8h-34.132zm128 17.066h-51.204a8.53 8.53 0 0 1-8.53-8.535v-51.2a8.53 8.53 0 0 1 8.53-8.53h51.204a8.53 8.53 0 0 1 8.53 8.53v51.2a8.53 8.53 0 0 1-8.53 8.535zm-42.668-17.066h34.132V332.8h-34.132zm-128 102.398h-51.2a8.53 8.53 0 0 1-8.535-8.531v-51.2a8.534 8.534 0 0 1 8.535-8.535h51.2a8.53 8.53 0 0 1 8.53 8.536V460.8a8.527 8.527 0 0 1-8.53 8.531zm-42.668-17.066h34.132v-34.133H68.266zm128 17.066h-51.2a8.527 8.527 0 0 1-8.53-8.531v-51.2a8.53 8.53 0 0 1 8.53-8.535h51.2a8.534 8.534 0 0 1 8.535 8.536V460.8a8.53 8.53 0 0 1-8.535 8.531zm-42.664-17.066h34.132v-34.133h-34.132zm128 17.066h-51.204a8.53 8.53 0 0 1-8.53-8.531v-51.2a8.533 8.533 0 0 1 8.53-8.535h51.204a8.533 8.533 0 0 1 8.53 8.536V460.8a8.53 8.53 0 0 1-8.53 8.531zm-42.668-17.066h34.132v-34.133h-34.132zm128-153.598h-51.2a8.534 8.534 0 0 1-8.535-8.535v-51.2a8.534 8.534 0 0 1 8.535-8.535h51.2a8.53 8.53 0 0 1 8.53 8.536v51.199a8.53 8.53 0 0 1-8.53 8.535zm-42.668-17.066h34.132v-34.137h-34.132zM366.934 384h-51.2a8.531 8.531 0 0 1-8.535-8.535v-51.2a8.53 8.53 0 0 1 8.535-8.53h51.2a8.527 8.527 0 0 1 8.53 8.53v51.2a8.528 8.528 0 0 1-8.53 8.535zm-42.668-17.066h34.132V332.8h-34.132zm42.668 102.398h-51.2a8.53 8.53 0 0 1-8.535-8.531v-51.2a8.534 8.534 0 0 1 8.535-8.535h51.2a8.53 8.53 0 0 1 8.53 8.536V460.8a8.527 8.527 0 0 1-8.53 8.531zm-42.668-17.066h34.132v-34.133h-34.132zm128-153.598h-51.2a8.53 8.53 0 0 1-8.53-8.535v-51.2a8.53 8.53 0 0 1 8.53-8.535h51.2a8.534 8.534 0 0 1 8.535 8.536v51.199a8.534 8.534 0 0 1-8.535 8.535zm-42.664-17.066h34.132v-34.137h-34.132zM452.266 384h-51.2a8.528 8.528 0 0 1-8.53-8.535v-51.2a8.527 8.527 0 0 1 8.53-8.53h51.2a8.53 8.53 0 0 1 8.535 8.53v51.2a8.531 8.531 0 0 1-8.535 8.535zm-42.664-17.066h34.132V332.8h-34.132zm42.664 102.398h-51.2a8.527 8.527 0 0 1-8.53-8.531v-51.2a8.53 8.53 0 0 1 8.53-8.535h51.2a8.534 8.534 0 0 1 8.535 8.536V460.8a8.53 8.53 0 0 1-8.535 8.531zm-42.664-17.066h34.132v-34.133h-34.132zM426.668 51.2a8.53 8.53 0 0 1-8.535-8.532C418.133 19.141 437.273 0 460.8 0a8.528 8.528 0 0 1 8.531 8.535 8.527 8.527 0 0 1-8.531 8.531c-14.113 0-25.602 11.485-25.602 25.602a8.527 8.527 0 0 1-8.531 8.531zm25.598 34.132h-51.2c-4.71 0-8.53-3.812-8.53-8.531s3.82-8.535 8.53-8.535h51.2c4.71 0 8.535 3.816 8.535 8.535s-3.824 8.531-8.535 8.531zm0 0" fill="#FFF"/><path d="M426.668 85.332a8.53 8.53 0 0 1-8.535-8.531V42.668a8.534 8.534 0 0 1 8.535-8.535 8.53 8.53 0 0 1 8.531 8.535v34.133a8.527 8.527 0 0 1-8.531 8.531zM110.934 221.867C49.766 221.867 0 172.102 0 110.934 0 49.766 49.766 0 110.934 0s110.933 49.766 110.933 110.934-49.765 110.933-110.933 110.933zm0-204.8c-51.754 0-93.868 42.113-93.868 93.867S59.18 204.8 110.934 204.8s93.867-42.113 93.867-93.867-42.113-93.868-93.867-93.868zm0 0" fill="#FFF"/><path d="M503.465 119.465H213.332a8.527 8.527 0 0 1-8.531-8.531c0-23.059-8.543-45.278-24.047-62.567a8.528 8.528 0 0 1-1.441-9.172 8.54 8.54 0 0 1 7.789-5.062h288.632c20 0 36.266 16.265 36.266 36.265v40.536a8.53 8.53 0 0 1-8.535 8.53zm-281.93-17.067h273.399v-32c0-10.578-8.61-19.199-19.2-19.199h-271.43a110.533 110.533 0 0 1 17.231 51.2zm0 0" fill="#FFF"/><path d="M477.754 512H34.246C15.36 512 0 496.633 0 477.746V110.934a8.534 8.534 0 1 1 17.066 0c0 51.753 42.114 93.867 93.868 93.867s93.867-42.114 93.867-93.867a8.53 8.53 0 0 1 8.531-8.536h290.133a8.534 8.534 0 0 1 8.535 8.536v366.812C512 496.633 496.64 512 477.754 512zM17.066 170v307.746c0 9.48 7.707 17.188 17.18 17.188h443.508c9.473 0 17.18-7.707 17.18-17.188V119.465H221.543c-4.371 57.2-52.309 102.402-110.61 102.402-39.476 0-74.199-20.726-93.867-51.867zm93.868-127.332a8.534 8.534 0 0 1-8.536-8.535V8.535A8.531 8.531 0 0 1 110.934 0a8.528 8.528 0 0 1 8.53 8.535v25.598a8.53 8.53 0 0 1-8.53 8.535zm0 0" fill="#FFF"/><path d="M110.934 221.867a8.534 8.534 0 0 1-8.536-8.535v-25.598a8.534 8.534 0 0 1 8.536-8.535 8.53 8.53 0 0 1 8.53 8.535v25.598a8.53 8.53 0 0 1-8.53 8.535zm102.398-102.402h-25.598c-4.71 0-8.535-3.813-8.535-8.531s3.824-8.536 8.535-8.536h25.598c4.711 0 8.535 3.817 8.535 8.536s-3.824 8.53-8.535 8.53zm-179.199 0H8.535c-4.71 0-8.535-3.813-8.535-8.531s3.824-8.536 8.535-8.536h25.598c4.71 0 8.535 3.817 8.535 8.536s-3.824 8.53-8.535 8.53zM51.2 59.734a8.507 8.507 0 0 1-6.032-2.5L32.496 44.562a8.525 8.525 0 0 1 0-12.066 8.525 8.525 0 0 1 12.066 0l12.672 12.672a8.525 8.525 0 0 1 0 12.066 8.516 8.516 0 0 1-6.035 2.5zm132.14 132.137a8.51 8.51 0 0 1-6.035-2.5L164.633 176.7a8.525 8.525 0 0 1 0-12.066 8.525 8.525 0 0 1 12.066 0l12.672 12.672a8.525 8.525 0 0 1 0 12.066 8.474 8.474 0 0 1-6.031 2.5zM170.668 59.734a8.51 8.51 0 0 1-6.035-2.5 8.525 8.525 0 0 1 0-12.066l12.672-12.672a8.525 8.525 0 0 1 12.066 0 8.525 8.525 0 0 1 0 12.066L176.7 57.234a8.507 8.507 0 0 1-6.031 2.5zM38.527 191.871a8.507 8.507 0 0 1-6.03-2.5 8.525 8.525 0 0 1 0-12.066l12.671-12.672a8.525 8.525 0 0 1 12.066 0 8.525 8.525 0 0 1 0 12.066l-12.672 12.672a8.483 8.483 0 0 1-6.035 2.5zm98.008-72.406h-25.601c-4.711 0-8.536-3.813-8.536-8.531s3.825-8.536 8.536-8.536h25.601c4.707 0 8.531 3.817 8.531 8.536s-3.824 8.53-8.53 8.53zm0 0" fill="#FFF"/><path d="M110.934 119.465a8.53 8.53 0 0 1-8.536-8.531V68.266a8.53 8.53 0 0 1 8.536-8.532 8.527 8.527 0 0 1 8.53 8.532v42.668a8.527 8.527 0 0 1-8.53 8.53zm0 0" fill="#FFF"/></svg>