<svg xmlns="http://www.w3.org/2000/svg" viewBox="0 0 372.641 372.641" width="512" height="512"><path d="M216.641 262.281c-4.373 0-8.693-.373-12.96-1.12l-3.36-.4-8-1.2a159.999 159.999 0 0 1-81.04-36.24l-3.76-3.6a119.994 119.994 0 0 1-38.72-63.36 96.647 96.647 0 0 1-2.4-13.68c-40 15.12-66.4 47.04-66.4 81.92-.16 25.68 14.48 50.72 40 68.08a7.999 7.999 0 0 1 3.52 6.64v52.32l40-36.72a8 8 0 0 1 6.88-2 150.397 150.397 0 0 0 27.2 2.48c46 0 88-21.36 107.04-53.12h-8z" fill="#FFF"/><path d="M227.361 21.001c-80.08 0-145.12 50.56-145.12 112.72s65.2 112.72 145.28 112.72a185.847 185.847 0 0 0 33.44-3.04h1.44a8.001 8.001 0 0 1 5.44 2.08l51.84 47.44v-67.92a7.999 7.999 0 0 1 3.52-6.64c31.04-21.44 49.44-52.32 49.44-84.64 0-62.16-65.2-112.72-145.28-112.72z" fill="#FFF"/></svg>