<svg xmlns="http://www.w3.org/2000/svg" height="512" viewBox="0 -3 511.999 511" width="512"><path d="M511.742 240.973c-1.46-12.305-8.43-23.055-15.441-33.016-32.492-46.137-70.383-89.05-107.028-130.55-13.828-15.66-28.125-31.848-45.02-45.044a130.51 130.51 0 0 0-2.37-1.8c-.063-.075-.11-.153-.176-.227a3.51 3.51 0 0 0-1.437-.95c-12.516-9.034-26.438-15.948-39.958-22.644-3.84-1.906-7.808-3.875-11.671-5.855a3.547 3.547 0 0 0-3.715.304 3.533 3.533 0 0 0-1.38 3.457c.798 4.512 1.481 9.18 2.145 13.696 2.336 15.894 4.75 32.328 12.579 46.945 8.972 16.742 21.375 31.25 33.37 45.273l121.614 142.211c4.879 5.707 9.922 11.602 16.566 15.899 5.496 3.555 11.446 5.402 17.063 5.402 2.355 0 4.656-.324 6.836-.988 10.218-3.09 20.008-15.398 18.023-32.113zm-65.097-6.805l-4.81-5.625a43.495 43.495 0 0 0 25.103-10.926 43.5 43.5 0 0 0 12.761-20.558c1.219 1.648 2.434 3.3 3.64 4.957a3.474 3.474 0 0 0-.452 1.199c-1.461 8.406-6.008 16.406-12.485 21.957-6.476 5.55-15.082 8.824-23.609 8.98-.05 0-.098.012-.148.016zm-10.747-12.563c9.352-1.046 18.442-5.312 25.18-11.863 5.945-5.781 10.152-13.445 11.965-21.57 1.176 1.547 2.344 3.105 3.512 4.66-1.621 8.281-6.055 16.152-12.32 21.781-6.63 5.953-15.536 9.606-24.438 10.02-.379.02-.723.148-1.016.34zm-6.257-7.32c9.523-2.215 18.277-7.347 24.832-14.62 5.425-6.017 9.238-13.38 11.09-21.24 1.39 1.786 2.765 3.583 4.144 5.38-1.082 8.632-5.21 16.98-11.445 23.039-6.496 6.316-15.407 10.285-24.442 10.894a1.983 1.983 0 0 0-.949.325zM383.973 82.082c25.37 28.734 51.34 58.152 75.656 88.8a41.215 41.215 0 0 1-9.422 22.911L328.051 55.777c3.941-.25 7.793-1.922 10.512-4.925 2.476-2.735 4.488-6.176 5.363-9.66 14.683 12.183 27.562 26.753 40.047 40.89zm-86.797-69.008c2.644 1.309 5.3 2.63 7.96 3.969-1.386 5.074-5.753 9.383-10.87 10.598a661.458 661.458 0 0 1-1.579-10.325c-.335-2.304-.68-4.644-1.042-6.992 1.855.93 3.707 1.848 5.53 2.75zm-2.23 18.547c6.437-1.418 11.843-6.473 13.85-12.719 9.708 4.98 19.317 10.336 28.06 16.739 1.566 2.793-1 7.672-3.532 10.464-2.703 2.989-7.926 3.52-11.176 1.137a3.539 3.539 0 0 0-3.82-.23 3.54 3.54 0 0 0-1.789 3.383c.281 3.32-.828 6.828-2.977 9.378-1.949 2.317-4.824 3.918-7.824 4.407-.418-.743-.836-1.48-1.234-2.23-5-9.329-7.656-19.747-9.559-30.329zM309.53 70.54c3.653-1.121 6.969-3.273 9.442-6.215a20.018 20.018 0 0 0 4.09-8.086L447.445 196.77c-5.797 5.66-13.238 9.542-21.226 11.015a3.455 3.455 0 0 0-1.531.707l-87.672-102.52c-9.614-11.242-19.493-22.8-27.485-35.433zm182.14 195.785c-5.394 1.633-11.956.328-18.01-3.586-5.782-3.738-10.485-9.238-15.036-14.554l-6.324-7.399A44.472 44.472 0 0 0 475 230.54a44.457 44.457 0 0 0 13.664-21.105c.617.867 1.242 1.726 1.856 2.597 6.761 9.602 12.933 19.102 14.199 29.774 1.16 9.757-3.403 21.597-13.047 24.52zm-118.705-54.098c-5.29-3.227-11.504-3.122-16.5-3.028l-236.414 4.164c-6.512.114-13.028.223-19.543.328-12.813.207-26.067.426-39.102.704-1.21.027-2.5.027-3.832.03-9.36.016-22.18.04-29.062 8.68-7.266 9.118-6.266 25.473-5.461 38.614.246 4.023.476 7.824.426 10.828l-3.16 191.285c-.122 7.285.246 15.496 6.156 20.746 5.242 4.66 12.73 4.7 17.683 4.723l315.043 1.687c.395 0 .805.004 1.223.004 4.504 0 10.226-.25 14.816-3.543 7.008-5.023 7.973-13.976 7.977-22.902l.035-224.84c0-10.484-1.219-21.95-10.285-27.48zm-138.895 6.195l29.547-.52c-.054.23-.09.47-.097.715l-1.641 48.047-14.172-15.734a3.52 3.52 0 0 0-2.855-1.16 3.514 3.514 0 0 0-2.68 1.52l-10.445 15.136zM31.164 479.293c-3.668-3.258-3.875-9.629-3.781-15.344l3.164-191.285c.05-3.277-.188-7.21-.442-11.371-.73-11.938-1.636-26.79 3.938-33.785 4.762-5.98 15.176-5.996 23.543-6.012 1.383-.004 2.719-.004 3.973-.031 13.02-.277 26.261-.496 39.066-.707 6.52-.106 13.035-.211 19.55-.324l77.622-1.371-4.59 262.765c-.004.426.074.828.203 1.207l-149.215-.8c-5.152-.028-10.027-.274-13.03-2.942zm344.98-14.746c0 7.043-.609 13.992-5.027 17.16-2.91 2.09-7.101 2.238-11.879 2.211l-159.18-.848c.126-.351.208-.722.215-1.117l4.594-263.015 22.117-.391-2.921 59.922a3.538 3.538 0 0 0 2.398 3.523 3.54 3.54 0 0 0 1.129.184c1.14 0 2.238-.551 2.91-1.528l14.95-21.664 17.034 18.914a3.539 3.539 0 0 0 3.836.957 3.542 3.542 0 0 0 2.325-3.203l1.94-56.789a3.51 3.51 0 0 0-.147-1.078l86.152-1.52c5.187-.09 9.418-.003 12.691 1.997 6.082 3.71 6.899 12.925 6.899 21.445zm0 0" fill="#FFF"/><path d="M390.605 198.18c-5.742-3.508-12.55-3.39-18.02-3.293l-61.073 1.078c-7.989-25.207-16.45-49.957-24.64-73.903-9.61-28.109-19.548-57.167-28.755-87.066-3.492-11.344-7.785-22.867-18.324-28.195-10.387-5.25-22.082-2.031-33.176 1.71L15.93 72.922C11.613 74.38 4.387 76.817 1.375 83.13c-2.828 5.937-.758 12.406 1.402 18.004l38.438 99.535c-10.582.031-23.277.418-30.465 9.437-7.934 9.958-6.836 27.942-5.953 42.391.273 4.445.531 8.649.473 11.98L1.78 475.689c-.133 7.96.262 16.933 6.672 22.625 5.688 5.054 13.871 5.097 19.285 5.125l347.864 1.859c.437.004.882.008 1.343.008 4.926 0 11.176-.274 16.149-3.844 7.601-5.453 8.652-15.23 8.652-24.984l.04-248.27c.003-11.473-1.325-24.016-11.18-30.027zM7.758 86.172c1.59-3.336 6.023-5.067 10.433-6.555l190.692-64.406c9.668-3.266 19.777-6.117 27.722-2.102 8.067 4.078 11.711 14.078 14.758 23.97 9.239 30 19.196 59.112 28.82 87.269 7.958 23.27 16.172 47.308 23.954 71.746l-192.594 3.394c-7.223.125-14.441.246-21.664.364-13.477.218-27.39.449-41.117.738L9.372 98.586c-1.704-4.418-3.235-9.016-1.614-12.414zm386.918 390.3c0 7.872-.692 15.653-5.703 19.247-3.305 2.37-8.004 2.55-13.336 2.511l-347.86-1.859c-5.761-.031-11.218-.308-14.632-3.344-4.168-3.703-4.403-10.832-4.297-17.222l3.488-211.215c.062-3.606-.203-7.938-.484-12.527-.809-13.239-1.813-29.72 4.425-37.555 5.375-6.738 16.97-6.762 26.286-6.778 1.527-.003 2.996-.003 4.378-.035 14.348-.308 28.942-.543 43.051-.777 7.227-.117 14.453-.234 21.676-.363l261.043-4.598c.848-.016 1.672-.027 2.477-.027 4.675 0 8.582.355 11.734 2.28 6.871 4.196 7.797 14.485 7.793 23.997zm87.578-142.277c-.156-1.273-.234-3.023-.32-4.879-.262-5.757-.559-12.28-3.176-16.238-4.77-7.21-17.063-6.625-26.04-6.195-2.171.105-4.222.203-5.714.16-12.07-.332-21.152 2.914-26.274 9.41-5.488 6.953-5.523 16.32-5.55 23.156l-.395 101.465c-.027 7.133.38 14.531 5.567 19.727 5.214 5.226 13.097 5.613 18.316 5.87l26.965 1.333c1.164.055 2.472.121 3.87.121 4.173 0 9.087-.582 12.974-3.672 5.863-4.66 6.652-12.344 6.632-19.95a934.454 934.454 0 0 0-4.468-88.644 934.067 934.067 0 0 0-2.387-21.664zm-60.297 80.317l59.332-4.547c.148 3.715.277 7.426.383 11.137l-59.7 3.382c-.019 0-.035.008-.054.008zm54.75-66.582a994.034 994.034 0 0 1 .91 8.738l-55.437 1.152.03-8.785 54.376-1.09c.043 0 .078-.011.121-.015zm-54.543 13.933l55.824-1.16c1.407 15 2.45 30.11 3.121 45.227l-59.136 4.53zm4.117-41.031c4.32-5.48 12.453-6.742 19.031-6.742.508 0 1.004.008 1.493.023 1.757.043 3.941-.054 6.254-.168 6.453-.308 17.25-.824 19.804 3.032 1.54 2.328 1.813 8.3 2.008 12.66.094 1.992.18 3.875.363 5.414.239 1.937.453 3.89.68 5.84l-53.672 1.078.008-2.332c.027-7.532.352-14.145 4.031-18.805zm51.793 138.09c-2.86 2.273-7.351 2.254-12.094 2.02l-26.964-1.329c-5.47-.27-10.63-.765-13.664-3.804-3.266-3.278-3.52-9.063-3.5-14.707l.039-9.582c.093.007.183.027.277.027.066 0 .137 0 .203-.004l59.461-3.371c.11 5.457.191 10.91.207 16.351.016 5.829-.457 11.606-3.965 14.399zm0 0" fill="#FFF"/><path d="M178.082 267.953h-.016l-127.418.793a2.026 2.026 0 0 0-2.007 2.035 2.02 2.02 0 0 0 2.023 2.004h.012l127.418-.793a2.025 2.025 0 0 0 2.008-2.031 2.022 2.022 0 0 0-2.02-2.008zm0 21.117h-.016l-127.418.793a2.025 2.025 0 0 0-2.007 2.032 2.023 2.023 0 0 0 2.023 2.007h.012l127.418-.793a2.026 2.026 0 0 0 2.008-2.035 2.021 2.021 0 0 0-2.02-2.004zm0 21.118h-.016l-127.418.792a2.025 2.025 0 0 0-2.007 2.032 2.023 2.023 0 0 0 2.023 2.008h.012l127.418-.793a2.026 2.026 0 0 0 2.008-2.036 2.021 2.021 0 0 0-2.02-2.003zm0 21.112h-.016l-127.418.798a2.025 2.025 0 0 0-2.007 2.03 2.023 2.023 0 0 0 2.023 2.009h.012l127.418-.797a2.02 2.02 0 0 0-.012-4.04zm0 21.118h-.016l-127.418.797a2.025 2.025 0 0 0-2.007 2.031 2.023 2.023 0 0 0 2.023 2.008h.012l127.418-.797a2.02 2.02 0 0 0-.012-4.039zm0 21.117h-.016l-127.418.797a2.02 2.02 0 0 0 .012 4.04h.016l127.418-.798a2.014 2.014 0 0 0 2.004-2.031 2.019 2.019 0 0 0-2.016-2.008zm0 21.117h-.016l-127.418.797a2.025 2.025 0 0 0-2.007 2.031 2.023 2.023 0 0 0 2.023 2.008h.012l127.418-.797a2.02 2.02 0 0 0-.012-4.039zm0 21.118h-.016l-127.418.796a2.02 2.02 0 0 0 .016 4.04h.012l127.418-.797a2.025 2.025 0 0 0 2.008-2.032 2.022 2.022 0 0 0-2.02-2.007zm173.625-126.7h-.012l-127.418.793a2.02 2.02 0 0 0 .012 4.04h.012l127.418-.794a2.02 2.02 0 0 0-.012-4.039zm0 21.118h-.012l-127.418.792a2.02 2.02 0 0 0 .012 4.04h.012l127.418-.793a2.02 2.02 0 0 0-.012-4.04zm0 21.112h-.012l-127.418.798a2.02 2.02 0 0 0 .012 4.039h.012l127.418-.797a2.015 2.015 0 0 0 2.008-2.031 2.022 2.022 0 0 0-2.02-2.008zm0 21.118h-.012l-127.418.797a2.02 2.02 0 0 0 .012 4.039h.012l127.418-.797a2.015 2.015 0 0 0 2.008-2.031 2.022 2.022 0 0 0-2.02-2.008zm0 21.117h-.012l-127.418.797a2.02 2.02 0 0 0 .012 4.04h.012l127.418-.798a2.015 2.015 0 0 0 2.008-2.031 2.022 2.022 0 0 0-2.02-2.008zm0 21.117h-.012l-127.418.797a2.02 2.02 0 0 0 .012 4.04h.012l127.418-.798a2.02 2.02 0 0 0-.012-4.04zm0 21.118h-.012l-127.418.796a2.015 2.015 0 0 0-2.007 2.032 2.022 2.022 0 0 0 2.02 2.007h.01l127.419-.796a2.02 2.02 0 0 0-.012-4.04zm0 21.117h-.012l-127.418.797a2.015 2.015 0 0 0-2.007 2.03 2.019 2.019 0 0 0 2.02 2.005h.01l127.419-.793a2.02 2.02 0 0 0-.012-4.04zm-173.625 0h-.016l-127.418.797a2.015 2.015 0 0 0-2.007 2.03 2.019 2.019 0 0 0 2.02 2.005h.015l127.418-.793a2.019 2.019 0 0 0-.012-4.04zM55.805 111.496c.215 0 .43-.035.644-.11l150.223-51.32a2.022 2.022 0 0 0 1.258-2.566 2.014 2.014 0 0 0-2.563-1.258l-150.222 51.32a2.019 2.019 0 0 0-1.258 2.567 2.018 2.018 0 0 0 1.918 1.367zm9.972 18.184c.211 0 .43-.035.645-.11l150.223-51.32a2.025 2.025 0 0 0 1.257-2.566 2.018 2.018 0 0 0-2.562-1.258l-150.227 51.32a2.021 2.021 0 1 0 .664 3.934zm7.039 21.117c.211 0 .43-.035.645-.11l150.223-51.32a2.025 2.025 0 0 0 1.257-2.566 2.014 2.014 0 0 0-2.562-1.258l-150.227 51.32a2.025 2.025 0 0 0-1.257 2.567 2.027 2.027 0 0 0 1.921 1.367zm9.974 18.183c.21 0 .429-.035.644-.109l150.222-51.32a2.025 2.025 0 0 0 1.258-2.567 2.018 2.018 0 0 0-2.562-1.257l-150.227 51.32a2.025 2.025 0 0 0-1.258 2.566 2.027 2.027 0 0 0 1.922 1.367zm0 0" fill="#FFF"/></svg>