<svg xmlns="http://www.w3.org/2000/svg" width="512" height="512"><g fill="#FFF"><path d="M272 160h-40a8 8 0 0 0 0 16h14.591l-38.487 236.252a8.025 8.025 0 0 0-.104 1.286C208 428.129 218.767 440 232 440h15.998l.012.001.022-.001H272a8 8 0 0 0 0-16h-14.591l38.487-236.252c.069-.425.104-.855.104-1.286C296 171.871 285.233 160 272 160zm-30.802 264H232c-4.19 0-7.752-4.473-7.988-9.891L262.802 176H272c4.19 0 7.752 4.473 7.988 9.891L241.198 424z"/><path d="M437.02 74.98C388.667 26.629 324.38 0 256 0S123.333 26.629 74.98 74.98C26.628 123.333 0 187.62 0 256s26.628 132.667 74.98 181.02C123.333 485.371 187.62 512 256 512s132.667-26.629 181.02-74.98C485.372 388.667 512 324.38 512 256s-26.628-132.667-74.98-181.02zm-11.314 350.726C380.376 471.036 320.106 496 256 496s-124.376-24.964-169.706-70.294C40.964 380.376 16 320.106 16 256S40.964 131.624 86.294 86.294C131.624 40.964 191.894 16 256 16s124.376 24.964 169.706 70.294C471.036 131.624 496 191.894 496 256s-24.964 124.376-70.294 169.706z"/><path d="M284 80c-15.439 0-28 12.561-28 28s12.561 28 28 28 28-12.561 28-28-12.561-28-28-28zm0 40c-6.617 0-12-5.383-12-12s5.383-12 12-12 12 5.383 12 12-5.383 12-12 12z"/></g></svg>