<svg xmlns="http://www.w3.org/2000/svg" height="512" viewBox="0 -12 462 462" width="512"><path d="M462 50c-.012-27.61-22.39-49.988-50-50H50C22.39.012.012 22.39 0 50v338c.012 27.61 22.39 49.988 50 50h362c27.61-.012 49.988-22.39 50-50zm-20 338a29.97 29.97 0 0 1-8.773 21.227A29.97 29.97 0 0 1 412 418H50a29.97 29.97 0 0 1-21.227-8.773A29.97 29.97 0 0 1 20 388V50a29.97 29.97 0 0 1 8.773-21.227A29.97 29.97 0 0 1 50 20h362a29.97 29.97 0 0 1 21.227 8.773A29.97 29.97 0 0 1 442 50zm0 0" fill="#FFF"/><path d="M126.7 154.102a39.267 39.267 0 0 0 19.902-5.403l11.199 11.2a9.814 9.814 0 0 0 7.097 2.902 10.24 10.24 0 0 0 7.102-2.903 9.958 9.958 0 0 0 0-14.097l-11.2-11.2c9.075-15.445 6.63-35.066-5.964-47.808-12.594-12.742-32.18-15.422-47.73-6.527-15.555 8.894-23.18 27.132-18.583 44.449 4.594 17.316 20.262 29.375 38.176 29.387zm0-59c10.769 0 19.5 8.73 19.5 19.5s-8.731 19.5-19.5 19.5-19.5-8.73-19.5-19.5a19.485 19.485 0 0 1 5.698-13.801 19.453 19.453 0 0 1 13.801-5.7zm0 0" fill="#FFF"/><path d="M409 59c-.016-5.516-4.484-9.984-10-10H63c-5.516.016-9.984 4.484-10 10v120c.016 5.516 4.484 9.984 10 10h336c5.516-.016 9.984-4.484 10-10zm-20 110H73V69h316zm-256 53c-.016-5.516-4.484-9.984-10-10H63c-5.516.016-9.984 4.484-10 10v60c.016 5.516 4.484 9.984 10 10h60c5.516-.016 9.984-4.484 10-10zm-20 50H73v-40h40zm44-30h118c5.523 0 10-4.477 10-10s-4.477-10-10-10H157c-5.523 0-10 4.477-10 10s4.477 10 10 10zm208 20H157c-5.523 0-10 4.477-10 10s4.477 10 10 10h208c5.523 0 10-4.477 10-10s-4.477-10-10-10zm-232 55c-.016-5.516-4.484-9.984-10-10H63c-5.516.016-9.984 4.484-10 10v60c.016 5.516 4.484 9.984 10 10h60c5.516-.016 9.984-4.484 10-10zm-20 50H73v-40h40zm44-30h118c5.523 0 10-4.477 10-10s-4.477-10-10-10H157c-5.523 0-10 4.477-10 10s4.477 10 10 10zm208 20H157c-5.523 0-10 4.477-10 10s4.477 10 10 10h208c5.523 0 10-4.477 10-10s-4.477-10-10-10zm0 0" fill="#FFF"/></svg>