<svg xmlns="http://www.w3.org/2000/svg" viewBox="0 0 268.477 268.477" width="512" height="512"><path d="M267.522 99.163a14.907 14.907 0 0 0-12.693-9.621l-75.845-8.999-31.046-71.52A14.916 14.916 0 0 0 134.26-.001h-.022a14.915 14.915 0 0 0-13.685 8.981l-31.06 71.563-75.845 8.999A14.91 14.91 0 0 0 .947 99.185a14.915 14.915 0 0 0 3.262 15.608l58.437 55.242-17.659 80.845a14.925 14.925 0 0 0 14.676 17.596c2.564 0 5.128-.655 7.435-1.988l67.142-42.758 67.141 42.758a14.838 14.838 0 0 0 7.435 1.988c3.015 0 6.015-.91 8.579-2.717a14.91 14.91 0 0 0 6.103-14.828l-17.665-80.896 58.463-55.272a14.916 14.916 0 0 0 3.226-15.6z" fill="#FFF" fill-rule="evenodd" clip-rule="evenodd"/></svg>