<svg xmlns="http://www.w3.org/2000/svg" width="512" height="512" viewBox="0 0 937 937"><path d="M513.1 360.85c5.601 0 11 .9 16.2 2.4l97-118.9c6.2-7.6 17.7-9 25.2-2.6 7.3 6.1 8.3 17 2.2 24.4l-95.9 117.6c6.5 9 10.4 20.101 10.4 32.101 0 22.3-13.4 41.6-32.5 50.199H912c13.8 0 25-11.199 25-25v-316.5c0-13.8-11.2-25-25-25H434c-13.8 0-25 11.2-25 25v207.8l22.6 28.6h81.5v-.1z" fill="#FFF"/><circle cx="201.3" cy="121.85" r="102.4" fill="#FFF"/><path d="M306.3 892.55c0 13.801-11.2 25-25 25h-42c-13.8 0-25-11.199-25-25v-209.6c0-7.4-6-13.4-13.4-13.4s-13.4 6-13.4 13.4v208.6c0 14.301-11.7 26-26 26h-41.1c-13.8 0-25-11.199-25-25l-.2-506c0-6.8-5.5-12.399-12.4-12.399-6.8 0-12.4 5.5-12.4 12.399v194.6c0 13.8-11.2 25-25 25H25c-13.8 0-25-11.2-25-25v-266.8c0-31.7 25.7-57.3 57.3-57.3H285c24.399 0 47.5 11.2 62.7 30.3l61.199 77.2 12.9 16.3s58 0 91.4.1c13.8 0 25 11.2 25 25v19.9c0 13.8-11.2 25-25 25H405c-10.7 0-20.8-4.9-27.4-13.301l-45.6-58.6c-2.3-3-6-4.8-9.8-4.8h-3.1c-6.8 0-12.399 5.5-12.399 12.399L306.3 892.55z" fill="#FFF"/></svg>