<svg xmlns="http://www.w3.org/2000/svg" width="512" height="512" viewBox="0 0 30.832 30.832"><path d="M22.092 0c-4.724 0-8.566 2.643-8.566 5.892 0 1.841 1.25 3.57 3.365 4.68l-1.646 2.873.71-.109c.047-.008 4.772-.741 8.014-1.702 4.252-1.26 6.691-3.353 6.691-5.742C30.661 2.643 26.817 0 22.092 0zm1.681 10.971c-2.449.727-5.769 1.322-7.209 1.564l1.295-2.261-.338-.16c-2.068-.982-3.303-2.56-3.303-4.222 0-2.868 3.534-5.2 7.875-5.2 4.343 0 7.876 2.332 7.876 5.2-.001 2.926-4.333 4.526-6.196 5.079zm-10.509 6.591c.112-.817.257-2.056.313-3.337.095-2.184.422-9.12-5.869-9.12-6.292 0-6.119 5.792-6.119 5.792l.459 7.513S.997 20.189.38 22.043c-.287.734-.256 1.462-.041 2.146l.434.967c.387.669.91 1.273 1.424 1.773v3.424l5.23.453.304.025.304-.025 5.23-.453v-2.775c.842-.458 2.075-1.895 2.251-2.354.176-.461.18-1.898.041-2.379-.51-2.415-2.293-5.283-2.293-5.283zm-5.837 12.78l-4.766-.412v-8.039l4.766.41v8.041zm-4.04-8.856c.295-.317.542-.527.542-.527l.174.588-.716-.061zm9.415 8.444l-4.767.412v-8.041l4.767-.41v8.039zm-1.585-8.369c.061-.362.125-.742.192-1.129 0 0 .615.389 1.214 1.008l-1.406.121zM9.15 15.499v1.767h.009l.634.301-1.992 3.59-1.95-3.701.498-.124V15.44c-2.037-.641-3.525-2.52-3.525-4.769 0-.169.033-.33.05-.495 1.387-.096 6.064-.526 6.184-2.047.448.825 2.809 2.896 3.765 3.053a5.005 5.005 0 0 1-3.673 4.317zm4.483 8.69h-.367v-1.955c.199.308.36.64.438.988.073.326.032.653-.071.967z" fill="#FFF"/></svg>