<svg xmlns="http://www.w3.org/2000/svg" width="512" height="512" viewBox="0 0 31.709 31.709"><g fill="#FFF"><path d="M10.595 25.719H4.696c-1.127 0-2.06-.886-2.06-2.013V5.42c0-1.127.933-2.006 2.06-2.006h14.277c1.127 0 2.047.879 2.047 2.006v15.323l2.637-3.135V3.462c0-1.482-1.172-2.684-2.652-2.684H2.559A2.562 2.562 0 0 0 0 3.354v22.382a2.674 2.674 0 0 0 2.669 2.688h10.358l-1.224-1.063a4.675 4.675 0 0 1-1.208-1.642z"/><path d="M17.875 6.794H6.034c-.728 0-1.314.591-1.314 1.318 0 .726.587 1.317 1.314 1.317h11.84c.728 0 1.312-.591 1.312-1.317a1.313 1.313 0 0 0-1.311-1.318zm0 4.393H6.034a1.318 1.318 0 1 0 0 2.636h11.84c.728 0 1.312-.594 1.312-1.318a1.311 1.311 0 0 0-1.311-1.318zm0 4.394H6.034c-.728 0-1.314.558-1.314 1.286 0 .725.587 1.282 1.314 1.282h11.84c.728 0 1.312-.56 1.312-1.282.002-.728-.584-1.286-1.311-1.286zM4.719 21.056c0 .727.587 1.283 1.314 1.283h4.418c.185-.473.469-1.022.857-1.479.408-.473.889-.82 1.412-1.092H6.034c-.728.003-1.315.563-1.315 1.288zm13.156-1.285h-.988c.324.137.633.366.916.611l1.312 1.123c.05-.135.076-.28.076-.437a1.305 1.305 0 0 0-1.316-1.297z"/><path d="M30.898 16.249a2.298 2.298 0 0 0-3.246.26l-7.564 8.867-3.781-3.248a2.306 2.306 0 0 0-3.248.248 2.3 2.3 0 0 0 .248 3.246l5.533 4.752a2.318 2.318 0 0 0 1.682.549 2.304 2.304 0 0 0 1.572-.801l9.066-10.627a2.303 2.303 0 0 0-.262-3.246z"/></g></svg>