<svg xmlns="http://www.w3.org/2000/svg" width="512" height="512" viewBox="0 0 32.008 32.008"><path d="M16.872 20.75h8.087v1.725h-8.087V20.75zm1.802-1.58h6.285v-1.725h-6.285v1.725zM26.282 0H9.323c-1.53 0-2.772 1.42-2.772 3.166v20.18l1.651-2.421V3.166c0-.821.514-1.515 1.121-1.515h16.959c.608 0 1.121.695 1.121 1.515V23.57c0 .822-.513 1.516-1.121 1.516H11.923l-1.128 1.65h15.486c1.529 0 2.773-1.42 2.773-3.166V3.166C29.056 1.42 27.812 0 26.282 0zM8.202 23.57v-2.646l2.324-3.405.77-1.129.859-1.26c.058-.114.129-.225.225-.33l.044-.062.012.008c.077-.076.161-.152.26-.221l4.333-2.998c.3-.207.56-.306.763-.306.41 0 .593.399.422 1.115l-1.211 5.127c-.027.119-.076.216-.12.316l.018.012-.051.074a1.398 1.398 0 0 1-.189.276l-.887 1.301-3.85 5.643h-1.443l4.582-6.715c-.058-.031-.115-.047-.172-.086l-.367-.252-4.812 7.053h-.389c-.607.001-1.121-.694-1.121-1.515zm5.088-8.24l2.746 1.875 1.066-4.512-3.812 2.637zm6.303.538h5.367v-1.725h-5.367v1.725zM8.655 26.633c.215.061.438.104.668.104h.03l1.127-1.65h-.77l-1.055 1.546zM24.959 4.232H14.704v1.725h10.255V4.232zm-5.366 8.332h5.367V10.84h-5.367v1.724zm-6.367-1.724H10.68v1.724h2.546V10.84zM24.96 7.535H10.68V9.26h14.28V7.535zM9.354 26.736h1.442l-3.003 4.402c-.03.045-.072.078-.106.119-.022.045-.038.092-.066.133-.184.27-.479.43-.821.492a2.038 2.038 0 0 1-.662.125c-.389 0-.779-.111-1.122-.346l-1.172-.801a1.99 1.99 0 0 1-.868-1.629c-.056-.324-.005-.639.17-.896.024-.037.059-.064.088-.096.029-.053.051-.107.085-.156l1.615-2.367 1.618-2.371v.225c0 1.481.898 2.72 2.104 3.062l-.193.283.525.357.366-.536zm-.772 1.471l-2.823-1.928-1.078 1.578c.314.062.639.189.94.396l1.172.801c.303.205.538.461.711.732l1.078-1.579zm4.644-23.975H10.68v1.725h2.546V4.232z" fill="#FFF"/></svg>