<svg xmlns="http://www.w3.org/2000/svg" width="2297" height="2297" viewBox="0 0 610 610" shape-rendering="geometricPrecision" text-rendering="geometricPrecision" image-rendering="optimizeQuality" fill-rule="evenodd" clip-rule="evenodd"><path d="M10 312h76c6 0 11-6 11-13 0-6-5-12-11-12-36 0-54 1-62 1-19 1-15-4-14 24zm593 5h-76c-6 0-11-5-11-12s5-13 11-13c36 0 54 1 62 2 19 0 15-4 14 23zM321 603v-77c0-5-6-10-12-10-7 0-13 5-13 10 0 37 1 55 1 63 1 19-3 15 24 14zM318 8v77c0 6-6 10-13 10s-12-4-12-10c0-36 1-54 1-62 1-19-4-15 24-15z" fill="#ec524f"/><path d="M520 89C463 32 386 0 305 0 223 0 147 32 89 89 32 147 0 223 0 305c0 81 32 158 89 215 58 58 134 90 216 90 81 0 158-32 215-90 58-57 90-134 90-215 0-82-32-158-90-216zM305 560C164 560 49 446 49 305S164 49 305 49s255 115 255 256-114 255-255 255z" fill="#008dd2"/><path d="M406 371l-77-76V137c0-14-11-25-24-25-14 0-25 11-25 25v168c0 6 3 13 7 17l84 84c5 5 11 7 18 7 6 0 12-2 17-7 10-9 10-25 0-35z" fill="#ffbe00"/></svg>