<svg xmlns="http://www.w3.org/2000/svg" viewBox="0 0 30.393 30.393" width="512" height="512"><path d="M14.491 16.336s-3.553 3.459-4.939 7.434v1.084h11.289V23.77c-1.802-4.389-4.939-7.434-4.939-7.434h-1.411z" fill="#008dd2"/><path d="M24.911 4.963V3.256h1.618V0H3.864v3.256h1.619v1.707c0 2.605 4.677 9.725 4.898 10.238-.217.514-4.898 7.631-4.898 10.229v1.703H3.864v3.26h22.665v-3.26h-1.618V25.43c0-2.609-4.682-9.68-4.929-10.232.247-.555 4.929-7.63 4.929-10.235zm-1.62 20.467v1.703H7.101V25.43c0-1.875 4.961-9.297 4.961-10.232 0-.941-4.961-8.361-4.961-10.234V3.256H23.29v1.707c0 1.873-5 9.293-5 10.234.001.936 5.001 8.358 5.001 10.233z" fill="#008dd2"/></svg>