<svg xmlns="http://www.w3.org/2000/svg" width="941" height="879" viewBox="0 0 159 148" shape-rendering="geometricPrecision" text-rendering="geometricPrecision" image-rendering="optimizeQuality" fill-rule="evenodd" clip-rule="evenodd"><path d="M158 57c-1-1-2-1-3-1h-7V18c0-3-2-5-4-5H62L56 2c-1-1-2-2-4-2H15c-2 0-4 2-4 5v51H3c-1 0-2 0-2 1-1 1-1 2-1 3l13 86c0 1 2 2 3 2h126c2 0 3-1 4-2l13-86c0-1 0-2-1-3zM16 5h36l6 11c1 2 2 3 4 3h81v37h-3V45h-2v-8h-3v-8H24v8h-3v8h-2v11h-3V5zm8 45h111v6H24v-6zm3-8h106v3H27v-3zm103-5H29v-3h101v3zm11 106H18L6 61h147l-12 82z" fill="#008dd2"/></svg>