<svg xmlns="http://www.w3.org/2000/svg" viewBox="0 0 28.872 28.872" width="512" height="512"><path d="M.001 5.815c-.002-.555.434-.547.434-.547a58847.916 58847.916 0 0 1 19.801.002V2.139c0-1.211.908-.295.908-.295s6.795 5.244 7.512 5.959c.512.518-.061 1.01-.061 1.01l-7.279 6.146s-.867.912-.865-.076c.002-.996 0-3.393 0-3.393s-.582 0-1.477-.004c-2.559.004-16.562 0-18.459 0 0 0-.514.135-.514-.643V5.815zm28.868 12.017c.002-.559-.434-.547-.434-.547-1.84 0-16.004 0-18.477.002-.803-.002-1.326 0-1.326 0v-3.133c0-1.207-.906-.297-.906-.297S.933 19.101.214 19.814c-.514.52.061 1.018.061 1.018l7.277 6.146s.864.91.864-.082c-.004-.996 0-3.391 0-3.391s.582 0 1.479-.006c2.559.006 16.564 0 18.457 0 0 0 .518.137.52-.645-.003-.781-.003-4.463-.003-5.022z" fill="#008dd2"/></svg>