<svg xmlns="http://www.w3.org/2000/svg" height="512" viewBox="-9 0 512 512" width="512"><path d="M149.79 85.543c-16.806 11.223-30.419 25.918-39.38 42.5-9.078 16.8-13.476 36.844-12.383 56.43 1.149 20.629 8.07 39.05 20.012 53.27 16.672 19.843 43.16 32.007 74.59 34.241 3.434.246 6.84.368 10.215.368 26.02 0 50.066-7.204 68.562-20.692 35.434-25.836 50.656-77.117 35.406-119.285-10.867-30.043-37.05-54.012-68.34-62.55-31.124-8.497-60.132-3.356-88.683 15.718zm150.374 49.234c6.828 18.883 7.219 40.653 1.098 61.301-6.114 20.621-18.2 38.336-34.02 49.871-19.55 14.254-45.875 20.988-74.113 18.985-29.5-2.098-54.246-13.372-69.676-31.739-21.8-25.957-24.668-68.765-6.824-101.793 8.414-15.57 21.238-29.398 37.086-39.984 18.473-12.336 37.117-18.457 56.445-18.457 8.664 0 17.469 1.23 26.45 3.684 29.105 7.94 53.456 30.218 63.554 58.132zm0 0" fill="#008dd2"/><path d="M138.676 68.785C118.43 82.305 102.03 100 91.246 119.961c-10.906 20.184-16.191 44.27-14.875 67.816 1.379 24.735 9.66 46.801 23.945 63.813 19.993 23.8 51.832 38.387 89.653 41.078 4.148.297 8.261.441 12.34.441 31.343 0 60.285-8.66 82.52-24.867 20.476-14.933 36.089-37.781 43.964-64.34 7.871-26.55 7.352-54.59-1.461-78.957-13.039-36.062-44.48-64.832-82.047-75.086-37.39-10.203-72.265-4.015-106.61 18.926zm184.86 57.535c8.519 23.563 9.015 50.707 1.386 76.434-7.625 25.715-22.707 47.812-42.477 62.223-24.351 17.757-57.09 26.164-92.191 23.664-36.719-2.614-67.563-16.692-86.844-39.649-27.254-32.449-30.875-85.906-8.61-127.11 10.473-19.382 26.419-36.581 46.118-49.737 33.316-22.25 67.105-28.262 103.305-18.387 36.32 9.914 66.71 37.715 79.312 72.562zm0 0" fill="#008dd2"/><path d="M491.41 55.621c-.09-3.117.024-6.43.14-9.937.505-14.95 1.079-31.895-14.105-40.489-11.136-6.308-23.804-5.449-36.054-4.62-4.164.277-8.09.542-11.856.519-97.59-.711-196.59 1.726-292.324 4.082-29.473.722-59.945 1.472-89.957 2.12-15.629.337-32.672 2.411-40.582 15.235-4.414 7.157-4.465 15.762-4.508 22.676L.008 396.723c-.04 6.285-.094 14.898 4.96 21.441 6.028 7.809 16.563 9.504 25.966 10.48 105.296 10.93 201.195 11.352 298.312 10.813.383 0 .746-.078 1.09-.195l23.367 50.14c2.985 6.403 7.07 15.168 14.988 19.594 3.582 2.004 7.72 3.004 12.372 3.004 4.843 0 10.25-1.086 16.18-3.254 13.698-5.008 26.343-13.152 36.566-23.55 4.117-4.184 9.57-10.676 9.421-18.692-.128-6.73-4.25-12.434-7.261-16.602l-8.703-12.039c2.488.25 4.14.403 9.734.746 4.195.262 8.523.649 12.707 1.028 5.395.484 10.977.984 16.441 1.226.16.008.32.008.48.008 8.806 0 17.638-10.394 19.161-17.367.797-3.66.824-7.555.848-11.32.011-1.723.023-3.352.105-4.891a4267.31 4267.31 0 0 0 3.555-78.512 4292.032 4292.032 0 0 0 2.71-130.953c.255-47.183-.284-95.027-1.597-142.207zM397.105 8.043c9.66.008 19.313.039 28.95.102l-5.836 197.457-15.426-18.72a3.497 3.497 0 0 0-2.863-1.28 3.53 3.53 0 0 0-2.758 1.496l-10.102 14.367zm-386.543 405.8c-3.296-4.269-3.53-10.261-3.488-17.077L9.23 45.25c.04-6.348.086-13.54 3.457-19.008 3.344-5.422 9.297-8.367 16.235-9.98-4.262 4.293-7.633 9.988-9.723 16.652-3.078 9.824-3.172 20.106-3.262 30.05L13.086 383c-.121 13.477 1.004 27.977 9.066 37.172-4.754-1.094-8.949-2.91-11.59-6.328zm21.102 7.77a141.54 141.54 0 0 1-1.937-.215c-11.332-7.21-12.739-23.43-12.602-38.363l2.852-320.031c.085-9.652.175-19.629 3.074-28.879 2.707-8.633 7.719-15.426 14.015-19.18 1.766-.18 3.551-.308 5.34-.402-5.984 5.684-10.144 13.086-12.8 22.703-3.391 12.277-3.508 24.945-3.618 37.195l-2.66 288.61c-.129 14.05.07 26.683 3.824 38.957.485 1.574.899 3.055 1.285 4.457 1.711 6.14 3.125 11.207 7.793 15.61-1.52-.157-3.039-.305-4.566-.462zm207.61 10.719c-60.645-.602-122.079-2.73-186.84-8.687a3.5 3.5 0 0 0-1.414-1.032c-12.055-4.695-13.297-9.156-15.77-18.047-.406-1.453-.836-2.992-1.336-4.629-3.46-11.308-3.64-23.367-3.516-36.82l2.657-288.61c.11-11.796.218-23.995 3.367-35.378 3.27-11.844 8.785-19.445 17.875-24.652.14-.082.258-.18.383-.274 27.66-.61 55.605-1.297 82.703-1.96 38.207-.942 76.937-1.891 115.883-2.65l1.437 31.321a126.64 126.64 0 0 0-5.898-1.777c-40.746-11.121-78.739-4.383-116.14 20.597a170.193 170.193 0 0 0-16.478 12.512c-7.855 6.77-14.957 14.527-22.164 21.867-7.324 7.453-12.336 19.621-16.476 29.075-9.078 20.734-13.977 43.46-12.711 66.14 1.508 26.984 10.55 51.067 26.156 69.645 23.852 28.398 61.492 42.234 97.676 44.808 4.504.32 8.973.477 13.402.477 14.785 0 29.078-1.778 42.504-5.223l-5.902 131.18c-.035.785.2 1.512.601 2.117zm48.472-160.879c-26.02 18.969-61.023 27.945-98.578 25.274-39.254-2.793-72.195-17.817-92.762-42.301-29.062-34.602-32.906-91.64-9.136-135.633 11.195-20.719 28.25-39.11 49.32-53.18 24.578-16.418 49.39-24.562 75.12-24.562 11.54 0 23.267 1.636 35.231 4.902 38.77 10.582 71.211 40.258 84.66 77.45 9.098 25.148 9.622 54.136 1.473 81.62-8.144 27.465-24.242 51.055-45.328 66.43zm9.68 11.188c1.672 2.875 3.554 5.363 5.472 7.828 1.633 2.101 3.293 4.187 4.868 6.476-3.301.696-6.57 1.364-9.727 2.778-6.52 2.922-11.113 7.84-13.527 14.183-4.907-7.941-9.813-15.883-14.715-23.828 7.871-3.64 15.289-7.937 22.11-12.91.656-.477 1.284-.988 1.937-1.473 1.574 1.625 2.398 4.914 3.582 6.946zm-52.32 149.742c.367-.528.597-1.16.628-1.848l5.965-132.668a3.315 3.315 0 0 0-.07-.836 146.724 146.724 0 0 0 11.61-4.117l19.327 31.293a40.57 40.57 0 0 0 .223 5.367c1.254 11.547 6.133 22.473 11.348 32.723 7.488 14.715 14.18 29.723 21.14 44.66l7.957 17.066c.309.668 3.246 8.383 3.903 8.38-27.36.144-54.625.21-82.032-.02zm184.132 22.246a489.254 489.254 0 0 1 3.27 5.531c2.46 4.219 3.476 7.41 1.351 11.852-1.8 3.773-3.937 7.328-6.55 10.597-5.2 6.504-11.957 11.782-19.594 15.118-9.477 4.144-20.215 5.265-30.367 3.336-4.95-.942-8.051-1.95-11.246-5.77-3.23-3.863-5.922-7.973-8.098-12.531-4.586-9.617-8.48-19.473-13.203-29.024-5.742-11.617-11.063-23.46-16.598-35.175-10.957-23.188-21.922-46.375-32.777-69.614-4.754-10.183-8.645-22.91-2.903-33.5 3.707-6.836 12.297-13.969 20.336-11.59 15.782 4.672 25.684 22.825 34.918 35.348 28.02 37.984 57.16 74.813 81.461 115.422zm16.34-22.852a3.474 3.474 0 0 0-1.965.23 305.128 305.128 0 0 0-6.183-.452c-5.762-.356-7.223-.5-9.88-.766-1.374-.14-3.073-.312-5.804-.555l-82.504-114.117c-5.32-7.355-12.754-15.847-22.77-18.433a3.363 3.363 0 0 0-.374-.809l-16.66-25.719c18.624-16.11 32.824-38.531 40.414-64.125 8.574-28.918 8.003-59.472-1.602-86.035-6.332-17.508-16.68-33.469-29.746-46.703-6.14-6.215-12.945-12.863-20.488-17.184-4.567-2.617-9.082-5.312-13.723-7.793-1.348-.718-12.367-5.226-12.395-5.824l-1.562-34.039c43.121-.816 86.484-1.375 129.695-1.41l-8.523 205.152a3.537 3.537 0 1 0 6.426 2.18l14.351-20.418 18.457 22.398a3.545 3.545 0 0 0 3.875 1.098 3.542 3.542 0 0 0 2.387-3.242l6.125-207.113c2.902-.09 5.848-.278 8.738-.473 2.496-.172 5.016-.336 7.52-.441 7.715 5.625 13.406 15.14 16.039 26.867 2.48 11.035 2.207 22.719 1.941 34.015l-7.902 336.102c-.13 5.484-.278 11.695-2.688 16.66-2.78 5.727-7.925 11.5-11.199 10.95zm19.192 1.93a276.81 276.81 0 0 1-7.915-.547c3.567-3.84 5.848-8.351 6.282-9.242 3.082-6.348 3.25-13.379 3.394-19.582l7.903-336.102c.277-11.722.562-23.847-2.11-35.734-2.246-9.996-6.527-18.648-12.332-25.156 4.13.379 8.102 1.234 11.774 2.898 6.386 19.813 6.132 41.813 5.906 61.375l-3.336 285.528c-.285 24.472-.633 52.07-9.566 76.562zm21.168-235.918a4290.539 4290.539 0 0 1-2.708 130.738 4252.997 4252.997 0 0 1-3.546 78.383c-.094 1.707-.106 3.496-.118 5.227-.023 3.402-.046 6.922-.687 9.86-.871 4-5.453 9.398-9.61 11.194 8.508-24.632 8.825-51.828 9.106-75.996l3.332-285.527c.219-18.469.45-39.07-4.8-58.281 8.417 7.101 7.991 19.77 7.577 32.058-.117 3.461-.234 7.04-.144 10.375a4279.237 4279.237 0 0 1 1.598 141.97zm0 0" fill="#008dd2"/></svg>