<svg xmlns="http://www.w3.org/2000/svg" width="512" height="512"><path d="M209.295 22.842l-39.955-8.084c-40.046-8.097-82.379-8.097-122.425 0L6.96 22.842A8.674 8.674 0 0 0 0 31.347v248.101a8.687 8.687 0 0 0 3.185 6.717c2.018 1.653 4.682 2.321 7.216 1.788l39.955-8.084c37.798-7.641 77.753-7.646 115.543 0l39.955 8.084a8.531 8.531 0 0 0 1.718.174 8.694 8.694 0 0 0 5.498-1.961 8.687 8.687 0 0 0 3.185-6.717V31.347a8.681 8.681 0 0 0-6.96-8.505zm-10.401 245.992l-29.558-5.979c-20.021-4.048-40.619-6.075-61.213-6.075s-41.187 2.026-61.208 6.075l-29.558 5.979V38.442l32.999-6.678c37.798-7.641 77.753-7.641 115.543 0l32.995 6.678v230.392z" fill="#008dd2"/><path d="M164.333 87.839H51.918c-4.79 0-8.678 3.888-8.678 8.678 0 4.79 3.888 8.678 8.678 8.678h112.415a8.678 8.678 0 0 0 0-17.356zm0 34.843H51.918c-4.79 0-8.678 3.888-8.678 8.678 0 4.79 3.888 8.678 8.678 8.678h112.415a8.678 8.678 0 0 0 0-17.356zm-51.883 34.844H51.918c-4.79 0-8.678 3.888-8.678 8.678s3.888 8.678 8.678 8.678h60.531a8.678 8.678 0 0 0 .001-17.356zm51.883 34.847H51.918c-4.79 0-8.678 3.888-8.678 8.678s3.888 8.678 8.678 8.678h112.415a8.678 8.678 0 0 0 0-17.356zM408.19 22.842l-39.955-8.084c-40.046-8.097-82.379-8.097-122.425 0l-39.955 8.084a8.674 8.674 0 0 0-6.96 8.505v248.101a8.687 8.687 0 0 0 3.185 6.717c2.018 1.653 4.673 2.321 7.216 1.788l39.955-8.084c37.785-7.646 77.741-7.65 115.543 0l39.955 8.084a8.531 8.531 0 0 0 1.718.174 8.713 8.713 0 0 0 5.502-1.961 8.696 8.696 0 0 0 3.181-6.717V31.347a8.682 8.682 0 0 0-6.96-8.505zm-10.401 245.992l-29.558-5.979c-20.021-4.048-40.615-6.075-61.208-6.075s-41.192 2.026-61.213 6.075l-29.558 5.979V38.442l32.999-6.678c37.785-7.646 77.74-7.65 115.543 0l32.995 6.678v230.392z" fill="#008dd2"/><path d="M363.227 87.839H250.808c-4.79 0-8.678 3.888-8.678 8.678 0 4.79 3.888 8.678 8.678 8.678h112.419c4.79 0 8.678-3.888 8.678-8.678.001-4.791-3.887-8.678-8.678-8.678zm0 34.843H250.808c-4.79 0-8.678 3.888-8.678 8.678 0 4.79 3.888 8.678 8.678 8.678h112.419c4.79 0 8.678-3.888 8.678-8.678.001-4.79-3.887-8.678-8.678-8.678zm0 69.691H250.808c-4.79 0-8.678 3.888-8.678 8.678s3.888 8.678 8.678 8.678h112.419c4.79 0 8.678-3.888 8.678-8.678s-3.887-8.678-8.678-8.678zm141.206 266.408l-103.71-104.474c-3.372-3.402-8.865-3.424-12.271-.043-3.402 3.372-3.419 8.869-.043 12.271l103.706 104.474c3.398 3.419 3.398 8.991.004 12.41-3.254 3.272-8.891 3.272-12.145 0l-103.22-103.984a8.675 8.675 0 0 0-12.271-.043c-3.402 3.372-3.419 8.869-.043 12.271l103.224 103.984c4.908 4.942 11.434 7.667 18.385 7.667 6.947 0 13.477-2.725 18.389-7.663 10.083-10.167 10.083-26.703-.005-36.87z" fill="#008dd2"/><path d="M388.251 193.918c-24.503-24.69-57.09-38.284-91.76-38.284-34.666 0-67.257 13.599-91.765 38.284-50.551 50.92-50.551 133.776 0 184.697 24.508 24.685 57.099 38.284 91.765 38.284 34.67 0 67.257-13.599 91.76-38.284 50.556-50.92 50.556-133.777 0-184.697zm-12.314 172.465c-21.223 21.383-49.436 33.16-79.446 33.16-30.005 0-58.223-11.776-79.45-33.16-43.856-44.173-43.856-116.06 0-160.237 21.227-21.383 49.445-33.156 79.45-33.156 30.01 0 58.223 11.772 79.45 33.156 43.856 44.177 43.856 116.06-.004 160.237z" fill="#008dd2"/></svg>