<svg xmlns="http://www.w3.org/2000/svg" width="624" height="624" viewBox="0 0 400 400" shape-rendering="geometricPrecision" text-rendering="geometricPrecision" image-rendering="optimizeQuality" fill-rule="evenodd" clip-rule="evenodd"><defs><style>.fil0{fill:#008dd2}</style></defs><g id="Слой_x0020_1"><g id="key.svg"><path class="fil0" d="M10 390c-13-14-13-36 0-50l169-169c-33-41-30-102 8-140 41-41 108-41 149 0l33 33c41 41 41 108 0 149-38 39-99 41-140 8l-29 29 33 34-50 49-33-33-17 17 33 33-49 50-34-34-23 24c-14 14-36 14-50 0zM320 47c-32-32-84-32-116 0-33 32-33 85 0 117l8 8L27 357c-5 4-5 12 0 16 4 5 12 5 16 0l40-40 34 33 16-16-33-33 50-50 33 33 17-16-34-34 62-62 9 9c32 32 84 32 116 0s32-84 0-116l-33-34zm0 0z"/><path class="fil0" d="M253 180l-8-8 8-8c5-5 5-12 0-17-4-5-12-5-16 0l-9 8-8-8c-23-23-23-60 0-83s60-23 83 0l33 33c11 11 17 26 17 42 0 15-6 30-17 41-23 23-60 23-83 0zm17-50c10 11 13 26 7 39 14 8 31 6 43-5 6-7 10-16 10-25 0-10-4-19-10-25l-34-33c-13-14-36-14-49 0-12 11-14 29-6 42 13-6 28-3 39 7zm0 0z"/></g></g></svg>