<svg xmlns="http://www.w3.org/2000/svg" width="2158" height="2149" viewBox="0 0 2145 2136" shape-rendering="geometricPrecision" text-rendering="geometricPrecision" image-rendering="optimizeQuality" fill-rule="evenodd" clip-rule="evenodd"><defs><style>.fil0,.fil2{fill:#008dd2;fill-rule:nonzero}.fil2{fill:#fff}</style></defs><g id="Слой_x0020_1"><path class="fil0" d="M1079 2046c-537 0-974-437-974-974 0-536 437-973 974-973 536 0 973 437 973 973 0 537-437 974-973 974zm0-1752c-430 0-779 349-779 778 0 430 349 779 779 779 429 0 778-349 778-779 0-429-349-778-778-778zm0 0z"/><path class="fil0" d="M1079 2046c-278 0-487-419-487-974 0-554 209-973 487-973 277 0 486 419 486 973 0 555-209 974-486 974zm0-1752c-119 0-292 303-292 778 0 476 173 779 292 779s291-303 291-779c0-475-172-778-291-778zm0 0z"/><path class="fil0" d="M1079 1559c-555 0-974-209-974-487 0-277 419-486 974-486 554 0 973 209 973 486 0 278-419 487-973 487zm0-778c-476 0-779 172-779 291 0 120 303 292 779 292 475 0 778-172 778-292 0-119-303-291-778-291zm0 0z"/><path d="M487 973c80 0 160-21 231-61l20 21c54 54 141 54 195 0s54-141 0-195l-21-20c40-71 61-151 61-231C973 218 755 0 487 0 218 0 0 218 0 487c0 268 218 486 487 486zm0 0z" fill="#ffbe00" fill-rule="nonzero"/><path class="fil2" d="M487 324v351H369v-35c-23 30-57 45-100 45-33 0-60-12-84-36-23-24-34-59-34-104V324h117v196c0 16 3 29 11 39 7 11 18 16 34 16 20 0 39-10 56-32V324h118z"/><path id="1" class="fil2" d="M577 434l-29-85c15-10 35-18 59-24 25-7 48-11 72-11 52 0 89 13 112 38s34 62 34 112v211H723v-32c-17 25-48 37-92 37-33 0-59-10-80-29-21-20-31-47-31-82 0-38 12-67 36-87 23-19 54-29 91-29 29 0 52 6 69 19 2-40-15-60-49-60-23 0-53 7-90 22zm94 148c21 0 36-6 45-18v-21c-11-8-26-12-45-12-10 0-18 2-24 7s-10 11-10 19 4 14 10 19c6 4 14 6 24 6z"/><path d="M1233 1419c-39 70-60 150-61 231 0 268 218 486 487 486 268 0 486-218 486-486 0-269-218-487-486-487-81 1-161 22-231 61l-21-21c-54-53-141-53-195 0-53 54-53 141 0 195l21 21zm0 0z" fill="#ec524f" fill-rule="nonzero"/><path class="fil2" d="M1350 1831v-352h118v28c15-22 39-34 72-34 25 0 43 5 55 13l-42 110c-15-9-29-14-43-14-19 0-33 9-42 25v224h-118z"/><path id="1" class="fil2" d="M1966 1479v352h-117v-35c-24 30-57 44-101 44-32 0-60-12-83-36s-35-58-35-104v-221h117v196c0 16 4 29 11 40s19 16 35 16c20 0 39-11 56-32v-220h117z"/></g></svg>