<svg xmlns="http://www.w3.org/2000/svg" width="363" height="335" viewBox="0 0 368 341" shape-rendering="geometricPrecision" text-rendering="geometricPrecision" image-rendering="optimizeQuality" fill-rule="evenodd" clip-rule="evenodd"><defs><style>.fil1{fill:#ffbe00}</style></defs><g id="Слой_x0020_1"><path d="M263 320h1c-18-2-27-9-33-17h-94c-5 8-15 15-33 17h1c-5 0-10 5-10 11 0 5 5 10 10 10h158c5 0 10-5 10-10 0-6-5-11-10-11zm105-100V27c0-15-11-27-26-27H27C12 0 0 12 0 27v237c0 12 11 23 24 23h321c13 0 23-11 23-23v-44zm-162 41c0 3-3 6-6 6h-31c-4 0-6-3-6-6v-4c0-3 2-6 6-6h31c3 0 6 3 6 6v4zm136-32H27c-3 0-5-2-5-5V27c0-3 2-5 5-5h315c2 0 4 2 4 5v197c0 3-2 5-4 5z" fill="#008dd2"/><g id="_1033715136"><path class="fil1" d="M120 109c17-17 40-27 64-27s47 10 64 27c3 3 8 3 11 0s3-8 0-11c-20-20-47-31-75-31s-55 11-75 31c-3 3-3 8 0 11s8 3 11 0zm0 0z"/><path class="fil1" d="M232 140c3 0 6-2 7-5s0-6-2-8c-14-14-33-22-53-22s-39 8-54 22c-2 2-2 5-2 7 1 3 3 5 6 6 2 0 5 0 7-2 11-12 27-18 43-18s31 6 43 18c1 1 3 2 5 2zm0 0z"/><path class="fil1" d="M152 156c-2 2-3 5-2 7 0 3 2 5 5 6 3 0 5 0 7-2 12-12 31-12 43 0 3 3 8 2 11 0 3-3 3-8 0-11-18-18-46-18-64 0zm0 0z"/></g></g></svg>