<svg xmlns="http://www.w3.org/2000/svg" width="2917" height="2522" viewBox="0 0 2957 2557" shape-rendering="geometricPrecision" text-rendering="geometricPrecision" image-rendering="optimizeQuality" fill-rule="evenodd" clip-rule="evenodd"><defs><style>.fil1{fill:#008dd2}</style></defs><g id="Слой_x0020_1"><g id="_629753648"><path d="M869 1854h1219c113 0-96-499-96-499-13-30-42-49-71-60l-193-89-92-78-149 148 64 429c0 1 0 3-1 4l-67 92c-1 1-3 2-4 2-2 0-4-1-5-2l-67-92c-1-1-1-3-1-4l64-429-149-148-92 78-193 89c-28 11-56 29-71 60 0 0-209 499-96 499z" fill="#ffbe00"/><path class="fil1" d="M1479 1168c147 0 344-184 347-492 2-213-100-341-347-341-248 0-350 128-348 341 4 308 176 492 348 492zm-70-406c179 19 336-232 333-7-1 135-126 338-263 338-145 0-244-169-264-338-22-183 314-142 194 7z"/><path class="fil1" d="M2822 0H135C61 0 0 61 0 135v1918c0 75 61 135 135 135h2687c75 0 135-60 135-135V135c0-74-60-135-135-135zm-68 1985H203V203h2551v1782zM0 2404c0 41 33 74 75 74h720v-149H75c-42 0-75 33-75 75zm2882-75H1084v149h1798c42 0 75-33 75-74 0-42-33-75-75-75zm-1943-79c-49 0-90 41-90 90v127c0 49 41 90 90 90 50 0 90-41 90-90v-127c0-49-40-90-90-90z"/></g></g></svg>