<svg xmlns="http://www.w3.org/2000/svg" viewBox="0 0 511.989 511.989" width="512" height="512"><path d="M438.886 386.353l-1.828-.516c-26.468-7.125-35.404-13.938-47.186-18.438-9.062-3.438-16.688-6.688-23.062-9.703 16.5-2.797 31.531-6.312 44.999-10.547 30.218-9.516 41.437-19.391 42.624-20.484l8.875-8.203-9.25-7.781c-22.749-19.123-27.171-63.404-31.843-110.286-4.625-46.359-9.406-94.296-31.249-132.795C365.278 22.281 321.139.172 255.968 0 190.859.172 146.72 22.281 121.025 67.593c-21.828 38.506-26.609 86.443-31.234 132.802-4.68 46.882-9.094 91.163-31.843 110.286l-9.258 7.781 8.875 8.203c1.18 1.094 12.414 10.969 42.624 20.484 13.469 4.234 28.491 7.75 44.999 10.547-6.383 3.016-13.992 6.266-23.054 9.703-11.781 4.5-20.734 11.312-47.202 18.438l-1.82.516c-24.094 7.969-40.305 30.311-40.305 55.529v70.107h446.375v-70.107c.001-25.218-16.203-47.56-40.296-55.529zm-37.906-183.84c4.486 44.967 8.766 87.749 29.516 114.262-12.953 6.625-40.655 17.344-91.812 23.297-2.25-2.234-3.547-4.062-4.281-5.484-.094-.188-.172-.406-.266-.594l-.078-12.625c32.719-32.404 59.5-80.248 59.5-130.333 0-11.25-1-22.016-2.844-32.25 1.781.234 3.594.445 5.406.625 1.969 14.234 3.438 28.75 4.859 43.102zM288.686 330.057c-12.234 7.281-23.844 11.281-32.688 11.281-8.844 0-20.453-4-32.694-11.281-13.711-8.125-27.43-19.812-39.68-33.764-24.812-28.281-40.194-61.805-43.265-93.624h3.736c1.977 15.421 11.211 26.671 52.819 26.671 41.601 0 50.835-11.25 52.812-26.671h12.164c1.977 15.421 11.203 26.671 52.812 26.671s50.843-11.25 52.827-26.671h4.109c-3.078 31.819-18.453 65.343-43.265 93.624-12.25 13.951-25.968 25.639-39.687 33.764zm4.312 22.015l-3.437 13.656c-4.562 2.406-16.406 7.609-33.75 7.609-17.32 0-28.944-5.188-33.366-7.562l-3.438-13.703c13.062 6.797 25.78 10.578 36.991 10.578 11.211 0 23.938-3.781 37-10.578zm21.703-197.404c-37.312 0-49.296 11.25-52.397 26.672h-12.992c-2.305-11.453-9.508-20.602-28.343-24.555 17.077-10.85 34.053-23.889 50.725-38.982a464.788 464.788 0 0 0 7.961-7.391c16.547 12.461 48.905 33.727 88.311 43.944 2.094 8.625 3.438 17.641 3.969 26.984h-4.844c-3.094-15.422-15.062-26.672-52.39-26.672zm32.015 37.337c0 9.242-.875 10.797-1.156 11.055-.188.203-5.406 4.944-30.858 4.944s-30.655-4.741-30.858-4.944c-.281-.258-1.141-1.812-1.141-11.055 0-8.297 1.672-9.781 2.391-10.414 1.5-1.305 8.016-5.586 29.608-5.586 21.608 0 28.124 4.281 29.608 5.586.718.633 2.406 2.125 2.406 10.414zm-120.2-10.414c.719.633 2.398 2.125 2.398 10.414 0 9.242-.867 10.797-1.133 11.055-.211.203-5.414 4.944-30.867 4.944-25.46 0-30.655-4.741-30.866-4.944-.266-.258-1.133-1.812-1.133-11.055 0-4.07.406-6.5.898-7.992a244 244 0 0 0 18.601-7.43c3.469-.359 7.594-.578 12.5-.578 21.602 0 28.117 4.281 29.602 5.586zM372.403 78.116c9.938 17.5 16 37.843 20.141 59.39-42.016-5.75-78.874-28.766-97.545-42.358 24.624-25.641 40.217-47.491 44.123-53.147 13.656 8.935 24.609 20.81 33.281 36.115zm-232.816 0c10.211-18.016 23.555-31.296 40.788-40.601 19.742-10.656 45.188-16.102 75.593-16.18 24.781.062 46.25 3.68 64.03 10.766-7.078 9.898-29.827 40.257-62.983 70.217-23.367 21.109-47.249 37.891-70.991 49.883a241.775 241.775 0 0 1-7.438 3.601c-12.218 1.695-20.327 5.219-25.632 10.016-13.086 4.164-26.077 6.82-38.905 7.961 4.047-34.656 10.172-68.562 25.538-95.663zm-30.288 249.503c-12.875-3.875-21.867-7.781-27.805-10.844 20.766-26.498 25.039-69.295 29.523-114.263.234-2.383.477-4.766.719-7.148 2.25-.156 4.508-.344 6.766-.578 1.289 48.718 27.522 94.991 59.444 126.583l-.086 12.625c-.094.188-.172.406-.266.594-.734 1.422-2.016 3.25-4.266 5.469-22.14-2.547-44.288-6.469-64.029-12.438zm-55.156 163.03v-48.766c0-15.906 10.164-29.984 25.327-35.17l1.195-.344c19.945-5.359 30.953-10.625 39.812-14.875 3.422-1.641 6.375-3.062 9.257-4.156 5.32-2.016 11.094-4.312 16.961-6.859-1.367 3.891-.375 8.297 2.672 11.203l16.602 15.967-8.188 13.953a10.674 10.674 0 0 0 1.875 13.156l59.194 55.891H54.143zm126.332-65.579l8.148-13.891a10.665 10.665 0 0 0-1.803-13.091l-16.757-16.094 11.663-21.094c5.82-4.5 10.656-9.406 13.812-14.719l30.57 121.998-45.633-43.109zm77.782 65.577h-2.258v.001h-2.258l-24.96-99.592c8.499 2.375 17.702 3.609 27.03 3.609 9.43 0 18.781-1.266 27.438-3.672l-24.992 99.654zm58.21-144.465c3.156 5.312 7.984 10.219 13.812 14.719l11.655 21.093-16.749 16.094a10.662 10.662 0 0 0-1.781 13.139l8.093 13.609-45.576 43.219 30.546-121.873zm141.388 144.466H293.077l59.279-56.188c3.609-3.438 4.375-8.906 1.828-13.188l-8.125-13.656 16.562-15.936c3.062-2.906 4.047-7.312 2.688-11.203 5.875 2.547 11.641 4.844 16.969 6.875 2.875 1.078 5.812 2.5 9.25 4.141 8.844 4.25 19.858 9.516 39.812 14.875l1.187.344c15.156 5.186 25.328 19.264 25.328 35.17v48.766z" fill="#64b432"/></svg>