<svg xmlns="http://www.w3.org/2000/svg" width="2127" height="2127" viewBox="0 0 282 282" shape-rendering="geometricPrecision" text-rendering="geometricPrecision" image-rendering="optimizeQuality" fill-rule="evenodd" clip-rule="evenodd"><defs><style>.fil0{fill:#008dd2}</style></defs><g id="Слой_x0020_1"><g id="_1036855104"><path class="fil0" d="M282 141c0 78-63 141-141 141S0 219 0 141 63 0 141 0s141 63 141 141zm0 0z"/><path d="M254 141c0 62-50 113-113 113-62 0-113-51-113-113S79 29 141 29c63 0 113 50 113 112zm0 0z" fill="#fefefe"/><path d="M62 62c21-21 49-33 80-33V0C103 0 68 16 42 41l20 21zm0 0z" fill="#224b69"/><path d="M29 141c0-29 10-58 33-80L41 41C14 68 0 105 0 141h29zm0 0z" fill="#64b432"/><path d="M221 62c-21-21-48-33-80-33V0c39 0 74 16 100 41l-20 21zm0 0z" fill="#e53a24"/><path class="fil0" d="M237 100l-14-14c-2-2-4-3-7-3s-5 1-7 3l-82 82-33-33c-2-2-4-3-7-3s-5 1-7 3l-14 14c-2 2-3 4-3 7s1 5 3 7l54 54c2 2 5 3 7 3 3 0 5-1 8-3l102-102c2-2 3-5 3-8 0-2-1-5-3-7z"/></g></g></svg>