<svg xmlns="http://www.w3.org/2000/svg" width="2127" height="2127" viewBox="0 0 485 485" shape-rendering="geometricPrecision" text-rendering="geometricPrecision" image-rendering="optimizeQuality" fill-rule="evenodd" clip-rule="evenodd"><defs><style>.fil0{fill:#008dd2}</style></defs><g id="Слой_x0020_1"><g id="_89744608"><path class="fil0" d="M485 243c0 134-108 242-242 242S0 377 0 243 109 0 243 0s242 109 242 243zm0 0z"/><path d="M437 243c0 107-87 194-194 194-108 0-194-87-194-194 0-108 86-194 194-194 107 0 194 86 194 194zm0 0z" fill="#fefefe"/><path class="fil0" d="M404 150l-23-24c-4-3-8-5-13-5s-9 2-12 5L216 266l-57-57c-4-3-8-5-13-5-4 0-8 2-12 5l-24 24c-3 4-5 8-5 13 0 4 2 8 5 12l93 93c4 4 8 5 13 5 4 0 9-1 12-5l176-176c4-4 6-8 6-13 0-4-2-9-6-12z"/></g></g></svg>