<svg xmlns="http://www.w3.org/2000/svg" width="696" height="822" viewBox="0 0 293 347" shape-rendering="geometricPrecision" text-rendering="geometricPrecision" image-rendering="optimizeQuality" fill-rule="evenodd" clip-rule="evenodd"><defs><style>.fil0{fill:#64b432}</style></defs><g id="Слой_x0020_1"><g id="_1039088112"><path class="fil0" d="M8 347h278c26 0-22-114-22-114-3-7-10-11-16-14l-44-20-21-18-34 34 14 98v1l-15 21h-2l-16-21v-1l15-98-34-34-21 18-44 20c-7 3-13 7-16 14 0 0-48 114-22 114z"/><path class="fil0" d="M147 190c33 0 78-42 79-112 1-49-23-78-79-78-57 0-80 29-80 78 1 70 40 112 80 112zm-16-92c41 4 77-53 76-2 0 31-29 77-60 77-33 0-56-39-60-77-5-42 71-32 44 2z"/></g></g></svg>