<svg xmlns="http://www.w3.org/2000/svg" width="1600" height="1600" viewBox="0 0 433 433" shape-rendering="geometricPrecision" text-rendering="geometricPrecision" image-rendering="optimizeQuality" fill-rule="evenodd" clip-rule="evenodd"><path d="M433 270c-1-5-5-10-11-11-1-1-77-20-133-54l-61-61c-34-56-53-132-54-133-1-6-6-10-11-11-6-1-12 2-15 7l-18 30c-11-10-26-14-39-11h-1C44 40 15 69 1 115v1c-3 14 1 30 12 40 1 1 2 2 2 3h1c34 27 68 57 100 87-29 16-54 24-73 23-3 0-6 2-7 5s0 7 2 8l22 17-25 24c-2 2-3 5-1 7 0 1 0 2 1 3s3 2 5 2c22 1 46-4 72-14-11 26-15 50-14 72 0 2 1 3 2 5 1 0 1 1 2 1 3 1 6 1 8-1l24-25 16 22c2 2 6 3 9 2s5-4 5-7c-1-19 7-44 23-73 30 32 60 66 87 100v1c1 0 2 1 3 2 10 10 26 15 40 12h1c46-14 75-43 89-89 0 0 7-23-11-40l30-18c5-3 8-9 7-15zM156 49c2 9 6 20 10 31-6-7-11-14-17-20l7-11zm-14 181c-35-32-71-64-108-94h-1c-3-3-5-9-4-14 11-36 32-57 68-68 5-1 10 0 14 5 3 3 5 6 7 8l5 6c26 32 54 63 82 94l-63 63zm237 106c-11 36-32 57-69 68-4 1-10-1-13-4 0-1 0-1-1-1-29-37-61-73-93-108l63-63c31 28 62 56 94 82l6 5c2 2 5 4 8 7h1c3 3 5 9 4 14zm-6-52c-7-6-13-11-20-17 11 4 22 8 31 10l-11 7z" fill="#e53a24"/></svg>