<svg xmlns="http://www.w3.org/2000/svg" xmlns:xlink="http://www.w3.org/1999/xlink" xmlns:fi="http://pattern.flaticon.com/" x="0" y="0" width="700" height="350" viewBox="0 0 1225 612.5"><rect x="0px" y="0px" width="100%" height="100%" opacity="1" fill="#ffffff"/><defs><g transform="matrix(0.17578125 0 0 0.17578125 305 305)" id="L1_95"><path d="m420.096 96.735c-33.398-36.328-84.936-58.008-136.19-58.008-25.474 0-50.061 5.358-72.905 15.28-25.472 11.063-48.763 27.843-68.394 50.052-40.259 45.555-83.981 134.09-72.984 300.214h141.377 164.064l9.476-1.65c-3.038-6.037-101.746-139.001-65.215-209.707 8.511-16.494 23.101-25.576 41.074-25.576 20.815 0 52.738 14.429 71.386 55.107l12.788 23.159 16.846-26.631c-.615-3 10.375-65.981-41.323-122.24z" fill="#ff7b4a"/><path d="m384.54 402.624c-3.038-6.037-101.746-139.001-65.215-209.707 8.511-16.494 23.101-25.576 41.074-25.576 20.815 0 52.738 14.429 71.386 55.107l12.788 23.159 16.846-26.631c-.615-3.001 10.375-65.982-41.323-122.241-33.398-36.328-84.936-58.008-136.19-58.008-25.474 0-50.061 5.358-72.905 15.28v350.266h164.064z" fill="#ff435b"/><path d="m467 293.273c-24.853 0-45-20.147-45-45 0-24.853 20.147-45 45-45 24.853 0 45 20.147 45 45 0 24.853-20.147 45-45 45z" fill="#d5e8fe"/><path d="m376 383.273c-13.094 0-24.776 5.684-32.999 14.61-8.223-8.926-19.907-14.61-33.001-14.61s-24.776 5.684-32.999 14.61c-8.223-8.926-19.907-14.61-33.001-14.61s-24.776 5.682-32.999 14.608c-8.223-8.926-19.905-14.608-32.999-14.608s-24.776 5.684-32.999 14.61c-8.223-8.926-19.907-14.61-33.001-14.61s-24.776 5.684-32.999 14.61c-8.223-8.926-19.907-14.61-33.001-14.61-24.853 0-46 20.147-46 45s21.147 45 46 45c13.094 0 24.778-5.684 33.001-14.61 8.223 8.926 19.905 14.61 32.999 14.61s24.778-5.684 33.001-14.61c8.223 8.926 19.905 14.61 32.999 14.61s24.776-5.682 32.999-14.608c8.223 8.926 19.905 14.608 32.999 14.608s24.778-5.684 33.001-14.61c8.223 8.926 19.905 14.61 32.999 14.61s24.778-5.684 33.001-14.61c8.223 8.926 19.905 14.61 32.999 14.61 24.853 0 45-20.147 45-45s-20.147-45-45-45z" fill="#edf5ff"/><path d="m277 458.663c8.223 8.926 19.905 14.61 32.999 14.61s24.778-5.684 33.001-14.61c8.223 8.926 19.905 14.61 32.999 14.61 24.853 0 45-20.147 45-45s-20.147-45-45-45c-13.094 0-24.776 5.684-32.999 14.61-8.223-8.926-19.907-14.61-33.001-14.61s-24.776 5.684-32.999 14.61c-8.223-8.926-19.907-14.61-33.001-14.61s-24.776 5.682-32.999 14.608v60.784c8.223 8.926 19.905 14.608 32.999 14.608s24.778-5.684 33.001-14.61z" fill="#d5e8fe"/></g><g transform="matrix(0.05859375 0 0 0.05859375 335 160)" id="L1_96"><path d="m371.972 353.69-50.185-46.309-65.787 8.619-30 61.875 30 61.073 143.35 73.052z" fill="#ff9100"/><path d="m256 438.948v-122.948l-71.809-6.671-44.163 44.347-27.392 158.324z" fill="#fabe2c"/><path d="m184.325 217.343-160.283 23.291 115.986 113.042 115.972-37.676-6.3-49.965z" fill="#fed843"/><path d="m327.675 217.343-63.836 46.574-7.839 52.083 115.972 37.69 115.986-113.056z" fill="#fabe2c"/><path d="m256 0h-15v75h15 15v-75z" fill="#704c55"/><path d="m256 0h15v75h-15z" fill="#5b362a"/><circle cx="256" cy="105" r="45" fill="#fabe2c"/><path d="m301 105c0-24.814-20.186-45-45-45v90c24.814 0 45-20.186 45-45z" fill="#ff9100"/><path d="m256 70.972-71.675 146.371 71.675 98.657 71.675-98.657z" fill="#fabe2c"/><path d="m256 70.972v245.028l71.675-98.657z" fill="#ff9100"/></g><g transform="matrix(0.13671875 0 0 0.13671875 140 140)" id="L1_97"><path d="m91.002 177.36h29.997v127.279h-29.997z" transform="matrix(0.707 -0.707 0.707 0.707 -139.366 145.541)" fill="#704c55"/><path d="m121 256h-75v-30h45v-45h30z" fill="#704c55"/><path d="m343.672 224.123h124.656v30.003h-124.656z" transform="matrix(0.722 -0.692 0.692 0.722 -52.519 347.649)" fill="#5b362a"/><path d="m466 256h-75v-75h30v45h45z" fill="#5b362a"/><path d="m256 211c-82.842 0-150 67.158-150 150s67.158 151 150 151 150-68.158 150-151-67.158-150-150-150z" fill="#edf5ff"/><path d="m406 361c0-82.842-67.158-150-150-150v301c82.842 0 150-68.158 150-151z" fill="#d5e8fe"/><path d="m340.489 106h-84.489-84.489c-3.351 9.426-5.511 19.424-5.511 30 0 49.706 40.294 90 90 90s90-40.294 90-90c0-10.576-2.161-20.574-5.511-30z" fill="#edf5ff"/><path d="m346 136c0-10.576-2.161-20.574-5.511-30h-84.489v120c49.706 0 90-40.294 90-90z" fill="#d5e8fe"/><path d="m256 211h60v150h-60z" fill="#288c64"/><path d="m256 0h-75v106h75 75v-106z" fill="#704c55"/><path d="m256 0h75v106h-75z" fill="#5b362a"/><path d="m256 391h-15v30h15 15v-30z" fill="#704c55"/><path d="m256 391h15v30h-15z" fill="#5b362a"/><path d="m316 181h-60-60c-16.569 0-30 13.431-30 30 0 16.567 13.431 30 30 30h60 60c16.569 0 30-13.433 30-30 0-16.569-13.431-30-30-30z" fill="#8cd96b"/><path d="m346 211c0-16.569-13.431-30-30-30h-60v60h60c16.569 0 30-13.433 30-30z" fill="#5ab267"/><path d="m256 91h-105v30h105 105v-30z" fill="#704c55"/><path d="m256 91h105v30h-105z" fill="#5b362a"/></g><path d="M165,0C74.019,0,0,74.019,0,165s74.019,165,165,165c90.982,0,165-74.019,165-165S255.982,0,165,0z" transform="matrix(0.03030303120613098 0 0 0.03030303120613098 257.5 257.5)" id="L1_98" fill="#2f7bca"/><g transform="matrix(0.09765625 0 0 0.09765625 150 325)" id="L1_99"><path d="m271 135h-15v60h15 15v-60z" fill="#704c55"/><path d="m271 135h15v60h-15z" fill="#5b362a"/><path d="m271 180h-75v332h75 75v-332z" fill="#edf5ff"/><path d="m271 180h75v332h-75z" fill="#d5e8fe"/><g><path d="m316 300c18.044-12.361 37.997-30.075 56.354-30 37.548.153 48.646 37.213 48.646 75 0 37.76-11.106 74.663-48.867 74.663-18.305 0-38.157-17.322-56.133-29.663l-30-30.026v-29.951z" fill="#ff435b"/><path d="m226 300c-18.044-12.361-37.997-30.075-56.354-30-37.548.153-48.646 37.213-48.646 75 0 37.76 11.106 74.663 48.867 74.663 18.305 0 38.157-17.322 56.133-29.663l30-30.026v-29.951z" fill="#ff7b4a"/><path d="m271 300h-45v90h45 45v-90z" fill="#ff435b"/><path d="m271 300h45v90h-45z" fill="#d0004f"/></g><path d="m283.349 17.871-12.349-17.871-12.349 17.871c-7.954 11.514-47.651 59.019-47.651 87.129 0 33.091 26.909 60 60 60s60-26.909 60-60c0-28.11-39.697-75.615-47.651-87.129z" fill="#fed843"/><path d="m331 105c0-28.11-39.697-75.615-47.651-87.129l-12.349-17.871v165c33.091 0 60-26.909 60-60z" fill="#fabe2c"/><path d="m436 30v-30h-15-15v30h-30v30h30v30h15 15v-30h30v-30z" fill="#fed843"/><path d="m436 60h30v-30h-30v-30h-15v90h15z" fill="#fabe2c"/><path d="m106 180v-30h-15-15v30h-30v30h30v30h15 15v-30h30v-30z" fill="#fed843"/><path d="m106 210h30v-30h-30v-30h-15v90h15z" fill="#fabe2c"/></g></defs><g fi:class="KUsePattern"><pattern id="pattern_L1_95" width="350" height="350" patternUnits="userSpaceOnUse"><use xlink:href="#L1_95" x="-350" y="-350"/><use xlink:href="#L1_95" x="0" y="-350"/><use xlink:href="#L1_95" x="350" y="-350"/><use xlink:href="#L1_95" x="-350" y="0"/><use xlink:href="#L1_95" x="0" y="0"/><use xlink:href="#L1_95" x="350" y="0"/><use xlink:href="#L1_95" x="-350" y="350"/><use xlink:href="#L1_95" x="0" y="350"/><use xlink:href="#L1_95" x="350" y="350"/></pattern><rect x="0" y="0" width="100%" height="100%" fill="url(#pattern_L1_95)"/></g><g fi:class="KUsePattern"><pattern id="pattern_L1_96" width="350" height="350" patternUnits="userSpaceOnUse"><use xlink:href="#L1_96" x="-350" y="-350"/><use xlink:href="#L1_96" x="0" y="-350"/><use xlink:href="#L1_96" x="350" y="-350"/><use xlink:href="#L1_96" x="-350" y="0"/><use xlink:href="#L1_96" x="0" y="0"/><use xlink:href="#L1_96" x="350" y="0"/><use xlink:href="#L1_96" x="-350" y="350"/><use xlink:href="#L1_96" x="0" y="350"/><use xlink:href="#L1_96" x="350" y="350"/></pattern><rect x="0" y="0" width="100%" height="100%" fill="url(#pattern_L1_96)"/></g><g fi:class="KUsePattern"><pattern id="pattern_L1_97" width="350" height="350" patternUnits="userSpaceOnUse"><use xlink:href="#L1_97" x="-350" y="-350"/><use xlink:href="#L1_97" x="0" y="-350"/><use xlink:href="#L1_97" x="350" y="-350"/><use xlink:href="#L1_97" x="-350" y="0"/><use xlink:href="#L1_97" x="0" y="0"/><use xlink:href="#L1_97" x="350" y="0"/><use xlink:href="#L1_97" x="-350" y="350"/><use xlink:href="#L1_97" x="0" y="350"/><use xlink:href="#L1_97" x="350" y="350"/></pattern><rect x="0" y="0" width="100%" height="100%" fill="url(#pattern_L1_97)"/></g><g fi:class="KUsePattern"><pattern id="pattern_L1_98" width="350" height="350" patternUnits="userSpaceOnUse"><use xlink:href="#L1_98" x="-350" y="-350"/><use xlink:href="#L1_98" x="0" y="-350"/><use xlink:href="#L1_98" x="350" y="-350"/><use xlink:href="#L1_98" x="-350" y="0"/><use xlink:href="#L1_98" x="0" y="0"/><use xlink:href="#L1_98" x="350" y="0"/><use xlink:href="#L1_98" x="-350" y="350"/><use xlink:href="#L1_98" x="0" y="350"/><use xlink:href="#L1_98" x="350" y="350"/></pattern><rect x="0" y="0" width="100%" height="100%" fill="url(#pattern_L1_98)"/></g><g fi:class="KUsePattern"><pattern id="pattern_L1_99" width="350" height="350" patternUnits="userSpaceOnUse"><use xlink:href="#L1_99" x="-350" y="-350"/><use xlink:href="#L1_99" x="0" y="-350"/><use xlink:href="#L1_99" x="350" y="-350"/><use xlink:href="#L1_99" x="-350" y="0"/><use xlink:href="#L1_99" x="0" y="0"/><use xlink:href="#L1_99" x="350" y="0"/><use xlink:href="#L1_99" x="-350" y="350"/><use xlink:href="#L1_99" x="0" y="350"/><use xlink:href="#L1_99" x="350" y="350"/></pattern><rect x="0" y="0" width="100%" height="100%" fill="url(#pattern_L1_99)"/></g></svg>