<svg xmlns="http://www.w3.org/2000/svg" xmlns:xlink="http://www.w3.org/1999/xlink" xmlns:fi="http://pattern.flaticon.com/" x="0" y="0" width="500" height="1080" viewBox="0 0 875 1890"><rect x="0px" y="0px" width="100%" height="100%" opacity="1" fill="#ffffff"/><defs><g transform="matrix(0.17584960162639618 0 0 0.17584960162639618 305 305)" id="L1_100"><path d="m255.9 428.012-195-165v77.578l24.98 39.979 118.126 118.127 28.105 13.105h23.789 23.789l36.856-21.856 113.124-113.124 21.231-36.231v-77.578z" fill="#ff435b"/><path d="m316.545 489.945 113.124-113.124 21.231-36.231v-77.578l-195 165v83.789h23.789z" fill="#d0004f"/><path d="m255.9 385.59-195-165v42.422l195 195 195-195v-42.422z" fill="#fed843"/><path d="m450.9 220.59-195 165v72.422l195-195z" fill="#fabe2c"/><path d="m382.111 211.801-126.211 96.211-126.211-96.211h-68.789v8.789l195 195 195-195v-8.789z" fill="#ff435b"/><path d="m450.9 211.801h-68.789l-126.211 96.211v107.578l195-195z" fill="#d0004f"/><path d="m339.689 211.801-83.789 53.789-83.789-53.789h-42.422l126.211 126.211 126.211-126.211z" fill="#fed843"/><path d="m339.689 211.801-83.789 53.789v72.422l126.211-126.211z" fill="#fabe2c"/><path d="m255.9 211.801h-83.789l83.789 83.789 83.789-83.789z" fill="#ff435b"/><path d="m255.9 211.801v83.789l83.789-83.789z" fill="#d0004f"/><path d="m404.597 3.042c-3.741.152-67.941-16.719-114.521 29.678-19.286 19.222-31.789 44.974-34.175 73.255-2.142-25.386-11.858-53.434-31.743-73.255-47.17-47.01-109.812-29.487-114.521-29.678.189 4.642-17.437 67.275 29.648 114.492 21.753 21.826 51.782 33.604 84.448 33.604h32.167 34.6c32.666 0 62.695-11.777 84.448-33.604 46.928-47.06 29.462-109.861 29.649-114.492z" fill="#5ab267"/><path d="m374.948 117.534c46.928-47.06 29.462-109.861 29.649-114.492-3.741.152-67.941-16.719-114.521 29.678-19.286 19.222-31.789 44.974-34.175 73.255v45.163h34.6c32.665 0 62.694-11.778 84.447-33.604z" fill="#288c64"/><path d="m315.9 120.801-30 30h-30-30l-30-30h-165v121h165l30-30h30 30l30 30h165v-121z" fill="#ff7b4a"/><path d="m315.9 241.801h165v-121h-165l-30 30h-30v61h30z" fill="#ff435b"/><path d="m450.9 511.801v-128.789l-30.332 15.332-77.5 77.5-20.957 35.957z" fill="#d0004f"/><path d="m60.9 511.801h128.789l-3.769-18.769-88.75-88.75-36.27-21.27z" fill="#ff435b"/><path d="m218.844 241.801 37.056 23.789v-23.789z" fill="none"/><path d="m255.9 120.801h-60v121h60 60v-121z" fill="#8cd96b"/><path d="m255.9 120.801h60v121h-60z" fill="#5ab267"/><path d="m60.9 340.59v42.422l128.789 128.789h42.422z" fill="#fed843"/><path d="m279.689 511.801h42.422l128.789-128.789v-42.422z" fill="#fabe2c"/></g><g transform="matrix(0.05859375 0 0 0.05859375 335 160)" id="L1_101"><path d="m256 0h-15v75h15 15v-75z" fill="#704c55"/><path d="m256 0h15v75h-15z" fill="#5b362a"/><circle cx="256" cy="105" r="45" fill="#edf5ff"/><path d="m301 105c0-24.814-20.186-45-45-45v90c24.814 0 45-20.186 45-45z" fill="#d5e8fe"/><path d="m256 120c-86.838 0-160.541 58.092-185.707 136.688l50.253 55.679c.029.103 5.347 18.633 15.454 18.633s15.425-18.53 15.469-18.721c3.823-15.278 17.519-41.279 44.531-41.279s40.708 26.001 44.546 41.367c.029.103 5.347 18.633 15.454 18.633s15.425-18.53 15.469-18.721c3.823-15.278 17.519-41.279 44.531-41.279s40.708 26.001 44.546 41.367c.029.103 5.347 18.633 15.454 18.633s15.425-18.53 15.469-18.721l50.24-55.591c-25.166-78.596-98.871-136.688-185.709-136.688z" fill="#8cd96b"/><path d="m271.469 312.279c3.823-15.278 17.519-41.279 44.531-41.279s40.708 26.001 44.546 41.367c.029.103 5.347 18.633 15.454 18.633s15.425-18.53 15.469-18.721l50.24-55.591c-25.166-78.596-98.871-136.688-185.709-136.688v211c10.107 0 15.425-18.53 15.469-18.721z" fill="#5ab267"/><g><path d="m450.249 301.196-10.249-35.196c-10.107 0-19.425 23.53-19.469 23.721-3.823 15.278-17.519 41.279-44.531 41.279s-40.708-26.001-44.546-41.367c-.029-.103-5.347-18.633-15.454-18.633s-15.425 18.53-15.469 18.721c-3.823 15.278-17.519 41.279-44.531 41.279s-40.708-26.001-44.546-41.367c-.029-.103-5.347-18.633-15.454-18.633s-15.425 18.53-15.469 18.721c-3.823 15.278-17.519 41.279-44.531 41.279s-40.708-26.001-44.546-41.367c-.029-.103-10.347-20.633-20.454-20.633l-9.251 32.222c-.37 4.896-.749 9.79-.749 14.778 0 107.52 87.48 196 195 196s195-88.48 195-196c0-4.997-.379-9.901-.751-14.804z" fill="#ff7b4a"/><path d="m451 316c0-4.997-.379-9.901-.751-14.804l-10.249-35.196c-10.107 0-19.425 23.53-19.469 23.721-3.823 15.278-17.519 41.279-44.531 41.279s-40.708-26.001-44.546-41.367c-.029-.103-5.347-18.633-15.454-18.633s-15.425 18.53-15.469 18.721c-3.823 15.278-17.519 41.279-44.531 41.279v181c107.52 0 195-88.48 195-196z" fill="#ff435b"/></g><path d="m441.709 256.688c-1.878-.276-3.682-.688-5.709-.688-27.012 0-40.708 26.001-44.531 41.279-.044.191-5.362 18.721-15.469 18.721s-15.425-18.53-15.454-18.633c-3.838-15.366-17.534-41.367-44.546-41.367s-40.708 26.001-44.531 41.279c-.044.191-5.362 18.721-15.469 18.721s-15.425-18.53-15.454-18.633c-3.838-15.366-17.534-41.367-44.546-41.367s-40.708 26.001-44.531 41.279c-.044.191-5.362 18.721-15.469 18.721s-15.425-18.53-15.454-18.633c-3.838-15.366-17.534-41.367-44.546-41.367-2.027 0-3.831.412-5.707.688-4.548 14.203-7.379 29.132-8.544 44.533 2.087-5.408 6.879-15.221 14.251-15.221 10.107 0 15.425 18.53 15.454 18.633 3.838 15.366 17.534 41.367 44.546 41.367s40.708-26.001 44.531-41.279c.044-.191 5.362-18.721 15.469-18.721s15.425 18.53 15.454 18.633c3.838 15.366 17.534 41.367 44.546 41.367s40.708-26.001 44.531-41.279c.044-.191 5.362-18.721 15.469-18.721s15.425 18.53 15.454 18.633c3.838 15.366 17.534 41.367 44.546 41.367s40.708-26.001 44.531-41.279c.044-.191 5.362-18.721 15.469-18.721 7.377 0 12.169 9.822 14.249 15.196-1.164-15.392-3.995-30.311-8.54-44.508z" fill="#ffe1ba"/><path d="m300.531 304.721c.044-.191 5.362-18.721 15.469-18.721s15.425 18.53 15.454 18.633c3.838 15.366 17.534 41.367 44.546 41.367s40.708-26.001 44.531-41.279c.044-.191 5.362-18.721 15.469-18.721 7.377 0 12.169 9.822 14.249 15.196-1.165-15.392-3.995-30.311-8.54-44.507-1.878-.277-3.682-.689-5.709-.689-27.012 0-40.708 26.001-44.531 41.279-.044.191-5.362 18.721-15.469 18.721s-15.425-18.53-15.454-18.633c-3.838-15.366-17.534-41.367-44.546-41.367s-40.708 26.001-44.531 41.279c-.044.191-5.362 18.721-15.469 18.721v30c27.012 0 40.708-26.001 44.531-41.279z" fill="#ffbfab"/><path d="m301 361h30v30h-30z" fill="#ffbfab"/><path d="m181 361h30v30h-30z" fill="#ffe1ba"/><path d="m256 421h-15v30h15 15v-30z" fill="#ffe1ba"/><path d="m256 421h15v30h-15z" fill="#ffbfab"/></g><g transform="matrix(0.13671875 0 0 0.13671875 140 140)" id="L1_102"><path d="m256 437h-60v15c0 33.091 26.909 60 60 60s60-26.909 60-60v-15z" fill="#fabe2c"/><path d="m316 452v-15h-60v75c33.091 0 60-26.909 60-60z" fill="#ff9100"/><path d="m421 370.789v-145.789c0-91.128-73.872-165-165-165s-165 73.872-165 165v145.789l-30 30v51.211h195 195v-51.211z" fill="#fed843"/><path d="m451 400.789-30-30v-145.789c0-91.128-73.872-165-165-165v392h195z" fill="#fabe2c"/><path d="m256 90c-42.056 0-75 52.705-75 120h30c0-53.042 23.716-90 45-90s45 36.958 45 90h30c0-67.295-32.944-120-75-120z" fill="#ff7b4a"/><path d="m301 210h30c0-67.295-32.944-120-75-120v30c21.284 0 45 36.958 45 90z" fill="#ff435b"/><g><path d="m301 30c18.044-12.361 37.997-30.075 56.354-30 37.548.153 48.646 37.213 48.646 75 0 37.76-11.106 74.663-48.867 74.663-18.305 0-38.157-17.322-56.133-29.663l-30-30.026v-29.95z" fill="#ff435b"/><path d="m211 30c-18.044-12.361-37.997-30.075-56.354-30-37.548.153-48.646 37.213-48.646 75 0 37.76 11.106 74.663 48.867 74.663 18.305 0 38.157-17.322 56.133-29.663l30-30.026v-29.95z" fill="#ff7b4a"/><path d="m256 30h-45v90h45 45v-90z" fill="#ff435b"/><path d="m256 30h45v90h-45z" fill="#d0004f"/></g></g><path d="M165,0C74.019,0,0,74.019,0,165s74.019,165,165,165c90.982,0,165-74.019,165-165S255.982,0,165,0z" transform="matrix(0.03030303120613098 0 0 0.03030303120613098 257.5 257.5)" id="L1_103" fill="#9db20b"/><g transform="matrix(0.09765625 0 0 0.09765625 150 325)" id="L1_104"><path d="m256 391h-30v121h30 30v-121z" fill="#704c55"/><path d="m256 391h30v121h-30z" fill="#5b362a"/><path d="m342.997 277.006h-86.997-86.997l-108.003 143.994h195 195z" fill="#8cd96b"/><path d="m342.997 277.006h-86.997v143.994h195z" fill="#5ab267"/><path d="m312.997 157.006h-56.997-56.997l-108.003 143.994h165 165z" fill="#5ab267"/><path d="m312.997 157.006h-56.997v143.994h165z" fill="#288c64"/><path d="m256 0-133.813 181h133.813 133.813z" fill="#8cd96b"/><path d="m256 0v181h133.813z" fill="#5ab267"/><path d="m301 346h30v30h-30z" fill="#fabe2c"/><path d="m181 346h30v30h-30z" fill="#fed843"/><path d="m256 226h-15v30h15 15v-30z" fill="#fed843"/><path d="m256 226h15v30h-15z" fill="#fabe2c"/><path d="m256 91h-15v30h15 15v-30z" fill="#fed843"/><path d="m256 91h15v30h-15z" fill="#fabe2c"/></g></defs><g fi:class="KUsePattern"><pattern id="pattern_L1_100" width="350" height="350" patternUnits="userSpaceOnUse"><use xlink:href="#L1_100" x="-350" y="-350"/><use xlink:href="#L1_100" x="0" y="-350"/><use xlink:href="#L1_100" x="350" y="-350"/><use xlink:href="#L1_100" x="-350" y="0"/><use xlink:href="#L1_100" x="0" y="0"/><use xlink:href="#L1_100" x="350" y="0"/><use xlink:href="#L1_100" x="-350" y="350"/><use xlink:href="#L1_100" x="0" y="350"/><use xlink:href="#L1_100" x="350" y="350"/></pattern><rect x="0" y="0" width="100%" height="100%" fill="url(#pattern_L1_100)"/></g><g fi:class="KUsePattern"><pattern id="pattern_L1_101" width="350" height="350" patternUnits="userSpaceOnUse"><use xlink:href="#L1_101" x="-350" y="-350"/><use xlink:href="#L1_101" x="0" y="-350"/><use xlink:href="#L1_101" x="350" y="-350"/><use xlink:href="#L1_101" x="-350" y="0"/><use xlink:href="#L1_101" x="0" y="0"/><use xlink:href="#L1_101" x="350" y="0"/><use xlink:href="#L1_101" x="-350" y="350"/><use xlink:href="#L1_101" x="0" y="350"/><use xlink:href="#L1_101" x="350" y="350"/></pattern><rect x="0" y="0" width="100%" height="100%" fill="url(#pattern_L1_101)"/></g><g fi:class="KUsePattern"><pattern id="pattern_L1_102" width="350" height="350" patternUnits="userSpaceOnUse"><use xlink:href="#L1_102" x="-350" y="-350"/><use xlink:href="#L1_102" x="0" y="-350"/><use xlink:href="#L1_102" x="350" y="-350"/><use xlink:href="#L1_102" x="-350" y="0"/><use xlink:href="#L1_102" x="0" y="0"/><use xlink:href="#L1_102" x="350" y="0"/><use xlink:href="#L1_102" x="-350" y="350"/><use xlink:href="#L1_102" x="0" y="350"/><use xlink:href="#L1_102" x="350" y="350"/></pattern><rect x="0" y="0" width="100%" height="100%" fill="url(#pattern_L1_102)"/></g><g fi:class="KUsePattern"><pattern id="pattern_L1_103" width="350" height="350" patternUnits="userSpaceOnUse"><use xlink:href="#L1_103" x="-350" y="-350"/><use xlink:href="#L1_103" x="0" y="-350"/><use xlink:href="#L1_103" x="350" y="-350"/><use xlink:href="#L1_103" x="-350" y="0"/><use xlink:href="#L1_103" x="0" y="0"/><use xlink:href="#L1_103" x="350" y="0"/><use xlink:href="#L1_103" x="-350" y="350"/><use xlink:href="#L1_103" x="0" y="350"/><use xlink:href="#L1_103" x="350" y="350"/></pattern><rect x="0" y="0" width="100%" height="100%" fill="url(#pattern_L1_103)"/></g><g fi:class="KUsePattern"><pattern id="pattern_L1_104" width="350" height="350" patternUnits="userSpaceOnUse"><use xlink:href="#L1_104" x="-350" y="-350"/><use xlink:href="#L1_104" x="0" y="-350"/><use xlink:href="#L1_104" x="350" y="-350"/><use xlink:href="#L1_104" x="-350" y="0"/><use xlink:href="#L1_104" x="0" y="0"/><use xlink:href="#L1_104" x="350" y="0"/><use xlink:href="#L1_104" x="-350" y="350"/><use xlink:href="#L1_104" x="0" y="350"/><use xlink:href="#L1_104" x="350" y="350"/></pattern><rect x="0" y="0" width="100%" height="100%" fill="url(#pattern_L1_104)"/></g></svg>