<svg width="100" height="100" viewBox="0 0 100 100" fill="none" xmlns="http://www.w3.org/2000/svg">
<path d="M94.5734 43.0232H56.9768V5.42636C56.9768 3.71367 54.6511 0 50 0C45.3489 0 43.0232 3.71388 43.0232 5.42636V43.0234H5.42636C3.71388 43.0232 0 45.3489 0 49.9998C0 54.6507 3.71388 56.9766 5.42636 56.9766H43.0234V94.5736C43.0234 96.2859 45.3489 100 50.0002 100C54.6515 100 56.977 96.2859 56.977 94.5736V56.9766H94.574C96.2863 56.9766 100 54.6511 100 49.9998C100 45.3485 96.2859 43.0232 94.5734 43.0232Z" fill="white"/>
</svg>
