<svg width="488" height="488" viewBox="0 0 488 488" fill="none" xmlns="http://www.w3.org/2000/svg">
<g clip-path="url(#clip0)">
<path d="M236.925 0.124012C140.025 3.52401 59.525 79.124 50.225 175.624C48.325 194.924 49.425 213.624 52.825 231.524C52.825 231.524 53.125 233.624 54.125 237.624C57.125 251.024 61.625 264.024 67.225 276.224C86.725 322.424 131.825 399.724 233.025 483.824C239.225 489.024 248.325 489.024 254.625 483.824C355.825 399.824 400.925 322.524 420.525 276.124C426.225 263.924 430.625 251.024 433.625 237.524C434.525 233.624 434.925 231.424 434.925 231.424C437.225 219.424 438.425 207.124 438.425 194.524C438.425 84.724 347.525 -3.77599 236.925 0.124012ZM243.825 291.324C191.625 291.324 149.325 249.024 149.325 196.824C149.325 144.624 191.625 102.324 243.825 102.324C296.025 102.324 338.325 144.624 338.325 196.824C338.325 249.024 296.025 291.324 243.825 291.324Z" fill="#E53A24"/>
</g>
<defs>
<clipPath id="clip0">
<rect width="487.724" height="487.724" fill="white"/>
</clipPath>
</defs>
</svg>
