<svg width="512" height="512" viewBox="0 0 512 512" fill="none" xmlns="http://www.w3.org/2000/svg">
<path d="M505.943 6.05775C497.866 -2.01925 484.771 -2.01925 476.694 6.05775L6.05775 476.693C-2.01925 484.77 -2.01925 497.865 6.05775 505.942C10.0957 509.982 15.3898 512 20.6828 512C25.9758 512 31.2687 509.981 35.3077 505.941L505.943 35.3057C514.019 27.2297 514.019 14.1347 505.943 6.05775Z" fill="#505050"/>
<path d="M505.942 476.694L35.3057 6.05873C27.2297 -2.01827 14.1337 -2.01827 6.05775 6.05873C-2.01925 14.1347 -2.01925 27.2297 6.05775 35.3067L476.694 505.943C480.732 509.982 486.026 512.001 491.319 512.001C496.612 512.001 501.906 509.982 505.943 505.944C514.018 497.866 514.018 484.771 505.942 476.694Z" fill="#505050"/>
</svg>
