<svg width="101" height="100" viewBox="0 0 101 100" fill="none" xmlns="http://www.w3.org/2000/svg">
<path d="M94.409 66.4898C86.7355 58.8163 74.307 58.8163 66.6539 66.4898C58.9804 74.1633 58.9804 86.5919 66.6539 94.2449C74.3274 101.918 86.7559 101.918 94.409 94.2449C102.062 86.5714 102.062 74.1633 94.409 66.4898ZM90.1233 83.2653H79.96C78.9192 83.2653 78.1437 82.4694 78.1437 81.449V69.1633C78.1437 68.1429 78.9396 67.347 79.96 67.347C81.0008 67.347 81.7764 68.1429 81.7764 69.1633V79.6327H90.1029C91.1233 79.6327 91.9192 80.4286 91.9192 81.449C91.9396 82.4694 91.1437 83.2653 90.1233 83.2653Z" fill="white"/>
<path d="M74.348 17.7551C75.6133 17.7551 76.6541 16.7143 76.6541 15.449V2.30612C76.6541 1.04082 75.6133 0 74.348 0C73.0827 0 72.0419 1.04082 72.0419 2.30612V15.4694C72.0417 16.7347 73.0621 17.7551 74.348 17.7551Z" fill="white"/>
<path d="M53.7154 17.7551C54.9807 17.7551 56.0215 16.7143 56.0215 15.449V2.30612C56.0215 1.04082 54.9807 0 53.7154 0C52.4501 0 51.4092 1.04082 51.4092 2.30612V15.4694C51.4909 16.7347 52.5317 17.7551 53.7154 17.7551Z" fill="white"/>
<path d="M33.1846 17.7551C34.4499 17.7551 35.4907 16.7143 35.4907 15.449V2.30612C35.4907 1.04082 34.4499 0 33.1846 0C31.9193 0 30.8784 1.04082 30.8784 2.30612V15.4694C30.8787 16.7347 31.8991 17.7551 33.1846 17.7551Z" fill="white"/>
<path d="M12.6335 17.7551C13.8989 17.7551 14.9397 16.7143 14.9397 15.449V2.30612C14.9397 1.02041 13.8989 0 12.6335 0C11.3682 0 10.3274 1.02041 10.3274 2.30612V15.4694C10.3276 16.7347 11.3684 17.7551 12.6335 17.7551Z" fill="white"/>
<path d="M86.3072 9.04083H81.1644V15.4694C81.1644 19.2857 78.0623 22.3674 74.2664 22.3674C70.4705 22.3674 67.3684 19.2653 67.3684 15.4694V9.04083H60.5521V15.4694C60.5521 19.2857 57.4501 22.3674 53.6541 22.3674C49.8582 22.3674 46.7562 19.2653 46.7562 15.4694V9.04083H40.1031V15.4694C40.1031 19.2857 37.0011 22.3674 33.2052 22.3674C29.4092 22.3674 26.3072 19.2653 26.3072 15.4694V9.04083H19.4909V15.4694C19.4909 19.2857 16.3888 22.3674 12.5929 22.3674C8.797 22.3674 5.65414 19.2653 5.65414 15.4694V9.04083H0.57251V27.9184H86.3072V9.04083V9.04083Z" fill="white"/>
<path d="M63.4907 63.3469C69.6948 57.1429 78.4498 55.0204 86.3886 57.0204V32.5306H0.572296V87.0204H57.3478C55.0419 78.8571 57.0827 69.7347 63.4907 63.3469ZM62.2052 41.9592H73.6337V51H62.2052V41.9592ZM24.6949 72.3265H13.2664V63.3673H24.6949V72.3265ZM24.6949 50.9184H13.2664V41.9592H24.6949V50.9184ZM49.205 72.3265H37.7764V63.3673H49.205V72.3265ZM49.205 50.9184H37.7764V41.9592H49.205V50.9184Z" fill="white"/>
</svg>
