<svg width="512" height="512" viewBox="0 0 512 512" fill="none" xmlns="http://www.w3.org/2000/svg">
<g clip-path="url(#clip0)">
<path d="M63.953 164.453H9.135C6.661 164.453 4.52 165.353 2.712 167.162C0.903 168.972 0 171.114 0 173.589V228.406C0 230.879 0.903 233.025 2.712 234.83C4.521 236.633 6.661 237.542 9.135 237.542H63.953C66.427 237.542 68.568 236.637 70.376 234.83C72.185 233.021 73.088 230.879 73.088 228.406V173.589C73.088 171.114 72.184 168.972 70.376 167.162C68.568 165.356 66.427 164.453 63.953 164.453Z" fill="#BABABA"/>
<path d="M63.953 383.722H9.135C6.661 383.722 4.52 384.618 2.712 386.429C0.903 388.238 0 390.378 0 392.854V447.674C0 450.145 0.903 452.283 2.712 454.094C4.521 455.907 6.661 456.808 9.135 456.808H63.953C66.427 456.808 68.568 455.905 70.376 454.094C72.185 452.287 73.088 450.145 73.088 447.674V392.854C73.088 390.377 72.184 388.238 70.376 386.428C68.568 384.625 66.427 383.722 63.953 383.722Z" fill="#BABABA"/>
<path d="M63.953 274.082H9.135C6.661 274.082 4.52 274.992 2.712 276.796C0.904 278.6 0 280.749 0 283.22V338.035C0 340.513 0.903 342.655 2.712 344.462C4.521 346.27 6.661 347.169 9.135 347.169H63.953C66.427 347.169 68.568 346.273 70.376 344.462C72.185 342.655 73.088 340.513 73.088 338.035V283.22C73.088 280.749 72.184 278.607 70.376 276.796C68.568 274.989 66.427 274.082 63.953 274.082Z" fill="#BABABA"/>
<path d="M63.953 54.817H9.135C6.661 54.817 4.52 55.72 2.712 57.529C0.904 59.338 0 61.479 0 63.953V118.77C0 121.245 0.903 123.385 2.712 125.194C4.521 127.003 6.661 127.906 9.135 127.906H63.953C66.427 127.906 68.568 127.006 70.376 125.194C72.185 123.385 73.088 121.245 73.088 118.77V63.953C73.088 61.478 72.184 59.338 70.376 57.529C68.568 55.725 66.427 54.817 63.953 54.817Z" fill="#BABABA"/>
<path d="M173.953 164.453H119.135C116.661 164.453 114.52 165.353 112.712 167.162C110.903 168.972 110 171.114 110 173.589V228.406C110 230.879 110.903 233.025 112.712 234.83C114.521 236.633 116.661 237.542 119.135 237.542H173.953C176.427 237.542 178.568 236.637 180.376 234.83C182.185 233.021 183.088 230.879 183.088 228.406V173.589C183.088 171.114 182.184 168.972 180.376 167.162C178.568 165.356 176.427 164.453 173.953 164.453Z" fill="#BABABA"/>
<path d="M173.953 383.722H119.135C116.661 383.722 114.52 384.618 112.712 386.429C110.903 388.238 110 390.378 110 392.854V447.674C110 450.145 110.903 452.283 112.712 454.094C114.521 455.907 116.661 456.808 119.135 456.808H173.953C176.427 456.808 178.568 455.905 180.376 454.094C182.185 452.287 183.088 450.145 183.088 447.674V392.854C183.088 390.377 182.184 388.238 180.376 386.428C178.568 384.625 176.427 383.722 173.953 383.722Z" fill="#BABABA"/>
<path d="M173.953 274.082H119.135C116.661 274.082 114.52 274.992 112.712 276.796C110.904 278.6 110 280.749 110 283.22V338.035C110 340.513 110.903 342.655 112.712 344.462C114.521 346.27 116.661 347.169 119.135 347.169H173.953C176.427 347.169 178.568 346.273 180.376 344.462C182.185 342.655 183.088 340.513 183.088 338.035V283.22C183.088 280.749 182.184 278.607 180.376 276.796C178.568 274.989 176.427 274.082 173.953 274.082Z" fill="#BABABA"/>
<path d="M173.953 54.8169H119.135C116.661 54.8169 114.52 55.7199 112.712 57.5289C110.904 59.3379 110 61.4789 110 63.9529V118.77C110 121.245 110.903 123.385 112.712 125.194C114.521 127.003 116.661 127.906 119.135 127.906H173.953C176.427 127.906 178.568 127.006 180.376 125.194C182.185 123.385 183.088 121.245 183.088 118.77V63.9529C183.088 61.4779 182.184 59.3379 180.376 57.5289C178.568 55.7249 176.427 54.8169 173.953 54.8169Z" fill="#BABABA"/>
<path d="M283.953 164.453H229.135C226.661 164.453 224.52 165.353 222.712 167.162C220.903 168.972 220 171.114 220 173.589V228.406C220 230.879 220.903 233.025 222.712 234.83C224.521 236.633 226.661 237.542 229.135 237.542H283.953C286.427 237.542 288.568 236.637 290.376 234.83C292.185 233.021 293.088 230.879 293.088 228.406V173.589C293.088 171.114 292.184 168.972 290.376 167.162C288.568 165.356 286.427 164.453 283.953 164.453Z" fill="#BABABA"/>
<path d="M283.953 383.722H229.135C226.661 383.722 224.52 384.618 222.712 386.429C220.903 388.238 220 390.378 220 392.854V447.674C220 450.145 220.903 452.283 222.712 454.094C224.521 455.907 226.661 456.808 229.135 456.808H283.953C286.427 456.808 288.568 455.905 290.376 454.094C292.185 452.287 293.088 450.145 293.088 447.674V392.854C293.088 390.377 292.184 388.238 290.376 386.428C288.568 384.625 286.427 383.722 283.953 383.722Z" fill="#BABABA"/>
<path d="M283.953 274.082H229.135C226.661 274.082 224.52 274.992 222.712 276.796C220.904 278.6 220 280.749 220 283.22V338.035C220 340.513 220.903 342.655 222.712 344.462C224.521 346.27 226.661 347.169 229.135 347.169H283.953C286.427 347.169 288.568 346.273 290.376 344.462C292.185 342.655 293.088 340.513 293.088 338.035V283.22C293.088 280.749 292.184 278.607 290.376 276.796C288.568 274.989 286.427 274.082 283.953 274.082Z" fill="#BABABA"/>
<path d="M283.953 54.8169H229.135C226.661 54.8169 224.52 55.7199 222.712 57.5289C220.904 59.3379 220 61.4789 220 63.9529V118.77C220 121.245 220.903 123.385 222.712 125.194C224.521 127.003 226.661 127.906 229.135 127.906H283.953C286.427 127.906 288.568 127.006 290.376 125.194C292.185 123.385 293.088 121.245 293.088 118.77V63.9529C293.088 61.4779 292.184 59.3379 290.376 57.5289C288.568 55.7249 286.427 54.8169 283.953 54.8169Z" fill="#BABABA"/>
<path d="M393.953 164.453H339.135C336.661 164.453 334.52 165.353 332.712 167.162C330.903 168.972 330 171.114 330 173.589V228.406C330 230.879 330.903 233.025 332.712 234.83C334.521 236.633 336.661 237.542 339.135 237.542H393.953C396.427 237.542 398.568 236.637 400.376 234.83C402.185 233.021 403.088 230.879 403.088 228.406V173.589C403.088 171.114 402.184 168.972 400.376 167.162C398.568 165.356 396.427 164.453 393.953 164.453Z" fill="#BABABA"/>
<path d="M393.953 383.722H339.135C336.661 383.722 334.52 384.618 332.712 386.429C330.903 388.238 330 390.378 330 392.854V447.674C330 450.145 330.903 452.283 332.712 454.094C334.521 455.907 336.661 456.808 339.135 456.808H393.953C396.427 456.808 398.568 455.905 400.376 454.094C402.185 452.287 403.088 450.145 403.088 447.674V392.854C403.088 390.377 402.184 388.238 400.376 386.428C398.568 384.625 396.427 383.722 393.953 383.722Z" fill="#BABABA"/>
<path d="M393.953 274.082H339.135C336.661 274.082 334.52 274.992 332.712 276.796C330.904 278.6 330 280.749 330 283.22V338.035C330 340.513 330.903 342.655 332.712 344.462C334.521 346.27 336.661 347.169 339.135 347.169H393.953C396.427 347.169 398.568 346.273 400.376 344.462C402.185 342.655 403.088 340.513 403.088 338.035V283.22C403.088 280.749 402.184 278.607 400.376 276.796C398.568 274.989 396.427 274.082 393.953 274.082Z" fill="#BABABA"/>
<path d="M393.953 54.8169H339.135C336.661 54.8169 334.52 55.7199 332.712 57.5289C330.904 59.3379 330 61.4789 330 63.9529V118.77C330 121.245 330.903 123.385 332.712 125.194C334.521 127.003 336.661 127.906 339.135 127.906H393.953C396.427 127.906 398.568 127.006 400.376 125.194C402.185 123.385 403.088 121.245 403.088 118.77V63.9529C403.088 61.4779 402.184 59.3379 400.376 57.5289C398.568 55.7249 396.427 54.8169 393.953 54.8169Z" fill="#BABABA"/>
<path d="M503.953 164.453H449.135C446.661 164.453 444.52 165.353 442.712 167.162C440.903 168.972 440 171.114 440 173.589V228.406C440 230.879 440.903 233.025 442.712 234.83C444.521 236.633 446.661 237.542 449.135 237.542H503.953C506.427 237.542 508.568 236.637 510.376 234.83C512.185 233.021 513.088 230.879 513.088 228.406V173.589C513.088 171.114 512.184 168.972 510.376 167.162C508.568 165.356 506.427 164.453 503.953 164.453Z" fill="#BABABA"/>
<path d="M503.953 383.722H449.135C446.661 383.722 444.52 384.618 442.712 386.429C440.903 388.238 440 390.378 440 392.854V447.674C440 450.145 440.903 452.283 442.712 454.094C444.521 455.907 446.661 456.808 449.135 456.808H503.953C506.427 456.808 508.568 455.905 510.376 454.094C512.185 452.287 513.088 450.145 513.088 447.674V392.854C513.088 390.377 512.184 388.238 510.376 386.428C508.568 384.625 506.427 383.722 503.953 383.722Z" fill="#BABABA"/>
<path d="M503.953 274.082H449.135C446.661 274.082 444.52 274.992 442.712 276.796C440.904 278.6 440 280.749 440 283.22V338.035C440 340.513 440.903 342.655 442.712 344.462C444.521 346.27 446.661 347.169 449.135 347.169H503.953C506.427 347.169 508.568 346.273 510.376 344.462C512.185 342.655 513.088 340.513 513.088 338.035V283.22C513.088 280.749 512.184 278.607 510.376 276.796C508.568 274.989 506.427 274.082 503.953 274.082Z" fill="#BABABA"/>
<path d="M503.953 54.8169H449.135C446.661 54.8169 444.52 55.7199 442.712 57.5289C440.904 59.3379 440 61.4789 440 63.9529V118.77C440 121.245 440.903 123.385 442.712 125.194C444.521 127.003 446.661 127.906 449.135 127.906H503.953C506.427 127.906 508.568 127.006 510.376 125.194C512.185 123.385 513.088 121.245 513.088 118.77V63.9529C513.088 61.4779 512.184 59.3379 510.376 57.5289C508.568 55.7249 506.427 54.8169 503.953 54.8169Z" fill="#BABABA"/>
</g>
<defs>
<clipPath id="clip0">
<rect width="511.626" height="511.626" fill="white"/>
</clipPath>
</defs>
</svg>
