<svg width="128" height="100" viewBox="0 0 128 100" fill="none" xmlns="http://www.w3.org/2000/svg">
<path d="M122.727 72.727H4.54584C3.31398 72.727 2.24904 73.1775 1.34903 74.0765C0.450007 74.9752 0 76.0427 0 77.2738V95.4539C0 96.6833 0.450007 97.7507 1.34927 98.6497C2.25003 99.5488 3.31547 100 4.54609 100H122.727C123.957 100 125.024 99.549 125.924 98.6497C126.823 97.751 127.274 96.6835 127.274 95.4539V77.2738C127.274 76.0427 126.823 74.9753 125.924 74.0762C125.024 73.1772 123.957 72.727 122.727 72.727ZM118.182 90.9098H72.7297V81.8181H118.184V90.9098H118.182Z" fill="white"/>
<path d="M122.727 36.364H4.54584C3.31398 36.364 2.24904 36.814 1.34903 37.7138C0.450007 38.613 0 39.6785 0 40.9091V59.0902C0 60.3211 0.450007 61.387 1.34927 62.286C2.25003 63.185 3.31547 63.6363 4.54609 63.6363H122.727C123.957 63.6363 125.024 63.1853 125.924 62.286C126.823 61.3872 127.274 60.3213 127.274 59.0902V40.9091C127.274 39.6785 126.823 38.6133 125.924 37.7138C125.024 36.8137 123.957 36.364 122.727 36.364ZM118.18 54.5458H45.4554V45.4554H118.18V54.5458Z" fill="white"/>
<path d="M125.924 1.34927C125.024 0.450753 123.957 0 122.727 0H4.54584C3.31398 0 2.24904 0.450753 1.34903 1.34927C0.450007 2.24904 0 3.31498 0 4.54584V22.7265C0 23.9583 0.450007 25.0238 1.34927 25.923C2.25003 26.8228 3.31547 27.2723 4.54609 27.2723H122.727C123.957 27.2723 125.024 26.8228 125.924 25.923C126.823 25.0238 127.274 23.9583 127.274 22.7265V4.54584C127.273 3.31498 126.823 2.24978 125.924 1.34927ZM118.18 18.1824H90.9091V9.09093H118.18V18.1824V18.1824Z" fill="white"/>
</svg>
