<svg width="92" height="100" viewBox="0 0 92 100" fill="none" xmlns="http://www.w3.org/2000/svg">
<path d="M5.02792 95.8145L6.36254 90.4841L2.68222 89.0312L0.154227 93.1974C0.154227 93.1974 1.548 96.9779 0 100C0.00120726 100 1.93825 96.7009 5.02792 95.8145ZM2.55546 93.3686C3.00848 93.1829 3.53062 93.3948 3.71774 93.8397C3.90638 94.2846 3.69149 94.7967 3.23846 94.9824C2.78544 95.168 2.2633 94.9561 2.07618 94.5112C1.88573 94.0645 2.10093 93.5524 2.55546 93.3686Z" fill="white"/>
<path d="M43.6396 33.9906C33.0414 42.6828 19.1667 60.5876 7.39993 81.503L7.39329 81.4949L5.33643 85.1245L7.52971 85.9684L8.68867 82.9149C14.9661 71.5996 31.996 42.0493 63.135 22.416C63.135 22.416 74.728 15.5114 86.1501 5.96234C83.3692 8.28691 77.8831 11.2006 74.9085 13.0803C67.1011 18.0132 57.4666 22.649 43.6396 33.9906Z" fill="white"/>
<path d="M5.86667 65.0002C3.45669 73.5183 3.59461 80.0057 4.52722 81.7886H5.98498C10.0103 73.4509 29.3973 43.249 41.4644 33.7953C53.9668 23.9999 63.6109 18.3005 71.7222 14.1439C74.5704 12.6846 77.4922 10.7081 80.1271 8.72665C83.3266 6.20348 86.5702 3.50466 89.4103 0.86349L81.1777 6.26264L84.8484 0.648296L77.8402 7.77443L82.4006 0C71.612 0.97335 61.6002 6.37099 61.6002 6.37099C57.5949 11.1218 54.3691 18.6796 54.3691 18.6796C54.2574 14.9006 56.8168 9.17816 56.8168 9.17816C54.9256 10.0417 47.7403 14.1457 47.7403 14.1457C44.2257 17.0612 43.134 24.7273 43.134 24.7273C42.4658 21.7034 44.8019 15.8742 44.8019 15.8742C34.6781 21.7053 27.447 31.6382 27.447 31.6382C22.4417 41.4632 26.5572 49.1293 24.9993 47.2939C23.4413 45.4586 23.7763 38.7644 23.7763 38.7644C13.2077 48.9144 12.0964 53.7718 12.0964 53.7718C10.3169 58.0907 8.75895 69.6442 8.75895 69.6442C7.75753 68.564 8.75895 62.518 8.75895 62.518C6.19987 67.9172 7.42433 72.9913 7.42433 72.9913C6.20138 72.5582 5.86667 65.0002 5.86667 65.0002Z" fill="white"/>
<path d="M89.4117 4.28302C89.4117 4.28302 85.3424 8.22622 80.1286 12.1462C71.9551 18.5926 64.0853 23.8623 64.0853 23.8623C33.2547 42.0804 16.0755 71.8112 10.3975 82.0052H13.4162C14.4831 81.1499 16.0854 80.5049 22.7767 78.5679C31.2308 76.1202 36.2738 71.0102 36.2738 71.0102C36.2738 71.0102 28.5615 75.3291 24.9271 74.8975C21.2926 74.4659 16.409 75.8331 16.409 75.8331C16.409 75.8331 14.5441 74.9697 23.7404 73.6021C32.9366 72.2346 48.0653 61.9419 48.0653 61.9419C48.0653 61.9419 42.2805 64.3171 39.6112 64.1004C36.942 63.8837 30.3413 64.1004 30.3413 64.1004C34.7161 63.0924 38.7954 63.6688 45.47 61.149C52.1447 58.6291 51.7737 58.8458 51.7737 58.8458C59.3381 56.326 62.4803 48.481 62.4803 48.481C61.1719 48.985 51.1795 50.2079 47.0347 48.985C42.8895 47.762 35.8277 48.985 35.8277 48.985C42.5023 46.754 43.9863 47.762 45.6164 47.6899C47.248 47.6178 52.5144 48.0494 62.9713 44.4511C73.4283 40.8529 76.3945 36.3894 76.3945 36.3894L69.3423 37.3316C73.9471 36.5569 79.1377 33.5101 79.1377 33.5101C75.9481 34.3736 70.9791 34.8052 70.9791 34.8052C76.8379 33.5101 80.1014 31.7107 80.1014 31.7107C85.5893 27.536 86.8499 21.3458 86.8499 21.3458C79.0622 24.0084 72.908 22.7854 72.908 22.7854C83.5882 22.0665 86.5545 19.33 88.0367 18.6832C89.5207 18.0349 90.1313 15.3542 90.1313 15.3542C84.7354 17.2978 78.6171 17.6211 78.6171 17.6211C85.2358 16.5952 90.9075 13.2478 90.9075 13.2478V9.89706C88.3485 11.3548 83.8454 12.489 83.8454 12.489L90.8532 7.95489C91.2471 5.68645 89.4117 4.28302 89.4117 4.28302Z" fill="white"/>
<path d="M2.95447 87.6984L7.12252 89.368L7.89878 87.5227L3.73103 85.8534L2.95447 87.6984Z" fill="white"/>
<path d="M49.2784 86.1552C35.5072 92.7758 22.2775 97.2885 4.68296 97.8795C3.0414 97.9353 3.03325 99.5769 4.68296 99.521C20.4226 98.9926 33.5192 95.6092 46.1495 89.6894C60.2194 83.0936 73.1422 77.5665 90.766 75.6883C92.3913 75.5141 91.7001 73.9335 90.0863 74.1059C74.4783 75.7707 61.797 80.1373 49.2784 86.1552Z" fill="white"/>
</svg>
