<svg width="85" height="100" viewBox="0 0 85 100" fill="none" xmlns="http://www.w3.org/2000/svg">
<path d="M63.6501 42.9688C63.6501 40.8113 61.9013 39.0625 59.7439 39.0625H19.5095C17.3521 39.0625 15.6033 40.8113 15.6033 42.9688C15.6033 45.1262 17.3521 46.875 19.5095 46.875H59.7439C61.9013 46.875 63.6501 45.1262 63.6501 42.9688Z" fill="white"/>
<path d="M19.5095 54.6875C17.3521 54.6875 15.6033 56.4363 15.6033 58.5938C15.6033 60.7512 17.3521 62.5 19.5095 62.5H43.9453C46.1027 62.5 47.8515 60.7512 47.8515 58.5938C47.8515 56.4363 46.1027 54.6875 43.9453 54.6875H19.5095Z" fill="white"/>
<path d="M28.6893 92.1875H15.625C11.3172 92.1875 7.8125 88.6828 7.8125 84.375V15.625C7.8125 11.3172 11.3172 7.8125 15.625 7.8125H63.6502C67.958 7.8125 71.4627 11.3172 71.4627 15.625V39.6484C71.4627 41.8059 73.2115 43.5547 75.369 43.5547C77.5264 43.5547 79.2752 41.8059 79.2752 39.6484V15.625C79.2752 7.00938 72.2658 0 63.6502 0H15.625C7.00938 0 0 7.00938 0 15.625V84.375C0 92.9906 7.00938 100 15.625 100H28.6893C30.8467 100 32.5955 98.2512 32.5955 96.0938C32.5955 93.9363 30.8467 92.1875 28.6893 92.1875Z" fill="white"/>
<path d="M80.9207 56.1664C76.3515 51.5973 68.9172 51.5971 64.3509 56.1633L42.905 77.5617C42.4496 78.0162 42.1136 78.576 41.9265 79.1916L37.256 94.5676C36.842 95.9308 37.2027 97.4111 38.1976 98.4308C38.9429 99.1947 39.9554 99.6094 40.9939 99.6094C41.3414 99.6094 41.6922 99.5629 42.0365 99.4674L57.8031 95.1C58.4519 94.9203 59.0433 94.576 59.5199 94.1002L80.9209 72.7394C85.49 68.1703 85.49 60.7359 80.9207 56.1664ZM54.7277 87.8453L46.7957 90.0426L49.117 82.4002L63.5875 67.9617L69.1129 73.4871L54.7277 87.8453ZM75.3994 67.2129L74.6425 67.9682L69.1181 62.4437L69.8724 61.691C71.3955 60.168 73.8736 60.168 75.3967 61.691C76.9197 63.2141 76.9197 65.6922 75.3994 67.2129Z" fill="white"/>
<path d="M59.7439 23.4375H19.5095C17.3521 23.4375 15.6033 25.1863 15.6033 27.3438C15.6033 29.5012 17.3521 31.25 19.5095 31.25H59.7439C61.9013 31.25 63.6501 29.5012 63.6501 27.3438C63.6501 25.1863 61.9013 23.4375 59.7439 23.4375Z" fill="white"/>
</svg>
