<svg width="100" height="100" viewBox="0 0 100 100" fill="none" xmlns="http://www.w3.org/2000/svg">
<path d="M68.8397 42.9688C68.8397 40.8113 67.0908 39.0625 64.9334 39.0625H24.699C22.5416 39.0625 20.7928 40.8113 20.7928 42.9688C20.7928 45.1262 22.5416 46.875 24.699 46.875H64.9334C67.0908 46.875 68.8397 45.1262 68.8397 42.9688Z" fill="#F28300"/>
<path d="M24.699 54.6875C22.5416 54.6875 20.7928 56.4363 20.7928 58.5938C20.7928 60.7512 22.5416 62.5 24.699 62.5H49.1348C51.2922 62.5 53.041 60.7512 53.041 58.5938C53.041 56.4363 51.2922 54.6875 49.1348 54.6875H24.699Z" fill="#F28300"/>
<path d="M33.8787 92.1875H20.8144C16.5066 92.1875 13.0019 88.6828 13.0019 84.375V15.625C13.0019 11.3172 16.5066 7.8125 20.8144 7.8125H68.8396C73.1475 7.8125 76.6521 11.3172 76.6521 15.625V39.6484C76.6521 41.8059 78.401 43.5547 80.5584 43.5547C82.7158 43.5547 84.4646 41.8059 84.4646 39.6484V15.625C84.4646 7.00937 77.4553 0 68.8396 0H20.8144C12.1988 0 5.18945 7.00937 5.18945 15.625V84.375C5.18945 92.9906 12.1988 100 20.8144 100H33.8787C36.0361 100 37.785 98.2512 37.785 96.0938C37.785 93.9363 36.0361 92.1875 33.8787 92.1875Z" fill="#F28300"/>
<path d="M64.9334 23.4375H24.699C22.5416 23.4375 20.7928 25.1863 20.7928 27.3438C20.7928 29.5012 22.5416 31.25 24.699 31.25H64.9334C67.0908 31.25 68.8397 29.5012 68.8397 27.3438C68.8397 25.1863 67.0908 23.4375 64.9334 23.4375Z" fill="#F28300"/>
<path d="M47.458 60.1594C47.797 59.9629 48.2404 59.9473 48.5981 60.117L93.4617 81.3896C93.8278 81.5627 94.0365 81.8986 93.9947 82.2466C93.953 82.5946 93.6693 82.8897 93.2697 82.9997L79.8723 86.705L74.708 98.4183C74.5526 98.7707 74.1489 99 73.7056 99C73.6649 99 73.6232 98.9983 73.5825 98.9939C73.2939 98.9664 73.0511 98.8376 72.8794 98.659L65.2691 90.7445L54.8152 93.636C54.7047 93.6671 54.5909 93.6818 54.4773 93.6818C54.2853 93.6818 54.0944 93.6386 53.9265 93.5546C53.6584 93.4213 53.4748 93.1971 53.4237 92.941L47.0146 61.0321C46.9468 60.6943 47.1189 60.355 47.458 60.1594ZM73.0609 87.3647C73.1704 87.4885 73.2403 87.633 73.2622 87.7854L74.227 94.3483L77.805 86.2334L56.9139 69.2974L73.0609 87.3647Z" fill="#CE3000"/>
</svg>
