<svg width="100" height="100" viewBox="0 0 100 100" fill="none" xmlns="http://www.w3.org/2000/svg">
<path d="M68.8397 42.9688C68.8397 40.8113 67.0908 39.0625 64.9334 39.0625H24.699C22.5416 39.0625 20.7928 40.8113 20.7928 42.9688C20.7928 45.1262 22.5416 46.875 24.699 46.875H64.9334C67.0908 46.875 68.8397 45.1262 68.8397 42.9688Z" fill="#F28300"/>
<path d="M24.699 54.6875C22.5416 54.6875 20.7928 56.4363 20.7928 58.5938C20.7928 60.7512 22.5416 62.5 24.699 62.5H49.1348C51.2922 62.5 53.041 60.7512 53.041 58.5938C53.041 56.4363 51.2922 54.6875 49.1348 54.6875H24.699Z" fill="#F28300"/>
<path d="M33.8787 92.1875H20.8145C16.5066 92.1875 13.002 88.6828 13.002 84.375V15.625C13.002 11.3172 16.5066 7.8125 20.8145 7.8125H68.8397C73.1475 7.8125 76.6522 11.3172 76.6522 15.625V39.6484C76.6522 41.8059 78.401 43.5547 80.5584 43.5547C82.7158 43.5547 84.4647 41.8059 84.4647 39.6484V15.625C84.4647 7.00937 77.4553 0 68.8397 0H20.8145C12.1988 0 5.18945 7.00937 5.18945 15.625V84.375C5.18945 92.9906 12.1988 100 20.8145 100H33.8787C36.0361 100 37.785 98.2512 37.785 96.0938C37.785 93.9363 36.0361 92.1875 33.8787 92.1875Z" fill="#F28300"/>
<path d="M64.9334 23.4375H24.699C22.5416 23.4375 20.7928 25.1863 20.7928 27.3438C20.7928 29.5012 22.5416 31.25 24.699 31.25H64.9334C67.0908 31.25 68.8397 29.5012 68.8397 27.3438C68.8397 25.1863 67.0908 23.4375 64.9334 23.4375Z" fill="#F28300"/>
<path d="M91.542 60.1594C91.203 59.9629 90.7596 59.9473 90.4019 60.117L45.5383 81.3896C45.1722 81.5627 44.9635 81.8986 45.0053 82.2466C45.047 82.5946 45.3307 82.8897 45.7303 82.9997L59.1277 86.705L64.292 98.4183C64.4474 98.7707 64.8511 99 65.2944 99C65.3351 99 65.3768 98.9983 65.4175 98.9939C65.7061 98.9664 65.9489 98.8376 66.1206 98.659L73.7309 90.7445L84.1848 93.636C84.2953 93.6671 84.4091 93.6818 84.5227 93.6818C84.7147 93.6818 84.9056 93.6386 85.0735 93.5546C85.3416 93.4213 85.5252 93.1971 85.5763 92.941L91.9854 61.0321C92.0532 60.6943 91.8811 60.355 91.542 60.1594ZM65.9391 87.3647C65.8296 87.4885 65.7597 87.633 65.7378 87.7854L64.773 94.3483L61.195 86.2334L82.0861 69.2974L65.9391 87.3647Z" fill="#64B432"/>
</svg>
