<svg width="45" height="100" viewBox="0 0 45 100" fill="none" xmlns="http://www.w3.org/2000/svg">
<path d="M42.861 89.2083L41.4637 94.9201C37.272 96.5746 33.9237 97.8338 31.4303 98.6995C28.9343 99.568 26.034 100 22.7296 100C17.6551 100 13.708 98.7569 10.8929 96.2878C8.07783 93.8088 6.66983 90.6674 6.66983 86.8566C6.66983 85.3814 6.772 83.8641 6.98441 82.318C7.19862 80.7702 7.53919 79.027 8.00523 77.0786L13.2438 58.5372C13.7098 56.7617 14.106 55.0794 14.4232 53.4886C14.745 51.9076 14.9 50.453 14.9 49.1436C14.9 46.7758 14.4098 45.1195 13.4338 44.1883C12.4578 43.2598 10.5954 42.7884 7.83047 42.7884C6.47624 42.7884 5.08438 43.0053 3.66563 43.4247C2.24061 43.846 1.02261 44.2528 0 44.6311L1.40083 38.9148C4.83254 37.5176 8.11278 36.3211 11.2505 35.3281C14.3883 34.3323 17.353 33.834 20.1574 33.834C25.1969 33.834 29.0857 35.052 31.8166 37.488C34.5474 39.9258 35.9124 43.0859 35.9124 46.9801C35.9124 47.7858 35.8228 49.2055 35.6301 51.2346C35.4419 53.2681 35.0915 55.1314 34.5806 56.8262L29.3645 75.2933C28.937 76.7766 28.5525 78.4723 28.2182 80.3804C27.8731 82.2759 27.7082 83.7242 27.7082 84.6958C27.7082 87.1479 28.2549 88.8221 29.351 89.712C30.4552 90.602 32.357 91.0447 35.0583 91.0447C36.3265 91.0447 37.7694 90.8198 39.3728 90.3779C40.9717 89.9361 42.1377 89.548 42.861 89.2083ZM44.1838 11.678C44.1838 14.8955 42.9712 17.6434 40.5343 19.9028C38.1037 22.1703 35.1748 23.305 31.7485 23.305C28.3114 23.305 25.3753 22.1703 22.9169 19.9028C20.463 17.6425 19.2334 14.8955 19.2334 11.678C19.2334 8.4668 20.463 5.71444 22.9169 3.42633C25.3708 1.14181 28.3123 0 31.7485 0C35.1739 0 38.1037 1.1445 40.5343 3.42633C42.973 5.71444 44.1838 8.46769 44.1838 11.678Z" fill="white"/>
</svg>
