<svg width="88" height="100" viewBox="0 0 88 100" fill="none" xmlns="http://www.w3.org/2000/svg">
<path d="M87.105 88.8217L75.775 77.4917L86.58 72.09L57.185 61.26L68.015 90.6567L73.4183 79.85L84.7467 91.1783C85.075 91.5033 85.5 91.6667 85.9267 91.6667C86.3533 91.6667 86.78 91.5033 87.105 91.1783C87.7567 90.5267 87.7567 89.4733 87.105 88.8217ZM62.8117 66.885L78.1983 72.555L71.72 75.7933L68.4817 82.2733L62.8117 66.885Z" fill="white"/>
<path d="M28.3333 36.6667H61.6666V20H28.3333V36.6667ZM33.3333 23.3333H56.6666V26.6667H33.3333V23.3333ZM33.3333 30H56.6666V33.3333H33.3333V30Z" fill="white"/>
<path d="M76.6667 63.1083V0H16.6667H0V100H16.6667H66.13L48.75 52.8217L76.6667 63.1083ZM13.3333 96.6667H3.33333V3.33333H13.3333V96.6667ZM25 16.6667H65V40H25V16.6667Z" fill="white"/>
</svg>
