<svg width="844" height="729" viewBox="0 0 844 729" fill="none" xmlns="http://www.w3.org/2000/svg">
<path fill-rule="evenodd" clip-rule="evenodd" d="M248.346 530.217H595.654C628.731 530.217 566.712 389.476 566.712 389.476C562.577 381.197 554.308 372.918 546.038 368.779L492.288 343.942L467.481 323.245L426.135 364.639L442.673 488.823L422 513.659L401.327 488.823L417.865 364.639L376.519 323.245L351.712 343.942L297.962 368.779C289.692 372.918 281.423 377.058 277.288 389.476C277.288 389.476 215.269 530.217 248.346 530.217Z" fill="#006ddc"/>
<path fill-rule="evenodd" clip-rule="evenodd" d="M422 335.663C463.346 335.663 521.231 281.851 521.231 194.922C521.231 132.83 492.289 95.5754 422 95.5754C351.712 95.5754 322.769 132.83 322.769 194.922C322.769 281.851 372.385 335.663 422 335.663ZM401.327 219.759C455.077 223.898 496.423 153.528 496.423 215.619C496.423 257.014 459.212 314.966 422 314.966C380.654 314.966 351.712 265.293 347.577 215.619C339.308 165.946 438.539 178.364 401.327 219.759Z" fill="#006ddc"/>
<path fill-rule="evenodd" clip-rule="evenodd" d="M802.385 0.368164H41.6154C20.9424 0.368164 0.269287 21.0654 0.269287 41.7626V588.169C0.269287 608.867 20.9424 625.424 41.6154 625.424H802.385C823.058 625.424 843.731 608.867 843.731 588.169V41.7626C843.731 21.0654 823.058 0.368164 802.385 0.368164ZM785.846 567.472H58.1539V58.3204H785.846V567.472Z" fill="#006ddc"/>
<path fill-rule="evenodd" clip-rule="evenodd" d="M0.269287 687.516C0.269287 695.795 12.6731 708.213 25.077 708.213H227.673V662.68H25.077C12.6731 662.68 0.269287 675.098 0.269287 687.516ZM823.058 662.68H310.365V708.213H823.058C831.327 708.213 843.731 695.795 843.731 687.516C843.731 675.098 831.327 662.68 823.058 662.68Z" fill="#006ddc"/>
<path fill-rule="evenodd" clip-rule="evenodd" d="M269.019 641.982C256.616 641.982 244.212 654.401 244.212 666.819V704.074C244.212 716.492 256.616 728.911 269.019 728.911C281.423 728.911 293.827 716.492 293.827 704.074V666.819C293.827 654.401 281.423 641.982 269.019 641.982Z" fill="#006ddc"/>
</svg>
