<svg width="512" height="512" viewBox="0 0 512 512" fill="none" xmlns="http://www.w3.org/2000/svg">
<g clip-path="url(#clip0)">
<path d="M63.953 164.453H9.135C6.661 164.453 4.52 165.353 2.712 167.162C0.903 168.972 0 171.114 0 173.589V228.406C0 230.879 0.903 233.025 2.712 234.83C4.521 236.633 6.661 237.542 9.135 237.542H63.953C66.427 237.542 68.568 236.637 70.376 234.83C72.185 233.021 73.088 230.879 73.088 228.406V173.589C73.088 171.114 72.184 168.972 70.376 167.162C68.568 165.356 66.427 164.453 63.953 164.453Z" fill="#BABABA"/>
<path d="M63.953 383.722H9.135C6.661 383.722 4.52 384.618 2.712 386.429C0.903 388.238 0 390.378 0 392.854V447.674C0 450.145 0.903 452.283 2.712 454.094C4.521 455.907 6.661 456.808 9.135 456.808H63.953C66.427 456.808 68.568 455.905 70.376 454.094C72.185 452.287 73.088 450.145 73.088 447.674V392.854C73.088 390.377 72.184 388.238 70.376 386.428C68.568 384.625 66.427 383.722 63.953 383.722Z" fill="#BABABA"/>
<path d="M63.953 274.082H9.135C6.661 274.082 4.52 274.992 2.712 276.796C0.904 278.6 0 280.749 0 283.22V338.035C0 340.513 0.903 342.655 2.712 344.462C4.521 346.27 6.661 347.169 9.135 347.169H63.953C66.427 347.169 68.568 346.273 70.376 344.462C72.185 342.655 73.088 340.513 73.088 338.035V283.22C73.088 280.749 72.184 278.607 70.376 276.796C68.568 274.989 66.427 274.082 63.953 274.082Z" fill="#BABABA"/>
<path d="M63.953 54.8169H9.135C6.661 54.8169 4.52 55.7199 2.712 57.5289C0.904 59.3379 0 61.4789 0 63.9529V118.77C0 121.245 0.903 123.385 2.712 125.194C4.521 127.003 6.661 127.906 9.135 127.906H63.953C66.427 127.906 68.568 127.006 70.376 125.194C72.185 123.385 73.088 121.245 73.088 118.77V63.9529C73.088 61.4779 72.184 59.3379 70.376 57.5289C68.568 55.7249 66.427 54.8169 63.953 54.8169Z" fill="#BABABA"/>
<path d="M502.49 383.722H118.771C116.297 383.722 114.156 384.618 112.348 386.429C110.539 388.239 109.636 390.378 109.636 392.855V447.675C109.636 450.146 110.539 452.284 112.348 454.095C114.157 455.908 116.294 456.809 118.771 456.809H502.49C504.968 456.809 507.106 455.906 508.917 454.095C510.727 452.284 511.627 450.146 511.627 447.675V392.855C511.627 390.378 510.724 388.239 508.917 386.429C507.106 384.625 504.967 383.722 502.49 383.722Z" fill="#BABABA"/>
<path d="M502.49 274.082H118.771C116.297 274.082 114.156 274.992 112.348 276.796C110.54 278.6 109.636 280.749 109.636 283.22V338.035C109.636 340.513 110.539 342.655 112.348 344.462C114.157 346.27 116.294 347.169 118.771 347.169H502.49C504.968 347.169 507.106 346.273 508.917 344.462C510.727 342.655 511.627 340.513 511.627 338.035V283.22C511.627 280.749 510.724 278.607 508.917 276.796C507.106 274.992 504.967 274.082 502.49 274.082Z" fill="#BABABA"/>
<path d="M508.917 57.5289C507.106 55.7239 504.968 54.8169 502.49 54.8169H118.771C116.297 54.8169 114.156 55.7199 112.348 57.5289C110.54 59.3379 109.636 61.4779 109.636 63.9529V118.77C109.636 121.245 110.539 123.385 112.348 125.194C114.157 127.003 116.294 127.906 118.771 127.906H502.49C504.968 127.906 507.106 127.006 508.917 125.194C510.727 123.385 511.627 121.245 511.627 118.77V63.9529C511.626 61.4789 510.723 59.3379 508.917 57.5289Z" fill="#BABABA"/>
<path d="M502.49 164.453H118.771C116.297 164.453 114.156 165.353 112.348 167.162C110.539 168.972 109.636 171.114 109.636 173.589V228.406C109.636 230.879 110.539 233.021 112.348 234.83C114.157 236.633 116.294 237.542 118.771 237.542H502.49C504.968 237.542 507.106 236.637 508.917 234.83C510.727 233.021 511.627 230.879 511.627 228.406V173.589C511.627 171.114 510.724 168.972 508.917 167.162C507.106 165.356 504.967 164.453 502.49 164.453Z" fill="#BABABA"/>
</g>
<defs>
<clipPath id="clip0">
<rect width="511.626" height="511.626" fill="white"/>
</clipPath>
</defs>
</svg>
