<svg width="322" height="291" viewBox="0 0 322 291" fill="none" xmlns="http://www.w3.org/2000/svg">
<path d="M252.093 273.323L252.093 123.093C252.093 113.623 244.433 106 234.97 106L17.1157 106C7.68276 106 -1.49858e-05 113.623 -1.49858e-05 123.093L-1.49858e-05 273.323C-1.49858e-05 282.763 7.67534 290.424 17.1157 290.424L234.97 290.424C244.433 290.439 252.093 282.771 252.093 273.323ZM6.41465 198.216C6.41465 192.594 10.9605 188.049 16.5743 188.049C22.1955 188.049 26.7488 192.594 26.7488 198.216C26.7488 203.822 22.1955 208.383 16.5743 208.383C10.9605 208.383 6.41465 203.822 6.41465 198.216ZM35.6552 273.123L35.6552 123.309L231.522 123.309L231.522 273.123H35.6552V273.123Z" fill="white"/>
<path d="M113.504 214.632H79.52L65.12 243H46.112L97.664 145.944H120.128L135.824 243H117.248L113.504 214.632ZM85.424 200.952H112.208L108.608 176.472C108.512 176.184 107.744 170.52 106.304 159.48H106.016C105.44 160.536 104.24 163.08 102.416 167.112C100.688 171.144 99.248 174.216 98.096 176.328L85.424 200.952ZM161.276 243H146.636L163.076 157.08H177.716L161.276 243ZM193.993 173.4L208.873 169.44L206.113 184.56H219.913L217.633 195.96H203.833L199.633 217.56C198.833 221.24 198.433 224.24 198.433 226.56C198.433 230.16 200.273 231.96 203.953 231.96C205.873 231.96 207.553 231.84 208.993 231.6L207.673 243.12C205.673 244 202.513 244.44 198.193 244.44C193.313 244.44 189.633 243.32 187.153 241.08C184.753 238.76 183.553 235.8 183.553 232.2C183.553 228.68 183.993 224.84 184.873 220.68L189.673 195.96H181.513L183.673 184.56H191.833L193.993 173.4Z" fill="#E53A24"/>
<path d="M113.504 214.632L115.487 214.37L115.257 212.632H113.504V214.632ZM79.52 214.632V212.632H78.2923L77.7366 213.727L79.52 214.632ZM65.12 243V245H66.3477L66.9034 243.905L65.12 243ZM46.112 243L44.3457 242.062L42.7851 245H46.112V243ZM97.664 145.944V143.944H96.4617L95.8977 145.006L97.664 145.944ZM120.128 145.944L122.102 145.625L121.831 143.944H120.128V145.944ZM135.824 243V245H138.173L137.798 242.681L135.824 243ZM117.248 243L115.265 243.262L115.495 245H117.248V243ZM85.424 200.952L83.6457 200.037L82.1455 202.952H85.424V200.952ZM112.208 200.952V202.952H114.524L114.187 200.661L112.208 200.952ZM108.608 176.472L110.587 176.181L110.561 176.007L110.505 175.84L108.608 176.472ZM106.304 159.48L108.287 159.221L108.06 157.48H106.304V159.48ZM106.016 159.48V157.48H104.829L104.26 158.522L106.016 159.48ZM102.416 167.112L100.594 166.288L100.586 166.306L100.578 166.324L102.416 167.112ZM98.096 176.328L96.3402 175.37L96.3287 175.391L96.3177 175.413L98.096 176.328ZM113.504 212.632H79.52V216.632H113.504V212.632ZM77.7366 213.727L63.3366 242.095L66.9034 243.905L81.3034 215.537L77.7366 213.727ZM65.12 241H46.112V245H65.12V241ZM47.8783 243.938L99.4303 146.882L95.8977 145.006L44.3457 242.062L47.8783 243.938ZM97.664 147.944H120.128V143.944H97.664V147.944ZM118.154 146.263L133.85 243.319L137.798 242.681L122.102 145.625L118.154 146.263ZM135.824 241H117.248V245H135.824V241ZM119.231 242.738L115.487 214.37L111.521 214.894L115.265 243.262L119.231 242.738ZM85.424 202.952H112.208V198.952H85.424V202.952ZM114.187 200.661L110.587 176.181L106.629 176.763L110.229 201.243L114.187 200.661ZM110.505 175.84C110.55 175.975 110.565 176.076 110.548 175.986C110.541 175.95 110.53 175.888 110.515 175.793C110.484 175.605 110.443 175.329 110.389 174.961C110.283 174.226 110.134 173.154 109.942 171.739C109.559 168.912 109.007 164.74 108.287 159.221L104.321 159.739C105.041 165.26 105.593 169.44 105.978 172.277C106.17 173.694 106.321 174.782 106.431 175.535C106.485 175.911 106.531 176.211 106.566 176.431C106.584 176.54 106.601 176.64 106.616 176.724C106.622 176.754 106.654 176.933 106.711 177.104L110.505 175.84ZM106.304 157.48H106.016V161.48H106.304V157.48ZM104.26 158.522C103.641 159.658 102.408 162.277 100.594 166.288L104.238 167.936C106.072 163.883 107.239 161.414 107.772 160.438L104.26 158.522ZM100.578 166.324C98.8579 170.337 97.447 173.341 96.3402 175.37L99.8518 177.286C101.049 175.091 102.518 171.951 104.254 167.9L100.578 166.324ZM96.3177 175.413L83.6457 200.037L87.2023 201.867L99.8743 177.243L96.3177 175.413ZM161.276 243V245H162.929L163.24 243.376L161.276 243ZM146.636 243L144.671 242.624L144.217 245H146.636V243ZM163.076 157.08V155.08H161.422L161.111 156.704L163.076 157.08ZM177.716 157.08L179.68 157.456L180.135 155.08H177.716V157.08ZM161.276 241H146.636V245H161.276V241ZM148.6 243.376L165.04 157.456L161.111 156.704L144.671 242.624L148.6 243.376ZM163.076 159.08H177.716V155.08H163.076V159.08ZM175.751 156.704L159.311 242.624L163.24 243.376L179.68 157.456L175.751 156.704ZM193.993 173.4L193.479 171.467L192.268 171.79L192.03 173.02L193.993 173.4ZM208.873 169.44L210.841 169.799L211.407 166.696L208.359 167.507L208.873 169.44ZM206.113 184.56L204.146 184.201L203.715 186.56H206.113V184.56ZM219.913 184.56L221.875 184.952L222.353 182.56H219.913V184.56ZM217.633 195.96V197.96H219.273L219.595 196.352L217.633 195.96ZM203.833 195.96V193.96H202.185L201.87 195.578L203.833 195.96ZM199.633 217.56L201.588 217.985L201.592 217.963L201.597 217.942L199.633 217.56ZM208.993 231.6L210.98 231.828L211.283 229.191L208.665 229.627L208.993 231.6ZM207.673 243.12L208.479 244.951L209.53 244.488L209.66 243.348L207.673 243.12ZM187.153 241.08L185.763 242.518L185.788 242.542L185.813 242.564L187.153 241.08ZM184.873 220.68L186.83 221.094L186.834 221.078L186.837 221.061L184.873 220.68ZM189.673 195.96L191.637 196.341L192.099 193.96H189.673V195.96ZM181.513 195.96L179.548 195.588L179.099 197.96H181.513V195.96ZM183.673 184.56V182.56H182.017L181.708 184.188L183.673 184.56ZM191.833 184.56V186.56H193.483L193.797 184.94L191.833 184.56ZM194.508 175.333L209.388 171.373L208.359 167.507L193.479 171.467L194.508 175.333ZM206.906 169.081L204.146 184.201L208.081 184.919L210.841 169.799L206.906 169.081ZM206.113 186.56H219.913V182.56H206.113V186.56ZM217.952 184.168L215.672 195.568L219.595 196.352L221.875 184.952L217.952 184.168ZM217.633 193.96H203.833V197.96H217.633V193.96ZM201.87 195.578L197.67 217.178L201.597 217.942L205.797 196.342L201.87 195.578ZM197.679 217.135C196.865 220.88 196.433 224.037 196.433 226.56H200.433C200.433 224.443 200.802 221.6 201.588 217.985L197.679 217.135ZM196.433 226.56C196.433 228.68 196.978 230.634 198.415 232.04C199.844 233.437 201.816 233.96 203.953 233.96V229.96C202.411 229.96 201.623 229.583 201.212 229.18C200.809 228.786 200.433 228.04 200.433 226.56H196.433ZM203.953 233.96C205.951 233.96 207.746 233.836 209.322 233.573L208.665 229.627C207.361 229.844 205.795 229.96 203.953 229.96V233.96ZM207.006 231.372L205.686 242.892L209.66 243.348L210.98 231.828L207.006 231.372ZM206.868 241.289C205.265 241.995 202.454 242.44 198.193 242.44V246.44C202.572 246.44 206.081 246.005 208.479 244.951L206.868 241.289ZM198.193 242.44C193.584 242.44 190.468 241.379 188.494 239.596L185.813 242.564C188.798 245.261 193.042 246.44 198.193 246.44V242.44ZM188.543 239.642C186.566 237.73 185.553 235.305 185.553 232.2H181.553C181.553 236.295 182.941 239.79 185.763 242.518L188.543 239.642ZM185.553 232.2C185.553 228.844 185.973 225.145 186.83 221.094L182.917 220.266C182.014 224.535 181.553 228.516 181.553 232.2H185.553ZM186.837 221.061L191.637 196.341L187.71 195.579L182.91 220.299L186.837 221.061ZM189.673 193.96H181.513V197.96H189.673V193.96ZM183.478 196.332L185.638 184.932L181.708 184.188L179.548 195.588L183.478 196.332ZM183.673 186.56H191.833V182.56H183.673V186.56ZM193.797 184.94L195.957 173.78L192.03 173.02L189.87 184.18L193.797 184.94Z" fill="white"/>
<path d="M198.113 109.492L198.112 109.492C183.423 107.061 167.54 106.204 155.352 105.953C149.253 105.827 144.069 105.852 140.407 105.909C138.755 105.935 137.412 105.967 136.436 105.994L140.545 81.2164C140.725 81.1556 140.933 81.0861 141.169 81.0085C142.124 80.6945 143.527 80.2497 145.311 79.7312C148.879 78.6939 153.964 77.3626 160.015 76.1913C172.136 73.8449 188.044 72.1588 203.385 74.7005C218.742 77.2461 233.524 83.9019 244.506 89.9599C249.987 92.9839 254.502 95.8474 257.643 97.953C259.214 99.0056 260.44 99.8681 261.271 100.466C261.474 100.611 261.653 100.741 261.808 100.854L257.63 126.093C256.714 125.752 255.455 125.288 253.9 124.73C250.453 123.494 245.554 121.796 239.741 119.946C228.123 116.249 212.81 111.932 198.113 109.492Z" fill="#008DD2" stroke="white" stroke-width="3"/>
<path d="M279.577 148.567L281.728 135.621L287.668 136.611L289.147 136.857L289.394 135.379C289.837 132.736 290.797 126.947 291.947 120.012C292.953 113.946 294.104 107.003 295.182 100.522L295.594 98.0454L293.218 98.8567L271.283 106.345L272.597 98.4045L272.744 97.5135L272.026 96.9663L271.117 98.1596C272.026 96.9663 272.025 96.9661 272.025 96.9657L272.023 96.9645L272.018 96.9605L271.999 96.9458L271.925 96.8905C271.893 96.8659 271.852 96.8355 271.804 96.7994C271.757 96.7648 271.703 96.7249 271.643 96.6799C271.395 96.4964 271.029 96.2282 270.553 95.8858C269.6 95.2012 268.204 94.2197 266.422 93.0253C262.858 90.6371 257.745 87.3948 251.538 83.971C239.143 77.1335 222.302 69.526 204.68 66.6007L204.68 66.6006C187.053 63.6802 168.896 65.6259 155.196 68.2767C148.335 69.6041 142.569 71.1129 138.514 72.2909C136.487 72.8801 134.886 73.3869 133.789 73.7474C133.241 73.9277 132.818 74.0715 132.531 74.1708C132.388 74.2204 132.278 74.2589 132.203 74.2853L132.118 74.3157L132.095 74.3238L132.089 74.3261L132.087 74.3268C132.087 74.327 132.086 74.3272 132.596 75.7377L132.086 74.3272L131.26 74.626L131.117 75.4923L130.508 79.1659L97.4832 57.0167L211.166 14.8116L284.481 72.9812L285.798 74.0266L286.687 72.5984C286.741 72.511 286.985 72.2165 287.894 71.8981C293.074 70.4567 296.316 70.4899 298.297 71.1204C300.167 71.7154 301.03 72.8774 301.432 74.2161C301.863 75.6467 301.768 77.32 301.517 78.7282C301.394 79.4156 301.241 80.0037 301.119 80.4173C301.059 80.6234 301.007 80.7844 300.971 80.8906C300.966 80.905 300.961 80.9183 300.957 80.9307C300.945 80.9638 300.936 80.9894 300.93 81.0071L300.921 81.0319L300.921 81.0333L300.92 81.0344L300.92 81.0352L300.92 81.0356L300.868 81.1729L300.844 81.3202L300.315 84.5663L300.174 85.4348L300.863 85.9821L309.913 93.1689L299.083 96.8497L298.232 97.1386L298.085 98.0245L291.825 135.775L291.58 137.252L293.057 137.499L299.604 138.594L297.437 151.696L289.635 144.829L288.895 144.178L288.004 144.598L279.577 148.567ZM291.837 97.828L291.841 97.8285C295.536 98.437 299.036 95.9395 299.647 92.2383C300.257 88.5468 297.749 85.0422 294.056 84.4315C290.363 83.8207 286.869 86.3225 286.244 90.0169L286.243 90.0236C285.633 93.7251 288.143 97.2111 291.837 97.828ZM290.381 74.8736L288.152 75.8883L290.068 77.4127L295.967 82.1036L297.94 83.6728L298.377 81.19C298.582 80.0296 298.751 79.0045 298.848 78.4134C298.886 78.1837 298.913 78.0195 298.927 77.9385L298.929 77.9256C299.134 76.6918 299.018 75.4702 298.226 74.5646C297.443 73.6692 296.332 73.4672 295.456 73.4704C293.734 73.4768 291.691 74.277 290.381 74.8736Z" fill="#008DD2" stroke="white" stroke-width="3"/>
</svg>
