<svg width="322" height="291" viewBox="0 0 322 291" fill="none" xmlns="http://www.w3.org/2000/svg">
<path d="M252.093 273.323L252.093 123.093C252.093 113.623 244.433 106 234.97 106L17.1157 106C7.68275 106 -1.52588e-05 113.623 -1.52588e-05 123.093L-1.52588e-05 273.323C-1.52588e-05 282.763 7.67534 290.424 17.1157 290.424L234.97 290.424C244.433 290.439 252.093 282.771 252.093 273.323ZM6.41464 198.216C6.41464 192.594 10.9605 188.049 16.5743 188.049C22.1955 188.049 26.7488 192.594 26.7488 198.216C26.7488 203.822 22.1955 208.383 16.5743 208.383C10.9605 208.383 6.41464 203.822 6.41464 198.216ZM35.6552 273.123L35.6552 123.309L231.522 123.309L231.522 273.123H35.6552Z" fill="white"/>
<path d="M113.504 214.632H79.52L65.12 243H46.112L97.664 145.944H120.128L135.824 243H117.248L113.504 214.632ZM85.424 200.952H112.208L108.608 176.472C108.512 176.184 107.744 170.52 106.304 159.48H106.016C105.44 160.536 104.24 163.08 102.416 167.112C100.688 171.144 99.248 174.216 98.096 176.328L85.424 200.952ZM161.276 243H146.636L163.076 157.08H177.716L161.276 243ZM193.993 173.4L208.873 169.44L206.113 184.56H219.913L217.633 195.96H203.833L199.633 217.56C198.833 221.24 198.433 224.24 198.433 226.56C198.433 230.16 200.273 231.96 203.953 231.96C205.873 231.96 207.553 231.84 208.993 231.6L207.673 243.12C205.673 244 202.513 244.44 198.193 244.44C193.313 244.44 189.633 243.32 187.153 241.08C184.753 238.76 183.553 235.8 183.553 232.2C183.553 228.68 183.993 224.84 184.873 220.68L189.673 195.96H181.513L183.673 184.56H191.833L193.993 173.4Z" fill="#E53A24"/>
<path d="M113.504 214.632L115.487 214.37L115.257 212.632H113.504V214.632ZM79.52 214.632V212.632H78.2923L77.7366 213.727L79.52 214.632ZM65.12 243V245H66.3477L66.9034 243.905L65.12 243ZM46.112 243L44.3457 242.062L42.7851 245H46.112V243ZM97.664 145.944V143.944H96.4617L95.8977 145.006L97.664 145.944ZM120.128 145.944L122.102 145.625L121.831 143.944H120.128V145.944ZM135.824 243V245H138.173L137.798 242.681L135.824 243ZM117.248 243L115.265 243.262L115.495 245H117.248V243ZM85.424 200.952L83.6457 200.037L82.1455 202.952H85.424V200.952ZM112.208 200.952V202.952H114.524L114.187 200.661L112.208 200.952ZM108.608 176.472L110.587 176.181L110.561 176.007L110.505 175.84L108.608 176.472ZM106.304 159.48L108.287 159.221L108.06 157.48H106.304V159.48ZM106.016 159.48V157.48H104.829L104.26 158.522L106.016 159.48ZM102.416 167.112L100.594 166.288L100.586 166.306L100.578 166.324L102.416 167.112ZM98.096 176.328L96.3402 175.37L96.3287 175.391L96.3177 175.413L98.096 176.328ZM113.504 212.632H79.52V216.632H113.504V212.632ZM77.7366 213.727L63.3366 242.095L66.9034 243.905L81.3034 215.537L77.7366 213.727ZM65.12 241H46.112V245H65.12V241ZM47.8783 243.938L99.4303 146.882L95.8977 145.006L44.3457 242.062L47.8783 243.938ZM97.664 147.944H120.128V143.944H97.664V147.944ZM118.154 146.263L133.85 243.319L137.798 242.681L122.102 145.625L118.154 146.263ZM135.824 241H117.248V245H135.824V241ZM119.231 242.738L115.487 214.37L111.521 214.894L115.265 243.262L119.231 242.738ZM85.424 202.952H112.208V198.952H85.424V202.952ZM114.187 200.661L110.587 176.181L106.629 176.763L110.229 201.243L114.187 200.661ZM110.505 175.84C110.55 175.975 110.565 176.076 110.548 175.986C110.541 175.95 110.53 175.888 110.515 175.793C110.484 175.605 110.443 175.329 110.389 174.961C110.283 174.226 110.134 173.154 109.942 171.739C109.559 168.912 109.007 164.74 108.287 159.221L104.321 159.739C105.041 165.26 105.593 169.44 105.978 172.277C106.17 173.694 106.321 174.782 106.431 175.535C106.485 175.911 106.531 176.211 106.566 176.431C106.584 176.54 106.601 176.64 106.616 176.724C106.622 176.754 106.654 176.933 106.711 177.104L110.505 175.84ZM106.304 157.48H106.016V161.48H106.304V157.48ZM104.26 158.522C103.641 159.658 102.408 162.277 100.594 166.288L104.238 167.936C106.072 163.883 107.239 161.414 107.772 160.438L104.26 158.522ZM100.578 166.324C98.8579 170.337 97.447 173.341 96.3402 175.37L99.8518 177.286C101.049 175.091 102.518 171.951 104.254 167.9L100.578 166.324ZM96.3177 175.413L83.6457 200.037L87.2023 201.867L99.8743 177.243L96.3177 175.413ZM161.276 243V245H162.929L163.24 243.376L161.276 243ZM146.636 243L144.671 242.624L144.217 245H146.636V243ZM163.076 157.08V155.08H161.422L161.111 156.704L163.076 157.08ZM177.716 157.08L179.68 157.456L180.135 155.08H177.716V157.08ZM161.276 241H146.636V245H161.276V241ZM148.6 243.376L165.04 157.456L161.111 156.704L144.671 242.624L148.6 243.376ZM163.076 159.08H177.716V155.08H163.076V159.08ZM175.751 156.704L159.311 242.624L163.24 243.376L179.68 157.456L175.751 156.704ZM193.993 173.4L193.479 171.467L192.268 171.79L192.03 173.02L193.993 173.4ZM208.873 169.44L210.841 169.799L211.407 166.696L208.359 167.507L208.873 169.44ZM206.113 184.56L204.146 184.201L203.715 186.56H206.113V184.56ZM219.913 184.56L221.875 184.952L222.353 182.56H219.913V184.56ZM217.633 195.96V197.96H219.273L219.595 196.352L217.633 195.96ZM203.833 195.96V193.96H202.185L201.87 195.578L203.833 195.96ZM199.633 217.56L201.588 217.985L201.592 217.963L201.597 217.942L199.633 217.56ZM208.993 231.6L210.98 231.828L211.283 229.191L208.665 229.627L208.993 231.6ZM207.673 243.12L208.479 244.951L209.53 244.488L209.66 243.348L207.673 243.12ZM187.153 241.08L185.763 242.518L185.788 242.542L185.813 242.564L187.153 241.08ZM184.873 220.68L186.83 221.094L186.834 221.078L186.837 221.061L184.873 220.68ZM189.673 195.96L191.637 196.341L192.099 193.96H189.673V195.96ZM181.513 195.96L179.548 195.588L179.099 197.96H181.513V195.96ZM183.673 184.56V182.56H182.017L181.708 184.188L183.673 184.56ZM191.833 184.56V186.56H193.483L193.797 184.94L191.833 184.56ZM194.508 175.333L209.388 171.373L208.359 167.507L193.479 171.467L194.508 175.333ZM206.906 169.081L204.146 184.201L208.081 184.919L210.841 169.799L206.906 169.081ZM206.113 186.56H219.913V182.56H206.113V186.56ZM217.952 184.168L215.672 195.568L219.595 196.352L221.875 184.952L217.952 184.168ZM217.633 193.96H203.833V197.96H217.633V193.96ZM201.87 195.578L197.67 217.178L201.597 217.942L205.797 196.342L201.87 195.578ZM197.679 217.135C196.865 220.88 196.433 224.037 196.433 226.56H200.433C200.433 224.443 200.802 221.6 201.588 217.985L197.679 217.135ZM196.433 226.56C196.433 228.68 196.978 230.634 198.415 232.04C199.844 233.437 201.816 233.96 203.953 233.96V229.96C202.411 229.96 201.623 229.583 201.212 229.18C200.809 228.786 200.433 228.04 200.433 226.56H196.433ZM203.953 233.96C205.951 233.96 207.746 233.836 209.322 233.573L208.665 229.627C207.361 229.844 205.795 229.96 203.953 229.96V233.96ZM207.006 231.372L205.686 242.892L209.66 243.348L210.98 231.828L207.006 231.372ZM206.868 241.289C205.265 241.995 202.454 242.44 198.193 242.44V246.44C202.572 246.44 206.081 246.005 208.479 244.951L206.868 241.289ZM198.193 242.44C193.584 242.44 190.468 241.379 188.494 239.596L185.813 242.564C188.798 245.261 193.042 246.44 198.193 246.44V242.44ZM188.543 239.642C186.566 237.73 185.553 235.305 185.553 232.2H181.553C181.553 236.295 182.941 239.79 185.763 242.518L188.543 239.642ZM185.553 232.2C185.553 228.844 185.973 225.145 186.83 221.094L182.917 220.266C182.014 224.535 181.553 228.516 181.553 232.2H185.553ZM186.837 221.061L191.637 196.341L187.71 195.579L182.91 220.299L186.837 221.061ZM189.673 193.96H181.513V197.96H189.673V193.96ZM183.478 196.332L185.638 184.932L181.708 184.188L179.548 195.588L183.478 196.332ZM183.673 186.56H191.833V182.56H183.673V186.56ZM193.797 184.94L195.957 173.78L192.03 173.02L189.87 184.18L193.797 184.94Z" fill="white"/>
<path d="M198.195 108.999L198.194 108.998C183.471 106.562 167.561 105.705 155.363 105.453C149.256 105.327 144.066 105.352 140.399 105.409C139.064 105.43 137.93 105.455 137.028 105.478L140.989 81.5948C141.094 81.5598 141.206 81.5227 141.325 81.4835C142.275 81.1711 143.673 80.7281 145.451 80.2113C149.007 79.1774 154.077 77.8501 160.11 76.6822C172.203 74.3413 188.045 72.6657 203.303 75.1937C218.581 77.7262 233.306 84.3527 244.264 90.3977C249.731 93.4135 254.233 96.2692 257.365 98.3684C258.93 99.4176 260.152 100.277 260.979 100.872C261.08 100.944 261.175 101.013 261.264 101.077L257.235 125.413C256.389 125.1 255.325 124.71 254.068 124.26C250.617 123.022 245.713 121.322 239.892 119.469C228.264 115.769 212.925 111.444 198.195 108.999Z" stroke="white" stroke-width="4"/>
<path d="M280.226 147.709L282.139 136.196L287.586 137.104L289.557 137.432L289.887 135.462C290.33 132.819 291.29 127.033 292.439 120.101C293.445 114.033 294.597 107.088 295.675 100.604L296.163 97.6715C298.201 96.6687 299.742 94.7327 300.14 92.3199C300.795 88.3561 298.103 84.594 294.138 83.9382C290.172 83.2823 286.422 85.9686 285.751 89.9334L285.749 89.9424C285.095 93.9173 287.791 97.6591 291.755 98.3212L291.76 98.3219C292.159 98.3877 292.557 98.4197 292.95 98.4199L271.913 105.602L273.09 98.4861L273.287 97.2982L272.329 96.5686L271.117 98.1596C272.329 96.5686 272.328 96.5682 272.328 96.5678L272.326 96.5665L272.32 96.5622L272.3 96.547L272.226 96.4908C272.161 96.4419 272.065 96.3706 271.94 96.2782C271.691 96.0932 271.323 95.8236 270.845 95.4798C269.888 94.7922 268.488 93.8076 266.7 92.61C263.127 90.2153 258.002 86.9652 251.78 83.5332C239.361 76.6827 222.463 69.0459 204.762 66.1074L204.761 66.1073C187.052 63.1732 168.83 65.1294 155.101 67.7858C148.223 69.1166 142.441 70.6293 138.375 71.8108C136.341 72.4017 134.735 72.9102 133.633 73.2724C133.082 73.4536 132.657 73.5982 132.368 73.6982C132.223 73.7483 132.112 73.7872 132.036 73.814L131.949 73.8449L131.926 73.8534L131.919 73.8558L131.917 73.8565C131.916 73.8568 131.916 73.857 132.596 75.7377L131.916 73.857L130.815 74.2554L130.623 75.4106L130.141 78.3182L98.5729 57.1455L211.076 15.3784L284.17 73.3728L285.927 74.7667L287.107 72.869C287.107 72.869 287.107 72.8688 287.108 72.8683C287.119 72.854 287.301 72.6375 288.044 72.3753C293.175 70.9494 296.302 71.0099 298.146 71.5968C299.841 72.1364 300.593 73.1615 300.954 74.3602C301.351 75.6815 301.27 77.2643 301.025 78.6404C300.906 79.3062 300.758 79.8761 300.64 80.2761C300.581 80.4752 300.531 80.6298 300.497 80.7303C300.48 80.7804 300.467 80.8169 300.459 80.8385L300.453 80.8572L300.452 80.8588L300.452 80.8595L300.452 80.86L300.451 80.8614L300.383 81.0435L300.351 81.2398L299.822 84.4859L299.633 85.644L300.552 86.3737L308.884 92.9904L298.922 96.3762L297.788 96.7615L297.592 97.9427L291.332 135.693L291.005 137.663L292.975 137.993L299.029 139.005L297.091 150.725L289.965 144.454L288.979 143.586L287.791 144.146L280.226 147.709ZM290.173 74.4185L287.201 75.7714L289.757 77.8041L295.655 82.4949L298.286 84.5872L298.87 81.2769C299.075 80.1156 299.251 79.0466 299.348 78.4582C299.383 78.2429 299.408 78.092 299.42 78.0244L299.421 78.0158L299.423 78.0073C299.638 76.7051 299.536 75.3026 298.603 74.2354C297.681 73.1819 296.394 72.9669 295.454 72.9704C293.614 72.9772 291.485 73.8215 290.173 74.4185Z" stroke="white" stroke-width="4"/>
</svg>
