<svg width="330" height="299" viewBox="0 0 330 299" fill="none" xmlns="http://www.w3.org/2000/svg">
<g filter="url(#filter0_d)">
<path d="M256.093 273.323L256.093 123.093C256.093 113.623 248.433 106 238.97 106L21.1157 106C11.6828 106 3.99998 113.623 3.99998 123.093L3.99998 273.323C3.99998 282.763 11.6753 290.424 21.1157 290.424L238.97 290.424C248.433 290.439 256.093 282.771 256.093 273.323ZM10.4146 198.216C10.4146 192.594 14.9605 188.049 20.5743 188.049C26.1955 188.049 30.7488 192.594 30.7488 198.216C30.7488 203.822 26.1955 208.383 20.5743 208.383C14.9605 208.383 10.4146 203.822 10.4146 198.216ZM39.6552 273.123L39.6552 123.309L235.522 123.309L235.522 273.123H39.6552Z" fill="white"/>
<path d="M117.504 214.632H83.52L69.12 243H50.112L101.664 145.944H124.128L139.824 243H121.248L117.504 214.632ZM89.424 200.952H116.208L112.608 176.472C112.512 176.184 111.744 170.52 110.304 159.48H110.016C109.44 160.536 108.24 163.08 106.416 167.112C104.688 171.144 103.248 174.216 102.096 176.328L89.424 200.952ZM165.276 243H150.636L167.076 157.08H181.716L165.276 243ZM197.993 173.4L212.873 169.44L210.113 184.56H223.913L221.633 195.96H207.833L203.633 217.56C202.833 221.24 202.433 224.24 202.433 226.56C202.433 230.16 204.273 231.96 207.953 231.96C209.873 231.96 211.553 231.84 212.993 231.6L211.673 243.12C209.673 244 206.513 244.44 202.193 244.44C197.313 244.44 193.633 243.32 191.153 241.08C188.753 238.76 187.553 235.8 187.553 232.2C187.553 228.68 187.993 224.84 188.873 220.68L193.673 195.96H185.513L187.673 184.56H195.833L197.993 173.4Z" fill="#E53A24"/>
<path d="M117.504 214.632L119.487 214.37L119.257 212.632H117.504V214.632ZM83.52 214.632V212.632H82.2923L81.7366 213.727L83.52 214.632ZM69.12 243V245H70.3477L70.9034 243.905L69.12 243ZM50.112 243L48.3457 242.062L46.7851 245H50.112V243ZM101.664 145.944V143.944H100.462L99.8977 145.006L101.664 145.944ZM124.128 145.944L126.102 145.625L125.831 143.944H124.128V145.944ZM139.824 243V245H142.173L141.798 242.681L139.824 243ZM121.248 243L119.265 243.262L119.495 245H121.248V243ZM89.424 200.952L87.6457 200.037L86.1455 202.952H89.424V200.952ZM116.208 200.952V202.952H118.524L118.187 200.661L116.208 200.952ZM112.608 176.472L114.587 176.181L114.561 176.007L114.505 175.84L112.608 176.472ZM110.304 159.48L112.287 159.221L112.06 157.48H110.304V159.48ZM110.016 159.48V157.48H108.829L108.26 158.522L110.016 159.48ZM106.416 167.112L104.594 166.288L104.586 166.306L104.578 166.324L106.416 167.112ZM102.096 176.328L100.34 175.37L100.329 175.391L100.318 175.413L102.096 176.328ZM117.504 212.632H83.52V216.632H117.504V212.632ZM81.7366 213.727L67.3366 242.095L70.9034 243.905L85.3034 215.537L81.7366 213.727ZM69.12 241H50.112V245H69.12V241ZM51.8783 243.938L103.43 146.882L99.8977 145.006L48.3457 242.062L51.8783 243.938ZM101.664 147.944H124.128V143.944H101.664V147.944ZM122.154 146.263L137.85 243.319L141.798 242.681L126.102 145.625L122.154 146.263ZM139.824 241H121.248V245H139.824V241ZM123.231 242.738L119.487 214.37L115.521 214.894L119.265 243.262L123.231 242.738ZM89.424 202.952H116.208V198.952H89.424V202.952ZM118.187 200.661L114.587 176.181L110.629 176.763L114.229 201.243L118.187 200.661ZM114.505 175.84C114.55 175.975 114.565 176.076 114.548 175.986C114.541 175.95 114.53 175.888 114.515 175.793C114.484 175.605 114.443 175.329 114.389 174.961C114.283 174.226 114.134 173.154 113.942 171.739C113.559 168.912 113.007 164.74 112.287 159.221L108.321 159.739C109.041 165.26 109.593 169.44 109.978 172.277C110.17 173.694 110.321 174.782 110.431 175.535C110.485 175.911 110.531 176.211 110.566 176.431C110.584 176.54 110.601 176.64 110.616 176.724C110.622 176.754 110.654 176.933 110.711 177.104L114.505 175.84ZM110.304 157.48H110.016V161.48H110.304V157.48ZM108.26 158.522C107.641 159.658 106.408 162.277 104.594 166.288L108.238 167.936C110.072 163.883 111.239 161.414 111.772 160.438L108.26 158.522ZM104.578 166.324C102.858 170.337 101.447 173.341 100.34 175.37L103.852 177.286C105.049 175.091 106.518 171.951 108.254 167.9L104.578 166.324ZM100.318 175.413L87.6457 200.037L91.2023 201.867L103.874 177.243L100.318 175.413ZM165.276 243V245H166.929L167.24 243.376L165.276 243ZM150.636 243L148.671 242.624L148.217 245H150.636V243ZM167.076 157.08V155.08H165.422L165.111 156.704L167.076 157.08ZM181.716 157.08L183.68 157.456L184.135 155.08H181.716V157.08ZM165.276 241H150.636V245H165.276V241ZM152.6 243.376L169.04 157.456L165.111 156.704L148.671 242.624L152.6 243.376ZM167.076 159.08H181.716V155.08H167.076V159.08ZM179.751 156.704L163.311 242.624L167.24 243.376L183.68 157.456L179.751 156.704ZM197.993 173.4L197.479 171.467L196.268 171.79L196.03 173.02L197.993 173.4ZM212.873 169.44L214.841 169.799L215.407 166.696L212.359 167.507L212.873 169.44ZM210.113 184.56L208.146 184.201L207.715 186.56H210.113V184.56ZM223.913 184.56L225.875 184.952L226.353 182.56H223.913V184.56ZM221.633 195.96V197.96H223.273L223.595 196.352L221.633 195.96ZM207.833 195.96V193.96H206.185L205.87 195.578L207.833 195.96ZM203.633 217.56L205.588 217.985L205.592 217.963L205.597 217.942L203.633 217.56ZM212.993 231.6L214.98 231.828L215.283 229.191L212.665 229.627L212.993 231.6ZM211.673 243.12L212.479 244.951L213.53 244.488L213.66 243.348L211.673 243.12ZM191.153 241.08L189.763 242.518L189.788 242.542L189.813 242.564L191.153 241.08ZM188.873 220.68L190.83 221.094L190.834 221.078L190.837 221.061L188.873 220.68ZM193.673 195.96L195.637 196.341L196.099 193.96H193.673V195.96ZM185.513 195.96L183.548 195.588L183.099 197.96H185.513V195.96ZM187.673 184.56V182.56H186.017L185.708 184.188L187.673 184.56ZM195.833 184.56V186.56H197.483L197.797 184.94L195.833 184.56ZM198.508 175.333L213.388 171.373L212.359 167.507L197.479 171.467L198.508 175.333ZM210.906 169.081L208.146 184.201L212.081 184.919L214.841 169.799L210.906 169.081ZM210.113 186.56H223.913V182.56H210.113V186.56ZM221.952 184.168L219.672 195.568L223.595 196.352L225.875 184.952L221.952 184.168ZM221.633 193.96H207.833V197.96H221.633V193.96ZM205.87 195.578L201.67 217.178L205.597 217.942L209.797 196.342L205.87 195.578ZM201.679 217.135C200.865 220.88 200.433 224.037 200.433 226.56H204.433C204.433 224.443 204.802 221.6 205.588 217.985L201.679 217.135ZM200.433 226.56C200.433 228.68 200.978 230.634 202.415 232.04C203.844 233.437 205.816 233.96 207.953 233.96V229.96C206.411 229.96 205.623 229.583 205.212 229.18C204.809 228.786 204.433 228.04 204.433 226.56H200.433ZM207.953 233.96C209.951 233.96 211.746 233.836 213.322 233.573L212.665 229.627C211.361 229.844 209.795 229.96 207.953 229.96V233.96ZM211.006 231.372L209.686 242.892L213.66 243.348L214.98 231.828L211.006 231.372ZM210.868 241.289C209.265 241.995 206.454 242.44 202.193 242.44V246.44C206.572 246.44 210.081 246.005 212.479 244.951L210.868 241.289ZM202.193 242.44C197.584 242.44 194.468 241.379 192.494 239.596L189.813 242.564C192.798 245.261 197.042 246.44 202.193 246.44V242.44ZM192.543 239.642C190.566 237.73 189.553 235.305 189.553 232.2H185.553C185.553 236.295 186.941 239.79 189.763 242.518L192.543 239.642ZM189.553 232.2C189.553 228.844 189.973 225.145 190.83 221.094L186.917 220.266C186.014 224.535 185.553 228.516 185.553 232.2H189.553ZM190.837 221.061L195.637 196.341L191.71 195.579L186.91 220.299L190.837 221.061ZM193.673 193.96H185.513V197.96H193.673V193.96ZM187.478 196.332L189.638 184.932L185.708 184.188L183.548 195.588L187.478 196.332ZM187.673 186.56H195.833V182.56H187.673V186.56ZM197.797 184.94L199.957 173.78L196.03 173.02L193.87 184.18L197.797 184.94Z" fill="white"/>
<path d="M202.195 108.999L202.194 108.998C187.471 106.562 171.561 105.705 159.363 105.453C153.256 105.327 148.066 105.352 144.399 105.409C143.064 105.43 141.93 105.455 141.028 105.478L144.989 81.5948C145.094 81.5598 145.206 81.5227 145.325 81.4835C146.275 81.1711 147.673 80.7281 149.451 80.2113C153.007 79.1774 158.077 77.8501 164.11 76.6822C176.203 74.3413 192.045 72.6657 207.303 75.1937C222.581 77.7262 237.306 84.3527 248.264 90.3977C253.731 93.4135 258.233 96.2692 261.365 98.3684C262.93 99.4176 264.152 100.277 264.979 100.872C265.08 100.944 265.175 101.013 265.264 101.077L261.235 125.413C260.389 125.1 259.325 124.71 258.068 124.26C254.617 123.022 249.713 121.322 243.892 119.469C232.264 115.769 216.925 111.444 202.195 108.999Z" stroke="white" stroke-width="4"/>
<path d="M284.226 147.709L286.139 136.196L291.586 137.104L293.557 137.432L293.887 135.462C294.33 132.819 295.29 127.033 296.439 120.101C297.445 114.033 298.597 107.088 299.675 100.604L300.163 97.6715C302.201 96.6687 303.742 94.7327 304.14 92.3199C304.795 88.3561 302.103 84.594 298.138 83.9382C294.172 83.2823 290.422 85.9686 289.751 89.9334L289.749 89.9424C289.095 93.9173 291.791 97.6591 295.755 98.3212L295.76 98.3219C296.159 98.3877 296.557 98.4197 296.95 98.4199L275.913 105.602L277.09 98.4861L277.287 97.2982L276.329 96.5686L275.117 98.1596C276.329 96.5686 276.328 96.5682 276.328 96.5678L276.326 96.5665L276.32 96.5622L276.3 96.547L276.226 96.4908C276.161 96.4419 276.065 96.3706 275.94 96.2782C275.691 96.0932 275.323 95.8236 274.845 95.4798C273.888 94.7922 272.488 93.8076 270.7 92.61C267.127 90.2153 262.002 86.9652 255.78 83.5332C243.361 76.6827 226.463 69.0459 208.762 66.1074L208.761 66.1073C191.052 63.1732 172.83 65.1294 159.101 67.7858C152.223 69.1166 146.441 70.6293 142.375 71.8108C140.341 72.4017 138.735 72.9102 137.633 73.2724C137.082 73.4536 136.657 73.5982 136.368 73.6982C136.223 73.7483 136.112 73.7872 136.036 73.814L135.949 73.8449L135.926 73.8534L135.919 73.8558L135.917 73.8565C135.916 73.8568 135.916 73.857 136.596 75.7377L135.916 73.857L134.815 74.2554L134.623 75.4106L134.141 78.3182L102.573 57.1455L215.076 15.3784L288.17 73.3728L289.927 74.7667L291.107 72.869C291.107 72.869 291.107 72.8688 291.108 72.8683C291.119 72.854 291.301 72.6375 292.044 72.3753C297.175 70.9494 300.302 71.0099 302.146 71.5968C303.841 72.1364 304.593 73.1615 304.954 74.3602C305.351 75.6815 305.27 77.2643 305.025 78.6404C304.906 79.3062 304.758 79.8761 304.64 80.2761C304.581 80.4752 304.531 80.6298 304.497 80.7303C304.48 80.7804 304.467 80.8169 304.459 80.8385L304.453 80.8572L304.452 80.8588L304.452 80.8595L304.452 80.86L304.451 80.8614L304.383 81.0435L304.351 81.2398L303.822 84.4859L303.633 85.644L304.552 86.3737L312.884 92.9904L302.922 96.3762L301.788 96.7615L301.592 97.9427L295.332 135.693L295.005 137.663L296.975 137.993L303.029 139.005L301.091 150.725L293.965 144.454L292.979 143.586L291.791 144.146L284.226 147.709ZM294.173 74.4185L291.201 75.7714L293.757 77.8041L299.655 82.4949L302.286 84.5872L302.87 81.2769C303.075 80.1156 303.251 79.0466 303.348 78.4582C303.383 78.2429 303.408 78.092 303.42 78.0244L303.421 78.0158L303.423 78.0073C303.638 76.7051 303.536 75.3026 302.603 74.2354C301.681 73.1819 300.394 72.9669 299.454 72.9704C297.614 72.9772 295.485 73.8215 294.173 74.4185Z" stroke="white" stroke-width="4"/>
</g>
<defs>
<filter id="filter0_d" x="-1.52588e-05" y="0.777985" width="329.037" height="297.646" filterUnits="userSpaceOnUse" color-interpolation-filters="sRGB">
<feFlood flood-opacity="0" result="BackgroundImageFix"/>
<feColorMatrix in="SourceAlpha" type="matrix" values="0 0 0 0 0 0 0 0 0 0 0 0 0 0 0 0 0 0 127 0"/>
<feOffset dy="4"/>
<feGaussianBlur stdDeviation="2"/>
<feColorMatrix type="matrix" values="0 0 0 0 0 0 0 0 0 0 0 0 0 0 0 0 0 0 0.25 0"/>
<feBlend mode="normal" in2="BackgroundImageFix" result="effect1_dropShadow"/>
<feBlend mode="normal" in="SourceGraphic" in2="effect1_dropShadow" result="shape"/>
</filter>
</defs>
</svg>
