<svg width="330" height="299" viewBox="0 0 330 299" fill="none" xmlns="http://www.w3.org/2000/svg">
<g filter="url(#filter0_d)">
<path d="M254.093 275.323L254.093 125.093C254.093 115.623 246.433 108 236.97 108L19.1157 108C9.68275 108 1.99998 115.623 1.99998 125.093L1.99998 275.323C1.99998 284.763 9.67534 292.424 19.1157 292.424L236.97 292.424C246.433 292.439 254.093 284.771 254.093 275.323ZM8.41464 200.216C8.41464 194.594 12.9605 190.049 18.5743 190.049C24.1955 190.049 28.7488 194.594 28.7488 200.216C28.7488 205.822 24.1955 210.383 18.5743 210.383C12.9605 210.383 8.41464 205.822 8.41464 200.216ZM37.6552 275.123L37.6552 125.309L233.522 125.309L233.522 275.123H37.6552Z" fill="white"/>
<path d="M115.504 216.632H81.52L67.12 245H48.112L99.664 147.944H122.128L137.824 245H119.248L115.504 216.632ZM87.424 202.952H114.208L110.608 178.472C110.512 178.184 109.744 172.52 108.304 161.48H108.016C107.44 162.536 106.24 165.08 104.416 169.112C102.688 173.144 101.248 176.216 100.096 178.328L87.424 202.952ZM163.276 245H148.636L165.076 159.08H179.716L163.276 245ZM195.993 175.4L210.873 171.44L208.113 186.56H221.913L219.633 197.96H205.833L201.633 219.56C200.833 223.24 200.433 226.24 200.433 228.56C200.433 232.16 202.273 233.96 205.953 233.96C207.873 233.96 209.553 233.84 210.993 233.6L209.673 245.12C207.673 246 204.513 246.44 200.193 246.44C195.313 246.44 191.633 245.32 189.153 243.08C186.753 240.76 185.553 237.8 185.553 234.2C185.553 230.68 185.993 226.84 186.873 222.68L191.673 197.96H183.513L185.673 186.56H193.833L195.993 175.4Z" fill="#E53A24"/>
<path d="M115.504 216.632L117.487 216.37L117.257 214.632H115.504V216.632ZM81.52 216.632V214.632H80.2923L79.7366 215.727L81.52 216.632ZM67.12 245V247H68.3477L68.9034 245.905L67.12 245ZM48.112 245L46.3457 244.062L44.7851 247H48.112V245ZM99.664 147.944V145.944H98.4617L97.8977 147.006L99.664 147.944ZM122.128 147.944L124.102 147.625L123.831 145.944H122.128V147.944ZM137.824 245V247H140.173L139.798 244.681L137.824 245ZM119.248 245L117.265 245.262L117.495 247H119.248V245ZM87.424 202.952L85.6457 202.037L84.1455 204.952H87.424V202.952ZM114.208 202.952V204.952H116.524L116.187 202.661L114.208 202.952ZM110.608 178.472L112.587 178.181L112.561 178.007L112.505 177.84L110.608 178.472ZM108.304 161.48L110.287 161.221L110.06 159.48H108.304V161.48ZM108.016 161.48V159.48H106.829L106.26 160.522L108.016 161.48ZM104.416 169.112L102.594 168.288L102.586 168.306L102.578 168.324L104.416 169.112ZM100.096 178.328L98.3402 177.37L98.3287 177.391L98.3177 177.413L100.096 178.328ZM115.504 214.632H81.52V218.632H115.504V214.632ZM79.7366 215.727L65.3366 244.095L68.9034 245.905L83.3034 217.537L79.7366 215.727ZM67.12 243H48.112V247H67.12V243ZM49.8783 245.938L101.43 148.882L97.8977 147.006L46.3457 244.062L49.8783 245.938ZM99.664 149.944H122.128V145.944H99.664V149.944ZM120.154 148.263L135.85 245.319L139.798 244.681L124.102 147.625L120.154 148.263ZM137.824 243H119.248V247H137.824V243ZM121.231 244.738L117.487 216.37L113.521 216.894L117.265 245.262L121.231 244.738ZM87.424 204.952H114.208V200.952H87.424V204.952ZM116.187 202.661L112.587 178.181L108.629 178.763L112.229 203.243L116.187 202.661ZM112.505 177.84C112.55 177.975 112.565 178.076 112.548 177.986C112.541 177.95 112.53 177.888 112.515 177.793C112.484 177.605 112.443 177.329 112.389 176.961C112.283 176.226 112.134 175.154 111.942 173.739C111.559 170.912 111.007 166.74 110.287 161.221L106.321 161.739C107.041 167.26 107.593 171.44 107.978 174.277C108.17 175.694 108.321 176.782 108.431 177.535C108.485 177.911 108.531 178.211 108.566 178.431C108.584 178.54 108.601 178.64 108.616 178.724C108.622 178.754 108.654 178.933 108.711 179.104L112.505 177.84ZM108.304 159.48H108.016V163.48H108.304V159.48ZM106.26 160.522C105.641 161.658 104.408 164.277 102.594 168.288L106.238 169.936C108.072 165.883 109.239 163.414 109.772 162.438L106.26 160.522ZM102.578 168.324C100.858 172.337 99.447 175.341 98.3402 177.37L101.852 179.286C103.049 177.091 104.518 173.951 106.254 169.9L102.578 168.324ZM98.3177 177.413L85.6457 202.037L89.2023 203.867L101.874 179.243L98.3177 177.413ZM163.276 245V247H164.929L165.24 245.376L163.276 245ZM148.636 245L146.671 244.624L146.217 247H148.636V245ZM165.076 159.08V157.08H163.422L163.111 158.704L165.076 159.08ZM179.716 159.08L181.68 159.456L182.135 157.08H179.716V159.08ZM163.276 243H148.636V247H163.276V243ZM150.6 245.376L167.04 159.456L163.111 158.704L146.671 244.624L150.6 245.376ZM165.076 161.08H179.716V157.08H165.076V161.08ZM177.751 158.704L161.311 244.624L165.24 245.376L181.68 159.456L177.751 158.704ZM195.993 175.4L195.479 173.467L194.268 173.79L194.03 175.02L195.993 175.4ZM210.873 171.44L212.841 171.799L213.407 168.696L210.359 169.507L210.873 171.44ZM208.113 186.56L206.146 186.201L205.715 188.56H208.113V186.56ZM221.913 186.56L223.875 186.952L224.353 184.56H221.913V186.56ZM219.633 197.96V199.96H221.273L221.595 198.352L219.633 197.96ZM205.833 197.96V195.96H204.185L203.87 197.578L205.833 197.96ZM201.633 219.56L203.588 219.985L203.592 219.963L203.597 219.942L201.633 219.56ZM210.993 233.6L212.98 233.828L213.283 231.191L210.665 231.627L210.993 233.6ZM209.673 245.12L210.479 246.951L211.53 246.488L211.66 245.348L209.673 245.12ZM189.153 243.08L187.763 244.518L187.788 244.542L187.813 244.564L189.153 243.08ZM186.873 222.68L188.83 223.094L188.834 223.078L188.837 223.061L186.873 222.68ZM191.673 197.96L193.637 198.341L194.099 195.96H191.673V197.96ZM183.513 197.96L181.548 197.588L181.099 199.96H183.513V197.96ZM185.673 186.56V184.56H184.017L183.708 186.188L185.673 186.56ZM193.833 186.56V188.56H195.483L195.797 186.94L193.833 186.56ZM196.508 177.333L211.388 173.373L210.359 169.507L195.479 173.467L196.508 177.333ZM208.906 171.081L206.146 186.201L210.081 186.919L212.841 171.799L208.906 171.081ZM208.113 188.56H221.913V184.56H208.113V188.56ZM219.952 186.168L217.672 197.568L221.595 198.352L223.875 186.952L219.952 186.168ZM219.633 195.96H205.833V199.96H219.633V195.96ZM203.87 197.578L199.67 219.178L203.597 219.942L207.797 198.342L203.87 197.578ZM199.679 219.135C198.865 222.88 198.433 226.037 198.433 228.56H202.433C202.433 226.443 202.802 223.6 203.588 219.985L199.679 219.135ZM198.433 228.56C198.433 230.68 198.978 232.634 200.415 234.04C201.844 235.437 203.816 235.96 205.953 235.96V231.96C204.411 231.96 203.623 231.583 203.212 231.18C202.809 230.786 202.433 230.04 202.433 228.56H198.433ZM205.953 235.96C207.951 235.96 209.746 235.836 211.322 235.573L210.665 231.627C209.361 231.844 207.795 231.96 205.953 231.96V235.96ZM209.006 233.372L207.686 244.892L211.66 245.348L212.98 233.828L209.006 233.372ZM208.868 243.289C207.265 243.995 204.454 244.44 200.193 244.44V248.44C204.572 248.44 208.081 248.005 210.479 246.951L208.868 243.289ZM200.193 244.44C195.584 244.44 192.468 243.379 190.494 241.596L187.813 244.564C190.798 247.261 195.042 248.44 200.193 248.44V244.44ZM190.543 241.642C188.566 239.73 187.553 237.305 187.553 234.2H183.553C183.553 238.295 184.941 241.79 187.763 244.518L190.543 241.642ZM187.553 234.2C187.553 230.844 187.973 227.145 188.83 223.094L184.917 222.266C184.014 226.535 183.553 230.516 183.553 234.2H187.553ZM188.837 223.061L193.637 198.341L189.71 197.579L184.91 222.299L188.837 223.061ZM191.673 195.96H183.513V199.96H191.673V195.96ZM185.478 198.332L187.638 186.932L183.708 186.188L181.548 197.588L185.478 198.332ZM185.673 188.56H193.833V184.56H185.673V188.56ZM195.797 186.94L197.957 175.78L194.03 175.02L191.87 186.18L195.797 186.94Z" fill="white"/>
<path d="M200.195 110.999L200.194 110.998C185.471 108.562 169.561 107.705 157.363 107.453C151.256 107.327 146.066 107.352 142.399 107.409C141.064 107.43 139.93 107.455 139.028 107.478L142.989 83.5948C143.094 83.5598 143.206 83.5227 143.325 83.4835C144.275 83.1711 145.673 82.7281 147.451 82.2113C151.007 81.1774 156.077 79.8501 162.11 78.6822C174.203 76.3413 190.045 74.6657 205.303 77.1937C220.581 79.7262 235.306 86.3527 246.264 92.3977C251.731 95.4135 256.233 98.2692 259.365 100.368C260.93 101.418 262.152 102.277 262.979 102.872C263.08 102.944 263.175 103.013 263.264 103.077L259.235 127.413C258.389 127.1 257.325 126.71 256.068 126.26C252.617 125.022 247.713 123.322 241.892 121.469C230.264 117.769 214.925 113.444 200.195 110.999Z" stroke="white" stroke-width="4"/>
<path d="M282.226 149.709L284.139 138.196L289.586 139.104L291.557 139.432L291.887 137.462C292.33 134.819 293.29 129.033 294.439 122.101C295.445 116.033 296.597 109.088 297.675 102.604L298.163 99.6715C300.201 98.6687 301.742 96.7327 302.14 94.3199C302.795 90.3561 300.103 86.594 296.138 85.9382C292.172 85.2823 288.422 87.9686 287.751 91.9334L287.749 91.9424C287.095 95.9173 289.791 99.6591 293.755 100.321L293.76 100.322C294.159 100.388 294.557 100.42 294.95 100.42L273.913 107.602L275.09 100.486L275.287 99.2982L274.329 98.5686L273.117 100.16C274.329 98.5686 274.328 98.5682 274.328 98.5678L274.326 98.5665L274.32 98.5622L274.3 98.547L274.226 98.4908C274.161 98.4419 274.065 98.3706 273.94 98.2782C273.691 98.0932 273.323 97.8236 272.845 97.4798C271.888 96.7922 270.488 95.8076 268.7 94.61C265.127 92.2153 260.002 88.9652 253.78 85.5332C241.361 78.6827 224.463 71.0459 206.762 68.1074L206.761 68.1073C189.052 65.1732 170.83 67.1294 157.101 69.7858C150.223 71.1166 144.441 72.6293 140.375 73.8108C138.341 74.4017 136.735 74.9102 135.633 75.2724C135.082 75.4536 134.657 75.5982 134.368 75.6982C134.223 75.7483 134.112 75.7872 134.036 75.814L133.949 75.8449L133.926 75.8534L133.919 75.8558L133.917 75.8565C133.916 75.8568 133.916 75.857 134.596 77.7377L133.916 75.857L132.815 76.2554L132.623 77.4106L132.141 80.3182L100.573 59.1455L213.076 17.3784L286.17 75.3728L287.927 76.7667L289.107 74.869C289.107 74.869 289.107 74.8688 289.108 74.8683C289.119 74.854 289.301 74.6375 290.044 74.3753C295.175 72.9494 298.302 73.0099 300.146 73.5968C301.841 74.1364 302.593 75.1615 302.954 76.3602C303.351 77.6815 303.27 79.2643 303.025 80.6404C302.906 81.3062 302.758 81.8761 302.64 82.2761C302.581 82.4752 302.531 82.6298 302.497 82.7303C302.48 82.7804 302.467 82.8169 302.459 82.8385L302.453 82.8572L302.452 82.8588L302.452 82.8595L302.452 82.86L302.451 82.8614L302.383 83.0435L302.351 83.2398L301.822 86.4859L301.633 87.644L302.552 88.3737L310.884 94.9904L300.922 98.3762L299.788 98.7615L299.592 99.9427L293.332 137.693L293.005 139.663L294.975 139.993L301.029 141.005L299.091 152.725L291.965 146.454L290.979 145.586L289.791 146.146L282.226 149.709ZM292.173 76.4185L289.201 77.7714L291.757 79.8041L297.655 84.4949L300.286 86.5872L300.87 83.2769C301.075 82.1156 301.251 81.0466 301.348 80.4582C301.383 80.2429 301.408 80.092 301.42 80.0244L301.421 80.0158L301.423 80.0073C301.638 78.7051 301.536 77.3026 300.603 76.2354C299.681 75.1819 298.394 74.9669 297.454 74.9704C295.614 74.9772 293.485 75.8215 292.173 76.4185Z" stroke="white" stroke-width="4"/>
</g>
<defs>
<filter id="filter0_d" x="-1.52588e-05" y="0.777985" width="329.037" height="297.646" filterUnits="userSpaceOnUse" color-interpolation-filters="sRGB">
<feFlood flood-opacity="0" result="BackgroundImageFix"/>
<feColorMatrix in="SourceAlpha" type="matrix" values="0 0 0 0 0 0 0 0 0 0 0 0 0 0 0 0 0 0 127 0"/>
<feOffset dx="2" dy="2"/>
<feGaussianBlur stdDeviation="2"/>
<feColorMatrix type="matrix" values="0 0 0 0 0 0 0 0 0 0 0 0 0 0 0 0 0 0 0.15 0"/>
<feBlend mode="normal" in2="BackgroundImageFix" result="effect1_dropShadow"/>
<feBlend mode="normal" in="SourceGraphic" in2="effect1_dropShadow" result="shape"/>
</filter>
</defs>
</svg>
