<svg width="84" height="100" viewBox="0 0 84 100" fill="none" xmlns="http://www.w3.org/2000/svg">
<path d="M83.0345 84.3459L75.8804 72.4209C72.5763 66.9168 70.8304 60.6125 70.8304 54.1959V43.75C70.8304 30.5625 62.0304 19.4084 49.997 15.8125V8.3334C49.997 3.7375 46.2595 0 41.6636 0C37.0677 0 33.3302 3.7375 33.3302 8.3334V15.8125C21.297 19.4084 12.497 30.5625 12.497 43.75V54.1959C12.497 60.6125 10.7511 66.9125 7.45114 72.4168L0.297037 84.3418C-0.0904629 84.9877 -0.098861 85.7877 0.272037 86.4418C0.642936 87.0959 1.33044 87.5002 2.08044 87.5002H81.247C81.997 87.5002 82.6886 87.0961 83.0595 86.4461C83.4304 85.7959 83.4179 84.9875 83.0345 84.3459Z" fill="white"/>
<path d="M28.543 91.6666C30.893 96.575 35.868 100 41.6637 100C47.4594 100 52.4346 96.575 54.7846 91.6666H28.543V91.6666Z" fill="white"/>
</svg>
