<svg width="486" height="486" viewBox="0 0 486 486" fill="none" xmlns="http://www.w3.org/2000/svg">
<path d="M303.254 363.906H151.636V394.237H303.254V363.906Z" fill="white"/>
<path d="M121.312 30.327H363.907V90.978H394.228V30.327C394.229 13.595 380.666 0 363.907 0H121.312C104.564 0 90.985 13.595 90.985 30.327V90.978H121.312V30.327Z" fill="white"/>
<path d="M333.575 303.257H151.636V333.584H333.575V303.257Z" fill="white"/>
<path d="M454.882 121.304H30.334C13.586 121.304 0.00701904 134.895 0.00701904 151.628V333.584C0.00701904 350.343 13.586 363.905 30.334 363.905H90.985V454.885C90.985 471.649 104.564 485.211 121.312 485.211H363.907C380.666 485.211 394.228 471.649 394.228 454.885V363.905H454.881C471.641 363.905 485.203 350.343 485.203 333.584V151.628C485.204 134.895 471.642 121.304 454.882 121.304ZM363.907 454.886H121.312V272.93H363.907V454.886ZM424.551 212.282C407.791 212.282 394.229 198.718 394.229 181.955C394.229 165.224 407.791 151.628 424.551 151.628C441.316 151.628 454.882 165.223 454.882 181.955C454.882 198.717 441.315 212.282 424.551 212.282Z" fill="white"/>
</svg>
