<svg width="100" height="100" viewBox="0 0 100 100" fill="none" xmlns="http://www.w3.org/2000/svg">
<circle cx="50" cy="50" r="47.5" stroke="#006DCE" stroke-width="5"/>
<path d="M54.912 39.6327C54.912 47.9288 42.845 46.986 44.6676 58.0475L51.2668 57.9846C49.9469 50.0656 62.6425 50.3799 62.6425 38.0615C62.6425 32.0279 57.8031 27 49.4441 27C43.7877 27 39.2626 29.7654 37 33.4106L41.2737 38.25C43.2849 35.6103 45.5475 34.2277 49.0042 34.2277C52.398 34.2277 54.912 36.6788 54.912 39.6327ZM43.2849 66.9721C43.2849 69.5489 45.1704 72 48.25 72C51.0154 72 52.9008 69.5489 52.9008 66.9721C52.9008 64.7724 51.0154 62.3212 48.25 62.3212C45.1704 62.3212 43.2849 64.7724 43.2849 66.9721Z" fill="#006DCE"/>
</svg>
