<svg width="384" height="368" viewBox="0 0 384 368" fill="none" xmlns="http://www.w3.org/2000/svg">
<path d="M0 96V336C0 353.672 14.3281 368 32 368H368C376.836 368 384 360.836 384 352V96H0Z" fill="#5AAAE7"/>
<path d="M384 352C383.973 360.824 376.824 367.973 368 368H32C14.3281 368 0 353.672 0 336V96H16V320C16 337.672 30.3281 352 48 352H384Z" fill="#3D9AE2"/>
<path d="M352 32H32C14.3281 32 0 46.3281 0 64V96H384V64C384 46.3281 369.672 32 352 32Z" fill="#FF5023"/>
<path d="M48 32C30.3281 32 16 46.3281 16 64V96H0V64C0 46.3281 14.3281 32 32 32H48Z" fill="#D95339"/>
<path d="M56 256H88C92.418 256 96 259.582 96 264V296C96 300.418 92.418 304 88 304H56C51.582 304 48 300.418 48 296V264C48 259.582 51.582 256 56 256Z" fill="#E6E7E8"/>
<path d="M96 288V296C96 300.418 92.418 304 88 304H56C51.582 304 48 300.418 48 296V264C48 259.582 51.582 256 56 256H64V280C64 284.418 67.582 288 72 288H96Z" fill="#D1D3D4"/>
<path d="M136 256H168C172.418 256 176 259.582 176 264V296C176 300.418 172.418 304 168 304H136C131.582 304 128 300.418 128 296V264C128 259.582 131.582 256 136 256Z" fill="#E6E7E8"/>
<path d="M176 288V296C176 300.418 172.418 304 168 304H136C131.582 304 128 300.418 128 296V264C128 259.582 131.582 256 136 256H144V280C144 284.418 147.582 288 152 288H176Z" fill="#D1D3D4"/>
<path d="M216 160H248C252.418 160 256 163.582 256 168V200C256 204.418 252.418 208 248 208H216C211.582 208 208 204.418 208 200V168C208 163.582 211.582 160 216 160Z" fill="#E6E7E8"/>
<path d="M256 192V200C256 204.418 252.418 208 248 208H216C211.582 208 208 204.418 208 200V168C208 163.582 211.582 160 216 160H224V184C224 188.418 227.582 192 232 192H256Z" fill="#D1D3D4"/>
<path d="M216 256H248C252.418 256 256 259.582 256 264V296C256 300.418 252.418 304 248 304H216C211.582 304 208 300.418 208 296V264C208 259.582 211.582 256 216 256Z" fill="#E6E7E8"/>
<path d="M256 288V296C256 300.418 252.418 304 248 304H216C211.582 304 208 300.418 208 296V264C208 259.582 211.582 256 216 256H224V280C224 284.418 227.582 288 232 288H256Z" fill="#D1D3D4"/>
<path d="M296 256H328C332.418 256 336 259.582 336 264V296C336 300.418 332.418 304 328 304H296C291.582 304 288 300.418 288 296V264C288 259.582 291.582 256 296 256Z" fill="#E6E7E8"/>
<path d="M336 288V296C336 300.418 332.418 304 328 304H296C291.582 304 288 300.418 288 296V264C288 259.582 291.582 256 296 256H304V280C304 284.418 307.582 288 312 288H336Z" fill="#D1D3D4"/>
<path d="M296 160H328C332.418 160 336 163.582 336 168V200C336 204.418 332.418 208 328 208H296C291.582 208 288 204.418 288 200V168C288 163.582 291.582 160 296 160Z" fill="#E6E7E8"/>
<path d="M336 192V200C336 204.418 332.418 208 328 208H296C291.582 208 288 204.418 288 200V168C288 163.582 291.582 160 296 160H304V184C304 188.418 307.582 192 312 192H336Z" fill="#D1D3D4"/>
<path d="M136 160H168C172.418 160 176 163.582 176 168V200C176 204.418 172.418 208 168 208H136C131.582 208 128 204.418 128 200V168C128 163.582 131.582 160 136 160Z" fill="#E6E7E8"/>
<path d="M176 192V200C176 204.418 172.418 208 168 208H136C131.582 208 128 204.418 128 200V168C128 163.582 131.582 160 136 160H144V184C144 188.418 147.582 192 152 192H176Z" fill="#D1D3D4"/>
<path d="M56 160H88C92.418 160 96 163.582 96 168V200C96 204.418 92.418 208 88 208H56C51.582 208 48 204.418 48 200V168C48 163.582 51.582 160 56 160Z" fill="#FF5023"/>
<path d="M96 192V200C96 204.418 92.418 208 88 208H56C51.582 208 48 204.418 48 200V168C48 163.582 51.582 160 56 160H64V184C64 188.418 67.582 192 72 192H96Z" fill="#D95339"/>
<path d="M288 32V48C288 56.8359 280.836 64 272 64C263.164 64 256 56.8359 256 48V32H288Z" fill="#FF9811"/>
<path d="M288 16V32H256V16C256.027 7.17578 263.176 0.0273438 272 0C280.809 0.0664062 287.934 7.19141 288 16Z" fill="#FF9811"/>
<path d="M128 32V48C128 56.8359 120.836 64 112 64C103.164 64 96 56.8359 96 48V32H128Z" fill="#FF9811"/>
<path d="M128 16V32H96V16C96.0273 7.17578 103.176 0.0273438 112 0C120.809 0.0664062 127.934 7.19141 128 16Z" fill="#FF9811"/>
</svg>
