<svg width="464" height="464" viewBox="0 0 464 464" fill="none" xmlns="http://www.w3.org/2000/svg">
<g clip-path="url(#clip0)">
<path d="M432.006 263.941C432.053 352.484 373.863 430.513 288.987 455.723C204.108 480.936 112.761 447.322 64.4631 373.112C16.1653 298.902 22.4256 201.768 79.8464 134.369C86.7355 126.198 94.308 118.626 102.482 111.737C134.405 84.4304 174.173 67.9653 216.054 64.7043C221.334 64.224 226.693 63.9857 232.051 63.9857C237.409 63.9857 242.771 64.224 248.047 64.7043C289.929 67.9653 329.697 84.4304 361.623 111.737C369.794 118.626 377.366 126.198 384.259 134.369C415.162 170.458 432.104 216.428 432.006 263.941V263.941Z" fill="#FF5023"/>
<path d="M381.217 397.111C308.018 477.608 183.894 484.802 101.884 413.306C19.8715 341.807 10.0807 217.858 79.8464 134.368C85.7045 127.378 92.0937 120.856 98.9632 114.853C97.8424 115.974 96.8817 117.173 95.8428 118.372C27.9752 198.444 33.5716 317.363 108.66 390.706C183.749 464.049 302.766 466.845 381.217 397.111Z" fill="#D95339"/>
<path d="M400.013 263.941C400.013 356.706 324.815 431.904 232.051 431.904C139.29 431.904 64.0882 356.706 64.0882 263.941C64.0882 171.177 139.29 95.9786 232.051 95.9786C324.815 95.9786 400.013 171.177 400.013 263.941Z" fill="#FFD422"/>
<path d="M358.503 374.397C317.274 421.652 253.144 441.991 192.212 427.135C131.284 412.283 83.7088 364.708 68.8567 303.78C54.0006 242.848 74.3398 178.722 121.595 137.489C63.3931 204.009 66.7321 304.264 129.23 366.762C191.732 429.264 291.983 432.599 358.503 374.397Z" fill="#EBBF00"/>
<path d="M401.693 116.935L384.259 134.369C377.366 126.198 369.793 118.626 361.623 111.737L379.057 94.2993L401.693 116.935Z" fill="#3D9AE2"/>
<path d="M272.042 7.99822V23.9947C272.042 28.4116 268.461 31.9929 264.044 31.9929H200.058C195.641 31.9929 192.06 28.4116 192.06 23.9947V7.99822C192.06 3.58123 195.641 0 200.058 0H264.044C268.461 0 272.042 3.58123 272.042 7.99822Z" fill="#3D9AE2"/>
<path d="M85.0445 94.2993L102.482 111.737C94.308 118.626 86.7355 126.198 79.8464 134.369L62.4089 116.935L85.0445 94.2993Z" fill="#3D9AE2"/>
<path d="M248.047 31.9929V64.7043C242.771 64.224 237.409 63.9857 232.051 63.9857C226.693 63.9857 221.334 64.224 216.054 64.7043V31.9929H248.047Z" fill="#C6C5CA"/>
<path d="M243.329 275.22C240.365 278.258 236.296 279.961 232.051 279.938C223.217 279.938 216.054 272.775 216.054 263.941C216.054 255.107 223.217 247.945 232.051 247.945C240.885 247.945 248.047 255.107 248.047 263.941C248.071 268.186 246.368 272.256 243.329 275.22Z" fill="#FF9811"/>
<path d="M216.054 31.9929H248.047V47.9893H216.054V31.9929Z" fill="#ACABB1"/>
<path d="M237.674 280.875L248.984 269.565L301.688 322.272L290.378 333.582L237.674 280.875Z" fill="#EE8700"/>
<path d="M349.368 315.129L334.708 308.732C347.673 278.973 347.103 245.059 333.141 215.757C319.18 186.455 293.201 164.643 261.927 155.965L266.18 140.543C321.585 155.989 359.94 206.423 360.022 263.941C360.061 281.558 356.433 298.992 349.368 315.129V315.129Z" fill="#F1F2F2"/>
<path d="M246.993 152.95C242.041 152.294 237.05 151.966 232.051 151.966V135.97C237.753 135.97 243.451 136.345 249.106 137.098L246.993 152.95Z" fill="#F1F2F2"/>
<path d="M232.051 287.936C218.8 287.936 208.056 277.192 208.056 263.941C208.056 250.69 218.8 239.947 232.051 239.947C245.302 239.947 256.045 250.69 256.045 263.941C256.045 277.192 245.302 287.936 232.051 287.936ZM232.051 255.943C227.634 255.943 224.053 259.524 224.053 263.941C224.053 268.358 227.634 271.939 232.051 271.939C236.468 271.939 240.049 268.358 240.049 263.941C240.049 259.524 236.468 255.943 232.051 255.943Z" fill="#CC7400"/>
</g>
<defs>
<clipPath id="clip0">
<rect width="464" height="464" fill="white"/>
</clipPath>
</defs>
</svg>
