<svg width="336" height="416" viewBox="0 0 336 416" fill="none" xmlns="http://www.w3.org/2000/svg">
<path d="M31.9976 0H303.978C321.652 0 335.975 14.3232 335.975 31.9976V383.972C335.975 401.642 321.652 415.969 303.978 415.969H31.9976C14.3271 415.969 0 401.642 0 383.972V31.9976C0 14.3232 14.3271 0 31.9976 0V0Z" fill="#3D9AE2"/>
<path d="M333.097 397.088C327.929 408.544 316.547 415.923 303.978 415.969H31.9976C14.3505 415.915 0.0546835 401.619 0 383.972V31.9977C0.0468715 19.4283 7.42523 8.04631 18.8814 2.87872C16.9792 6.9917 15.9949 11.4679 15.9988 15.9989V383.972C16.0262 392.795 23.1741 399.943 31.9976 399.971H319.976C324.507 399.975 328.984 398.99 333.097 397.088V397.088Z" fill="#3D9AE2"/>
<path d="M295.978 31.9977H39.997C35.5793 31.9977 31.9976 35.5794 31.9976 39.9971V375.972C31.9976 380.39 35.5793 383.972 39.997 383.972H295.978C300.396 383.972 303.978 380.39 303.978 375.972V39.9971C303.978 35.5794 300.396 31.9977 295.978 31.9977V31.9977Z" fill="#E6E7E8"/>
<path d="M303.978 367.973V375.972C303.978 380.39 300.396 383.972 295.978 383.972H39.997C35.5793 383.972 31.9976 380.39 31.9976 375.972V39.9971C31.9976 35.5794 35.5793 31.9977 39.997 31.9977H47.9964V359.974C47.9964 364.391 51.5781 367.973 55.9958 367.973H303.978Z" fill="#D1D3D4"/>
<path d="M79.994 215.984H143.989V279.979H79.994V215.984Z" fill="#5AAAE7"/>
<path d="M143.989 263.981V279.979H79.994V215.984H95.9928V247.982C95.9928 256.817 103.156 263.981 111.992 263.981H143.989Z" fill="#3D9AE2"/>
<path d="M79.994 167.988V103.992H143.989V167.988H79.994Z" fill="#5AAAE7"/>
<path d="M143.989 151.989V167.988H79.994V103.992H95.9928V135.99C95.9928 144.825 103.156 151.989 111.992 151.989H143.989Z" fill="#3D9AE2"/>
<path d="M119.991 151.989C117.87 151.989 115.835 151.145 114.335 149.645L90.337 125.647L101.649 114.335L119.991 132.678L154.332 98.3365L165.644 109.648L125.647 149.645C124.147 151.145 122.112 151.989 119.991 151.989Z" fill="#0FCE22"/>
<path d="M119.991 263.621C117.87 263.621 115.835 262.777 114.335 261.277L90.337 237.279L101.649 225.967L119.991 244.31L154.332 209.968L165.644 221.28L125.647 261.277C124.147 262.777 122.112 263.621 119.991 263.621Z" fill="#0FCE22"/>
<line x1="161.97" y1="127.468" x2="285.97" y2="127.468" stroke="#3D9AE2" stroke-width="7"/>
<line x1="161.97" y1="237.468" x2="285.97" y2="237.468" stroke="#3D9AE2" stroke-width="7"/>
<line x1="161.97" y1="143.468" x2="285.97" y2="143.468" stroke="#3D9AE2" stroke-width="7"/>
<line x1="161.97" y1="159.468" x2="261.97" y2="159.468" stroke="#3D9AE2" stroke-width="7"/>
<line x1="161.97" y1="253.468" x2="285.97" y2="253.468" stroke="#3D9AE2" stroke-width="7"/>
<line x1="161.97" y1="269.468" x2="261.97" y2="269.468" stroke="#3D9AE2" stroke-width="7"/>
</svg>
