<svg width="486" height="486" viewBox="0 0 486 486" fill="none" xmlns="http://www.w3.org/2000/svg">
<path d="M471.882 407.567L360.567 296.243C343.981 322.038 322.031 343.977 296.236 360.564L407.56 471.888C425.332 489.656 454.147 489.656 471.881 471.888C489.654 454.149 489.654 425.334 471.882 407.567Z" fill="white"/>
<path d="M363.909 181.955C363.909 81.473 282.44 0 181.956 0C81.474 0 0.000976562 81.473 0.000976562 181.955C0.000976562 282.437 81.474 363.906 181.956 363.906C282.44 363.906 363.909 282.437 363.909 181.955ZM181.956 318.416C106.704 318.416 45.491 257.208 45.491 181.956C45.491 106.704 106.704 45.491 181.956 45.491C257.206 45.491 318.424 106.704 318.424 181.956C318.424 257.208 257.206 318.416 181.956 318.416Z" fill="white"/>
<path d="M75.817 181.955H106.139C106.139 140.152 140.153 106.141 181.955 106.141V75.816C123.438 75.816 75.817 123.437 75.817 181.955Z" fill="white"/>
</svg>
