<svg width="512" height="512" viewBox="0 0 512 512" fill="none" xmlns="http://www.w3.org/2000/svg">
<path d="M284.438 237.762L249.234 229.949C235.844 226.898 220.43 222.867 220.43 210.242C220.43 197.59 231.242 188.75 250.762 188.75C290.102 188.75 286.508 215.785 306.039 215.785C316.316 215.785 325.312 209.742 325.312 199.352C325.312 175.105 286.508 156.91 253.59 156.91C217.855 156.91 179.801 172.086 179.801 212.504C179.801 231.969 186.754 252.676 225.059 262.281L272.621 274.156C287.016 277.703 290.617 285.801 290.617 293.105C290.617 305.254 278.551 317.121 256.691 317.121C213.992 317.121 219.918 284.262 197.035 284.262C186.754 284.262 179.293 291.344 179.293 301.449C179.293 321.152 203.215 347.445 256.691 347.445C307.57 347.445 332.781 322.922 332.781 290.078C332.781 268.871 323.004 246.355 284.438 237.762V237.762Z" fill="#006DCE"/>
<path d="M256 0C114.637 0 0 114.637 0 256C0 397.363 114.637 512 256 512C397.363 512 512 397.363 512 256C512 114.637 397.363 0 256 0ZM389.285 388.906C372.453 405.746 350.086 415 326.289 415C310.875 415 295.781 410.992 282.449 403.449C273.797 404.984 264.934 405.793 256.09 405.793C235.77 405.793 216.051 401.809 197.5 393.945C179.562 386.383 163.473 375.52 149.641 361.695C135.824 347.875 124.973 331.785 117.398 313.855C109.539 295.293 105.562 275.586 105.562 255.262C105.562 246.559 106.344 237.844 107.828 229.316C100.512 216.156 96.6172 201.266 96.6172 186.113C96.6172 162.312 105.891 139.934 122.715 123.105C139.547 106.27 161.926 97 185.727 97C200.305 97 214.711 100.637 227.516 107.445C227.539 107.441 227.566 107.441 227.586 107.434C236.922 105.645 246.512 104.742 256.09 104.742C276.406 104.742 296.121 108.723 314.672 116.57C332.59 124.152 348.699 135.004 362.512 148.824C376.344 162.648 387.191 178.746 394.773 196.672C402.633 215.23 406.609 234.941 406.609 255.262C406.609 264.422 405.746 273.59 404.102 282.547C411.469 295.758 415.387 310.699 415.387 325.902C415.383 349.703 406.121 372.086 389.285 388.906V388.906Z" fill="#006DCE"/>
</svg>
