<svg width="100" height="100" viewBox="0 0 100 100" fill="none" xmlns="http://www.w3.org/2000/svg">
<path d="M2.74398 84.0096C-0.914497 87.6681 -0.914497 93.5928 2.74398 97.2513C4.57322 99.0805 6.97051 99.992 9.36801 99.992C11.7655 99.992 14.1628 99.0805 15.992 97.2513L46.7395 66.4974L33.4915 53.2619L2.74398 84.0096Z" fill="white"/>
<path d="M79.5911 27.0221L92.9827 20.0982L99.9936 6.54433L93.4571 0.00778198L79.9094 7.0251L72.9732 20.4042L56.6848 36.7113L63.2902 43.3291L79.5911 27.0221Z" fill="white"/>
<path d="M82.5252 62.5644L81.264 62.4395C78.979 62.4395 76.8126 62.9077 74.7899 63.6569L36.3506 25.2115C37.0998 23.1888 37.5681 21.0224 37.5681 18.7374L37.4432 17.4762C36.7815 7.73055 28.7527 0.00778198 18.8387 0.00778198C15.9542 0.00778198 13.2509 0.713231 10.8099 1.88076L23.2525 14.3234C23.908 14.9789 24.3576 15.753 24.6572 16.5709C25.475 18.7809 25.0318 21.3657 23.2525 23.1512C22.0351 24.3687 20.4369 24.9805 18.8387 24.9805C18.102 24.9805 17.3715 24.8182 16.6722 24.556C15.8544 24.2438 15.0802 23.8068 14.4246 23.1451L1.98224 10.7086C0.814702 13.1497 0.109253 15.853 0.109253 18.7374C0.109253 28.6515 7.83202 36.6802 17.5777 37.3419L18.8389 37.4668C21.1238 37.4668 23.2903 36.9986 25.313 36.2557L63.7459 74.695C63.0092 76.7177 62.541 78.8842 62.541 81.1691L62.672 82.4303C63.3214 92.1821 71.3563 99.8987 81.2704 99.8987C84.1548 99.8987 86.8643 99.2058 89.2991 98.0258L76.8565 85.5832C76.2072 84.9338 75.7514 84.1536 75.4393 83.3419C74.6215 81.132 75.0647 78.541 76.8565 76.7555C78.0615 75.5381 79.6722 74.9263 81.2704 74.9263C82.007 74.9263 82.7312 75.0823 83.443 75.3508C84.2608 75.6568 85.0412 76.0938 85.6842 76.7555L98.1268 89.1981C99.3005 86.7507 99.9998 84.0538 99.9998 81.1693C99.9936 71.2548 92.2709 63.2261 82.5252 62.5644Z" fill="white"/>
</svg>
