<svg width="17" height="18" viewBox="0 0 17 18" fill="none" xmlns="http://www.w3.org/2000/svg">
<path d="M8.661 0.00101096C8.667 0.00101096 8.671 0.00101096 8.671 0.00101096C8.678 0.00101096 8.678 0.00101096 8.682 0.00101096C8.684 0.00101096 8.689 0.00101096 8.691 0.00101096C8.691 0.00101096 8.691 0.00101096 8.695 0.00101096C8.714 -0.000989041 8.722 0.00101096 8.734 0.00101096C10.947 0.00101096 13.101 0.877011 14.689 2.42101L16.447 0.645011C16.528 0.561011 16.656 0.535011 16.761 0.580011C16.87 0.624011 16.947 0.732011 16.947 0.851011L16.653 6.91701H10.954C10.951 6.91701 10.943 6.91701 10.938 6.91701C10.78 6.91701 10.647 6.78601 10.647 6.62101C10.647 6.51501 10.706 6.42001 10.793 6.36901L12.523 4.61801C11.497 3.63001 10.163 3.08901 8.691 3.08901C5.698 3.10601 3.258 5.55901 3.258 8.59901C3.281 11.577 5.715 13.999 8.739 14.021C10.711 13.915 12.569 12.743 13.458 10.8L16.261 12.093L16.242 12.132C14.322 15.845 11.296 17.409 8.05 17.076C3.675 16.728 0.201997 13.063 0.171997 8.55601C0.170997 3.87601 3.976 0.042011 8.661 0.00101096Z" fill="#006ddc"/>
</svg>
