<svg width="100" height="100" viewBox="0 0 100 100" fill="none" xmlns="http://www.w3.org/2000/svg">
<g clip-path="url(#clip0)">
<path d="M68.8396 42.9688C68.8396 40.8113 67.0908 39.0625 64.9334 39.0625H24.699C22.5416 39.0625 20.7928 40.8113 20.7928 42.9688C20.7928 45.1262 22.5416 46.875 24.699 46.875H64.9334C67.0908 46.875 68.8396 45.1262 68.8396 42.9688Z" fill="#CE3000"/>
<path d="M24.699 54.6875C22.5416 54.6875 20.7928 56.4363 20.7928 58.5938C20.7928 60.7512 22.5416 62.5 24.699 62.5H49.1348C51.2922 62.5 53.041 60.7512 53.041 58.5938C53.041 56.4363 51.2922 54.6875 49.1348 54.6875H24.699Z" fill="#CE3000"/>
<path d="M33.8787 92.1875H20.8145C16.5066 92.1875 13.002 88.6828 13.002 84.375V15.625C13.002 11.3172 16.5066 7.8125 20.8145 7.8125H68.8397C73.1475 7.8125 76.6522 11.3172 76.6522 15.625V39.6484C76.6522 41.8059 78.401 43.5547 80.5584 43.5547C82.7158 43.5547 84.4647 41.8059 84.4647 39.6484V15.625C84.4647 7.00937 77.4553 0 68.8397 0H20.8145C12.1988 0 5.18945 7.00937 5.18945 15.625V84.375C5.18945 92.9906 12.1988 100 20.8145 100H33.8787C36.0361 100 37.785 98.2512 37.785 96.0938C37.785 93.9363 36.0361 92.1875 33.8787 92.1875Z" fill="#CE3000"/>
<path d="M64.9334 23.4375H24.699C22.5416 23.4375 20.7928 25.1863 20.7928 27.3438C20.7928 29.5012 22.5416 31.25 24.699 31.25H64.9334C67.0908 31.25 68.8396 29.5012 68.8396 27.3438C68.8396 25.1863 67.0908 23.4375 64.9334 23.4375Z" fill="#CE3000"/>
<path fill-rule="evenodd" clip-rule="evenodd" d="M89.9095 64.7473C91.4716 66.3094 91.4716 68.8421 89.9095 70.4042L62.4853 97.8284C60.9232 99.3905 58.3905 99.3905 56.8284 97.8284C55.2663 96.2663 55.2663 93.7337 56.8284 92.1716L84.2526 64.7473C85.8147 63.1853 88.3474 63.1853 89.9095 64.7473Z" fill="#CE3000"/>
<path fill-rule="evenodd" clip-rule="evenodd" d="M56.3405 64.7473C54.7784 66.3094 54.7784 68.8421 56.3405 70.4042L83.7647 97.8284C85.3268 99.3905 87.8595 99.3905 89.4216 97.8284C90.9837 96.2663 90.9837 93.7337 89.4216 92.1716L61.9973 64.7473C60.4352 63.1853 57.9026 63.1853 56.3405 64.7473Z" fill="#CE3000"/>
</g>
<defs>
<clipPath id="clip0">
<rect width="100" height="100" fill="white"/>
</clipPath>
</defs>
</svg>
