<svg xmlns="http://www.w3.org/2000/svg" width="1715" height="1468" viewBox="0 0 208 178" shape-rendering="geometricPrecision" text-rendering="geometricPrecision" image-rendering="optimizeQuality" fill-rule="evenodd" clip-rule="evenodd"><defs><style>.fil0{fill:#008dd2}.fil1{fill:#e53a24}</style></defs><g id="Слой_x0020_1"><g id="_817089248"><path class="fil0" d="M62 130h84c8 0-7-34-7-34-1-2-3-4-5-5l-13-6-6-5-10 10 4 30-5 6-5-6 4-30-10-10-6 5-13 6c-2 1-4 2-5 5 0 0-15 34-7 34z"/><path class="fil1" d="M104 83c10 0 24-13 24-34 0-15-7-24-24-24s-24 9-24 24c0 21 12 34 24 34zm-5-28c13 1 23-16 23-1 0 10-9 24-18 24-10 0-17-12-18-24-2-12 22-9 13 1z"/><path class="fil1" d="M196 2H12C7 2 2 7 2 12v132c0 5 5 9 10 9h184c5 0 10-4 10-9V12c0-5-5-10-10-10zm-4 137H16V16h176v123z" stroke="#fff" stroke-width="4.854" stroke-linecap="round" stroke-linejoin="round"/><path class="fil1" d="M2 168c0 2 3 5 6 5h49v-11H8c-3 0-6 3-6 6zm199-6H77v11h124c2 0 5-3 5-5 0-3-3-6-5-6z"/><path class="fil0" d="M67 157c-3 0-6 3-6 6v9c0 3 3 6 6 6s6-3 6-6v-9c0-3-3-6-6-6z"/></g></g></svg>