<svg width="177" height="200" viewBox="0 0 177 200" fill="none" xmlns="http://www.w3.org/2000/svg">
<path d="M87.3813 127.475C76.0727 127.475 66.9038 136.643 66.9038 147.953C66.9038 159.261 76.0727 168.43 87.3813 168.43C98.6916 168.43 107.859 159.261 107.859 147.953C107.849 136.648 98.6866 127.487 87.3813 127.475ZM87.3813 161.605C79.8422 161.605 73.7296 155.492 73.7296 147.953C73.7296 140.412 79.8422 134.301 87.3813 134.301C94.922 134.301 101.033 140.412 101.033 147.953C101.033 155.492 94.922 161.605 87.3813 161.605Z" fill="url(#paint0_linear)"/>
<path d="M136.869 135.155H123.689C123.347 134.223 122.972 133.308 122.559 132.423L131.876 123.103C133.21 121.771 133.21 119.61 131.876 118.277L119.621 106.025C118.288 104.693 116.128 104.693 114.795 106.025L105.471 115.335C104.576 114.924 103.666 114.549 102.74 114.209V101.025C102.74 99.1407 101.212 97.6125 99.327 97.6125H78.8495C76.9648 97.6125 75.4366 99.1407 75.4366 101.025V114.209C74.5051 114.549 73.5935 114.924 72.7069 115.335L63.3931 106.018C62.0599 104.685 59.9002 104.685 58.567 106.018L46.3118 118.27C44.9787 119.603 44.9787 121.763 46.3118 123.096L55.629 132.417C55.2157 133.308 54.8408 134.223 54.4992 135.148H41.3074C39.4227 135.148 37.8945 136.676 37.8945 138.561V159.038C37.8945 160.923 39.4227 162.451 41.3074 162.451H54.4892C54.8308 163.383 55.2057 164.298 55.619 165.181L46.3018 174.501C44.9687 175.835 44.9687 177.994 46.3018 179.328L58.557 191.579C59.8902 192.913 62.0499 192.913 63.3831 191.579L72.6969 182.262C73.5902 182.674 74.5017 183.05 75.4266 183.389V196.587C75.4266 198.472 76.9548 200 78.8395 200H99.317C101.202 200 102.73 198.472 102.73 196.587V183.402C103.663 183.064 104.573 182.689 105.461 182.277L114.775 191.594C116.107 192.926 118.268 192.926 119.601 191.594L131.856 179.341C133.188 178.008 133.188 175.848 131.856 174.515L122.559 165.188C122.972 164.298 123.347 163.383 123.689 162.458H136.869C138.754 162.458 140.282 160.93 140.282 159.045V138.568C140.282 136.683 138.754 135.155 136.869 135.155V135.155ZM133.456 155.632H121.204C119.678 155.632 118.338 156.645 117.921 158.113C117.326 160.228 116.485 162.268 115.417 164.188C114.662 165.524 114.892 167.201 115.98 168.284L124.637 176.941L117.208 184.369L108.543 175.696C107.459 174.61 105.783 174.378 104.446 175.133C102.527 176.201 100.489 177.041 98.3721 177.634C96.9123 178.061 95.9108 179.401 95.9141 180.921V193.174H82.2624V180.921C82.2641 179.393 81.2492 178.051 79.7777 177.634C77.663 177.041 75.6232 176.201 73.7035 175.133C72.367 174.378 70.6905 174.61 69.6073 175.696L60.9534 184.355L53.5393 176.928L62.1982 168.259C63.2864 167.176 63.5164 165.501 62.7615 164.164C61.6916 162.243 60.8517 160.205 60.2568 158.088C59.8318 156.63 58.492 155.629 56.9739 155.632H44.7204V141.98H56.9739C58.4987 141.98 59.8402 140.967 60.2568 139.499C60.8517 137.383 61.6916 135.345 62.7615 133.423C63.5164 132.087 63.2864 130.412 62.1982 129.329L53.5393 120.683L60.97 113.257L69.6356 121.916C70.7188 123.003 72.3936 123.233 73.7301 122.48C75.6516 121.41 77.6897 120.571 79.8061 119.976C81.2659 119.552 82.2674 118.212 82.2624 116.69V104.438H95.9141V116.69C95.9141 118.218 96.929 119.562 98.3988 119.976C100.515 120.571 102.553 121.41 104.475 122.48C105.811 123.233 107.486 123.003 108.569 121.916L117.225 113.257L124.656 120.683L115.98 129.352C114.892 130.435 114.662 132.112 115.417 133.448C116.485 135.368 117.326 137.408 117.921 139.522C118.346 140.981 119.685 141.984 121.204 141.98H133.456V155.632Z" fill="url(#paint1_linear)"/>
<path d="M142.01 49.8369C134.471 49.8369 128.358 55.9478 128.358 63.4886C128.358 71.0277 134.471 77.1402 142.01 77.1402C149.551 77.1402 155.662 71.0277 155.662 63.4886C155.662 55.9478 149.551 49.8369 142.01 49.8369ZM142.01 70.3144C138.241 70.3144 135.184 67.2581 135.184 63.4886C135.184 59.719 138.241 56.6627 142.01 56.6627C145.781 56.6627 148.836 59.719 148.836 63.4886C148.836 67.2581 145.781 70.3144 142.01 70.3144Z" fill="url(#paint2_linear)"/>
<path d="M172.726 53.2498H165.191C165.157 53.1748 165.126 53.0998 165.099 53.0248L170.427 47.6971C171.068 47.0572 171.428 46.1873 171.428 45.2824C171.428 44.3759 171.068 43.5076 170.427 42.8677L162.627 35.072C161.296 33.7405 159.135 33.7405 157.801 35.072L152.472 40.403L152.249 40.308V32.7723C152.249 30.8875 150.721 29.3594 148.836 29.3594H135.184C133.299 29.3594 131.771 30.8875 131.771 32.7723V40.308L131.55 40.403L126.219 35.072C124.887 33.7405 122.726 33.7405 121.393 35.072L113.595 42.8677C112.954 43.5076 112.594 44.3759 112.594 45.2824C112.594 46.1873 112.954 47.0572 113.595 47.6971L118.923 53.0248C118.895 53.0998 118.865 53.1748 118.83 53.2498H111.294C109.409 53.2498 107.881 54.7779 107.881 56.6627V70.3144C107.881 72.1991 109.409 73.7273 111.294 73.7273H118.83C118.865 73.8023 118.895 73.8773 118.923 73.9523L113.595 79.2799C112.954 79.9199 112.594 80.7881 112.594 81.6946C112.594 82.5995 112.954 83.4694 113.595 84.1093L121.393 91.9034C122.726 93.2366 124.887 93.2366 126.219 91.9034L131.55 86.5724L131.771 86.669V94.2048C131.771 96.0895 133.299 97.6177 135.184 97.6177H148.836C150.721 97.6177 152.249 96.0895 152.249 94.2048V86.669L152.472 86.5724L157.801 91.9034C159.135 93.2366 161.296 93.2366 162.627 91.9034L170.427 84.1093C171.068 83.4694 171.428 82.5995 171.428 81.6946C171.428 80.7881 171.068 79.9199 170.427 79.2799L165.099 73.9523C165.126 73.8773 165.157 73.8023 165.191 73.7273H172.726C174.611 73.7273 176.139 72.1991 176.139 70.3144V56.6627C176.139 54.7779 174.611 53.2498 172.726 53.2498ZM169.313 66.9014H162.757C161.231 66.9014 159.891 67.9147 159.475 69.3828C159.121 70.636 158.625 71.8442 157.993 72.9824C157.238 74.3189 157.47 75.9953 158.556 77.0785L163.187 81.7063L160.214 84.6793L155.587 80.0482C154.505 78.96 152.829 78.7267 151.492 79.4816C150.354 80.1148 149.146 80.6131 147.891 80.9664C146.423 81.383 145.41 82.7228 145.41 84.2493V90.7919H138.597V84.236C138.597 82.7095 137.584 81.368 136.116 80.9514C134.863 80.5998 133.654 80.1015 132.516 79.4682C131.178 78.7133 129.503 78.945 128.42 80.0332L123.792 84.6659L120.819 81.693L125.45 77.0652C126.539 75.982 126.769 74.3055 126.014 72.969C125.382 71.8308 124.885 70.6227 124.534 69.3678C124.112 67.9113 122.781 66.9048 121.264 66.9014H114.707V60.0756H121.264C122.789 60.0756 124.131 59.0624 124.547 57.5943C124.899 56.3411 125.397 55.1329 126.029 53.993C126.782 52.6565 126.552 50.9817 125.465 49.8985L120.851 45.2841L123.824 42.3111L128.452 46.9422C129.533 48.0304 131.21 48.2621 132.546 47.5088C133.684 46.8756 134.893 46.3773 136.147 46.024C137.604 45.5957 138.602 44.2592 138.597 42.7411V36.1852H145.423V42.7411C145.423 44.2676 146.436 45.6074 147.904 46.024C149.159 46.3773 150.367 46.8756 151.506 47.5088C152.842 48.2621 154.518 48.0304 155.602 46.9422L160.214 42.3278L163.187 45.3008L158.556 49.9285C157.47 51.0117 157.238 52.6882 157.993 54.0247C158.625 55.1629 159.121 56.3711 159.475 57.6242C159.891 59.0924 161.231 60.1056 162.757 60.1056H169.313V66.9014Z" fill="url(#paint3_linear)"/>
<path d="M54.9194 34.9818C46.7123 32.1786 37.7859 36.5582 34.9821 44.7671C32.1789 52.9742 36.5603 61.9012 44.7674 64.7044C52.9763 67.5082 61.9015 63.1262 64.7047 54.9191C67.5086 46.7102 63.1283 37.7856 54.9194 34.9818ZM47.3054 57.2737C43.2019 55.8721 41.0112 51.4086 42.4128 47.3051C43.8144 43.2015 48.2779 41.0108 52.3814 42.4124C56.4868 43.8146 58.6757 48.2775 57.2741 52.3811C55.8725 56.4846 51.4108 58.676 47.3054 57.2737Z" fill="url(#paint4_linear)"/>
<path d="M87.0881 50.1183L78.8847 47.3164C78.8763 47.2223 78.8697 47.1289 78.8685 47.0374L86.6492 43.2186C87.5856 42.7605 88.3009 41.9474 88.6374 40.9623C88.9745 39.9754 88.9054 38.8964 88.4449 37.9612L82.8534 26.5749C81.899 24.6303 79.5461 23.8267 77.5997 24.7805L69.816 28.6023L69.6082 28.4158L72.4102 20.2124C73.111 18.1606 72.0156 15.9288 69.9638 15.228L55.1025 10.152C53.0507 9.45121 50.819 10.5466 50.1182 12.5983L47.3162 20.8018L47.0396 20.8228L43.2184 13.0372C42.264 11.0927 39.9111 10.289 37.9647 11.2428L26.5778 16.83C25.6414 17.2881 24.9267 18.0994 24.5897 19.0863C24.2532 20.0714 24.3216 21.1522 24.7821 22.0873L28.6009 29.8681C28.5422 29.9392 28.4817 30.0097 28.4157 30.0783L20.2122 27.2763C18.1604 26.5755 15.9287 27.6709 15.2279 29.7226L10.1519 44.5839C9.45106 46.6357 10.5464 48.8675 12.5982 49.5683L20.8017 52.3702C20.8119 52.4649 20.8166 52.5577 20.8196 52.6499L13.0389 56.4687C12.1025 56.9267 11.3878 57.738 11.0508 58.7249C10.7143 59.71 10.7827 60.7908 11.2432 61.726L16.8335 73.1099C17.7891 75.0569 20.142 75.8606 22.0872 74.9044L29.8728 71.0832L30.0781 71.2708L27.2762 79.4743C26.5754 81.526 27.6707 83.7578 29.7225 84.4586L44.5838 89.5346C46.6356 90.2354 48.8673 89.1401 49.5681 87.0883L52.3701 78.8848L52.6491 78.8626L56.4685 86.6476C57.4241 88.5946 59.777 89.3982 61.7222 88.442L73.1103 82.8572C74.0467 82.3992 74.762 81.586 75.0985 80.601C75.4355 79.6141 75.3665 78.5351 74.906 77.5999L71.0872 69.8192C71.1441 69.7475 71.2065 69.6776 71.2706 69.6084L79.4741 72.4103C81.5259 73.1111 83.7576 72.0158 84.4584 69.964L89.5345 55.1027C90.2353 53.0509 89.1399 50.8191 87.0881 50.1183ZM78.2968 63.7107L71.16 61.273C69.4983 60.7055 67.663 61.3103 66.6636 62.7536C65.813 63.9865 64.8232 65.117 63.7124 66.1213C62.3937 67.2955 62.0225 69.2066 62.8025 70.7898L66.1233 77.5496L61.7815 79.6806L58.4656 72.9184C57.6928 71.3316 55.9546 70.4543 54.2189 70.7792C52.7444 71.0453 51.2439 71.1385 49.7465 71.0565C47.9934 70.9642 46.3922 72.046 45.8246 73.7077L43.392 80.83L35.9758 78.2969L38.4134 71.1602C38.981 69.4984 38.3768 67.6613 36.9335 66.6619C35.7 65.8132 34.57 64.8215 33.5665 63.7089C32.3904 62.3896 30.4811 62.019 28.8973 62.8009L22.1369 66.1234L20.0059 61.7816L26.7681 58.4657C28.3555 57.6912 29.2291 55.9517 28.9043 54.216C28.6399 52.7422 28.5486 51.2423 28.6324 49.7455C28.715 48.0032 27.6397 46.4124 25.9901 45.8449L18.8515 43.4066L21.3895 35.976L28.5281 38.4142C30.188 38.9812 32.0251 38.377 33.0246 36.9336C33.8733 35.7002 34.865 34.5702 35.9763 33.5642C37.2933 32.3893 37.6656 30.4806 36.8856 28.8974L33.578 22.1584L37.9199 20.0274L41.2357 26.7895C42.0085 28.3763 43.7474 29.2518 45.4824 28.9288C46.9569 28.6626 48.4574 28.5694 49.9548 28.6514C51.6996 28.7267 53.2832 27.643 53.8422 25.9884L56.2798 18.8517L63.7105 21.3897L61.2729 28.5264C60.7053 30.1882 61.3101 32.0235 62.7534 33.0229C63.9881 33.8741 65.1181 34.8657 66.1217 35.9783C67.2965 37.2952 69.2077 37.6664 70.7915 36.8846L77.5287 33.5764L79.6597 37.9182L72.8975 41.2341C71.312 42.0093 70.4365 43.7481 70.7613 45.4838C71.0257 46.9576 71.117 48.4575 71.0357 49.9531C70.9433 51.7063 72.0251 53.3074 73.6869 53.875L80.8236 56.3127L78.2968 63.7107Z" fill="url(#paint5_linear)"/>
<defs>
<linearGradient id="paint0_linear" x1="-9.39128" y1="244.726" x2="194.582" y2="40.7528" gradientUnits="userSpaceOnUse">
<stop stop-color="#003F8A"/>
<stop offset="0.518" stop-color="#00D7DF"/>
<stop offset="1" stop-color="#006DF0"/>
</linearGradient>
<linearGradient id="paint1_linear" x1="-7.68431" y1="245.579" x2="196.289" y2="41.6062" gradientUnits="userSpaceOnUse">
<stop stop-color="#003F8A"/>
<stop offset="0.518" stop-color="#00D7DF"/>
<stop offset="1" stop-color="#006DF0"/>
</linearGradient>
<linearGradient id="paint2_linear" x1="-16.195" y1="221.694" x2="187.778" y2="17.721" gradientUnits="userSpaceOnUse">
<stop stop-color="#003F8A"/>
<stop offset="0.518" stop-color="#00D7DF"/>
<stop offset="1" stop-color="#006DF0"/>
</linearGradient>
<linearGradient id="paint3_linear" x1="-16.1951" y1="221.694" x2="187.778" y2="17.721" gradientUnits="userSpaceOnUse">
<stop stop-color="#003F8A"/>
<stop offset="0.518" stop-color="#00D7DF"/>
<stop offset="1" stop-color="#006DF0"/>
</linearGradient>
<linearGradient id="paint4_linear" x1="-181.204" y1="163.242" x2="116.684" y2="17.0377" gradientUnits="userSpaceOnUse">
<stop stop-color="#003F8A"/>
<stop offset="0.518" stop-color="#00D7DF"/>
<stop offset="1" stop-color="#006DF0"/>
</linearGradient>
<linearGradient id="paint5_linear" x1="203.85" y1="265.691" x2="-20.9484" y2="41.8982" gradientUnits="userSpaceOnUse">
<stop stop-color="#003F8A"/>
<stop offset="0.7312" stop-color="#00D7DF"/>
<stop offset="1" stop-color="#006DF0"/>
</linearGradient>
</defs>
</svg>
