<svg width="200" height="200" viewBox="0 0 200 200" fill="none" xmlns="http://www.w3.org/2000/svg">
<path d="M61.7806 149.922L63.0948 148.608C63.8835 147.819 65.1625 147.819 65.9511 148.608L68.4106 151.067C69.1992 151.856 70.4782 151.856 71.2669 151.067L72.5811 149.753C73.3698 148.965 73.3698 147.686 72.5811 146.897L70.1217 144.437C69.333 143.649 69.333 142.37 70.1217 141.581L71.4359 140.267C72.2246 139.478 73.5036 139.478 74.2922 140.267L76.7517 142.726C77.5403 143.515 78.8193 143.515 79.608 142.726L80.9222 141.412C81.7109 140.623 81.7109 139.344 80.9222 138.556L68.2219 125.855L47.3691 146.708L60.0695 159.409C60.8581 160.197 62.1371 160.197 62.9258 159.409L64.24 158.094C65.0287 157.306 65.0287 156.027 64.24 155.238L61.7806 152.779C60.9919 151.99 60.9919 150.711 61.7806 149.922Z" fill="#EF5231"/>
<path d="M114.794 85.6923L50.5727 149.914L45.5915 144.933C44.8028 144.144 44.8028 142.865 45.5915 142.077L108.385 79.2833L114.794 85.6923Z" fill="#FE9700"/>
<path d="M107.219 80.4487L102.167 85.5001C103.114 86.6636 104.128 87.7868 105.208 88.8668C106.288 89.947 107.413 90.9631 108.577 91.9093L113.628 86.858L107.219 80.4487Z" fill="#EF5231"/>
<path d="M143.322 50.7553C131.202 38.6347 113.758 36.4277 104.36 45.8253C94.9622 55.2231 97.1695 72.667 109.29 84.7875C121.41 96.908 138.854 99.1151 148.252 89.7173C157.65 80.3197 155.443 62.8758 143.322 50.7553ZM113.922 80.1555C105.101 71.3343 103.494 58.6388 110.334 51.7995C117.174 44.9599 129.869 46.5663 138.69 55.3873C147.511 64.2082 149.117 76.9039 142.278 83.7435C135.438 90.5831 122.743 88.9767 113.922 80.1555Z" fill="#FEC007"/>
<circle cx="100" cy="100" r="98.5" stroke="#EF5231" stroke-width="3" stroke-miterlimit="11.4737" stroke-dasharray="5 5"/>
<circle cx="100" cy="100" r="88.5" stroke="#008DD2" stroke-width="3"/>
</svg>
