<svg width="200" height="200" viewBox="0 0 200 200" fill="none" xmlns="http://www.w3.org/2000/svg">
<path d="M53 49.7786H147.89V101.932H53V49.7786Z" fill="#D8D8D8"/>
<path d="M147.89 53.2797H53V44.8294C53 42.1625 55.1625 40 57.8294 40H143.06C145.727 40 147.89 42.1625 147.89 44.8294V53.2797Z" fill="#EF5231"/>
<path d="M59.5197 49.0545C58.1876 49.0545 57.1045 47.9714 57.1045 46.6393C57.1045 45.3082 58.1876 44.2251 59.5197 44.2251C60.8508 44.2251 61.9339 45.3082 61.9339 46.6393C61.9339 47.9714 60.8508 49.0545 59.5197 49.0545Z" fill="white"/>
<path d="M67.9699 49.0545C66.6387 49.0545 65.5557 47.9714 65.5557 46.6393C65.5557 45.3082 66.6387 44.2251 67.9699 44.2251C69.302 44.2251 70.3851 45.3082 70.3851 46.6393C70.3851 47.9714 69.3011 49.0545 67.9699 49.0545Z" fill="white"/>
<path d="M76.421 49.0545C75.0889 49.0545 74.0059 47.9714 74.0059 46.6393C74.0059 45.3082 75.0889 44.2251 76.421 44.2251C77.7522 44.2251 78.8353 45.3082 78.8353 46.6393C78.8353 47.9714 77.7522 49.0545 76.421 49.0545Z" fill="white"/>
<path d="M147.89 94.0847V155.171C147.89 157.839 145.728 160 143.06 160H57.8294C55.1616 160 53 157.839 53 155.171V94.0847H147.89Z" fill="#EFEFEF"/>
<path d="M110.465 97.7065H90.425C88.4246 97.7065 86.8032 96.0851 86.8032 94.0847C86.8032 92.0843 88.4246 90.4629 90.425 90.4629H110.465C112.465 90.4629 114.087 92.0843 114.087 94.0847C114.087 96.0851 112.465 97.7065 110.465 97.7065V97.7065Z" fill="#EF5231"/>
<path d="M84.0262 68.2495H70.5057C69.5051 68.2495 68.6948 67.4384 68.6948 66.4386C68.6948 65.4379 69.5051 64.6277 70.5057 64.6277H84.0262C85.0269 64.6277 85.8372 65.4388 85.8372 66.4386C85.8372 67.4384 85.0269 68.2495 84.0262 68.2495Z" fill="#919191"/>
<path d="M109.62 68.2495H91.2699C90.2692 68.2495 89.459 67.4384 89.459 66.4386C89.459 65.4379 90.2692 64.6277 91.2699 64.6277H109.62C110.62 64.6277 111.431 65.4388 111.431 66.4386C111.431 67.4384 110.62 68.2495 109.62 68.2495Z" fill="#919191"/>
<path d="M130.384 68.2495H116.864C115.863 68.2495 115.053 67.4384 115.053 66.4386C115.053 65.4379 115.863 64.6277 116.864 64.6277H130.384C131.385 64.6277 132.195 65.4388 132.195 66.4386C132.196 67.4384 131.385 68.2495 130.384 68.2495Z" fill="#919191"/>
<path d="M96.8224 75.4932H79.6801C78.6803 75.4932 77.8691 74.682 77.8691 73.6823C77.8691 72.6825 78.6803 71.8713 79.6801 71.8713H96.8224C97.8231 71.8713 98.6333 72.6825 98.6333 73.6823C98.6333 74.682 97.8231 75.4932 96.8224 75.4932Z" fill="#919191"/>
<path d="M121.21 75.4932H104.066C103.067 75.4932 102.256 74.682 102.256 73.6823C102.256 72.6825 103.067 71.8713 104.066 71.8713H121.21C122.209 71.8713 123.021 72.6825 123.021 73.6823C123.021 74.682 122.209 75.4932 121.21 75.4932Z" fill="#919191"/>
<path d="M113.242 82.7368H88.8558C87.8552 82.7368 87.0449 81.9257 87.0449 80.9259C87.0449 79.9252 87.8552 79.115 88.8558 79.115H113.242C114.242 79.115 115.053 79.9252 115.053 80.9259C115.053 81.9257 114.242 82.7368 113.242 82.7368Z" fill="#919191"/>
<path d="M73.1614 121.006C68.6937 121.006 65.0728 117.385 65.0728 112.917C65.0728 108.45 68.6937 104.829 73.1614 104.829C77.6283 104.829 81.2492 108.45 81.2492 112.917C81.2492 117.385 77.6283 121.006 73.1614 121.006Z" fill="#008DD2"/>
<path d="M79.4383 130.06H66.8837C65.883 130.06 65.0728 129.25 65.0728 128.249C65.0728 127.25 65.883 126.438 66.8837 126.438H79.4383C80.439 126.438 81.2492 127.25 81.2492 128.249C81.2492 129.25 80.439 130.06 79.4383 130.06Z" fill="#AFAFAF"/>
<path d="M100.445 121.006C95.9778 121.006 92.3569 117.385 92.3569 112.917C92.3569 108.45 95.9778 104.829 100.445 104.829C104.912 104.829 108.533 108.45 108.533 112.917C108.533 117.385 104.912 121.006 100.445 121.006Z" fill="#008DD2"/>
<path d="M106.722 130.06H94.1678C93.1672 130.06 92.3569 129.25 92.3569 128.249C92.3569 127.25 93.1672 126.438 94.1678 126.438H106.722C107.723 126.438 108.533 127.25 108.533 128.249C108.533 129.25 107.723 130.06 106.722 130.06Z" fill="#AFAFAF"/>
<path d="M127.728 121.006C123.261 121.006 119.64 117.385 119.64 112.917C119.64 108.45 123.261 104.829 127.728 104.829C132.196 104.829 135.817 108.45 135.817 112.917C135.817 117.385 132.196 121.006 127.728 121.006V121.006Z" fill="#008DD2"/>
<path d="M134.006 130.06H121.451C120.45 130.06 119.64 129.25 119.64 128.249C119.64 127.25 120.45 126.438 121.451 126.438H134.006C135.006 126.438 135.817 127.25 135.817 128.249C135.817 129.25 135.006 130.06 134.006 130.06Z" fill="#AFAFAF"/>
<path d="M94.2872 152.756H66.0377C65.3712 152.756 64.8311 152.216 64.8311 151.549V137.786C64.8311 137.12 65.3712 136.58 66.0377 136.58H94.2872C94.9547 136.58 95.4948 137.12 95.4948 137.786V151.549C95.4948 152.216 94.9547 152.756 94.2872 152.756V152.756Z" fill="#FEC007"/>
<path d="M134.852 152.756H106.602C105.935 152.756 105.395 152.216 105.395 151.549V137.786C105.395 137.12 105.935 136.58 106.602 136.58H134.852C135.518 136.58 136.058 137.12 136.058 137.786V151.549C136.058 152.216 135.518 152.756 134.852 152.756V152.756Z" fill="#FEC007"/>
<circle cx="100" cy="100" r="98.5" stroke="#EF5231" stroke-width="3" stroke-miterlimit="11.4737" stroke-dasharray="5 5"/>
<circle cx="100" cy="100" r="88.5" stroke="#008DD2" stroke-width="3"/>
</svg>
