<svg width="200" height="168" viewBox="0 0 200 168" fill="none" xmlns="http://www.w3.org/2000/svg">
<path d="M38.7096 106.452H19.3547C17.5733 106.452 16.1289 107.896 16.1289 109.677C16.1289 111.459 17.5733 112.903 19.3547 112.903H38.7096C40.491 112.903 41.9354 111.459 41.9354 109.677C41.9354 107.896 40.491 106.452 38.7096 106.452Z" fill="url(#paint0_linear)"/>
<path d="M51.6127 106.452H48.3869C46.6055 106.452 45.1611 107.896 45.1611 109.677C45.1611 111.459 46.6055 112.903 48.3869 112.903H51.6127C53.3942 112.903 54.8386 111.459 54.8386 109.677C54.8386 107.896 53.3942 106.452 51.6127 106.452Z" fill="url(#paint1_linear)"/>
<path d="M22.5808 90.3227H74.1937C75.9751 90.3227 77.4195 88.8783 77.4195 87.0969V16.1291C77.4195 14.3477 75.9751 12.9033 74.1937 12.9033H22.5808C20.7993 12.9033 19.355 14.3477 19.355 16.1291V87.0969C19.355 88.8783 20.7993 90.3227 22.5808 90.3227ZM25.8066 19.3549H70.9679V83.8711H25.8066V19.3549Z" fill="url(#paint2_linear)"/>
<path d="M104.839 54.8388C116.419 54.8388 125.807 45.4512 125.807 33.8711C125.807 22.2909 116.419 12.9033 104.839 12.9033C93.2587 12.9033 83.8711 22.2909 83.8711 33.8711C83.8853 45.4449 93.265 54.8246 104.839 54.8388ZM104.839 19.3549C112.856 19.3549 119.355 25.8538 119.355 33.8711C119.355 41.8883 112.856 48.3872 104.839 48.3872C96.8216 48.3872 90.3227 41.8883 90.3227 33.8711C90.3322 25.8569 96.8247 19.3644 104.839 19.3549Z" fill="url(#paint3_linear)"/>
<path d="M156.452 54.8388C168.032 54.8388 177.419 45.4512 177.419 33.8711C177.419 22.2909 168.032 12.9033 156.452 12.9033C144.871 12.9033 135.484 22.2909 135.484 33.8711C135.498 45.4449 144.878 54.8246 156.452 54.8388ZM156.452 19.3549C164.469 19.3549 170.968 25.8538 170.968 33.8711C170.968 41.8883 164.469 48.3872 156.452 48.3872C148.434 48.3872 141.935 41.8883 141.935 33.8711C141.945 25.8569 148.438 19.3644 156.452 19.3549Z" fill="url(#paint4_linear)"/>
<path d="M87.0969 67.7419H174.194C175.975 67.7419 177.419 66.2975 177.419 64.5161C177.419 62.7347 175.975 61.2903 174.194 61.2903H87.0969C85.3155 61.2903 83.8711 62.7347 83.8711 64.5161C83.8711 66.2975 85.3155 67.7419 87.0969 67.7419Z" fill="url(#paint5_linear)"/>
<path d="M87.0969 80.6452H141.936C143.717 80.6452 145.161 79.2008 145.161 77.4194C145.161 75.638 143.717 74.1936 141.936 74.1936H87.0969C85.3155 74.1936 83.8711 75.638 83.8711 77.4194C83.8711 79.2008 85.3155 80.6452 87.0969 80.6452Z" fill="url(#paint6_linear)"/>
<path d="M158.065 74.1936H151.613C149.832 74.1936 148.387 75.638 148.387 77.4194C148.387 79.2008 149.832 80.6452 151.613 80.6452H158.065C159.846 80.6452 161.29 79.2008 161.29 77.4194C161.29 75.638 159.846 74.1936 158.065 74.1936Z" fill="url(#paint7_linear)"/>
<path d="M183.871 0H16.129C7.22499 0.0110257 0.0110257 7.22499 0 16.129V106.452C0.0110257 115.356 7.22499 122.57 16.129 122.581H83.2252L77.9486 151.613H61.2903C59.5089 151.613 58.0645 153.057 58.0645 154.839V164.516C58.0645 166.298 59.5089 167.742 61.2903 167.742H138.71C140.491 167.742 141.935 166.298 141.935 164.516V154.839C141.935 153.057 140.491 151.613 138.71 151.613H122.045L116.775 122.581H183.871C192.775 122.57 199.989 115.356 200 106.452V16.129C199.989 7.22499 192.775 0.0110257 183.871 0ZM16.129 6.45161H183.871C189.215 6.45161 193.548 10.7847 193.548 16.129V96.7742H6.45161V16.129C6.45161 10.7847 10.7847 6.45161 16.129 6.45161ZM135.484 161.29H64.5161V158.065H135.484V161.29ZM115.483 151.613H84.5168L89.7965 122.581H110.216L115.483 151.613ZM183.871 116.129H16.129C10.7847 116.129 6.45161 111.796 6.45161 106.452V103.226H193.548V106.452C193.548 111.796 189.215 116.129 183.871 116.129Z" fill="url(#paint8_linear)"/>
<defs>
<linearGradient id="paint0_linear" x1="-25.0421" y1="163.752" x2="196.2" y2="-57.4903" gradientUnits="userSpaceOnUse">
<stop stop-color="#003F8A"/>
<stop offset="0.518" stop-color="#00D7DF"/>
<stop offset="1" stop-color="#006DF0"/>
</linearGradient>
<linearGradient id="paint1_linear" x1="-14.5582" y1="174.236" x2="206.684" y2="-47.0064" gradientUnits="userSpaceOnUse">
<stop stop-color="#003F8A"/>
<stop offset="0.518" stop-color="#00D7DF"/>
<stop offset="1" stop-color="#006DF0"/>
</linearGradient>
<linearGradient id="paint2_linear" x1="-44.3966" y1="144.397" x2="176.845" y2="-76.8451" gradientUnits="userSpaceOnUse">
<stop stop-color="#003F8A"/>
<stop offset="0.518" stop-color="#00D7DF"/>
<stop offset="1" stop-color="#006DF0"/>
</linearGradient>
<linearGradient id="paint3_linear" x1="-25.0418" y1="163.752" x2="196.2" y2="-57.4902" gradientUnits="userSpaceOnUse">
<stop stop-color="#003F8A"/>
<stop offset="0.518" stop-color="#00D7DF"/>
<stop offset="1" stop-color="#006DF0"/>
</linearGradient>
<linearGradient id="paint4_linear" x1="0.764544" y1="189.558" x2="222.006" y2="-31.6838" gradientUnits="userSpaceOnUse">
<stop stop-color="#003F8A"/>
<stop offset="0.518" stop-color="#00D7DF"/>
<stop offset="1" stop-color="#006DF0"/>
</linearGradient>
<linearGradient id="paint5_linear" x1="3.18399" y1="191.977" x2="224.426" y2="-29.2645" gradientUnits="userSpaceOnUse">
<stop stop-color="#003F8A"/>
<stop offset="0.518" stop-color="#00D7DF"/>
<stop offset="1" stop-color="#006DF0"/>
</linearGradient>
<linearGradient id="paint6_linear" x1="1.5711" y1="190.365" x2="222.813" y2="-30.8774" gradientUnits="userSpaceOnUse">
<stop stop-color="#003F8A"/>
<stop offset="0.518" stop-color="#00D7DF"/>
<stop offset="1" stop-color="#006DF0"/>
</linearGradient>
<linearGradient id="paint7_linear" x1="21.7324" y1="210.526" x2="242.974" y2="-10.7161" gradientUnits="userSpaceOnUse">
<stop stop-color="#003F8A"/>
<stop offset="0.518" stop-color="#00D7DF"/>
<stop offset="1" stop-color="#006DF0"/>
</linearGradient>
<linearGradient id="paint8_linear" x1="-13.7516" y1="175.042" x2="207.49" y2="-46.2" gradientUnits="userSpaceOnUse">
<stop stop-color="#003F8A"/>
<stop offset="0.518" stop-color="#00D7DF"/>
<stop offset="1" stop-color="#006DF0"/>
</linearGradient>
</defs>
</svg>
