<svg width="200" height="200" viewBox="0 0 200 200" fill="none" xmlns="http://www.w3.org/2000/svg">
<circle cx="100" cy="100" r="98.5" stroke="#EF5231" stroke-width="3" stroke-miterlimit="11.4737" stroke-dasharray="5 5"/>
<circle cx="100" cy="100" r="88.5" stroke="#008DD2" stroke-width="3"/>
<path d="M154 130V60C153.993 54.4795 149.521 50.0068 144 50H56C50.4795 50.0068 46.0068 54.4795 46 60V130H40V140C40.0068 145.521 44.4795 149.993 50 150H150C155.521 149.993 159.993 145.521 160 140V130H154ZM50 60C50 56.6865 52.6865 54 56 54H144C147.313 54 150 56.6865 150 60V130H50V60ZM109.658 134C108.808 136.396 106.542 137.997 104 138H96C93.458 137.997 91.1924 136.396 90.3418 134H109.658ZM156 140C156 143.313 153.313 146 150 146H50C46.6865 146 44 143.313 44 140V134H86.2002C87.1572 138.653 91.25 141.994 96 142H104C108.75 141.994 112.843 138.653 113.8 134H156V140Z" fill="#EF5231"/>
<path d="M134.556 75H131.444C131.199 75 131 74.7761 131 74.5C131 74.2239 131.199 74 131.444 74H134.556C134.801 74 135 74.2239 135 74.5C135 74.7761 134.801 75 134.556 75Z" fill="#CECDCB"/>
<path d="M139.6 75H136.4C136.179 75 136 74.7761 136 74.5C136 74.2239 136.179 74 136.4 74H139.6C139.821 74 140 74.2239 140 74.5C140 74.7761 139.821 75 139.6 75Z" fill="#CECDCB"/>
<path d="M138.111 77H131.889C131.398 77 131 76.7761 131 76.5C131 76.2239 131.398 76 131.889 76H138.111C138.602 76 139 76.2239 139 76.5C139 76.7761 138.602 77 138.111 77Z" fill="#CECDCB"/>
<path d="M134.556 75H131.444C131.199 75 131 74.7761 131 74.5C131 74.2239 131.199 74 131.444 74H134.556C134.801 74 135 74.2239 135 74.5C135 74.7761 134.801 75 134.556 75Z" fill="#CECDCB"/>
<path d="M139.6 75H136.4C136.179 75 136 74.7761 136 74.5C136 74.2239 136.179 74 136.4 74H139.6C139.821 74 140 74.2239 140 74.5C140 74.7761 139.821 75 139.6 75Z" fill="#CECDCB"/>
<path d="M138.111 77H131.889C131.398 77 131 76.7761 131 76.5C131 76.2239 131.398 76 131.889 76H138.111C138.602 76 139 76.2239 139 76.5C139 76.7761 138.602 77 138.111 77Z" fill="#CECDCB"/>
<path d="M134.556 83H131.444C131.199 83 131 82.7761 131 82.5C131 82.2239 131.199 82 131.444 82H134.556C134.801 82 135 82.2239 135 82.5C135 82.7761 134.801 83 134.556 83Z" fill="#CECDCB"/>
<path d="M139.6 83H136.4C136.179 83 136 82.7761 136 82.5C136 82.2239 136.179 82 136.4 82H139.6C139.821 82 140 82.2239 140 82.5C140 82.7761 139.821 83 139.6 83Z" fill="#CECDCB"/>
<path d="M138.111 85H131.889C131.398 85 131 84.7761 131 84.5C131 84.2239 131.398 84 131.889 84H138.111C138.602 84 139 84.2239 139 84.5C139 84.7761 138.602 85 138.111 85Z" fill="#CECDCB"/>
<path d="M134.556 91H131.444C131.199 91 131 90.7761 131 90.5C131 90.2239 131.199 90 131.444 90H134.556C134.801 90 135 90.2239 135 90.5C135 90.7761 134.801 91 134.556 91Z" fill="#CECDCB"/>
<path d="M139.6 91H136.4C136.179 91 136 90.7761 136 90.5C136 90.2239 136.179 90 136.4 90H139.6C139.821 90 140 90.2239 140 90.5C140 90.7761 139.821 91 139.6 91Z" fill="#CECDCB"/>
<path d="M138.111 93H131.889C131.398 93 131 92.7761 131 92.5C131 92.2239 131.398 92 131.889 92H138.111C138.602 92 139 92.2239 139 92.5C139 92.7761 138.602 93 138.111 93Z" fill="#CECDCB"/>
<path d="M62.1111 115H55.8889C55.398 115 55 114.552 55 114C55 113.448 55.398 113 55.8889 113H62.1111C62.602 113 63 113.448 63 114C63 114.552 62.602 115 62.1111 115Z" fill="#CECDCB"/>
<path d="M72.2 115H65.8C65.3582 115 65 114.552 65 114C65 113.448 65.3582 113 65.8 113H72.2C72.6418 113 73 113.448 73 114C73 114.552 72.6418 115 72.2 115Z" fill="#CECDCB"/>
<path d="M65.6667 119H56.3333C55.597 119 55 118.552 55 118C55 117.448 55.597 117 56.3333 117H65.6667C66.403 117 67 117.448 67 118C67 118.552 66.403 119 65.6667 119Z" fill="#CECDCB"/>
<path d="M62.1111 115H55.8889C55.398 115 55 114.552 55 114C55 113.448 55.398 113 55.8889 113H62.1111C62.602 113 63 113.448 63 114C63 114.552 62.602 115 62.1111 115Z" fill="#CECDCB"/>
<path d="M75.8 115H66.2C65.5373 115 65 114.552 65 114C65 113.448 65.5373 113 66.2 113H75.8C76.4627 113 77 113.448 77 114C77 114.552 76.4627 115 75.8 115Z" fill="#CECDCB"/>
<path d="M105.667 115H96.3333C95.597 115 95 114.552 95 114C95 113.448 95.597 113 96.3333 113H105.667C106.403 113 107 113.448 107 114C107 114.552 106.403 115 105.667 115Z" fill="#CECDCB"/>
<path d="M112.2 115H105.8C105.358 115 105 114.552 105 114C105 113.448 105.358 113 105.8 113H112.2C112.642 113 113 113.448 113 114C113 114.552 112.642 115 112.2 115Z" fill="#CECDCB"/>
<path d="M82.1111 115H75.8889C75.398 115 75 114.552 75 114C75 113.448 75.398 113 75.8889 113H82.1111C82.602 113 83 113.448 83 114C83 114.552 82.602 115 82.1111 115Z" fill="#CECDCB"/>
<path d="M72.2 115H65.8C65.3582 115 65 114.552 65 114C65 113.448 65.3582 113 65.8 113H72.2C72.6418 113 73 113.448 73 114C73 114.552 72.6418 115 72.2 115Z" fill="#CECDCB"/>
<path d="M75.8 115H66.2C65.5373 115 65 114.552 65 114C65 113.448 65.5373 113 66.2 113H75.8C76.4627 113 77 113.448 77 114C77 114.552 76.4627 115 75.8 115Z" fill="#CECDCB"/>
<path d="M82.1111 115H75.8889C75.398 115 75 114.552 75 114C75 113.448 75.398 113 75.8889 113H82.1111C82.602 113 83 113.448 83 114C83 114.552 82.602 115 82.1111 115Z" fill="#CECDCB"/>
<path d="M79.8 119H70.2C69.5373 119 69 118.552 69 118C69 117.448 69.5373 117 70.2 117H79.8C80.4627 117 81 117.448 81 118C81 118.552 80.4627 119 79.8 119Z" fill="#CECDCB"/>
<path d="M86.1111 119H79.8889C79.398 119 79 118.552 79 118C79 117.448 79.398 117 79.8889 117H86.1111C86.602 117 87 117.448 87 118C87 118.552 86.602 119 86.1111 119Z" fill="#CECDCB"/>
<path d="M96.1111 119H89.8889C89.398 119 89 118.552 89 118C89 117.448 89.398 117 89.8889 117H96.1111C96.602 117 97 117.448 97 118C97 118.552 96.602 119 96.1111 119Z" fill="#CECDCB"/>
<path d="M106.111 119H99.8889C99.398 119 99 118.552 99 118C99 117.448 99.398 117 99.8889 117H106.111C106.602 117 107 117.448 107 118C107 118.552 106.602 119 106.111 119Z" fill="#CECDCB"/>
<path d="M110.111 119H103.889C103.398 119 103 118.552 103 118C103 117.448 103.398 117 103.889 117H110.111C110.602 117 111 117.448 111 118C111 118.552 110.602 119 110.111 119Z" fill="#CECDCB"/>
<path d="M92.2 115H85.8C85.3582 115 85 114.552 85 114C85 113.448 85.3582 113 85.8 113H92.2C92.6418 113 93 113.448 93 114C93 114.552 92.6418 115 92.2 115Z" fill="#CECDCB"/>
<rect x="55" y="60" width="91" height="6" fill="#C4C4C4"/>
<rect x="56.5" y="71.5" width="59" height="35" stroke="#008DD2" stroke-width="3"/>
<rect x="-0.5" y="0.5" width="22" height="37" transform="matrix(-1 0 0 1 144 70)" stroke="#008DD2"/>
<rect x="-0.5" y="0.5" width="4" height="4" rx="1.5" transform="matrix(-1 0 0 1 129 73)" fill="#FEC007" stroke="#FEC007"/>
<rect x="-0.5" y="0.5" width="4" height="4" rx="1.5" transform="matrix(-1 0 0 1 129 89)" fill="#FEC007" stroke="#FEC007"/>
<rect x="-0.5" y="0.5" width="16" height="1" rx="0.5" transform="matrix(-1 0 0 1 141 102)" stroke="#EF5231"/>
<rect x="-0.5" y="0.5" width="4" height="4" rx="1.5" transform="matrix(-1 0 0 1 129 81)" fill="#FEC007" stroke="#FEC007"/>
<path d="M91 88.5L82 93.2631L82 83.7369L91 88.5Z" fill="#EF5231"/>
</svg>
