<svg width="200" height="200" viewBox="0 0 200 200" fill="none" xmlns="http://www.w3.org/2000/svg">
<path d="M79.1867 102.897C74.4177 102.897 70.5518 99.0523 70.5518 94.31V68.8027C70.5518 52.921 83.5455 40 99.5178 40C115.489 40 128.483 52.921 128.483 68.8027C128.483 73.5449 124.617 77.3892 119.848 77.3892C115.079 77.3892 111.213 73.5449 111.213 68.8027C111.213 62.39 105.967 57.1742 99.5189 57.1742C93.0701 57.1742 87.8239 62.3911 87.8239 68.8027V94.31C87.8227 99.0523 83.9557 102.897 79.1867 102.897Z" fill="#EF5231"/>
<path d="M135.854 160H63.1804C58.1095 160 54 155.896 54 150.834V103.787C54 98.7238 58.1106 94.6206 63.1804 94.6206H135.854C140.925 94.6206 145.034 98.7249 145.034 103.787V150.834C145.034 155.896 140.924 160 135.854 160Z" fill="#FEC007"/>
<path d="M103.823 130.851H95.2657C90.4852 130.851 86.6099 126.975 86.6099 122.195C86.6099 117.414 90.4852 113.539 95.2657 113.539H103.823C108.604 113.539 112.479 117.414 112.479 122.195C112.48 126.975 108.604 130.851 103.823 130.851Z" fill="#EF5231"/>
<path d="M99.5441 144.236C94.7635 144.236 90.8882 140.36 90.8882 135.58V122.195C90.8882 117.414 94.7635 113.539 99.5441 113.539C104.325 113.539 108.2 117.414 108.2 122.195V135.58C108.201 140.359 104.325 144.236 99.5441 144.236Z" fill="#EF5231"/>
<circle cx="100" cy="100" r="98.5" stroke="#EF5231" stroke-width="3" stroke-miterlimit="11.4737" stroke-dasharray="5 5"/>
<circle cx="100" cy="100" r="88.5" stroke="#008DD2" stroke-width="3"/>
</svg>
