<svg width="200" height="200" viewBox="0 0 200 200" fill="none" xmlns="http://www.w3.org/2000/svg">
<circle cx="100" cy="100" r="98.5" stroke="#EF5231" stroke-width="3" stroke-miterlimit="11.4737" stroke-dasharray="5 5"/>
<circle cx="100" cy="100" r="88.5" stroke="#008DD2" stroke-width="3"/>
<path d="M55.4072 72.6572V74.957H54.9092C52.7998 74.9961 51.1201 75.6211 49.8701 76.832C48.6201 78.043 47.8975 79.7471 47.7021 81.9443C48.8252 80.6553 50.3584 80.0107 52.3018 80.0107C54.1572 80.0107 55.6367 80.665 56.7402 81.9736C57.8535 83.2822 58.4102 84.9717 58.4102 87.042C58.4102 89.2393 57.8096 90.9971 56.6084 92.3154C55.417 93.6338 53.8154 94.293 51.8037 94.293C49.7627 94.293 48.1074 93.5117 46.8379 91.9492C45.5684 90.377 44.9336 88.3555 44.9336 85.8848V84.8447C44.9336 80.9189 45.7686 77.9209 47.4385 75.8506C49.1182 73.7705 51.6133 72.7061 54.9238 72.6572H55.4072ZM51.8477 82.2666C50.9199 82.2666 50.0654 82.5449 49.2842 83.1016C48.5029 83.6582 47.9609 84.3564 47.6582 85.1963V86.1924C47.6582 87.9502 48.0537 89.3662 48.8447 90.4404C49.6357 91.5146 50.6221 92.0518 51.8037 92.0518C53.0244 92.0518 53.9814 91.6025 54.6748 90.7041C55.3779 89.8057 55.7295 88.6289 55.7295 87.1738C55.7295 85.709 55.373 84.5273 54.6602 83.6289C53.957 82.7207 53.0195 82.2666 51.8477 82.2666Z" fill="black"/>
<path d="M109.707 78.2383C109.707 79.3027 109.424 80.25 108.857 81.0801C108.301 81.9102 107.544 82.5596 106.587 83.0283C107.7 83.5068 108.579 84.2051 109.224 85.123C109.878 86.041 110.205 87.0811 110.205 88.2432C110.205 90.0889 109.58 91.5586 108.33 92.6523C107.09 93.7461 105.454 94.293 103.423 94.293C101.372 94.293 99.7266 93.7461 98.4863 92.6523C97.2559 91.5488 96.6406 90.0791 96.6406 88.2432C96.6406 87.0908 96.9531 86.0508 97.5781 85.123C98.2129 84.1953 99.0869 83.4922 100.2 83.0137C99.2529 82.5449 98.5059 81.8955 97.959 81.0654C97.4121 80.2354 97.1387 79.293 97.1387 78.2383C97.1387 76.4414 97.7148 75.0156 98.8672 73.9609C100.02 72.9062 101.538 72.3789 103.423 72.3789C105.298 72.3789 106.812 72.9062 107.964 73.9609C109.126 75.0156 109.707 76.4414 109.707 78.2383ZM107.495 88.1846C107.495 86.9932 107.114 86.0215 106.353 85.2695C105.601 84.5176 104.614 84.1416 103.394 84.1416C102.173 84.1416 101.191 84.5127 100.449 85.2549C99.7168 85.9971 99.3506 86.9736 99.3506 88.1846C99.3506 89.3955 99.707 90.3477 100.42 91.041C101.143 91.7344 102.144 92.0811 103.423 92.0811C104.692 92.0811 105.688 91.7344 106.411 91.041C107.134 90.3379 107.495 89.3857 107.495 88.1846ZM103.423 74.6055C102.358 74.6055 101.494 74.9375 100.83 75.6016C100.176 76.2559 99.8486 77.1494 99.8486 78.2822C99.8486 79.3662 100.171 80.2451 100.815 80.9189C101.47 81.583 102.339 81.915 103.423 81.915C104.507 81.915 105.371 81.583 106.016 80.9189C106.67 80.2451 106.997 79.3662 106.997 78.2822C106.997 77.1982 106.66 76.3145 105.986 75.6309C105.312 74.9473 104.458 74.6055 103.423 74.6055Z" fill="black"/>
<path fill-rule="evenodd" clip-rule="evenodd" d="M101 113.149C105.278 118.148 108.12 120.244 112.256 125.984C115.724 130.795 118.991 135.393 122.023 140.009C128.191 149.405 137.936 161.639 151.051 158.602C152.355 158.3 153.125 158.182 154.327 157.593C155.281 157.125 156.334 156.366 156.602 156.102C156.869 155.838 157.695 155 158.212 153.613C158.729 152.227 158.212 148.5 158.212 148.5L151.051 143C139.009 144.325 136.41 136.488 131.547 129.476C123.665 118.101 120.049 112.967 111.624 104L110.672 104.618C108.965 107.639 109.166 107.868 106.253 109.829C105.945 110.041 104.297 110.965 103.629 111.377L101 113.149Z" fill="#FFB521"/>
<path fill-rule="evenodd" clip-rule="evenodd" d="M111.8 106.52C120.225 115.487 123.841 120.621 131.723 131.996C136.586 139.008 146.347 151.737 158.388 150.412C159.375 138.855 146.595 128.705 139.818 123.941C135.257 120.733 130.802 117.977 126.347 114.639C121.224 110.8 118.713 108.127 113.909 104C111.12 105.001 112.692 103.064 111.8 106.52Z" fill="#EF5231"/>
<path d="M95.3798 113.565C92.4086 110.599 93.6308 104.569 98.1098 100.097C102.589 95.6252 108.628 94.4049 111.6 97.3714C114.571 100.338 113.349 106.368 108.87 110.84C104.391 115.311 98.3511 116.532 95.3798 113.565Z" fill="#ADADBD"/>
<path d="M109.575 99.5388C107.372 97.0765 103.86 96.8452 101 98.7112C101.364 98.0152 101.815 97.3532 102.355 96.7491C105.377 93.3712 110.003 93.0637 112.686 96.0624C115.368 99.0609 115.093 104.23 112.071 107.608C111.531 108.212 110.938 108.716 110.316 109.123C111.985 105.927 111.778 102.001 109.575 99.5388Z" fill="#BDC5D6"/>
<mask id="path-9-outside-1" maskUnits="userSpaceOnUse" x="39" y="37" width="78" height="78" fill="black">
<rect fill="white" x="39" y="37" width="78" height="78"/>
<path d="M113.633 75.8167C113.633 95.5977 97.5977 111.633 77.8167 111.633C58.0357 111.633 42 95.5977 42 75.8167C42 56.0357 58.0357 40 77.8167 40C97.5977 40 113.633 56.0357 113.633 75.8167ZM45.5102 75.8167C45.5102 93.659 59.9743 108.123 77.8167 108.123C95.659 108.123 110.123 93.659 110.123 75.8167C110.123 57.9743 95.659 43.5102 77.8167 43.5102C59.9743 43.5102 45.5102 57.9743 45.5102 75.8167Z"/>
</mask>
<path d="M113.633 75.8167C113.633 95.5977 97.5977 111.633 77.8167 111.633C58.0357 111.633 42 95.5977 42 75.8167C42 56.0357 58.0357 40 77.8167 40C97.5977 40 113.633 56.0357 113.633 75.8167ZM45.5102 75.8167C45.5102 93.659 59.9743 108.123 77.8167 108.123C95.659 108.123 110.123 93.659 110.123 75.8167C110.123 57.9743 95.659 43.5102 77.8167 43.5102C59.9743 43.5102 45.5102 57.9743 45.5102 75.8167Z" fill="#008DD2"/>
<path d="M113.633 75.8167C113.633 95.5977 97.5977 111.633 77.8167 111.633C58.0357 111.633 42 95.5977 42 75.8167C42 56.0357 58.0357 40 77.8167 40C97.5977 40 113.633 56.0357 113.633 75.8167ZM45.5102 75.8167C45.5102 93.659 59.9743 108.123 77.8167 108.123C95.659 108.123 110.123 93.659 110.123 75.8167C110.123 57.9743 95.659 43.5102 77.8167 43.5102C59.9743 43.5102 45.5102 57.9743 45.5102 75.8167Z" stroke="#008DD2" stroke-width="6" mask="url(#path-9-outside-1)"/>
<path d="M90.8672 62.3125L76.7344 94H72.1875L86.2734 63.4375H67.8047V59.875H90.8672V62.3125Z" fill="#EF5231"/>
</svg>
