<svg width="200" height="200" viewBox="0 0 200 200" fill="none" xmlns="http://www.w3.org/2000/svg">
<path d="M182.845 137.965C176.147 128.161 168.948 118.711 161.276 109.65V90.3571C168.951 81.2883 176.149 71.8274 182.845 62.0138C195.348 43.5015 207.887 20.4398 193.726 6.28468C189.484 2.14161 183.749 -0.113379 177.82 0.0314943C172.1 0.264552 166.48 1.60936 161.276 3.9919V3.22501C161.276 1.44244 159.832 0 158.051 0H41.9502C40.1692 0 38.7252 1.44244 38.7252 3.22501V3.9919C33.5208 1.60936 27.9006 0.264552 22.1813 0.0314943C16.2462 -0.111805 10.5048 2.14791 6.25935 6.29728C-7.88316 20.4398 4.64684 43.5015 17.1532 62.0138C23.8505 71.8274 31.0516 81.2899 38.7252 90.3602V109.65C31.0532 118.711 23.8536 128.161 17.1564 137.965C4.65629 156.478 -7.88316 179.539 6.27509 193.729C10.5221 197.861 16.2572 200.105 22.1813 199.951C27.9006 199.718 33.5208 198.371 38.7252 195.987V196.726C38.7252 198.507 40.1692 199.951 41.9502 199.951H158.051C159.832 199.951 161.276 198.507 161.276 196.726V195.987C166.48 198.373 172.1 199.719 177.82 199.951C183.752 200.104 189.495 197.855 193.745 193.713C207.884 179.539 195.345 156.478 182.845 137.965V137.965ZM154.826 154.801H132.251C126.413 150.305 120.366 145.338 114.226 140.009C119.924 134.654 124.497 130.158 127.342 127.312C137.211 117.445 146.403 107.586 154.829 97.8984L154.826 154.801ZM154.826 161.251V170.526C150.475 167.88 145.795 164.75 140.926 161.251H154.826ZM161.276 133.26C182.629 161.876 186.312 176.798 183.183 179.933C181.312 181.796 174.421 181.294 161.276 174.207V133.26ZM100.001 127.235C95.5819 123.086 91.1994 118.852 86.9619 114.627C71.9942 99.777 58.0344 83.9464 45.1753 67.2371V32.2501H154.826V67.2403C141.967 83.948 128.007 99.777 113.039 114.627C108.691 118.973 104.345 123.177 100.001 127.235V127.235ZM38.7252 29.0251V58.4046C20.2948 32.1887 19.2712 20.791 21.6553 18.4053C23.2678 16.7928 28.6439 16.914 38.7252 21.6838V29.0251ZM161.276 29.0251V21.6838C171.351 16.914 176.724 16.7817 178.346 18.4053C180.728 20.791 179.706 32.1887 161.276 58.3951V29.0251ZM45.1753 6.45003H154.826V25.8001H45.1753V6.45003ZM10.8055 10.8734C13.8432 7.92396 17.95 6.33822 22.1813 6.48152C27.9495 6.87048 33.5791 8.42944 38.7252 11.0639V14.5693C28.2282 10.0545 21.1262 9.81362 17.095 13.8449C7.56478 23.3703 23.9513 49.7909 39.3693 70.2795C52.5843 87.5415 66.9614 103.881 82.4015 119.187C86.5934 123.379 90.9018 127.527 95.2559 131.626C93.7284 133.021 92.2041 134.394 90.6861 135.747C84.3211 129.783 79.5891 125.105 77.2223 122.754C65.2308 110.762 54.1952 98.7755 44.4178 87.1258C36.6057 77.9468 29.2848 68.3583 22.4868 58.4046C11.3835 41.9441 0.0250547 21.6649 10.8055 10.8734ZM38.7252 174.207C25.5795 181.303 18.6886 181.793 16.8178 179.933C13.6888 176.804 17.3721 161.873 38.7252 133.26V174.207ZM45.1753 161.251H59.1398C54.2629 164.74 49.5908 167.852 45.1753 170.529V161.251ZM67.8086 154.801H45.1753V97.9015C53.6047 107.577 62.7932 117.445 72.6619 127.312C75.0003 129.651 79.6111 134.202 85.8202 140.03C79.6631 145.367 73.6319 150.311 67.8086 154.801ZM10.8229 189.159C0.0250547 178.321 11.3835 158.026 22.4962 141.578C27.2314 134.58 32.6783 127.272 38.7252 119.785V122.628C23.8898 141.532 1.5541 173.789 12.2574 184.494C14.3628 186.481 17.191 187.515 20.0806 187.356C25.748 187.356 33.5129 184.568 43.5202 178.971C60.1004 169.732 80.9087 153.733 102.29 133.928C102.309 133.906 102.342 133.898 102.361 133.876L102.383 133.841C107.441 129.153 112.512 124.27 117.6 119.19C133.038 103.882 147.415 87.5415 160.63 70.2795C176.053 49.7909 192.439 23.3703 182.909 13.8417C178.878 9.81047 171.776 10.0388 161.279 14.5661V11.0639C166.425 8.42944 172.053 6.87048 177.82 6.48152C182.045 6.33822 186.145 7.91766 189.181 10.8577C199.989 21.6649 188.618 41.9441 177.5 58.4077C170.702 68.3615 163.383 77.9483 155.571 87.1289C145.795 98.7755 134.759 110.762 122.769 122.754C114.513 131.002 71.7816 172.93 40.5472 188.114C34.8814 191.203 28.6171 193.041 22.1813 193.501C17.9626 193.654 13.8636 192.087 10.8229 189.159V189.159ZM100.026 152.943C100.742 153.588 101.441 154.18 102.152 154.801H97.9203C98.6368 154.174 99.3265 153.565 100.026 152.943ZM45.1753 193.501V192.969C61.3271 184.031 76.4806 173.398 90.3806 161.251H109.676C123.522 173.439 138.663 184.076 154.826 192.969V193.501H45.1753ZM189.194 189.14C186.153 192.077 182.046 193.652 177.82 193.501C171.385 193.041 165.123 191.205 159.46 188.114C145.27 181.232 126.426 167.565 104.876 148.618C106.457 147.192 107.998 145.789 109.472 144.425C123.961 157.464 139.705 169.033 156.476 178.965C166.474 184.568 174.253 187.35 179.919 187.35C182.81 187.509 185.638 186.474 187.744 184.486C198.447 173.789 176.111 141.532 161.276 122.628V119.785C167.323 127.272 172.77 134.58 177.5 141.575C188.618 158.026 199.976 178.321 189.194 189.14V189.14Z" fill="url(#paint0_linear)"/>
<defs>
<linearGradient id="paint0_linear" x1="1.91474" y1="198.093" x2="195.793" y2="4.21442" gradientUnits="userSpaceOnUse">
<stop stop-color="#003F8A"/>
<stop offset="0.518" stop-color="#00D7DF"/>
<stop offset="1" stop-color="#006DF0"/>
</linearGradient>
</defs>
</svg>
