<svg width="200" height="200" viewBox="0 0 200 200" fill="none" xmlns="http://www.w3.org/2000/svg">
<circle cx="100" cy="100" r="98.5" stroke="#EF5231" stroke-width="3" stroke-miterlimit="11.4737" stroke-dasharray="5 5"/>
<circle cx="100" cy="100" r="88.5" stroke="#008DD2" stroke-width="3"/>
<path fill-rule="evenodd" clip-rule="evenodd" d="M118.5 151.749C118.5 151.749 123.635 151.749 125.753 155.472H69.9752C72.5 151.749 75.8804 151.749 75.8804 151.749H118.5ZM87.1772 141.736H108.5C108.5 141.736 112.788 149 112.21 147.962L83.4544 147.898L87.1772 141.736ZM44.7498 136.986C44.7498 122.48 44.7498 127.422 44.7498 122.48H154.5C154.5 136.986 154.5 122.48 154.5 136.986C95.2072 136.986 98.5 136.986 44.7498 136.986ZM44.108 49.9489C44.108 43.9154 44.9424 43.787 50.9759 43.787H148.668C153.739 43.787 155.793 44.3005 155.793 49.9489L155.729 118.757L44.1721 118.629L44.108 49.9489ZM40 46.9964V133.713C40 141.608 40 141.736 56.9453 141.736C65.2896 141.672 73.5697 141.736 81.8497 141.736C80.6302 144.111 79.6032 145.138 78.8972 147.705C72.7352 147.705 62.8505 146.422 65.9314 159.644H129.6C130.11 159.44 130.76 158.604 130.76 155.664C130.76 150.829 127.936 148.347 123.635 147.834C115.74 146.807 117.024 147.898 113.815 141.736C122.416 141.736 131.081 141.793 139.682 141.736C159 141.608 159.644 141.608 159.644 133.713V46.9964C159.644 43.5945 157.911 40 154.637 40H46.9964C42.3107 40 40 42.3107 40 46.9964Z" fill="#EF5231"/>
<path fill-rule="evenodd" clip-rule="evenodd" d="M71.2217 105.663H80.4004L80.1436 73.5054L71.2217 73.5696V105.663Z" fill="#008DD2"/>
<path fill-rule="evenodd" clip-rule="evenodd" d="M56.2658 105.663H65.4446V82.9409L56.2017 83.0693L56.2658 105.663Z" fill="#008DD2"/>
<path fill-rule="evenodd" clip-rule="evenodd" d="M86.113 105.791H95.3559V89.8088H86.0488L86.113 105.791Z" fill="#008DD2"/>
<path d="M131.363 94.5379C130.36 94.3782 130.337 91.6189 130.337 91.6189C130.337 91.6189 133.286 88.6998 133.928 84.7744C135.657 84.7744 136.725 80.6013 134.996 79.133C135.068 77.5874 137.218 67 126.333 67C115.449 67 117.599 77.5874 117.671 79.133C115.942 80.6013 117.009 84.7744 118.738 84.7744C119.381 88.6998 122.33 91.6189 122.33 91.6189C122.33 91.6189 122.307 94.3782 121.303 94.5379C118.071 95.0522 106 100.376 106 106.214H126.333H146.667C146.667 100.376 134.596 95.0522 131.363 94.5379Z" fill="#FFB521"/>
<circle cx="85.5" cy="130.5" r="3.5" fill="#C4C4C4"/>
<circle cx="112.5" cy="130.5" r="3.5" fill="#C4C4C4"/>
<circle cx="99.5" cy="130.5" r="3.5" fill="#C4C4C4"/>
</svg>
