<svg width="200" height="200" viewBox="0 0 200 200" fill="none" xmlns="http://www.w3.org/2000/svg">
<circle cx="100" cy="100" r="98.5" stroke="#EF5231" stroke-width="3" stroke-miterlimit="11.4737" stroke-dasharray="5 5"/>
<circle cx="100" cy="100" r="88.5" stroke="#008DD2" stroke-width="3"/>
<path d="M45.625 87.1875H154.375C157.469 87.1875 160 89.7188 160 92.8125V150C160 153.094 157.469 155.625 154.375 155.625H45.625C42.5313 155.625 40 153.094 40 150V92.8125C40 89.7188 42.5313 87.1875 45.625 87.1875Z" fill="#008DD2"/>
<path d="M40 150C40 153.094 42.5313 155.625 45.625 155.625H154.375C157.469 155.625 160 153.094 160 150V110.625H40V150Z" fill="#D8D8D8"/>
<path d="M55.9375 82.5H144.062C147.156 82.5 149.687 85.0313 149.687 88.125V95.6251C149.687 98.7189 147.156 101.25 144.062 101.25H55.9375C52.8438 101.25 50.3125 98.7189 50.3125 95.6251V88.125C50.3125 85.0313 52.8438 82.5 55.9375 82.5Z" fill="#008DD2"/>
<path d="M59.6874 89.0625H140.312C141.906 89.0625 143.125 90.2812 143.125 91.8749C143.125 93.4686 141.906 94.6873 140.312 94.6873H59.6874C58.0937 94.6873 56.875 93.4686 56.875 91.8749C56.8748 90.375 58.0935 89.0625 59.6874 89.0625Z" fill="#283E49"/>
<path d="M54.5312 120C56.8749 120 58.7499 121.875 58.7499 124.219C58.7499 126.562 56.8749 128.437 54.5312 128.437C52.1875 128.437 50.3125 126.562 50.3125 124.219C50.3125 121.875 52.1875 120 54.5312 120Z" fill="#EF5231"/>
<path d="M68.5937 120C70.9374 120 72.8124 121.875 72.8124 124.219C72.8124 126.562 70.9374 128.437 68.5937 128.437C66.25 128.437 64.375 126.562 64.375 124.219C64.375 121.875 66.25 120 68.5937 120Z" fill="#FEC007"/>
<path d="M138.875 45.5938V50.625V91.4687H61.125V52.5938V50.7188C61.125 47.9012 63.4324 45.5938 66.25 45.5938H138.875Z" fill="white" stroke="#D8D8D8"/>
<path d="M73.75 61.875H126.25C127.281 61.875 128.125 61.0312 128.125 60C128.125 58.9688 127.281 58.125 126.25 58.125H73.75C72.7188 58.125 71.875 58.9688 71.875 60C71.875 61.0312 72.7186 61.875 73.75 61.875ZM126.25 66.5624H73.75C72.7188 66.5624 71.875 67.4063 71.875 68.4375C71.875 69.4686 72.7188 70.3125 73.75 70.3125H126.25C127.281 70.3125 128.125 69.4686 128.125 68.4375C128.125 67.4063 127.281 66.5624 126.25 66.5624ZM126.25 74.9999H73.75C72.7188 74.9999 71.875 75.8437 71.875 76.8749C71.875 77.9061 72.7188 78.7499 73.75 78.7499H126.25C127.281 78.7499 128.125 77.9061 128.125 76.8749C128.125 75.8437 127.281 74.9999 126.25 74.9999Z" fill="#D8DADC"/>
</svg>
