<svg width="200" height="200" viewBox="0 0 200 200" fill="none" xmlns="http://www.w3.org/2000/svg">
<path d="M117.519 119.073C114.09 120.712 110.548 121.842 106.978 122.488C106.567 122.566 106.16 122.636 105.75 122.695C101.612 123.316 97.4486 123.299 93.4016 122.688C80.2389 120.698 68.2591 112.432 62.0813 99.5184C52.1724 78.809 60.9265 53.9894 81.6322 44.0808C89.8177 40.1634 98.6489 39.1633 106.943 40.6655C119.635 42.9613 131.079 51.1115 137.07 63.6355C146.979 84.3412 138.225 109.161 117.519 119.073Z" fill="#008DD2"/>
<path d="M117.519 119.073C114.09 120.712 110.548 121.842 106.978 122.488C94.2929 120.189 82.8468 112.039 76.8586 99.5184C66.9497 78.8089 75.7038 53.9894 96.4095 44.0808C99.8387 42.4415 103.377 41.3115 106.943 40.6655C119.635 42.9613 131.078 51.1115 137.07 63.6354C146.979 84.3412 138.225 109.161 117.519 119.073Z" fill="#008DD2"/>
<path d="M105.75 101.021V122.696C101.611 123.317 97.4483 123.3 93.4014 122.689V101.021H105.75Z" fill="#E3A76F"/>
<path d="M135.143 148.241C135.143 151.474 133.819 154.416 131.689 156.546C129.558 158.677 126.617 160 123.384 160H75.7669C69.298 160 64.0083 154.707 64.0083 148.241C64.0083 145.009 65.3317 142.067 67.4623 139.937C69.5928 137.806 72.5341 136.483 75.7669 136.483H123.384C129.853 136.483 135.143 141.773 135.143 148.241Z" fill="#EF5231"/>
<path d="M119.72 81.9122V92.0247C119.72 101.249 112.475 108.863 103.391 109.448C103.019 109.473 102.64 109.487 102.261 109.487H97.3677C87.7641 109.487 79.9087 101.628 79.9087 92.0247V81.9122C79.9087 72.3085 87.7641 64.4497 97.3677 64.4497H102.261C102.64 64.4497 103.019 64.4636 103.391 64.4884C112.475 65.0746 119.72 72.6878 119.72 81.9122Z" fill="#E3A76F"/>
<path d="M119.72 81.9121V92.0246C119.72 101.249 112.475 108.862 103.391 109.448C94.3071 108.866 87.0586 101.249 87.0586 92.0246V81.9121C87.0586 72.6877 94.3068 65.0708 103.391 64.4883C112.475 65.0745 119.72 72.6877 119.72 81.9121Z" fill="#F2BB88"/>
<path d="M88.8345 86.76C90.3023 86.76 91.4922 85.5701 91.4922 84.1023C91.4922 82.6345 90.3023 81.4446 88.8345 81.4446C87.3667 81.4446 86.1768 82.6345 86.1768 84.1023C86.1768 85.5701 87.3667 86.76 88.8345 86.76Z" fill="#9C6A53"/>
<path d="M111.695 86.76C113.163 86.76 114.353 85.5701 114.353 84.1023C114.353 82.6345 113.163 81.4446 111.695 81.4446C110.228 81.4446 109.038 82.6345 109.038 84.1023C109.038 85.5701 110.228 86.76 111.695 86.76Z" fill="#9C6A53"/>
<path d="M105.314 93.4374C103.407 94.7859 101.706 95.3989 100.241 95.5869H98.223C95.949 95.2785 94.5675 94.0066 94.3107 93.7501C93.3041 92.7161 91.6496 92.6852 90.605 93.6843C89.5544 94.6892 89.5171 96.3556 90.5219 97.4063C92.055 99.0096 95.1962 100.915 99.2516 100.915C101.949 100.915 105.052 100.072 108.354 97.7364C109.541 96.8967 109.823 95.2541 108.983 94.067C108.144 92.88 106.501 92.5974 105.314 93.4374Z" fill="#9C6A53"/>
<path d="M125.216 60.5149V74.92C125.216 77.9034 122.777 80.3464 119.79 80.3464H119.565C116.582 80.3464 114.142 77.9034 114.142 74.92V72.9544C114.142 72.5717 113.848 72.3752 113.49 72.5157C105.476 75.6572 98.193 77.0824 92.1098 77.6052C89.0246 77.8756 86.2482 77.9105 83.8435 77.8193C78.1749 77.6086 73.689 72.9577 73.689 67.2858V64.3339C73.689 58.0858 78.7995 52.9719 85.0475 52.9719H104.549C108.796 52.9719 112.506 55.3762 114.391 58.8899C115.086 56.6925 117.147 55.0885 119.565 55.0885H119.79C122.777 55.0882 125.216 57.5312 125.216 60.5149Z" fill="#E3D000"/>
<path d="M125.216 60.5149V74.92C125.216 77.9034 122.777 80.3464 119.79 80.3464H119.565C116.582 80.3464 114.142 77.9034 114.142 74.92V72.9544C114.142 72.5717 113.848 72.3752 113.49 72.5157C105.476 75.6572 98.193 77.0824 92.1099 77.6052C87.2941 76.6152 83.7031 72.3613 83.7031 67.2858V64.3339C83.7031 58.0858 88.8137 52.9719 95.0651 52.9719H104.549C108.796 52.9719 112.507 55.3762 114.391 58.8899C115.087 56.6925 117.147 55.0885 119.565 55.0885H119.79C122.777 55.0882 125.216 57.5312 125.216 60.5149Z" fill="#FFEA06"/>
<path d="M124.372 151.224H74.7791C73.3247 151.224 72.1465 150.046 72.1465 148.592C72.1465 147.138 73.3247 145.959 74.7791 145.959H124.372C125.826 145.959 127.004 147.138 127.004 148.592C127.004 150.046 125.826 151.224 124.372 151.224Z" fill="#FEC007"/>
<circle cx="100" cy="100" r="98.5" stroke="#EF5231" stroke-width="3" stroke-miterlimit="11.4737" stroke-dasharray="5 5"/>
<circle cx="100" cy="100" r="88.5" stroke="#008DD2" stroke-width="3"/>
</svg>
