<svg width="200" height="200" viewBox="0 0 200 200" fill="none" xmlns="http://www.w3.org/2000/svg">
<path d="M146.286 41.6001C146.677 42.7723 145.896 43.9446 144.723 44.14L55.8257 66.2179C54.6534 66.4132 53.4811 65.8271 53.2857 64.6548C52.895 63.4826 53.6765 62.3103 54.8488 62.1149L143.746 40.037C144.919 39.8416 146.091 40.4278 146.286 41.6001Z" fill="#FEC007"/>
<path d="M99.7862 160C109.282 160 116.98 152.302 116.98 142.807C116.98 133.311 109.282 125.613 99.7862 125.613C90.2905 125.613 82.5928 133.311 82.5928 142.807C82.5928 152.302 90.2905 160 99.7862 160Z" fill="#008DD2"/>
<path d="M116.98 142.807C116.98 152.38 109.164 160 99.7862 160C90.4079 160 82.5928 152.185 82.5928 142.807" fill="#008DD2"/>
<path d="M103.694 140.657C103.694 142.807 101.936 144.956 99.7865 144.956C97.6373 144.956 95.8789 142.807 95.8789 140.657V46.8753C95.8789 44.7261 97.4419 42.7723 99.5911 42.7723C101.74 42.7723 103.694 44.5308 103.694 46.6799V140.657Z" fill="#FEC007"/>
<path d="M99.5909 42.9678C101.935 42.9678 103.694 44.9216 103.694 47.2661V140.657C103.694 143.002 101.935 144.956 99.3955 144.956" fill="#FEC007"/>
<path d="M40 100.019C40.1954 109.788 48.2059 117.798 58.1703 117.798C68.1346 117.798 76.1452 109.788 76.3406 100.019H40Z" fill="#EF5231"/>
<path d="M58.366 117.798C68.3303 117.798 76.1455 109.788 76.3409 100.019H54.8491" fill="#EF5231"/>
<path d="M123.231 80.4806C123.427 90.2496 131.437 98.2601 141.402 98.2601C151.366 98.2601 159.377 90.2496 159.572 80.4806H123.231Z" fill="#EF5231"/>
<path d="M141.207 98.2601C151.171 98.2601 159.572 90.2496 159.768 80.4806H136.908" fill="#EF5231"/>
<path d="M47.7591 88.4114C47.5375 88.1919 47.4268 87.8628 47.4268 87.6434C47.4268 87.4239 47.5375 87.0948 47.7591 86.8754L49.3098 85.3394C49.7529 84.9005 50.4175 84.9005 50.8606 85.3394L50.9714 85.4491L57.0637 91.9222C57.2852 92.1416 57.6175 92.1416 57.8391 91.9222L72.6822 76.6719H72.7929V76.6719C73.236 76.2331 73.9006 76.2331 74.3437 76.6719L75.8945 78.2079C76.3375 78.6468 76.3375 79.3051 75.8945 79.7439L58.1714 97.9565C57.9498 98.1759 57.7283 98.2856 57.396 98.2856C57.0637 98.2856 56.8421 98.1759 56.6206 97.9565L47.9806 88.7405L47.7591 88.4114V88.4114Z" fill="#19CE19"/>
<path d="M151.464 78.4H131.451C130.87 78.4 130.398 78.0272 130.398 77.5674V55.9183C130.398 55.4585 130.87 55.0857 131.451 55.0857H151.464C152.046 55.0857 152.517 55.4585 152.517 55.9183V77.5673C152.517 78.0272 152.046 78.4 151.464 78.4Z" fill="#008DD2"/>
<path d="M149.474 59.3807H140.877C140.538 59.3807 140.263 59.0135 140.263 58.5607C140.263 58.1079 140.538 57.7407 140.877 57.7407H149.474C149.813 57.7407 150.088 58.1079 150.088 58.5607C150.088 59.0136 149.813 59.3807 149.474 59.3807Z" fill="#D7DEED"/>
<path d="M149.474 65.9405H143.948C143.608 65.9405 143.333 65.5733 143.333 65.1205C143.333 64.6677 143.608 64.3005 143.948 64.3005H149.474C149.813 64.3005 150.088 64.6677 150.088 65.1205C150.088 65.5734 149.813 65.9405 149.474 65.9405Z" fill="#D7DEED"/>
<path d="M135.966 62.6606H133.51C133.17 62.6606 132.896 62.2934 132.896 61.8406C132.896 61.3878 133.17 61.0206 133.51 61.0206H135.966C136.305 61.0206 136.58 61.3878 136.58 61.8406C136.58 62.2934 136.305 62.6606 135.966 62.6606Z" fill="#D7DEED"/>
<path d="M144.562 62.6606H138.422C138.083 62.6606 137.808 62.2934 137.808 61.8406C137.808 61.3878 138.083 61.0206 138.422 61.0206H144.562C144.901 61.0206 145.176 61.3878 145.176 61.8406C145.176 62.2934 144.901 62.6606 144.562 62.6606Z" fill="#D7DEED"/>
<path d="M149.474 62.6606H147.018C146.679 62.6606 146.404 62.2934 146.404 61.8406C146.404 61.3878 146.679 61.0206 147.018 61.0206H149.474C149.813 61.0206 150.088 61.3878 150.088 61.8406C150.088 62.2934 149.813 62.6606 149.474 62.6606Z" fill="#D7DEED"/>
<path d="M141.492 65.9405H133.51C133.17 65.9405 132.896 65.5733 132.896 65.1205C132.896 64.6677 133.17 64.3005 133.51 64.3005H141.492C141.831 64.3005 142.106 64.6677 142.106 65.1205C142.106 65.5734 141.831 65.9405 141.492 65.9405Z" fill="#D7DEED"/>
<path d="M138.422 69.2202H133.51C133.17 69.2202 132.896 68.853 132.896 68.4002C132.896 67.9474 133.17 67.5802 133.51 67.5802H138.422C138.761 67.5802 139.036 67.9474 139.036 68.4002C139.036 68.8531 138.761 69.2202 138.422 69.2202Z" fill="#D7DEED"/>
<path d="M149.474 69.2202H140.877C140.538 69.2202 140.263 68.853 140.263 68.4002C140.263 67.9474 140.538 67.5802 140.877 67.5802H149.474C149.813 67.5802 150.088 67.9474 150.088 68.4002C150.088 68.8531 149.813 69.2202 149.474 69.2202Z" fill="#D7DEED"/>
<path d="M149.474 72.5002H147.018C146.679 72.5002 146.404 72.133 146.404 71.6802C146.404 71.2274 146.679 70.8602 147.018 70.8602H149.474C149.813 70.8602 150.088 71.2274 150.088 71.6802C150.088 72.133 149.813 72.5002 149.474 72.5002Z" fill="#D7DEED"/>
<path d="M144.562 72.5002H133.51C133.17 72.5002 132.896 72.133 132.896 71.6802C132.896 71.2274 133.17 70.8602 133.51 70.8602H144.562C144.901 70.8602 145.176 71.2274 145.176 71.6802C145.176 72.133 144.901 72.5002 144.562 72.5002Z" fill="#D7DEED"/>
<path d="M138.422 59.3807H133.51C133.17 59.3807 132.896 59.0135 132.896 58.5607C132.896 58.1079 133.17 57.7407 133.51 57.7407H138.422C138.761 57.7407 139.036 58.1079 139.036 58.5607C139.036 59.0136 138.761 59.3807 138.422 59.3807Z" fill="#D7DEED"/>
<path d="M149.474 75.7799H140.877C140.538 75.7799 140.263 75.4127 140.263 74.9599C140.263 74.5071 140.538 74.1399 140.877 74.1399H149.474C149.813 74.1399 150.088 74.5071 150.088 74.9599C150.088 75.4128 149.813 75.7799 149.474 75.7799Z" fill="#D7DEED"/>
<path d="M138.422 75.7799H133.51C133.17 75.7799 132.896 75.4127 132.896 74.9599C132.896 74.5071 133.17 74.1399 133.51 74.1399H138.422C138.761 74.1399 139.036 74.5071 139.036 74.9599C139.036 75.4128 138.761 75.7799 138.422 75.7799Z" fill="#D7DEED"/>
<circle cx="100" cy="100" r="98.5" stroke="#EF5231" stroke-width="3" stroke-miterlimit="11.4737" stroke-dasharray="5 5"/>
<circle cx="100" cy="100" r="88.5" stroke="#008DD2" stroke-width="3"/>
</svg>
