<svg width="200" height="200" viewBox="0 0 200 200" fill="none" xmlns="http://www.w3.org/2000/svg">
<path d="M48.356 98.4946V155.016C48.356 157.78 50.5998 160 53.3397 160H148.503C151.267 160 153.487 157.756 153.487 155.016V98.4946H48.356Z" fill="#EF5231"/>
<path d="M153.51 94.9043H48.356V98.4945H153.51V94.9043Z" fill="#008DD2"/>
<path d="M156.723 73.4814H45.0967V94.928H156.723V73.4814Z" fill="#FEC007"/>
<path d="M80.0297 73.4814H63.0472L48.8755 94.9044H65.858L80.0297 73.4814Z" fill="#F2F2F2"/>
<path d="M116.498 73.4814H99.5158L85.3677 94.9044H102.327L116.498 73.4814Z" fill="#F2F2F2"/>
<path d="M152.967 73.4814H135.985L121.836 94.9044H138.819L152.967 73.4814Z" fill="#F2F2F2"/>
<path d="M154.148 44.4293C153.841 41.6894 151.385 39.7053 148.621 40.036L135.772 41.5004L118.908 43.4136L99.5396 45.6339L82.6516 47.5943L63.2835 49.8145L55.0639 50.7593C52.4185 51.09 50.0565 52.1765 48.1906 53.8535C45.2381 56.4516 43.6084 60.3961 44.0808 64.5768L44.1752 65.4035L45.0964 73.4578L55.4418 72.2768L62.9292 71.4029L79.7936 69.4897L99.1617 67.2694L116.002 65.3326H116.026L135.371 63.136L152.235 61.1992L155.99 60.774L154.148 44.4293Z" fill="#FEC007"/>
<path d="M118.884 43.4372L135.749 41.524L152.259 61.1992L135.394 63.136L118.884 43.4372Z" fill="#F2F2F2"/>
<path d="M82.6523 47.5942L99.5167 45.6573L116.027 65.3563L99.1624 67.2693L82.6523 47.5942Z" fill="#F2F2F2"/>
<path d="M79.7939 69.5132L62.9295 71.4264L48.1909 53.8534C50.0569 52.1764 52.4188 51.0899 55.0642 50.7592L63.2838 49.8145L79.7939 69.5132Z" fill="#F2F2F2"/>
<path d="M55.4417 72.3003C54.8984 68.1433 51.3318 64.931 47.0095 64.931C46.0174 64.931 45.0727 65.0964 44.1987 65.4034L45.1199 73.4577V81.7718C45.7104 81.9135 46.3717 82.008 47.0095 82.008C51.7334 82.008 55.5361 78.1816 55.5361 73.4813C55.5361 73.0798 55.5125 72.6783 55.4417 72.3003Z" fill="#FEC007"/>
<path d="M100.933 109.265C90.7533 109.265 82.5337 117.509 82.5337 127.665C82.5337 128.492 82.5809 129.295 82.699 130.098C83.6438 137.207 88.6275 143.018 95.2883 145.167C97.0834 145.758 98.9729 146.065 100.957 146.065C111.113 146.065 119.333 137.821 119.333 127.665C119.309 117.508 111.09 109.265 100.933 109.265Z" fill="white"/>
<path d="M94.5796 117.674V137.632C94.5796 138.577 95.8787 139.12 96.7526 138.506L110.948 128.539C111.586 128.09 111.586 127.24 110.948 126.791L96.7526 116.823C95.9023 116.209 94.5796 116.729 94.5796 117.674Z" fill="#008DD2"/>
<circle cx="100" cy="100" r="98.5" stroke="#EF5231" stroke-width="3" stroke-miterlimit="11.4737" stroke-dasharray="5 5"/>
<circle cx="100" cy="100" r="88.5" stroke="#008DD2" stroke-width="3"/>
</svg>
