<svg width="208" height="184" viewBox="0 0 208 184" fill="none" xmlns="http://www.w3.org/2000/svg">
<g filter="url(#filter0_d)">
<path d="M200.768 50.2061H61.7417L199.685 32.8829C201.456 32.6604 202.709 31.0442 202.486 29.2734L199.668 6.8255C199.563 5.97323 199.122 5.19987 198.443 4.67588C197.767 4.14716 196.907 3.91358 196.058 4.02879L6.82859 27.7803C5.05776 28.0029 3.80303 29.619 4.02557 31.3899L6.82859 53.6389V176.267C6.82859 178.052 8.27588 179.499 10.0609 179.499H200.768C202.553 179.499 204 178.052 204 176.267V53.4384C204 51.6534 202.553 50.2061 200.768 50.2061V50.2061ZM197.535 72.8323H182.712L196.588 58.9561C197.194 58.35 197.535 57.5278 197.535 56.6708V72.8323ZM189.732 56.6708L175.856 70.547C175.25 71.1531 174.909 71.9753 174.909 72.8323H150.389L164.265 58.9561C164.871 58.35 165.212 57.5278 165.212 56.6708H189.732ZM157.409 56.6708L143.533 70.547C142.927 71.1531 142.586 71.9753 142.586 72.8323H118.066L131.942 58.9561C132.548 58.35 132.889 57.5278 132.889 56.6708H157.409ZM125.086 56.6708L111.21 70.547C110.604 71.1531 110.263 71.9753 110.263 72.8323H85.7426L99.6189 58.9561C100.225 58.35 100.566 57.5278 100.566 56.6708H125.086ZM92.7628 56.6708L78.8866 70.547C78.2805 71.1531 77.9396 71.9753 77.9396 72.8323H53.4194L67.2957 58.9561C67.9017 58.35 68.2426 57.5278 68.2426 56.6708H92.7628ZM172.43 15.8043L187.944 27.8419L163.612 30.899C163.504 30.0483 163.064 29.275 162.387 28.7494L146.877 16.7087L171.205 13.6547C171.312 14.5054 171.753 15.2788 172.43 15.8043V15.8043ZM140.362 19.8226L155.858 31.8618L131.527 34.9173C131.421 34.0666 130.979 33.2933 130.302 32.7677L114.807 20.727L139.133 17.673C139.238 18.5237 139.682 19.2987 140.362 19.8226ZM108.29 23.8583L123.785 35.899L99.4563 38.9546C99.3521 38.1023 98.9102 37.3289 98.2315 36.8049L82.736 24.7674L107.065 21.7103C107.171 22.561 107.611 23.3343 108.29 23.8583ZM76.2193 27.9034L91.7148 39.9426L67.3888 42.9981C67.2815 42.1458 66.8395 41.3725 66.1609 40.8485L50.6653 28.8109L74.9945 25.7538C75.1018 26.6045 75.5422 27.3763 76.2193 27.9034ZM44.1486 31.9296L59.6442 43.9703L35.3181 47.0243C35.2108 46.1752 34.7705 45.4018 34.0934 44.8763L18.5773 32.8387L42.9065 29.78C43.0217 30.6275 43.4684 31.3946 44.1486 31.9138V31.9296ZM12.0748 35.9416L27.5735 47.9823L12.8624 49.8273L10.8548 33.8109C10.9637 34.6553 11.4025 35.4208 12.0748 35.9416ZM13.2932 56.6708H28.1164L14.2402 70.547C13.6341 71.1531 13.2932 71.9753 13.2932 72.8323V56.6708ZM34.9725 58.9561C35.5786 58.35 35.9195 57.5278 35.9195 56.6708H60.4396L46.5634 70.547C45.9573 71.1531 45.6164 71.9753 45.6164 72.8323H21.0962L34.9725 58.9561ZM195.667 26.8491C195.555 26.0079 195.117 25.244 194.448 24.7216L178.932 12.6809L193.656 10.8359L195.667 26.8491ZM13.2932 173.034V79.297H197.535V173.034H13.2932Z" fill="url(#paint0_linear)"/>
</g>
<path d="M131.32 118.547L82.8353 89.4563C81.8378 88.8566 80.5941 88.8392 79.5793 89.4137C78.566 89.9866 77.9395 91.0614 77.9395 92.2262V150.408C77.9395 151.573 78.566 152.648 79.5793 153.22C80.5941 153.793 81.8378 153.778 82.8353 153.178L131.32 124.087C132.292 123.503 132.887 122.45 132.887 121.317C132.887 120.182 132.292 119.131 131.32 118.547ZM84.4041 144.699V97.9333L123.375 121.317L84.4041 144.699Z" fill="url(#paint1_linear)"/>
<path d="M178.141 163.337H136.121C134.336 163.337 132.889 164.784 132.889 166.569C132.889 168.355 134.336 169.802 136.121 169.802H178.141C179.926 169.802 181.373 168.355 181.373 166.569C181.373 164.784 179.926 163.337 178.141 163.337Z" fill="url(#paint2_linear)"/>
<path d="M191.071 163.337H187.839C186.054 163.337 184.606 164.784 184.606 166.569C184.606 168.355 186.054 169.802 187.839 169.802H191.071C192.856 169.802 194.303 168.355 194.303 166.569C194.303 164.784 192.856 163.337 191.071 163.337Z" fill="url(#paint3_linear)"/>
<defs>
<filter id="filter0_d" x="0" y="0" width="208" height="183.499" filterUnits="userSpaceOnUse" color-interpolation-filters="sRGB">
<feFlood flood-opacity="0" result="BackgroundImageFix"/>
<feColorMatrix in="SourceAlpha" type="matrix" values="0 0 0 0 0 0 0 0 0 0 0 0 0 0 0 0 0 0 127 0"/>
<feOffset/>
<feGaussianBlur stdDeviation="2"/>
<feColorMatrix type="matrix" values="0 0 0 0 1 0 0 0 0 1 0 0 0 0 1 0 0 0 0.5 0"/>
<feBlend mode="normal" in2="BackgroundImageFix" result="effect1_dropShadow"/>
<feBlend mode="normal" in="SourceGraphic" in2="effect1_dropShadow" result="shape"/>
</filter>
<linearGradient id="paint0_linear" x1="12.0353" y1="195.595" x2="221.586" y2="-13.9558" gradientUnits="userSpaceOnUse">
<stop stop-color="#003F8A"/>
<stop offset="0.518" stop-color="#00D7DF"/>
<stop offset="1" stop-color="#006DF0"/>
</linearGradient>
<linearGradient id="paint1_linear" x1="14.3139" y1="197.871" x2="223.862" y2="-11.6803" gradientUnits="userSpaceOnUse">
<stop stop-color="#003F8A"/>
<stop offset="0.518" stop-color="#00D7DF"/>
<stop offset="1" stop-color="#006DF0"/>
</linearGradient>
<linearGradient id="paint2_linear" x1="70.0712" y1="253.628" x2="279.622" y2="44.0771" gradientUnits="userSpaceOnUse">
<stop stop-color="#003F8A"/>
<stop offset="0.518" stop-color="#00D7DF"/>
<stop offset="1" stop-color="#006DF0"/>
</linearGradient>
<linearGradient id="paint3_linear" x1="86.2335" y1="269.79" x2="295.785" y2="60.2387" gradientUnits="userSpaceOnUse">
<stop stop-color="#003F8A"/>
<stop offset="0.518" stop-color="#00D7DF"/>
<stop offset="1" stop-color="#006DF0"/>
</linearGradient>
</defs>
</svg>
